<?xml version="1.0" encoding="UTF-8" standalone="no"?>
<svg width="783px" height="95px" viewBox="0 0 783 95" version="1.1" xmlns="http://www.w3.org/2000/svg" xmlns:xlink="http://www.w3.org/1999/xlink" xmlns:sketch="http://www.bohemiancoding.com/sketch/ns">
    <!-- Generator: Sketch 3.3 (11970) - http://www.bohemiancoding.com/sketch -->
    <title>crossed-node-webkit</title>
    <desc>Created with Sketch.</desc>
    <defs>
        <path id="path-1" d="M0,88.7449692 L0,0 L330.554594,0 L330.554594,88.7449692 L0,88.7449692 L0,88.7449692 Z"></path>
    </defs>
    <g id="Page-1" stroke="none" stroke-width="1" fill="none" fill-rule="evenodd" sketch:type="MSPage">
        <g id="crossed-node-webkit" sketch:type="MSLayerGroup" transform="translate(5.000000, -2.000000)">
            <g id="Node-js-logo" transform="translate(44.000000, 0.000000)">
                <g id="g10" transform="translate(165.822650, 46.460000) scale(1, -1) translate(-165.822650, -46.460000) translate(0.000000, 1.344615)">
                    <g id="g12">
                        <g id="g14">
                            <g id="g16-Clipped">
                                <mask id="mask-2" sketch:name="path20" fill="white">
                                    <use xlink:href="#path-1"></use>
                                </mask>
                                <g id="path20"></g>
                                <g id="g16" mask="url(#mask-2)" sketch:type="MSShapeGroup">
                                    <path d="M49.5658974,41.5831154 C49.5658974,42.5416846 49.0609808,43.4229385 48.2309808,43.8983308 L26.117688,56.5939769 C25.7434786,56.8130077 25.3243996,56.9271231 24.8996453,56.9442846 L24.6710406,56.9442846 C24.2491239,56.9271231 23.8293355,56.8130077 23.450515,56.5939769 L1.33705551,43.8983308 C0.512652692,43.4229385 0,42.5416846 0,41.5831154 L0.0484943462,7.39759615 C0.0484943462,6.92211538 0.295815192,6.47980769 0.71494391,6.24690615 C1.12576021,6.00156692 1.63287071,6.00156692 2.04229658,6.24690615 L15.1835553,13.7536992 C16.0148855,14.2464477 16.5212919,15.1151754 16.5212919,16.0654469 L16.5212919,32.0368769 C16.5212919,32.9892538 17.0270244,33.8703308 17.8549316,34.3437769 L23.450515,37.5588231 C23.8674658,37.7992615 24.3232564,37.9167385 24.7888013,37.9167385 C25.2447692,37.9167385 25.712265,37.7992615 26.117688,37.5588231 L31.7118526,34.3437769 C32.5397244,33.8703308 33.0474786,32.9892538 33.0474786,32.0368769 L33.0474786,16.0654469 C33.0474786,15.1151754 33.5600214,14.2409277 34.3859423,13.7536992 L47.5244167,6.24690615 C47.9365791,6.00156692 48.4505406,6.00156692 48.8593333,6.24690615 C49.2667073,6.47980769 49.5229786,6.92211538 49.5229786,7.39759615 L49.5658974,41.5831154" id="path22" fill="#404137"></path>
                                    <path d="M165.594045,23.7830615 C165.594045,23.5452769 165.46653,23.3248308 165.259385,23.2066462 L157.66453,18.8387692 C157.458094,18.7205846 157.203774,18.7205846 156.997338,18.8387692 L149.401774,23.2066462 C149.195338,23.3248308 149.067823,23.5452769 149.067823,23.7830615 L149.067823,32.5324385 C149.067823,32.7695154 149.195338,32.9899615 149.401064,33.1095615 L156.996628,37.4855769 C157.203774,37.6051769 157.458094,37.6051769 157.665239,37.4855769 L165.260803,33.1095615 C165.46653,32.9899615 165.594045,32.7695154 165.594045,32.5324385 L165.594045,23.7830615 L165.594045,23.7830615 Z M167.645989,88.5761846 C167.232408,88.8063615 166.727491,88.8008769 166.318699,88.5616769 C165.910615,88.3226538 165.659842,87.8851231 165.659842,87.4130923 L165.659842,53.5579769 C165.659842,53.2255385 165.481073,52.9173385 165.192878,52.7506769 C164.903974,52.5834846 164.547323,52.5834846 164.257709,52.7506769 L158.718878,55.9338769 C157.893135,56.4087385 156.876207,56.4080308 156.050286,55.9333462 L133.927949,43.1968308 C133.100786,42.7207308 132.592323,41.8416 132.592323,40.8892231 L132.592323,15.4116631 C132.592323,14.4600115 133.100786,13.5802262 133.927239,13.1033654 L156.048335,0.357993231 C156.875498,-0.118179131 157.893844,-0.118179131 158.721006,0.357993231 L180.846004,13.1033654 C181.672457,13.5802262 182.181453,14.4600115 182.181453,15.4116631 L182.181453,78.9207846 C182.181453,79.8869615 181.656496,80.7770615 180.810534,81.2483846 L167.645989,88.5761846 L167.645989,88.5761846 Z" id="path24" fill="#404137"></path>
                                    <path d="M246.791987,32.7612 C247.614893,33.2380077 248.120342,34.1157231 248.120342,35.0652692 L248.120342,41.239 C248.120342,42.1885462 247.614893,43.0669692 246.790214,43.5437769 L224.811175,56.2753385 C223.982949,56.7542692 222.963184,56.7549769 222.133184,56.2788769 L200.019359,43.5423615 C199.192906,43.0662615 198.68391,42.1871308 198.68391,41.2347538 L198.68391,15.7641292 C198.68391,14.80625 199.2,13.9223246 200.033547,13.4489138 L222.010812,0.956490385 C222.821303,0.494832615 223.814466,0.489993769 224.630278,0.941977385 L237.922692,8.31262462 C238.344786,8.54621615 238.607265,8.98783385 238.609038,9.46814462 C238.612585,9.94847308 238.355427,10.3935408 237.938654,10.63267 L215.684722,23.3752538 C215.267949,23.6123308 215.012564,24.0539308 215.012564,24.5307385 L215.012564,32.5131538 C215.012564,32.9892538 215.267949,33.4294385 215.681175,33.6672231 L222.608483,37.6508231 C223.019936,37.8884308 223.528932,37.8884308 223.942158,37.6508231 L230.871239,33.6672231 C231.284466,33.4294385 231.53985,32.9892538 231.53985,32.5131538 L231.53985,26.2329154 C231.53985,25.7561077 231.795235,25.3152154 232.208462,25.0774308 C232.623462,24.8391154 233.132457,24.8410615 233.545684,25.0802615 L246.791987,32.7612" id="path26" fill="#404137"></path>
                                    <path d="M89.7926987,56.4122769 C90.6184423,56.8883769 91.6367885,56.8883769 92.4625321,56.4122769 L114.582209,43.6785923 C115.409372,43.2030231 115.918545,42.3233615 115.918545,41.3702769 L115.918545,15.8836762 C115.918545,14.9313346 115.409372,14.0522569 114.583628,13.5753962 L92.4639509,0.831400462 C91.6367885,0.355227923 90.6184423,0.355227923 89.7912799,0.831400462 L67.6772778,13.5753962 C66.8506474,14.0522569 66.3414744,14.9313346 66.3414744,15.8836762 L66.3414744,41.3716923 C66.3414744,42.3233615 66.8506474,43.2030231 67.6778098,43.6785923 L89.7926987,56.4122769" id="path28" fill="#83CD29"></path>
                                    <path d="M289.739167,0.467186615 C288.97656,0.467186615 288.219274,0.666225077 287.552436,1.05117254 L280.587885,5.16187231 C279.548611,5.74239231 280.055833,5.94765846 280.39812,6.06722308 C281.786774,6.54753385 282.066987,6.65811077 283.547863,7.49573538 C283.702158,7.58212692 283.906111,7.54964385 284.065726,7.45633462 L289.414615,4.28762462 C289.609701,4.18049769 289.882821,4.18049769 290.061944,4.28762462 L310.918355,16.2969685 C311.11344,16.4075454 311.237585,16.6307692 311.237585,16.8602208 L311.237585,40.8727692 C311.237585,41.1077231 311.11344,41.3274615 310.914808,41.4463538 L290.065491,53.4459846 C289.872179,53.5579769 289.616795,53.5579769 289.421709,53.4459846 L268.577714,41.4428154 C268.375534,41.3274615 268.247842,41.1008231 268.247842,40.8727692 L268.247842,16.8602208 C268.247842,16.6307692 268.375534,16.4130654 268.57594,16.3038685 L274.290171,13.0107638 C277.390256,11.4647569 279.289679,13.2858262 279.289679,15.1151754 L279.289679,38.8236462 C279.289679,39.1587385 279.559252,39.4234154 279.894444,39.4234154 L282.540513,39.4234154 C282.870385,39.4234154 283.143504,39.1587385 283.143504,38.8236462 L283.143504,15.1151754 C283.143504,10.9878962 280.891154,8.62086 276.968162,8.62086 C275.762179,8.62086 274.813355,8.62086 272.163739,9.92358 L266.694252,13.0646723 C265.342842,13.8435408 264.507521,15.3003962 264.507521,16.8602208 L264.507521,40.8727692 C264.507521,42.4332308 265.342842,43.8893077 266.694252,44.6654692 L287.552436,56.6886308 C288.871923,57.4336538 290.625919,57.4336538 291.934765,56.6886308 L312.791175,44.6654692 C314.142585,43.8859462 314.981453,42.4332308 314.981453,40.8727692 L314.981453,16.8602208 C314.981453,15.3003962 314.142585,13.8490608 312.791175,13.0646723 L291.934765,1.05117254 C291.267927,0.666225077 290.512415,0.467186615 289.739167,0.467186615" id="path30" fill="#83CD29"></path>
                                    <path d="M296.182308,17.0108708 C287.054081,17.0108708 285.142244,21.1900769 285.142244,24.6959846 C285.142244,25.0291308 285.411816,25.2952231 285.745235,25.2952231 L288.442735,25.2952231 C288.744231,25.2952231 288.994295,25.0795538 289.042179,24.7858615 C289.448312,22.0469154 290.663162,20.6647923 296.182308,20.6647923 C300.575278,20.6647923 302.446325,21.6564462 302.446325,23.9821 C302.446325,25.3228231 301.916047,26.3180154 295.088056,26.9848385 C289.380919,27.5481615 285.851645,28.8059077 285.851645,33.3604385 C285.851645,37.5588231 289.398654,40.0626385 295.345214,40.0626385 C302.027778,40.0626385 305.33359,37.7488385 305.752137,32.7854385 C305.768098,32.614 305.707799,32.4501692 305.594295,32.3222538 C305.479017,32.2028308 305.319402,32.1301154 305.152692,32.1301154 L302.444551,32.1301154 C302.164338,32.1301154 301.916047,32.3291538 301.859295,32.6002 C301.210192,35.4821 299.63,36.4033385 295.345214,36.4033385 C290.547885,36.4033385 289.991004,34.7356615 289.991004,33.4867615 C289.991004,31.9733615 290.648974,31.5324692 297.125812,30.6775769 C303.535256,29.8322385 306.580363,28.6353538 306.580363,24.1409769 C306.580363,19.6073231 302.790385,17.0108708 296.182308,17.0108708" id="path32" fill="#83CD29"></path>
                                    <path d="M324.943226,56.6334308 L324.943226,56.0168538 L323.187457,56.0168538 L323.187457,51.4534769 L322.479829,51.4534769 L322.479829,56.0168538 L320.731154,56.0168538 L320.731154,56.6334308 L324.943226,56.6334308" id="path34" fill="#83CD29"></path>
                                    <path d="M325.569274,56.6334308 L326.578397,56.6334308 L328.068141,52.2551154 L329.552564,56.6334308 L330.554594,56.6334308 L330.554594,51.4534769 L329.882436,51.4534769 L329.882436,54.5103538 C329.882436,54.6173923 329.884209,54.7914846 329.887756,55.0335154 C329.89485,55.2822692 329.898397,55.5448231 329.898397,55.8233 L328.413974,51.4534769 L327.716987,51.4534769 L326.22015,55.8233 L326.22015,55.6679615 C326.22015,55.5400462 326.22015,55.3464923 326.229017,55.0839385 C326.234338,54.8261615 326.241432,54.6347308 326.241432,54.5103538 L326.241432,51.4534769 L325.569274,51.4534769 L325.569274,56.6334308" id="path36" fill="#83CD29"></path>
                                    <path d="M223.145855,33.9540154 C223.30547,34.0460154 223.500556,34.0460154 223.658397,33.9540154 L227.904167,31.5108846 C228.062009,31.4197692 228.159551,31.2511615 228.159551,31.0680462 L228.159551,26.1784231 C228.159551,25.9953077 228.062009,25.8267 227.904167,25.7354077 L223.658397,23.2922769 C223.500556,23.2004538 223.30547,23.2004538 223.145855,23.2922769 L218.905406,25.7354077 C218.745791,25.8267 218.648248,25.9953077 218.648248,26.1784231 L218.648248,31.0680462 C218.648248,31.2511615 218.745791,31.4197692 218.905406,31.5108846 L223.145855,33.9540154" id="path38" fill="#83CD29"></path>
                                </g>
                            </g>
                        </g>
                    </g>
                </g>
            </g>
            <text id="WebKit" sketch:type="MSTextLayer" font-family="Orbitron" font-size="82" font-weight="260" fill="#F6A623">
                <tspan x="430" y="85">WebKit</tspan>
            </text>
            <path d="M0.5,42.5 L377.5,91.5" id="Line" stroke="#FF0000" stroke-width="9" stroke-linecap="square" sketch:type="MSShapeGroup"></path>
            <path d="M395.5,36.5 L772.5,85.5" id="Line-Copy-2" stroke="#FF0000" stroke-width="9" stroke-linecap="square" sketch:type="MSShapeGroup"></path>
        </g>
    </g>
</svg>