<?xml version="1.0" encoding="UTF-8" standalone="no"?><svg xmlns="http://www.w3.org/2000/svg" xmlns:xlink="http://www.w3.org/1999/xlink" clip-rule="evenodd" stroke-miterlimit="10" viewBox="0 0 1024 768"><desc>SVG generated by Keynote</desc><defs></defs><g transform="matrix(1.00, 0.00, -0.00, -1.00, 0.0, 768.0)"><path d="M 0.0 768.0 L 1024.0 768.0 L 1024.0 0.0 L 0.0 0.0 Z M 0.0 768.0 " fill="#FEFFFE"></path><image xlink:href="../../1CF6D183-B342-42CA-A072-DF8166BDC6D3/assets/559D549D883F81634C41524199E0BA11.png" width="1030.00" height="515.00" transform="matrix(0.99, 0.00, -0.00, -0.99, 11.0, 619.0)"></image><text xml:space="preserve" font-family="GillSans,Gill Sans" font-size="65.0" fill="#1AAFFA" transform="matrix(1.00, 0.00, -0.00, -1.00, 97.2, 656.7)">f</text><text xml:space="preserve" font-family="GillSans,Gill Sans" font-size="65.0" fill="#1AAFFA" transform="matrix(1.00, 0.00, -0.00, -1.00, 112.8, 656.7)">e</text><text xml:space="preserve" font-family="GillSans,Gill Sans" font-size="65.0" fill="#1AAFFA" transform="matrix(1.00, 0.00, -0.00, -1.00, 144.0, 656.7)">e</text><text xml:space="preserve" font-family="GillSans,Gill Sans" font-size="65.0" fill="#1AAFFA" transform="matrix(1.00, 0.00, -0.00, -1.00, 175.1, 656.7)">d</text><text xml:space="preserve" font-family="GillSans,Gill Sans" font-size="65.0" fill="#1AAFFA" transform="matrix(1.00, 0.00, -0.00, -1.00, 208.2, 656.7)">t</text><text xml:space="preserve" font-family="GillSans,Gill Sans" font-size="65.0" fill="#1AAFFA" transform="matrix(1.00, 0.00, -0.00, -1.00, 229.9, 656.7)">h</text><text xml:space="preserve" font-family="GillSans,Gill Sans" font-size="65.0" fill="#1AAFFA" transform="matrix(1.00, 0.00, -0.00, -1.00, 262.4, 656.7)">e</text><text xml:space="preserve" font-family="GillSans,Gill Sans" font-size="65.0" fill="#1AAFFA" transform="matrix(1.00, 0.00, -0.00, -1.00, 293.5, 656.7)">b</text><text xml:space="preserve" font-family="GillSans,Gill Sans" font-size="65.0" fill="#1AAFFA" transform="matrix(1.00, 0.00, -0.00, -1.00, 326.0, 656.7)">o</text><text xml:space="preserve" font-family="GillSans,Gill Sans" font-size="65.0" fill="#1AAFFA" transform="matrix(1.00, 0.00, -0.00, -1.00, 361.9, 656.7)">t</text><text xml:space="preserve" font-family="GillSans,Gill Sans" font-size="65.0" fill="#1AAFFA" transform="matrix(1.00, 0.00, -0.00, -1.00, 383.5, 656.7)">.</text><text xml:space="preserve" font-family="GillSans,Gill Sans" font-size="65.0" fill="#1AAFFA" transform="matrix(1.00, 0.00, -0.00, -1.00, 397.8, 656.7)">c</text><text xml:space="preserve" font-family="GillSans,Gill Sans" font-size="65.0" fill="#1AAFFA" transform="matrix(1.00, 0.00, -0.00, -1.00, 426.2, 656.7)">o</text><text xml:space="preserve" font-family="GillSans,Gill Sans" font-size="65.0" fill="#1AAFFA" transform="matrix(1.00, 0.00, -0.00, -1.00, 462.1, 656.7)">m</text><text xml:space="preserve" font-family="GillSans,Gill Sans" font-size="65.0" fill="#1AAFFA" transform="matrix(1.00, 0.00, -0.00, -1.00, 512.2, 656.7)">/</text><text xml:space="preserve" font-family="GillSans,Gill Sans" font-size="65.0" fill="#1AAFFA" transform="matrix(1.00, 0.00, -0.00, -1.00, 530.4, 656.7)">t</text><text xml:space="preserve" font-family="GillSans,Gill Sans" font-size="65.0" fill="#1AAFFA" transform="matrix(1.00, 0.00, -0.00, -1.00, 552.1, 656.7)">o</text><text xml:space="preserve" font-family="GillSans,Gill Sans" font-size="65.0" fill="#1AAFFA" transform="matrix(1.00, 0.00, -0.00, -1.00, 587.9, 656.7)">o</text><text xml:space="preserve" font-family="GillSans,Gill Sans" font-size="65.0" fill="#1AAFFA" transform="matrix(1.00, 0.00, -0.00, -1.00, 623.8, 656.7)">l</text><text xml:space="preserve" font-family="GillSans,Gill Sans" font-size="65.0" fill="#1AAFFA" transform="matrix(1.00, 0.00, -0.00, -1.00, 638.0, 656.7)">s</text><text xml:space="preserve" font-family="GillSans,Gill Sans" font-size="65.0" fill="#1AAFFA" transform="matrix(1.00, 0.00, -0.00, -1.00, 663.0, 656.7)">/</text><text xml:space="preserve" font-family="GillSans,Gill Sans" font-size="65.0" fill="#1AAFFA" transform="matrix(1.00, 0.00, -0.00, -1.00, 681.3, 656.7)">r</text><text xml:space="preserve" font-family="GillSans,Gill Sans" font-size="65.0" fill="#1AAFFA" transform="matrix(1.00, 0.00, -0.00, -1.00, 705.7, 656.7)">e</text><text xml:space="preserve" font-family="GillSans,Gill Sans" font-size="65.0" fill="#1AAFFA" transform="matrix(1.00, 0.00, -0.00, -1.00, 736.9, 656.7)">q</text><text xml:space="preserve" font-family="GillSans,Gill Sans" font-size="65.0" fill="#1AAFFA" transform="matrix(1.00, 0.00, -0.00, -1.00, 769.4, 656.7)">u</text><text xml:space="preserve" font-family="GillSans,Gill Sans" font-size="65.0" fill="#1AAFFA" transform="matrix(1.00, 0.00, -0.00, -1.00, 801.9, 656.7)">e</text><text xml:space="preserve" font-family="GillSans,Gill Sans" font-size="65.0" fill="#1AAFFA" transform="matrix(1.00, 0.00, -0.00, -1.00, 833.0, 656.7)">s</text><text xml:space="preserve" font-family="GillSans,Gill Sans" font-size="65.0" fill="#1AAFFA" transform="matrix(1.00, 0.00, -0.00, -1.00, 858.0, 656.7)">t</text><text xml:space="preserve" font-family="GillSans,Gill Sans" font-size="65.0" fill="#1AAFFA" transform="matrix(1.00, 0.00, -0.00, -1.00, 879.6, 656.7)">s</text><g><clipPath id="clip0x7fecab159890"><path d="M 96.2 649.2 L 904.7 649.2 L 904.7 654.4 L 96.2 654.4 Z M 96.2 649.2 "></path></clipPath><g clip-path="url(#clip0x7fecab159890)"><path d="M 2.6 67.0 L 810.2 67.0 " fill="none" stroke="#1AAFFA" stroke-width="3.24" transform="matrix(1.00, 0.00, 0.00, -1.00, 94.6, 718.8)"></path></g></g></g></svg>