<?xml version="1.0" encoding="UTF-8" standalone="no"?><svg xmlns="http://www.w3.org/2000/svg" xmlns:xlink="http://www.w3.org/1999/xlink" clip-rule="evenodd" stroke-miterlimit="10" viewBox="0 0 1024 768"><desc>SVG generated by Keynote</desc><defs></defs><g transform="matrix(1.00, 0.00, -0.00, -1.00, 0.0, 768.0)"><path d="M 0.0 768.0 L 1024.0 768.0 L 1024.0 0.0 L 0.0 0.0 Z M 0.0 768.0 " fill="#FEFFFE"></path><image xlink:href="../../2C88D761-DC04-45EA-AEDE-0570F7F08585/assets/D9D73C7419228910C5DC5521FD784B78.png" width="978.00" height="622.00" transform="matrix(1.00, 0.00, -0.00, -1.00, 23.0, 695.0)"></image><image xlink:href="../../FEC7BC14-E5E5-47EA-9803-D612E0D33ACE/assets/9C3BE53A666A110F8C38BE3878808F82.png" width="508.00" height="159.00" transform="matrix(1.00, 0.00, -0.00, -1.00, 258.0, 451.0)"></image><text xml:space="preserve" font-family="BebasNeueCyrillic,Bebas Neue Cyrillic" font-size="180.0" fill="#FF3156" transform="matrix(1.00, 0.00, -0.00, -1.00, 266.5, 322.4)">P</text><text xml:space="preserve" font-family="BebasNeueCyrillic,Bebas Neue Cyrillic" font-size="180.0" fill="#FF3156" transform="matrix(1.00, 0.00, -0.00, -1.00, 334.4, 322.4)">i</text><text xml:space="preserve" font-family="BebasNeueCyrillic,Bebas Neue Cyrillic" font-size="180.0" fill="#FF3156" transform="matrix(1.00, 0.00, -0.00, -1.00, 368.5, 322.4)">n</text><text xml:space="preserve" font-family="BebasNeueCyrillic,Bebas Neue Cyrillic" font-size="180.0" fill="#FF3156" transform="matrix(1.00, 0.00, -0.00, -1.00, 445.3, 322.4)">g</text><text xml:space="preserve" font-family="BebasNeueCyrillic,Bebas Neue Cyrillic" font-size="180.0" fill="#FF3156" transform="matrix(1.00, 0.00, -0.00, -1.00, 515.4, 322.4)">d</text><text xml:space="preserve" font-family="BebasNeueCyrillic,Bebas Neue Cyrillic" font-size="180.0" fill="#FF3156" transform="matrix(1.00, 0.00, -0.00, -1.00, 588.7, 322.4)">o</text><text xml:space="preserve" font-family="BebasNeueCyrillic,Bebas Neue Cyrillic" font-size="180.0" fill="#FF3156" transform="matrix(1.00, 0.00, -0.00, -1.00, 660.0, 322.4)">m</text></g></svg>