<?xml version="1.0" encoding="UTF-8" standalone="no"?><svg xmlns="http://www.w3.org/2000/svg" xmlns:xlink="http://www.w3.org/1999/xlink" clip-rule="evenodd" stroke-miterlimit="10" viewBox="0 0 1024 768"><desc>SVG generated by Keynote</desc><defs></defs><g transform="matrix(1.00, 0.00, -0.00, -1.00, 0.0, 768.0)"><g><clipPath id="clip0x7fecae1337f0"><path d="M 0.0 768.0 L 1024.0 768.0 L 1024.0 0.0 L 0.0 0.0 Z M 0.0 768.0 "></path></clipPath><g clip-path="url(#clip0x7fecae1337f0)"><image xlink:href="64E249414AC314DE9A0A800FF9D6433B.png" width="1280.00" height="720.00" transform="matrix(1.07, 0.00, -0.00, -1.07, -170.7, 768.0)"></image></g></g><path d="M 39.0 585.0 L 437.0 585.0 L 437.0 536.0 L 39.0 536.0 Z M 38.9 585.1 " fill="#D72041"></path><g><clipPath id="clip0x7fecae134b20"><path d="M 34.5 536.0 L 441.8 536.0 L 441.8 585.5 L 34.5 585.5 Z M 34.5 536.0 "></path></clipPath><g clip-path="url(#clip0x7fecae134b20)"><text xml:space="preserve" font-family="ISOCPEUR,ISOCPEUR" font-size="34.0" fill="#FFFFFF" transform="matrix(1.00, 0.00, -0.00, -1.00, 117.6, 550.0)">@</text><text xml:space="preserve" font-family="ISOCPEUR,ISOCPEUR" font-size="34.0" fill="#FFFFFF" transform="matrix(1.00, 0.00, -0.00, -1.00, 141.7, 550.0)">n</text><text xml:space="preserve" font-family="ISOCPEUR,ISOCPEUR" font-size="34.0" fill="#FFFFFF" transform="matrix(1.00, 0.00, -0.00, -1.00, 157.1, 550.0)">e</text><text xml:space="preserve" font-family="ISOCPEUR,ISOCPEUR" font-size="34.0" fill="#FFFFFF" transform="matrix(1.00, 0.00, -0.00, -1.00, 172.4, 550.0)">d</text><text xml:space="preserve" font-family="ISOCPEUR,ISOCPEUR" font-size="34.0" fill="#FFFFFF" transform="matrix(1.00, 0.00, -0.00, -1.00, 187.8, 550.0)">u</text><text xml:space="preserve" font-family="ISOCPEUR,ISOCPEUR" font-size="34.0" fill="#FFFFFF" transform="matrix(1.00, 0.00, -0.00, -1.00, 203.1, 550.0)">d</text><text xml:space="preserve" font-family="ISOCPEUR,ISOCPEUR" font-size="34.0" fill="#FFFFFF" transform="matrix(1.00, 0.00, -0.00, -1.00, 218.5, 550.0)"> </text><text xml:space="preserve" font-family="ISOCPEUR,ISOCPEUR" font-size="34.0" fill="#FFFFFF" transform="matrix(1.00, 0.00, -0.00, -1.00, 231.6, 550.0)">@</text><text xml:space="preserve" font-family="ISOCPEUR,ISOCPEUR" font-size="34.0" fill="#FFFFFF" transform="matrix(1.00, 0.00, -0.00, -1.00, 255.7, 550.0)">h</text><text xml:space="preserve" font-family="ISOCPEUR,ISOCPEUR" font-size="34.0" fill="#FFFFFF" transform="matrix(1.00, 0.00, -0.00, -1.00, 271.1, 550.0)">t</text><text xml:space="preserve" font-family="ISOCPEUR,ISOCPEUR" font-size="34.0" fill="#FFFFFF" transform="matrix(1.00, 0.00, -0.00, -1.00, 284.2, 550.0)">m</text><text xml:space="preserve" font-family="ISOCPEUR,ISOCPEUR" font-size="34.0" fill="#FFFFFF" transform="matrix(1.00, 0.00, -0.00, -1.00, 303.9, 550.0)">l</text><text xml:space="preserve" font-family="ISOCPEUR,ISOCPEUR" font-size="34.0" fill="#FFFFFF" transform="matrix(1.00, 0.00, -0.00, -1.00, 312.7, 550.0)">5</text><text xml:space="preserve" font-family="ISOCPEUR,ISOCPEUR" font-size="34.0" fill="#FFFFFF" transform="matrix(1.00, 0.00, -0.00, -1.00, 328.0, 550.0)">b</text><text xml:space="preserve" font-family="ISOCPEUR,ISOCPEUR" font-size="34.0" fill="#FFFFFF" transform="matrix(1.00, 0.00, -0.00, -1.00, 343.4, 550.0)">y</text><text xml:space="preserve" font-family="ISOCPEUR,ISOCPEUR" font-size="34.0" fill="#FFFFFF" transform="matrix(1.00, 0.00, -0.00, -1.00, 358.7, 550.0)"> </text></g></g><text xml:space="preserve" font-family="BebasNeueRegular,Bebas Neue" font-size="120.0" fill="#FFFFFF" transform="matrix(1.00, 0.00, -0.00, -1.00, 35.5, 624.7)">В</text><text xml:space="preserve" font-family="BebasNeueRegular,Bebas Neue" font-size="120.0" fill="#FFFFFF" transform="matrix(1.00, 0.00, -0.00, -1.00, 82.6, 624.7)">о</text><text xml:space="preserve" font-family="BebasNeueRegular,Bebas Neue" font-size="120.0" fill="#FFFFFF" transform="matrix(1.00, 0.00, -0.00, -1.00, 129.3, 624.7)">п</text><text xml:space="preserve" font-family="BebasNeueRegular,Bebas Neue" font-size="120.0" fill="#FFFFFF" transform="matrix(1.00, 0.00, -0.00, -1.00, 178.2, 624.7)">р</text><text xml:space="preserve" font-family="BebasNeueRegular,Bebas Neue" font-size="120.0" fill="#FFFFFF" transform="matrix(1.00, 0.00, -0.00, -1.00, 222.7, 624.7)">о</text><text xml:space="preserve" font-family="BebasNeueRegular,Bebas Neue" font-size="120.0" fill="#FFFFFF" transform="matrix(1.00, 0.00, -0.00, -1.00, 269.4, 624.7)">с</text><text xml:space="preserve" font-family="BebasNeueRegular,Bebas Neue" font-size="120.0" fill="#FFFFFF" transform="matrix(1.00, 0.00, -0.00, -1.00, 315.0, 624.7)">ы</text><text xml:space="preserve" font-family="BebasNeueRegular,Bebas Neue" font-size="120.0" fill="#FFFFFF" transform="matrix(1.00, 0.00, -0.00, -1.00, 378.9, 624.7)"> </text><text xml:space="preserve" font-family="BebasNeueRegular,Bebas Neue" font-size="120.0" fill="#FFFFFF" transform="matrix(1.00, 0.00, -0.00, -1.00, 397.5, 624.7)">?</text><path d="M 98.4 268.0 C 104.8 261.6 104.8 251.1 98.4 244.7 C 91.9 238.2 81.5 238.2 75.0 244.7 C 68.6 251.1 68.6 261.6 75.0 268.0 C 81.5 274.5 91.9 274.5 98.4 268.0 " fill="#D5D5D5"></path><path d="M 28.2 4.8 C 34.7 11.3 34.7 21.8 28.2 28.2 C 21.8 34.7 11.3 34.7 4.8 28.2 C -1.6 21.8 -1.6 11.3 4.8 4.8 C 11.3 -1.6 21.8 -1.6 28.2 4.8 " fill="none" stroke="#000000" stroke-opacity="0.00" stroke-width="1.00" transform="matrix(1.00, 0.00, 0.00, -1.00, 70.2, 272.9)"></path><path d="M 139.6 313.2 C 143.6 309.2 143.6 302.7 139.6 298.7 C 135.6 294.6 129.0 294.6 125.0 298.7 C 121.0 302.7 121.0 309.2 125.0 313.2 C 129.0 317.3 135.6 317.3 139.6 313.2 " fill="#D5D5D5"></path><path d="M 17.6 3.0 C 21.6 7.0 21.6 13.6 17.6 17.6 C 13.6 21.6 7.0 21.6 3.0 17.6 C -1.0 13.6 -1.0 7.0 3.0 3.0 C 7.0 -1.0 13.6 -1.0 17.6 3.0 " fill="none" stroke="#000000" stroke-opacity="0.00" stroke-width="1.00" transform="matrix(1.00, 0.00, 0.00, -1.00, 122.0, 316.3)"></path><path d="M 189.8 304.2 C 193.3 300.8 193.3 295.1 189.8 291.7 C 186.3 288.2 180.7 288.2 177.2 291.7 C 173.7 295.1 173.7 300.8 177.2 304.2 C 180.7 307.7 186.3 307.7 189.8 304.2 " fill="#D5D5D5"></path><path d="M 15.2 2.6 C 18.6 6.1 18.6 11.7 15.2 15.2 C 11.7 18.6 6.1 18.6 2.6 15.2 C -0.9 11.7 -0.9 6.1 2.6 2.6 C 6.1 -0.9 11.7 -0.9 15.2 2.6 " fill="none" stroke="#000000" stroke-opacity="0.00" stroke-width="1.00" transform="matrix(1.00, 0.00, 0.00, -1.00, 174.6, 306.8)"></path><path d="M 224.0 324.9 C 225.8 323.1 225.8 320.1 224.0 318.3 C 222.1 316.5 219.2 316.5 217.4 318.3 C 215.6 320.1 215.6 323.1 217.4 324.9 C 219.2 326.7 222.1 326.7 224.0 324.9 " fill="#D5D5D5"></path><path d="M 7.9 1.4 C 9.8 3.2 9.8 6.1 7.9 7.9 C 6.1 9.8 3.2 9.8 1.4 7.9 C -0.5 6.1 -0.5 3.2 1.4 1.4 C 3.2 -0.5 6.1 -0.5 7.9 1.4 " fill="none" stroke="#000000" stroke-opacity="0.00" stroke-width="1.00" transform="matrix(1.00, 0.00, 0.00, -1.00, 216.0, 326.2)"></path><path d="M 241.7 354.3 C 242.4 353.6 242.4 352.5 241.7 351.7 C 241.0 351.0 239.8 351.0 239.1 351.7 C 238.4 352.5 238.4 353.6 239.1 354.3 C 239.8 355.0 241.0 355.0 241.7 354.3 " fill="#D5D5D5"></path><path d="M 3.1 0.5 C 3.8 1.2 3.8 2.4 3.1 3.1 C 2.4 3.8 1.2 3.8 0.5 3.1 C -0.2 2.4 -0.2 1.2 0.5 0.5 C 1.2 -0.2 2.4 -0.2 3.1 0.5 " fill="none" stroke="#000000" stroke-opacity="0.00" stroke-width="1.00" transform="matrix(1.00, 0.00, 0.00, -1.00, 238.6, 354.9)"></path><text xml:space="preserve" font-family="ISOCPEUR,ISOCPEUR" font-size="40.0" fill="#FFFFFF" transform="matrix(1.00, 0.00, -0.00, -1.00, 671.8, 651.3)">n</text><text xml:space="preserve" font-family="ISOCPEUR,ISOCPEUR" font-size="40.0" fill="#FFFFFF" transform="matrix(1.00, 0.00, -0.00, -1.00, 689.9, 651.3)">e</text><text xml:space="preserve" font-family="ISOCPEUR,ISOCPEUR" font-size="40.0" fill="#FFFFFF" transform="matrix(1.00, 0.00, -0.00, -1.00, 707.9, 651.3)">d</text><text xml:space="preserve" font-family="ISOCPEUR,ISOCPEUR" font-size="40.0" fill="#FFFFFF" transform="matrix(1.00, 0.00, -0.00, -1.00, 726.0, 651.3)">u</text><text xml:space="preserve" font-family="ISOCPEUR,ISOCPEUR" font-size="40.0" fill="#FFFFFF" transform="matrix(1.00, 0.00, -0.00, -1.00, 744.0, 651.3)">d</text><text xml:space="preserve" font-family="ISOCPEUR,ISOCPEUR" font-size="40.0" fill="#FFFFFF" transform="matrix(1.00, 0.00, -0.00, -1.00, 762.1, 651.3)">i</text><text xml:space="preserve" font-family="ISOCPEUR,ISOCPEUR" font-size="40.0" fill="#FFFFFF" transform="matrix(1.00, 0.00, -0.00, -1.00, 769.8, 651.3)">@</text><text xml:space="preserve" font-family="ISOCPEUR,ISOCPEUR" font-size="40.0" fill="#FFFFFF" transform="matrix(1.00, 0.00, -0.00, -1.00, 798.2, 651.3)">g</text><text xml:space="preserve" font-family="ISOCPEUR,ISOCPEUR" font-size="40.0" fill="#FFFFFF" transform="matrix(1.00, 0.00, -0.00, -1.00, 816.2, 651.3)">m</text><text xml:space="preserve" font-family="ISOCPEUR,ISOCPEUR" font-size="40.0" fill="#FFFFFF" transform="matrix(1.00, 0.00, -0.00, -1.00, 839.5, 651.3)">a</text><text xml:space="preserve" font-family="ISOCPEUR,ISOCPEUR" font-size="40.0" fill="#FFFFFF" transform="matrix(1.00, 0.00, -0.00, -1.00, 857.5, 651.3)">i</text><text xml:space="preserve" font-family="ISOCPEUR,ISOCPEUR" font-size="40.0" fill="#FFFFFF" transform="matrix(1.00, 0.00, -0.00, -1.00, 865.3, 651.3)">l</text><text xml:space="preserve" font-family="ISOCPEUR,ISOCPEUR" font-size="40.0" fill="#FFFFFF" transform="matrix(1.00, 0.00, -0.00, -1.00, 875.6, 651.3)">.</text><text xml:space="preserve" font-family="ISOCPEUR,ISOCPEUR" font-size="40.0" fill="#FFFFFF" transform="matrix(1.00, 0.00, -0.00, -1.00, 883.3, 651.3)">c</text><text xml:space="preserve" font-family="ISOCPEUR,ISOCPEUR" font-size="40.0" fill="#FFFFFF" transform="matrix(1.00, 0.00, -0.00, -1.00, 898.8, 651.3)">o</text><text xml:space="preserve" font-family="ISOCPEUR,ISOCPEUR" font-size="40.0" fill="#FFFFFF" transform="matrix(1.00, 0.00, -0.00, -1.00, 916.8, 651.3)">m</text><g><clipPath id="clip0x7fecae25b6c0"><path d="M 670.8 643.8 L 939.9 643.8 L 939.9 648.4 L 670.8 648.4 Z M 670.8 643.8 "></path></clipPath><g clip-path="url(#clip0x7fecae25b6c0)"><path d="M 2.1 40.6 L 270.3 40.6 " fill="none" stroke="#FFFFFF" stroke-width="2.58" transform="matrix(1.00, 0.00, 0.00, -1.00, 669.7, 686.7)"></path></g></g><text xml:space="preserve" font-family="ISOCPEUR,ISOCPEUR" font-size="40.0" fill="#FFFFFF" transform="matrix(1.00, 0.00, -0.00, -1.00, 670.5, 580.7)">h</text><text xml:space="preserve" font-family="ISOCPEUR,ISOCPEUR" font-size="40.0" fill="#FFFFFF" transform="matrix(1.00, 0.00, -0.00, -1.00, 688.5, 580.7)">t</text><text xml:space="preserve" font-family="ISOCPEUR,ISOCPEUR" font-size="40.0" fill="#FFFFFF" transform="matrix(1.00, 0.00, -0.00, -1.00, 704.0, 580.7)">m</text><text xml:space="preserve" font-family="ISOCPEUR,ISOCPEUR" font-size="40.0" fill="#FFFFFF" transform="matrix(1.00, 0.00, -0.00, -1.00, 727.2, 580.7)">l</text><text xml:space="preserve" font-family="ISOCPEUR,ISOCPEUR" font-size="40.0" fill="#FFFFFF" transform="matrix(1.00, 0.00, -0.00, -1.00, 737.5, 580.7)">5</text><text xml:space="preserve" font-family="ISOCPEUR,ISOCPEUR" font-size="40.0" fill="#FFFFFF" transform="matrix(1.00, 0.00, -0.00, -1.00, 755.6, 580.7)">.</text><text xml:space="preserve" font-family="ISOCPEUR,ISOCPEUR" font-size="40.0" fill="#FFFFFF" transform="matrix(1.00, 0.00, -0.00, -1.00, 763.3, 580.7)">b</text><text xml:space="preserve" font-family="ISOCPEUR,ISOCPEUR" font-size="40.0" fill="#FFFFFF" transform="matrix(1.00, 0.00, -0.00, -1.00, 781.3, 580.7)">y</text><g><clipPath id="clip0x7fecae066cc0"><path d="M 669.5 573.3 L 799.4 573.3 L 799.4 577.9 L 669.5 577.9 Z M 669.5 573.3 "></path></clipPath><g clip-path="url(#clip0x7fecae066cc0)"><path d="M 2.1 40.6 L 131.0 40.6 " fill="none" stroke="#FFFFFF" stroke-width="2.58" transform="matrix(1.00, 0.00, 0.00, -1.00, 668.3, 616.1)"></path></g></g><image xlink:href="F969058EA293B19CD07D0E11FD18C25B.png" width="32.00" height="32.00" transform="matrix(1.44, 0.00, -0.00, -1.41, 609.0, 685.0)"></image><image xlink:href="15C4A27C01C3C96CE29B0A598B70A34D.png" width="32.00" height="32.00" transform="matrix(1.66, 0.00, -0.00, -1.62, 604.0, 616.0)"></image><image xlink:href="CA92720D3D205FBDC02FA22063568D15.png" width="84.00" height="86.00" transform="matrix(1.00, 0.00, -0.00, -1.00, 900.0, 192.0)"></image><image xlink:href="F2A7B0FCCCAE1EBF488E45C8107250C7.png" width="81.00" height="86.00" transform="matrix(1.00, 0.00, -0.00, -1.00, 901.0, 380.0)"></image><image xlink:href="650D70218F599D35B7815FB7DE260778.png" width="84.00" height="86.00" transform="matrix(1.00, 0.00, -0.00, -1.00, 900.0, 286.0)"></image><text xml:space="preserve" font-family="ISOCPEUR,ISOCPEUR" font-size="70.0" fill="#1AAFFA" transform="matrix(1.00, 0.00, -0.00, -1.00, 446.5, 126.0)">v</text><text xml:space="preserve" font-family="ISOCPEUR,ISOCPEUR" font-size="70.0" fill="#1AAFFA" transform="matrix(1.00, 0.00, -0.00, -1.00, 478.1, 126.0)">k</text><text xml:space="preserve" font-family="ISOCPEUR,ISOCPEUR" font-size="70.0" fill="#1AAFFA" transform="matrix(1.00, 0.00, -0.00, -1.00, 509.7, 126.0)">.</text><text xml:space="preserve" font-family="ISOCPEUR,ISOCPEUR" font-size="70.0" fill="#1AAFFA" transform="matrix(1.00, 0.00, -0.00, -1.00, 523.2, 126.0)">c</text><text xml:space="preserve" font-family="ISOCPEUR,ISOCPEUR" font-size="70.0" fill="#1AAFFA" transform="matrix(1.00, 0.00, -0.00, -1.00, 550.2, 126.0)">o</text><text xml:space="preserve" font-family="ISOCPEUR,ISOCPEUR" font-size="70.0" fill="#1AAFFA" transform="matrix(1.00, 0.00, -0.00, -1.00, 581.8, 126.0)">m</text><text xml:space="preserve" font-family="ISOCPEUR,ISOCPEUR" font-size="70.0" fill="#1AAFFA" transform="matrix(1.00, 0.00, -0.00, -1.00, 622.4, 126.0)">/</text><text xml:space="preserve" font-family="ISOCPEUR,ISOCPEUR" font-size="70.0" fill="#1AAFFA" transform="matrix(1.00, 0.00, -0.00, -1.00, 654.0, 126.0)">h</text><text xml:space="preserve" font-family="ISOCPEUR,ISOCPEUR" font-size="70.0" fill="#1AAFFA" transform="matrix(1.00, 0.00, -0.00, -1.00, 685.6, 126.0)">t</text><text xml:space="preserve" font-family="ISOCPEUR,ISOCPEUR" font-size="70.0" fill="#1AAFFA" transform="matrix(1.00, 0.00, -0.00, -1.00, 712.6, 126.0)">m</text><text xml:space="preserve" font-family="ISOCPEUR,ISOCPEUR" font-size="70.0" fill="#1AAFFA" transform="matrix(1.00, 0.00, -0.00, -1.00, 753.3, 126.0)">l</text><text xml:space="preserve" font-family="ISOCPEUR,ISOCPEUR" font-size="70.0" fill="#1AAFFA" transform="matrix(1.00, 0.00, -0.00, -1.00, 771.3, 126.0)">5</text><text xml:space="preserve" font-family="ISOCPEUR,ISOCPEUR" font-size="70.0" fill="#1AAFFA" transform="matrix(1.00, 0.00, -0.00, -1.00, 802.9, 126.0)">b</text><text xml:space="preserve" font-family="ISOCPEUR,ISOCPEUR" font-size="70.0" fill="#1AAFFA" transform="matrix(1.00, 0.00, -0.00, -1.00, 834.5, 126.0)">y</text><text xml:space="preserve" font-family="ISOCPEUR,ISOCPEUR" font-size="70.0" fill="#1AAFFA" transform="matrix(1.00, 0.00, -0.00, -1.00, 271.3, 219.8)">f</text><text xml:space="preserve" font-family="ISOCPEUR,ISOCPEUR" font-size="70.0" fill="#1AAFFA" transform="matrix(1.00, 0.00, -0.00, -1.00, 298.3, 219.8)">a</text><text xml:space="preserve" font-family="ISOCPEUR,ISOCPEUR" font-size="70.0" fill="#1AAFFA" transform="matrix(1.00, 0.00, -0.00, -1.00, 330.0, 219.8)">c</text><text xml:space="preserve" font-family="ISOCPEUR,ISOCPEUR" font-size="70.0" fill="#1AAFFA" transform="matrix(1.00, 0.00, -0.00, -1.00, 357.0, 219.8)">e</text><text xml:space="preserve" font-family="ISOCPEUR,ISOCPEUR" font-size="70.0" fill="#1AAFFA" transform="matrix(1.00, 0.00, -0.00, -1.00, 388.6, 219.8)">b</text><text xml:space="preserve" font-family="ISOCPEUR,ISOCPEUR" font-size="70.0" fill="#1AAFFA" transform="matrix(1.00, 0.00, -0.00, -1.00, 420.3, 219.8)">o</text><text xml:space="preserve" font-family="ISOCPEUR,ISOCPEUR" font-size="70.0" fill="#1AAFFA" transform="matrix(1.00, 0.00, -0.00, -1.00, 451.9, 219.8)">o</text><text xml:space="preserve" font-family="ISOCPEUR,ISOCPEUR" font-size="70.0" fill="#1AAFFA" transform="matrix(1.00, 0.00, -0.00, -1.00, 483.5, 219.8)">k</text><text xml:space="preserve" font-family="ISOCPEUR,ISOCPEUR" font-size="70.0" fill="#1AAFFA" transform="matrix(1.00, 0.00, -0.00, -1.00, 515.2, 219.8)">.</text><text xml:space="preserve" font-family="ISOCPEUR,ISOCPEUR" font-size="70.0" fill="#1AAFFA" transform="matrix(1.00, 0.00, -0.00, -1.00, 528.8, 219.8)">c</text><text xml:space="preserve" font-family="ISOCPEUR,ISOCPEUR" font-size="70.0" fill="#1AAFFA" transform="matrix(1.00, 0.00, -0.00, -1.00, 555.8, 219.8)">o</text><text xml:space="preserve" font-family="ISOCPEUR,ISOCPEUR" font-size="70.0" fill="#1AAFFA" transform="matrix(1.00, 0.00, -0.00, -1.00, 587.4, 219.8)">m</text><text xml:space="preserve" font-family="ISOCPEUR,ISOCPEUR" font-size="70.0" fill="#1AAFFA" transform="matrix(1.00, 0.00, -0.00, -1.00, 628.0, 219.8)">/</text><text xml:space="preserve" font-family="ISOCPEUR,ISOCPEUR" font-size="70.0" fill="#1AAFFA" transform="matrix(1.00, 0.00, -0.00, -1.00, 659.7, 219.8)">h</text><text xml:space="preserve" font-family="ISOCPEUR,ISOCPEUR" font-size="70.0" fill="#1AAFFA" transform="matrix(1.00, 0.00, -0.00, -1.00, 691.3, 219.8)">t</text><text xml:space="preserve" font-family="ISOCPEUR,ISOCPEUR" font-size="70.0" fill="#1AAFFA" transform="matrix(1.00, 0.00, -0.00, -1.00, 718.3, 219.8)">m</text><text xml:space="preserve" font-family="ISOCPEUR,ISOCPEUR" font-size="70.0" fill="#1AAFFA" transform="matrix(1.00, 0.00, -0.00, -1.00, 758.9, 219.8)">l</text><text xml:space="preserve" font-family="ISOCPEUR,ISOCPEUR" font-size="70.0" fill="#1AAFFA" transform="matrix(1.00, 0.00, -0.00, -1.00, 776.9, 219.8)">5</text><text xml:space="preserve" font-family="ISOCPEUR,ISOCPEUR" font-size="70.0" fill="#1AAFFA" transform="matrix(1.00, 0.00, -0.00, -1.00, 808.6, 219.8)">b</text><text xml:space="preserve" font-family="ISOCPEUR,ISOCPEUR" font-size="70.0" fill="#1AAFFA" transform="matrix(1.00, 0.00, -0.00, -1.00, 840.2, 219.8)">y</text><text xml:space="preserve" font-family="ISOCPEUR,ISOCPEUR" font-size="70.0" fill="#1AAFFA" transform="matrix(1.00, 0.00, -0.00, -1.00, 324.8, 313.6)">t</text><text xml:space="preserve" font-family="ISOCPEUR,ISOCPEUR" font-size="70.0" fill="#1AAFFA" transform="matrix(1.00, 0.00, -0.00, -1.00, 351.8, 313.6)">w</text><text xml:space="preserve" font-family="ISOCPEUR,ISOCPEUR" font-size="70.0" fill="#1AAFFA" transform="matrix(1.00, 0.00, -0.00, -1.00, 392.4, 313.6)">i</text><text xml:space="preserve" font-family="ISOCPEUR,ISOCPEUR" font-size="70.0" fill="#1AAFFA" transform="matrix(1.00, 0.00, -0.00, -1.00, 406.0, 313.6)">t</text><text xml:space="preserve" font-family="ISOCPEUR,ISOCPEUR" font-size="70.0" fill="#1AAFFA" transform="matrix(1.00, 0.00, -0.00, -1.00, 433.1, 313.6)">t</text><text xml:space="preserve" font-family="ISOCPEUR,ISOCPEUR" font-size="70.0" fill="#1AAFFA" transform="matrix(1.00, 0.00, -0.00, -1.00, 460.1, 313.6)">e</text><text xml:space="preserve" font-family="ISOCPEUR,ISOCPEUR" font-size="70.0" fill="#1AAFFA" transform="matrix(1.00, 0.00, -0.00, -1.00, 491.7, 313.6)">r</text><text xml:space="preserve" font-family="ISOCPEUR,ISOCPEUR" font-size="70.0" fill="#1AAFFA" transform="matrix(1.00, 0.00, -0.00, -1.00, 518.8, 313.6)">.</text><text xml:space="preserve" font-family="ISOCPEUR,ISOCPEUR" font-size="70.0" fill="#1AAFFA" transform="matrix(1.00, 0.00, -0.00, -1.00, 532.4, 313.6)">c</text><text xml:space="preserve" font-family="ISOCPEUR,ISOCPEUR" font-size="70.0" fill="#1AAFFA" transform="matrix(1.00, 0.00, -0.00, -1.00, 559.4, 313.6)">o</text><text xml:space="preserve" font-family="ISOCPEUR,ISOCPEUR" font-size="70.0" fill="#1AAFFA" transform="matrix(1.00, 0.00, -0.00, -1.00, 591.0, 313.6)">m</text><text xml:space="preserve" font-family="ISOCPEUR,ISOCPEUR" font-size="70.0" fill="#1AAFFA" transform="matrix(1.00, 0.00, -0.00, -1.00, 631.6, 313.6)">/</text><text xml:space="preserve" font-family="ISOCPEUR,ISOCPEUR" font-size="70.0" fill="#1AAFFA" transform="matrix(1.00, 0.00, -0.00, -1.00, 663.3, 313.6)">h</text><text xml:space="preserve" font-family="ISOCPEUR,ISOCPEUR" font-size="70.0" fill="#1AAFFA" transform="matrix(1.00, 0.00, -0.00, -1.00, 694.9, 313.6)">t</text><text xml:space="preserve" font-family="ISOCPEUR,ISOCPEUR" font-size="70.0" fill="#1AAFFA" transform="matrix(1.00, 0.00, -0.00, -1.00, 721.9, 313.6)">m</text><text xml:space="preserve" font-family="ISOCPEUR,ISOCPEUR" font-size="70.0" fill="#1AAFFA" transform="matrix(1.00, 0.00, -0.00, -1.00, 762.5, 313.6)">l</text><text xml:space="preserve" font-family="ISOCPEUR,ISOCPEUR" font-size="70.0" fill="#1AAFFA" transform="matrix(1.00, 0.00, -0.00, -1.00, 780.6, 313.6)">5</text><text xml:space="preserve" font-family="ISOCPEUR,ISOCPEUR" font-size="70.0" fill="#1AAFFA" transform="matrix(1.00, 0.00, -0.00, -1.00, 812.2, 313.6)">b</text><text xml:space="preserve" font-family="ISOCPEUR,ISOCPEUR" font-size="70.0" fill="#1AAFFA" transform="matrix(1.00, 0.00, -0.00, -1.00, 843.8, 313.6)">y</text></g></svg>