<?xml version="1.0" encoding="UTF-8" standalone="no"?><svg xmlns="http://www.w3.org/2000/svg" xmlns:xlink="http://www.w3.org/1999/xlink" clip-rule="evenodd" stroke-miterlimit="10" viewBox="0 0 1024 768"><desc>SVG generated by Keynote</desc><defs></defs><g transform="matrix(1.00, 0.00, -0.00, -1.00, 0.0, 768.0)"><g><clipPath id="clip0x7fecab3ecc50"><path d="M 0.0 768.0 L 1024.0 768.0 L 1024.0 0.0 L 0.0 0.0 Z M 0.0 768.0 "></path></clipPath><g clip-path="url(#clip0x7fecab3ecc50)"><image xlink:href="../../D65291DE-E52B-48DA-BF23-32852F1E7222/assets/716D123BC9C8A5783E3659E49C5D5E27.png" width="1280.00" height="720.00" transform="matrix(1.07, 0.00, -0.00, -1.07, -170.7, 768.0)"></image></g></g><text xml:space="preserve" font-family="DINCondensed-Bold,DIN Condensed" font-weight="bold" font-size="70.0" fill="#00CF41" transform="matrix(1.00, 0.00, -0.00, -1.00, 432.1, 399.2)">A</text><text xml:space="preserve" font-family="DINCondensed-Bold,DIN Condensed" font-weight="bold" font-size="70.0" fill="#00CF41" transform="matrix(1.00, 0.00, -0.00, -1.00, 460.6, 399.2)">p</text><text xml:space="preserve" font-family="DINCondensed-Bold,DIN Condensed" font-weight="bold" font-size="70.0" fill="#00CF41" transform="matrix(1.00, 0.00, -0.00, -1.00, 487.8, 399.2)">a</text><text xml:space="preserve" font-family="DINCondensed-Bold,DIN Condensed" font-weight="bold" font-size="70.0" fill="#00CF41" transform="matrix(1.00, 0.00, -0.00, -1.00, 513.7, 399.2)">c</text><text xml:space="preserve" font-family="DINCondensed-Bold,DIN Condensed" font-weight="bold" font-size="70.0" fill="#00CF41" transform="matrix(1.00, 0.00, -0.00, -1.00, 538.8, 399.2)">h</text><text xml:space="preserve" font-family="DINCondensed-Bold,DIN Condensed" font-weight="bold" font-size="70.0" fill="#00CF41" transform="matrix(1.00, 0.00, -0.00, -1.00, 566.0, 399.2)">e</text><text xml:space="preserve" font-family="DINCondensed-Bold,DIN Condensed" font-weight="bold" font-size="70.0" fill="#00CF41" transform="matrix(1.00, 0.00, -0.00, -1.00, 591.9, 399.2)"> </text><text xml:space="preserve" font-family="DINCondensed-Bold,DIN Condensed" font-weight="bold" font-size="55.0" fill="#FEFFFE" transform="matrix(1.00, 0.00, -0.00, -1.00, 84.9, 325.9)">M</text><text xml:space="preserve" font-family="DINCondensed-Bold,DIN Condensed" font-weight="bold" font-size="55.0" fill="#FEFFFE" transform="matrix(1.00, 0.00, -0.00, -1.00, 115.4, 325.9)">o</text><text xml:space="preserve" font-family="DINCondensed-Bold,DIN Condensed" font-weight="bold" font-size="55.0" fill="#FEFFFE" transform="matrix(1.00, 0.00, -0.00, -1.00, 135.8, 325.9)">d</text><text xml:space="preserve" font-family="DINCondensed-Bold,DIN Condensed" font-weight="bold" font-size="55.0" fill="#FEFFFE" transform="matrix(1.00, 0.00, -0.00, -1.00, 157.2, 325.9)">P</text><text xml:space="preserve" font-family="DINCondensed-Bold,DIN Condensed" font-weight="bold" font-size="55.0" fill="#FEFFFE" transform="matrix(1.00, 0.00, -0.00, -1.00, 178.9, 325.9)">a</text><text xml:space="preserve" font-family="DINCondensed-Bold,DIN Condensed" font-weight="bold" font-size="55.0" fill="#FEFFFE" transform="matrix(1.00, 0.00, -0.00, -1.00, 199.3, 325.9)">g</text><text xml:space="preserve" font-family="DINCondensed-Bold,DIN Condensed" font-weight="bold" font-size="55.0" fill="#FEFFFE" transform="matrix(1.00, 0.00, -0.00, -1.00, 220.7, 325.9)">e</text><text xml:space="preserve" font-family="DINCondensed-Bold,DIN Condensed" font-weight="bold" font-size="55.0" fill="#FEFFFE" transform="matrix(1.00, 0.00, -0.00, -1.00, 241.0, 325.9)">s</text><text xml:space="preserve" font-family="DINCondensed-Bold,DIN Condensed" font-weight="bold" font-size="55.0" fill="#FEFFFE" transform="matrix(1.00, 0.00, -0.00, -1.00, 260.4, 325.9)">p</text><text xml:space="preserve" font-family="DINCondensed-Bold,DIN Condensed" font-weight="bold" font-size="55.0" fill="#FEFFFE" transform="matrix(1.00, 0.00, -0.00, -1.00, 281.8, 325.9)">e</text><text xml:space="preserve" font-family="DINCondensed-Bold,DIN Condensed" font-weight="bold" font-size="55.0" fill="#FEFFFE" transform="matrix(1.00, 0.00, -0.00, -1.00, 302.1, 325.9)">e</text><text xml:space="preserve" font-family="DINCondensed-Bold,DIN Condensed" font-weight="bold" font-size="55.0" fill="#FEFFFE" transform="matrix(1.00, 0.00, -0.00, -1.00, 322.5, 325.9)">d</text><text xml:space="preserve" font-family="DINCondensed-Bold,DIN Condensed" font-weight="bold" font-size="55.0" fill="#FEFFFE" transform="matrix(1.00, 0.00, -0.00, -1.00, 343.9, 325.9)">E</text><text xml:space="preserve" font-family="DINCondensed-Bold,DIN Condensed" font-weight="bold" font-size="55.0" fill="#FEFFFE" transform="matrix(1.00, 0.00, -0.00, -1.00, 364.2, 325.9)">n</text><text xml:space="preserve" font-family="DINCondensed-Bold,DIN Condensed" font-weight="bold" font-size="55.0" fill="#FEFFFE" transform="matrix(1.00, 0.00, -0.00, -1.00, 385.6, 325.9)">a</text><text xml:space="preserve" font-family="DINCondensed-Bold,DIN Condensed" font-weight="bold" font-size="55.0" fill="#FEFFFE" transform="matrix(1.00, 0.00, -0.00, -1.00, 406.0, 325.9)">b</text><text xml:space="preserve" font-family="DINCondensed-Bold,DIN Condensed" font-weight="bold" font-size="55.0" fill="#FEFFFE" transform="matrix(1.00, 0.00, -0.00, -1.00, 427.4, 325.9)">l</text><text xml:space="preserve" font-family="DINCondensed-Bold,DIN Condensed" font-weight="bold" font-size="55.0" fill="#FEFFFE" transform="matrix(1.00, 0.00, -0.00, -1.00, 437.6, 325.9)">e</text><text xml:space="preserve" font-family="DINCondensed-Bold,DIN Condensed" font-weight="bold" font-size="55.0" fill="#FEFFFE" transform="matrix(1.00, 0.00, -0.00, -1.00, 457.9, 325.9)">F</text><text xml:space="preserve" font-family="DINCondensed-Bold,DIN Condensed" font-weight="bold" font-size="55.0" fill="#FEFFFE" transform="matrix(1.00, 0.00, -0.00, -1.00, 477.6, 325.9)">i</text><text xml:space="preserve" font-family="DINCondensed-Bold,DIN Condensed" font-weight="bold" font-size="55.0" fill="#FEFFFE" transform="matrix(1.00, 0.00, -0.00, -1.00, 487.9, 325.9)">l</text><text xml:space="preserve" font-family="DINCondensed-Bold,DIN Condensed" font-weight="bold" font-size="55.0" fill="#FEFFFE" transform="matrix(1.00, 0.00, -0.00, -1.00, 498.1, 325.9)">t</text><text xml:space="preserve" font-family="DINCondensed-Bold,DIN Condensed" font-weight="bold" font-size="55.0" fill="#FEFFFE" transform="matrix(1.00, 0.00, -0.00, -1.00, 509.3, 325.9)">e</text><text xml:space="preserve" font-family="DINCondensed-Bold,DIN Condensed" font-weight="bold" font-size="55.0" fill="#FEFFFE" transform="matrix(1.00, 0.00, -0.00, -1.00, 529.7, 325.9)">r</text><text xml:space="preserve" font-family="DINCondensed-Bold,DIN Condensed" font-weight="bold" font-size="55.0" fill="#FEFFFE" transform="matrix(1.00, 0.00, -0.00, -1.00, 544.9, 325.9)">s</text><text xml:space="preserve" font-family="DINCondensed-Bold,DIN Condensed" font-weight="bold" font-size="55.0" fill="#FEFFFE" transform="matrix(1.00, 0.00, -0.00, -1.00, 564.3, 325.9)"> </text><text xml:space="preserve" font-family="DINCondensed-Bold,DIN Condensed" font-weight="bold" font-size="55.0" fill="#F9F600" transform="matrix(1.00, 0.00, -0.00, -1.00, 574.5, 325.9)">c</text><text xml:space="preserve" font-family="DINCondensed-Bold,DIN Condensed" font-weight="bold" font-size="55.0" fill="#F9F600" transform="matrix(1.00, 0.00, -0.00, -1.00, 594.9, 325.9)">o</text><text xml:space="preserve" font-family="DINCondensed-Bold,DIN Condensed" font-weight="bold" font-size="55.0" fill="#F9F600" transform="matrix(1.00, 0.00, -0.00, -1.00, 615.2, 325.9)">l</text><text xml:space="preserve" font-family="DINCondensed-Bold,DIN Condensed" font-weight="bold" font-size="55.0" fill="#F9F600" transform="matrix(1.00, 0.00, -0.00, -1.00, 625.5, 325.9)">l</text><text xml:space="preserve" font-family="DINCondensed-Bold,DIN Condensed" font-weight="bold" font-size="55.0" fill="#F9F600" transform="matrix(1.00, 0.00, -0.00, -1.00, 635.7, 325.9)">a</text><text xml:space="preserve" font-family="DINCondensed-Bold,DIN Condensed" font-weight="bold" font-size="55.0" fill="#F9F600" transform="matrix(1.00, 0.00, -0.00, -1.00, 656.0, 325.9)">p</text><text xml:space="preserve" font-family="DINCondensed-Bold,DIN Condensed" font-weight="bold" font-size="55.0" fill="#F9F600" transform="matrix(1.00, 0.00, -0.00, -1.00, 677.4, 325.9)">s</text><text xml:space="preserve" font-family="DINCondensed-Bold,DIN Condensed" font-weight="bold" font-size="55.0" fill="#F9F600" transform="matrix(1.00, 0.00, -0.00, -1.00, 696.8, 325.9)">e</text><text xml:space="preserve" font-family="DINCondensed-Bold,DIN Condensed" font-weight="bold" font-size="55.0" fill="#F9F600" transform="matrix(1.00, 0.00, -0.00, -1.00, 717.1, 325.9)">_</text><text xml:space="preserve" font-family="DINCondensed-Bold,DIN Condensed" font-weight="bold" font-size="55.0" fill="#F9F600" transform="matrix(1.00, 0.00, -0.00, -1.00, 744.6, 325.9)">w</text><text xml:space="preserve" font-family="DINCondensed-Bold,DIN Condensed" font-weight="bold" font-size="55.0" fill="#F9F600" transform="matrix(1.00, 0.00, -0.00, -1.00, 774.1, 325.9)">h</text><text xml:space="preserve" font-family="DINCondensed-Bold,DIN Condensed" font-weight="bold" font-size="55.0" fill="#F9F600" transform="matrix(1.00, 0.00, -0.00, -1.00, 795.5, 325.9)">i</text><text xml:space="preserve" font-family="DINCondensed-Bold,DIN Condensed" font-weight="bold" font-size="55.0" fill="#F9F600" transform="matrix(1.00, 0.00, -0.00, -1.00, 805.8, 325.9)">t</text><text xml:space="preserve" font-family="DINCondensed-Bold,DIN Condensed" font-weight="bold" font-size="55.0" fill="#F9F600" transform="matrix(1.00, 0.00, -0.00, -1.00, 817.0, 325.9)">e</text><text xml:space="preserve" font-family="DINCondensed-Bold,DIN Condensed" font-weight="bold" font-size="55.0" fill="#F9F600" transform="matrix(1.00, 0.00, -0.00, -1.00, 837.3, 325.9)">s</text><text xml:space="preserve" font-family="DINCondensed-Bold,DIN Condensed" font-weight="bold" font-size="55.0" fill="#F9F600" transform="matrix(1.00, 0.00, -0.00, -1.00, 856.7, 325.9)">p</text><text xml:space="preserve" font-family="DINCondensed-Bold,DIN Condensed" font-weight="bold" font-size="55.0" fill="#F9F600" transform="matrix(1.00, 0.00, -0.00, -1.00, 878.1, 325.9)">a</text><text xml:space="preserve" font-family="DINCondensed-Bold,DIN Condensed" font-weight="bold" font-size="55.0" fill="#F9F600" transform="matrix(1.00, 0.00, -0.00, -1.00, 898.4, 325.9)">c</text><text xml:space="preserve" font-family="DINCondensed-Bold,DIN Condensed" font-weight="bold" font-size="55.0" fill="#F9F600" transform="matrix(1.00, 0.00, -0.00, -1.00, 918.8, 325.9)">e</text><text xml:space="preserve" font-family="DINCondensed-Bold,DIN Condensed" font-weight="bold" font-size="55.0" fill="#FEFFFE" transform="matrix(1.00, 0.00, -0.00, -1.00, 939.1, 325.9)"> </text><text xml:space="preserve" font-family="DINCondensed-Bold,DIN Condensed" font-weight="bold" font-size="70.0" fill="#1AAFFA" transform="matrix(1.00, 0.00, -0.00, -1.00, 451.1, 183.2)">N</text><text xml:space="preserve" font-family="DINCondensed-Bold,DIN Condensed" font-weight="bold" font-size="70.0" fill="#1AAFFA" transform="matrix(1.00, 0.00, -0.00, -1.00, 482.2, 183.2)">g</text><text xml:space="preserve" font-family="DINCondensed-Bold,DIN Condensed" font-weight="bold" font-size="70.0" fill="#1AAFFA" transform="matrix(1.00, 0.00, -0.00, -1.00, 509.4, 183.2)">i</text><text xml:space="preserve" font-family="DINCondensed-Bold,DIN Condensed" font-weight="bold" font-size="70.0" fill="#1AAFFA" transform="matrix(1.00, 0.00, -0.00, -1.00, 522.4, 183.2)">n</text><text xml:space="preserve" font-family="DINCondensed-Bold,DIN Condensed" font-weight="bold" font-size="70.0" fill="#1AAFFA" transform="matrix(1.00, 0.00, -0.00, -1.00, 549.7, 183.2)">x</text><text xml:space="preserve" font-family="DINCondensed-Bold,DIN Condensed" font-weight="bold" font-size="70.0" fill="#1AAFFA" transform="matrix(1.00, 0.00, -0.00, -1.00, 572.9, 183.2)"> </text><text xml:space="preserve" font-family="DINCondensed-Bold,DIN Condensed" font-weight="bold" font-size="55.0" fill="#FEFFFE" transform="matrix(1.00, 0.00, -0.00, -1.00, 111.0, 109.9)">p</text><text xml:space="preserve" font-family="DINCondensed-Bold,DIN Condensed" font-weight="bold" font-size="55.0" fill="#FEFFFE" transform="matrix(1.00, 0.00, -0.00, -1.00, 132.4, 109.9)">a</text><text xml:space="preserve" font-family="DINCondensed-Bold,DIN Condensed" font-weight="bold" font-size="55.0" fill="#FEFFFE" transform="matrix(1.00, 0.00, -0.00, -1.00, 152.7, 109.9)">g</text><text xml:space="preserve" font-family="DINCondensed-Bold,DIN Condensed" font-weight="bold" font-size="55.0" fill="#FEFFFE" transform="matrix(1.00, 0.00, -0.00, -1.00, 174.1, 109.9)">e</text><text xml:space="preserve" font-family="DINCondensed-Bold,DIN Condensed" font-weight="bold" font-size="55.0" fill="#FEFFFE" transform="matrix(1.00, 0.00, -0.00, -1.00, 194.5, 109.9)">s</text><text xml:space="preserve" font-family="DINCondensed-Bold,DIN Condensed" font-weight="bold" font-size="55.0" fill="#FEFFFE" transform="matrix(1.00, 0.00, -0.00, -1.00, 213.8, 109.9)">p</text><text xml:space="preserve" font-family="DINCondensed-Bold,DIN Condensed" font-weight="bold" font-size="55.0" fill="#FEFFFE" transform="matrix(1.00, 0.00, -0.00, -1.00, 235.2, 109.9)">e</text><text xml:space="preserve" font-family="DINCondensed-Bold,DIN Condensed" font-weight="bold" font-size="55.0" fill="#FEFFFE" transform="matrix(1.00, 0.00, -0.00, -1.00, 255.6, 109.9)">e</text><text xml:space="preserve" font-family="DINCondensed-Bold,DIN Condensed" font-weight="bold" font-size="55.0" fill="#FEFFFE" transform="matrix(1.00, 0.00, -0.00, -1.00, 275.9, 109.9)">d</text><text xml:space="preserve" font-family="DINCondensed-Bold,DIN Condensed" font-weight="bold" font-size="55.0" fill="#FEFFFE" transform="matrix(1.00, 0.00, -0.00, -1.00, 297.3, 109.9)"> </text><text xml:space="preserve" font-family="DINCondensed-Bold,DIN Condensed" font-weight="bold" font-size="55.0" fill="#FEFFFE" transform="matrix(1.00, 0.00, -0.00, -1.00, 307.5, 109.9)">E</text><text xml:space="preserve" font-family="DINCondensed-Bold,DIN Condensed" font-weight="bold" font-size="55.0" fill="#FEFFFE" transform="matrix(1.00, 0.00, -0.00, -1.00, 327.9, 109.9)">n</text><text xml:space="preserve" font-family="DINCondensed-Bold,DIN Condensed" font-weight="bold" font-size="55.0" fill="#FEFFFE" transform="matrix(1.00, 0.00, -0.00, -1.00, 349.3, 109.9)">a</text><text xml:space="preserve" font-family="DINCondensed-Bold,DIN Condensed" font-weight="bold" font-size="55.0" fill="#FEFFFE" transform="matrix(1.00, 0.00, -0.00, -1.00, 369.6, 109.9)">b</text><text xml:space="preserve" font-family="DINCondensed-Bold,DIN Condensed" font-weight="bold" font-size="55.0" fill="#FEFFFE" transform="matrix(1.00, 0.00, -0.00, -1.00, 391.0, 109.9)">l</text><text xml:space="preserve" font-family="DINCondensed-Bold,DIN Condensed" font-weight="bold" font-size="55.0" fill="#FEFFFE" transform="matrix(1.00, 0.00, -0.00, -1.00, 401.3, 109.9)">e</text><text xml:space="preserve" font-family="DINCondensed-Bold,DIN Condensed" font-weight="bold" font-size="55.0" fill="#FEFFFE" transform="matrix(1.00, 0.00, -0.00, -1.00, 421.6, 109.9)">F</text><text xml:space="preserve" font-family="DINCondensed-Bold,DIN Condensed" font-weight="bold" font-size="55.0" fill="#FEFFFE" transform="matrix(1.00, 0.00, -0.00, -1.00, 441.3, 109.9)">i</text><text xml:space="preserve" font-family="DINCondensed-Bold,DIN Condensed" font-weight="bold" font-size="55.0" fill="#FEFFFE" transform="matrix(1.00, 0.00, -0.00, -1.00, 451.5, 109.9)">l</text><text xml:space="preserve" font-family="DINCondensed-Bold,DIN Condensed" font-weight="bold" font-size="55.0" fill="#FEFFFE" transform="matrix(1.00, 0.00, -0.00, -1.00, 461.8, 109.9)">t</text><text xml:space="preserve" font-family="DINCondensed-Bold,DIN Condensed" font-weight="bold" font-size="55.0" fill="#FEFFFE" transform="matrix(1.00, 0.00, -0.00, -1.00, 473.0, 109.9)">e</text><text xml:space="preserve" font-family="DINCondensed-Bold,DIN Condensed" font-weight="bold" font-size="55.0" fill="#FEFFFE" transform="matrix(1.00, 0.00, -0.00, -1.00, 493.3, 109.9)">r</text><text xml:space="preserve" font-family="DINCondensed-Bold,DIN Condensed" font-weight="bold" font-size="55.0" fill="#FEFFFE" transform="matrix(1.00, 0.00, -0.00, -1.00, 508.6, 109.9)">s</text><text xml:space="preserve" font-family="DINCondensed-Bold,DIN Condensed" font-weight="bold" font-size="55.0" fill="#FEFFFE" transform="matrix(1.00, 0.00, -0.00, -1.00, 528.0, 109.9)"> </text><text xml:space="preserve" font-family="DINCondensed-Bold,DIN Condensed" font-weight="bold" font-size="55.0" fill="#F9F600" transform="matrix(1.00, 0.00, -0.00, -1.00, 538.2, 109.9)">c</text><text xml:space="preserve" font-family="DINCondensed-Bold,DIN Condensed" font-weight="bold" font-size="55.0" fill="#F9F600" transform="matrix(1.00, 0.00, -0.00, -1.00, 558.6, 109.9)">o</text><text xml:space="preserve" font-family="DINCondensed-Bold,DIN Condensed" font-weight="bold" font-size="55.0" fill="#F9F600" transform="matrix(1.00, 0.00, -0.00, -1.00, 578.9, 109.9)">l</text><text xml:space="preserve" font-family="DINCondensed-Bold,DIN Condensed" font-weight="bold" font-size="55.0" fill="#F9F600" transform="matrix(1.00, 0.00, -0.00, -1.00, 589.1, 109.9)">l</text><text xml:space="preserve" font-family="DINCondensed-Bold,DIN Condensed" font-weight="bold" font-size="55.0" fill="#F9F600" transform="matrix(1.00, 0.00, -0.00, -1.00, 599.4, 109.9)">a</text><text xml:space="preserve" font-family="DINCondensed-Bold,DIN Condensed" font-weight="bold" font-size="55.0" fill="#F9F600" transform="matrix(1.00, 0.00, -0.00, -1.00, 619.7, 109.9)">p</text><text xml:space="preserve" font-family="DINCondensed-Bold,DIN Condensed" font-weight="bold" font-size="55.0" fill="#F9F600" transform="matrix(1.00, 0.00, -0.00, -1.00, 641.1, 109.9)">s</text><text xml:space="preserve" font-family="DINCondensed-Bold,DIN Condensed" font-weight="bold" font-size="55.0" fill="#F9F600" transform="matrix(1.00, 0.00, -0.00, -1.00, 660.5, 109.9)">e</text><text xml:space="preserve" font-family="DINCondensed-Bold,DIN Condensed" font-weight="bold" font-size="55.0" fill="#F9F600" transform="matrix(1.00, 0.00, -0.00, -1.00, 680.8, 109.9)">_</text><text xml:space="preserve" font-family="DINCondensed-Bold,DIN Condensed" font-weight="bold" font-size="55.0" fill="#F9F600" transform="matrix(1.00, 0.00, -0.00, -1.00, 708.3, 109.9)">w</text><text xml:space="preserve" font-family="DINCondensed-Bold,DIN Condensed" font-weight="bold" font-size="55.0" fill="#F9F600" transform="matrix(1.00, 0.00, -0.00, -1.00, 737.8, 109.9)">h</text><text xml:space="preserve" font-family="DINCondensed-Bold,DIN Condensed" font-weight="bold" font-size="55.0" fill="#F9F600" transform="matrix(1.00, 0.00, -0.00, -1.00, 759.2, 109.9)">i</text><text xml:space="preserve" font-family="DINCondensed-Bold,DIN Condensed" font-weight="bold" font-size="55.0" fill="#F9F600" transform="matrix(1.00, 0.00, -0.00, -1.00, 769.4, 109.9)">t</text><text xml:space="preserve" font-family="DINCondensed-Bold,DIN Condensed" font-weight="bold" font-size="55.0" fill="#F9F600" transform="matrix(1.00, 0.00, -0.00, -1.00, 780.6, 109.9)">e</text><text xml:space="preserve" font-family="DINCondensed-Bold,DIN Condensed" font-weight="bold" font-size="55.0" fill="#F9F600" transform="matrix(1.00, 0.00, -0.00, -1.00, 801.0, 109.9)">s</text><text xml:space="preserve" font-family="DINCondensed-Bold,DIN Condensed" font-weight="bold" font-size="55.0" fill="#F9F600" transform="matrix(1.00, 0.00, -0.00, -1.00, 820.4, 109.9)">p</text><text xml:space="preserve" font-family="DINCondensed-Bold,DIN Condensed" font-weight="bold" font-size="55.0" fill="#F9F600" transform="matrix(1.00, 0.00, -0.00, -1.00, 841.8, 109.9)">a</text><text xml:space="preserve" font-family="DINCondensed-Bold,DIN Condensed" font-weight="bold" font-size="55.0" fill="#F9F600" transform="matrix(1.00, 0.00, -0.00, -1.00, 862.1, 109.9)">c</text><text xml:space="preserve" font-family="DINCondensed-Bold,DIN Condensed" font-weight="bold" font-size="55.0" fill="#F9F600" transform="matrix(1.00, 0.00, -0.00, -1.00, 882.5, 109.9)">e</text><text xml:space="preserve" font-family="DINCondensed-Bold,DIN Condensed" font-weight="bold" font-size="55.0" fill="#F9F600" transform="matrix(1.00, 0.00, -0.00, -1.00, 902.8, 109.9)">;</text><text xml:space="preserve" font-family="BebasNeueCyrillic,Bebas Neue Cyrillic" font-size="130.0" fill="#FE4B85" transform="matrix(1.00, 0.00, -0.00, -1.00, 59.5, 580.2)">C</text><text xml:space="preserve" font-family="BebasNeueCyrillic,Bebas Neue Cyrillic" font-size="130.0" fill="#FE4B85" transform="matrix(1.00, 0.00, -0.00, -1.00, 109.6, 580.2)">o</text><text xml:space="preserve" font-family="BebasNeueCyrillic,Bebas Neue Cyrillic" font-size="130.0" fill="#FE4B85" transform="matrix(1.00, 0.00, -0.00, -1.00, 161.1, 580.2)">l</text><text xml:space="preserve" font-family="BebasNeueCyrillic,Bebas Neue Cyrillic" font-size="130.0" fill="#FE4B85" transform="matrix(1.00, 0.00, -0.00, -1.00, 205.4, 580.2)">l</text><text xml:space="preserve" font-family="BebasNeueCyrillic,Bebas Neue Cyrillic" font-size="130.0" fill="#FE4B85" transform="matrix(1.00, 0.00, -0.00, -1.00, 249.7, 580.2)">a</text><text xml:space="preserve" font-family="BebasNeueCyrillic,Bebas Neue Cyrillic" font-size="130.0" fill="#FE4B85" transform="matrix(1.00, 0.00, -0.00, -1.00, 302.5, 580.2)">p</text><text xml:space="preserve" font-family="BebasNeueCyrillic,Bebas Neue Cyrillic" font-size="130.0" fill="#FE4B85" transform="matrix(1.00, 0.00, -0.00, -1.00, 351.5, 580.2)">s</text><text xml:space="preserve" font-family="BebasNeueCyrillic,Bebas Neue Cyrillic" font-size="130.0" fill="#FE4B85" transform="matrix(1.00, 0.00, -0.00, -1.00, 400.0, 580.2)">e</text><text xml:space="preserve" font-family="BebasNeueCyrillic,Bebas Neue Cyrillic" font-size="130.0" fill="#FE4B85" transform="matrix(1.00, 0.00, -0.00, -1.00, 447.8, 580.2)"> </text><text xml:space="preserve" font-family="BebasNeueCyrillic,Bebas Neue Cyrillic" font-size="130.0" fill="#FE4B85" transform="matrix(1.00, 0.00, -0.00, -1.00, 467.9, 580.2)">W</text><text xml:space="preserve" font-family="BebasNeueCyrillic,Bebas Neue Cyrillic" font-size="130.0" fill="#FE4B85" transform="matrix(1.00, 0.00, -0.00, -1.00, 541.1, 580.2)">h</text><text xml:space="preserve" font-family="BebasNeueCyrillic,Bebas Neue Cyrillic" font-size="130.0" fill="#FE4B85" transform="matrix(1.00, 0.00, -0.00, -1.00, 596.5, 580.2)">i</text><text xml:space="preserve" font-family="BebasNeueCyrillic,Bebas Neue Cyrillic" font-size="130.0" fill="#FE4B85" transform="matrix(1.00, 0.00, -0.00, -1.00, 621.2, 580.2)">t</text><text xml:space="preserve" font-family="BebasNeueCyrillic,Bebas Neue Cyrillic" font-size="130.0" fill="#FE4B85" transform="matrix(1.00, 0.00, -0.00, -1.00, 668.0, 580.2)">e</text><text xml:space="preserve" font-family="BebasNeueCyrillic,Bebas Neue Cyrillic" font-size="130.0" fill="#FE4B85" transform="matrix(1.00, 0.00, -0.00, -1.00, 715.7, 580.2)">s</text><text xml:space="preserve" font-family="BebasNeueCyrillic,Bebas Neue Cyrillic" font-size="130.0" fill="#FE4B85" transform="matrix(1.00, 0.00, -0.00, -1.00, 764.2, 580.2)">p</text><text xml:space="preserve" font-family="BebasNeueCyrillic,Bebas Neue Cyrillic" font-size="130.0" fill="#FE4B85" transform="matrix(1.00, 0.00, -0.00, -1.00, 813.2, 580.2)">a</text><text xml:space="preserve" font-family="BebasNeueCyrillic,Bebas Neue Cyrillic" font-size="130.0" fill="#FE4B85" transform="matrix(1.00, 0.00, -0.00, -1.00, 866.1, 580.2)">c</text><text xml:space="preserve" font-family="BebasNeueCyrillic,Bebas Neue Cyrillic" font-size="130.0" fill="#FE4B85" transform="matrix(1.00, 0.00, -0.00, -1.00, 916.2, 580.2)">e</text></g></svg>