<?xml version="1.0" encoding="UTF-8" standalone="no"?><svg xmlns="http://www.w3.org/2000/svg" xmlns:xlink="http://www.w3.org/1999/xlink" clip-rule="evenodd" stroke-miterlimit="10" viewBox="0 0 508 112"><desc>SVG generated by Keynote</desc><defs></defs><g transform="matrix(1.00, 0.00, -0.00, -1.00, 0.0, 112.0)"><text xml:space="preserve" font-family="BebasNeueCyrillic,Bebas Neue Cyrillic" font-size="150.0" fill="#00CF41" transform="matrix(1.00, 0.00, -0.00, -1.00, -4.0, 3.6)">p</text><text xml:space="preserve" font-family="BebasNeueCyrillic,Bebas Neue Cyrillic" font-size="150.0" fill="#00CF41" transform="matrix(1.00, 0.00, -0.00, -1.00, 52.5, 3.6)">a</text><text xml:space="preserve" font-family="BebasNeueCyrillic,Bebas Neue Cyrillic" font-size="150.0" fill="#00CF41" transform="matrix(1.00, 0.00, -0.00, -1.00, 113.5, 3.6)">g</text><text xml:space="preserve" font-family="BebasNeueCyrillic,Bebas Neue Cyrillic" font-size="150.0" fill="#00CF41" transform="matrix(1.00, 0.00, -0.00, -1.00, 171.9, 3.6)">e</text><text xml:space="preserve" font-family="BebasNeueCyrillic,Bebas Neue Cyrillic" font-size="150.0" fill="#00CF41" transform="matrix(1.00, 0.00, -0.00, -1.00, 227.0, 3.6)">s</text><text xml:space="preserve" font-family="BebasNeueCyrillic,Bebas Neue Cyrillic" font-size="150.0" fill="#00CF41" transform="matrix(1.00, 0.00, -0.00, -1.00, 282.9, 3.6)">p</text><text xml:space="preserve" font-family="BebasNeueCyrillic,Bebas Neue Cyrillic" font-size="150.0" fill="#00CF41" transform="matrix(1.00, 0.00, -0.00, -1.00, 339.5, 3.6)">e</text><text xml:space="preserve" font-family="BebasNeueCyrillic,Bebas Neue Cyrillic" font-size="150.0" fill="#00CF41" transform="matrix(1.00, 0.00, -0.00, -1.00, 394.6, 3.6)">e</text><text xml:space="preserve" font-family="BebasNeueCyrillic,Bebas Neue Cyrillic" font-size="150.0" fill="#00CF41" transform="matrix(1.00, 0.00, -0.00, -1.00, 449.7, 3.6)">d</text></g></svg>