<?xml version="1.0" encoding="UTF-8" standalone="no"?><svg xmlns="http://www.w3.org/2000/svg" xmlns:xlink="http://www.w3.org/1999/xlink" clip-rule="evenodd" stroke-miterlimit="10" viewBox="0 0 1024 768"><desc>SVG generated by Keynote</desc><defs></defs><g transform="matrix(1.00, 0.00, -0.00, -1.00, 0.0, 768.0)"><g><clipPath id="clip0x7fecab382270"><path d="M 0.0 768.0 L 1024.0 768.0 L 1024.0 0.0 L 0.0 0.0 Z M 0.0 768.0 "></path></clipPath><g clip-path="url(#clip0x7fecab382270)"><image xlink:href="../../D65291DE-E52B-48DA-BF23-32852F1E7222/assets/716D123BC9C8A5783E3659E49C5D5E27.png" width="1280.00" height="720.00" transform="matrix(1.07, 0.00, -0.00, -1.07, -170.7, 768.0)"></image></g></g><text xml:space="preserve" font-family="BebasNeueCyrillic,Bebas Neue Cyrillic" font-size="120.0" fill="#00CF41" transform="matrix(1.00, 0.00, -0.00, -1.00, 318.6, 566.2)">и</text><text xml:space="preserve" font-family="BebasNeueCyrillic,Bebas Neue Cyrillic" font-size="120.0" fill="#00CF41" transform="matrix(1.00, 0.00, -0.00, -1.00, 370.0, 566.2)">з</text><text xml:space="preserve" font-family="BebasNeueCyrillic,Bebas Neue Cyrillic" font-size="120.0" fill="#00CF41" transform="matrix(1.00, 0.00, -0.00, -1.00, 416.4, 566.2)">б</text><text xml:space="preserve" font-family="BebasNeueCyrillic,Bebas Neue Cyrillic" font-size="120.0" fill="#00CF41" transform="matrix(1.00, 0.00, -0.00, -1.00, 463.3, 566.2)">е</text><text xml:space="preserve" font-family="BebasNeueCyrillic,Bebas Neue Cyrillic" font-size="120.0" fill="#00CF41" transform="matrix(1.00, 0.00, -0.00, -1.00, 507.0, 566.2)">г</text><text xml:space="preserve" font-family="BebasNeueCyrillic,Bebas Neue Cyrillic" font-size="120.0" fill="#00CF41" transform="matrix(1.00, 0.00, -0.00, -1.00, 547.9, 566.2)">а</text><text xml:space="preserve" font-family="BebasNeueCyrillic,Bebas Neue Cyrillic" font-size="120.0" fill="#00CF41" transform="matrix(1.00, 0.00, -0.00, -1.00, 596.4, 566.2)">е</text><text xml:space="preserve" font-family="BebasNeueCyrillic,Bebas Neue Cyrillic" font-size="120.0" fill="#00CF41" transform="matrix(1.00, 0.00, -0.00, -1.00, 640.2, 566.2)">м</text><text xml:space="preserve" font-family="BebasNeueCyrillic,Bebas Neue Cyrillic" font-size="120.0" fill="#00CF41" transform="matrix(1.00, 0.00, -0.00, -1.00, 705.2, 566.2)"> </text><text xml:space="preserve" font-family="BebasNeueCyrillic,Bebas Neue Cyrillic" font-size="120.0" fill="#00CF41" transform="matrix(1.00, 0.00, -0.00, -1.00, 724.0, 566.2)"> </text><text xml:space="preserve" font-family="BebasNeueCyrillic,Bebas Neue Cyrillic" font-size="220.0" fill="#FEFFFE" transform="matrix(1.00, 0.00, -0.00, -1.00, 120.5, 315.8)">j</text><text xml:space="preserve" font-family="BebasNeueCyrillic,Bebas Neue Cyrillic" font-size="220.0" fill="#FEFFFE" transform="matrix(1.00, 0.00, -0.00, -1.00, 176.8, 315.8)">a</text><text xml:space="preserve" font-family="BebasNeueCyrillic,Bebas Neue Cyrillic" font-size="220.0" fill="#FEFFFE" transform="matrix(1.00, 0.00, -0.00, -1.00, 266.2, 315.8)">v</text><text xml:space="preserve" font-family="BebasNeueCyrillic,Bebas Neue Cyrillic" font-size="220.0" fill="#FEFFFE" transform="matrix(1.00, 0.00, -0.00, -1.00, 354.6, 315.8)">a</text><text xml:space="preserve" font-family="BebasNeueCyrillic,Bebas Neue Cyrillic" font-size="220.0" fill="#FEFFFE" transform="matrix(1.00, 0.00, -0.00, -1.00, 444.0, 315.8)">s</text><text xml:space="preserve" font-family="BebasNeueCyrillic,Bebas Neue Cyrillic" font-size="220.0" fill="#FEFFFE" transform="matrix(1.00, 0.00, -0.00, -1.00, 526.1, 315.8)">c</text><text xml:space="preserve" font-family="BebasNeueCyrillic,Bebas Neue Cyrillic" font-size="220.0" fill="#FEFFFE" transform="matrix(1.00, 0.00, -0.00, -1.00, 610.9, 315.8)">r</text><text xml:space="preserve" font-family="BebasNeueCyrillic,Bebas Neue Cyrillic" font-size="220.0" fill="#FEFFFE" transform="matrix(1.00, 0.00, -0.00, -1.00, 699.2, 315.8)">i</text><text xml:space="preserve" font-family="BebasNeueCyrillic,Bebas Neue Cyrillic" font-size="220.0" fill="#FEFFFE" transform="matrix(1.00, 0.00, -0.00, -1.00, 741.0, 315.8)">p</text><text xml:space="preserve" font-family="BebasNeueCyrillic,Bebas Neue Cyrillic" font-size="220.0" fill="#FEFFFE" transform="matrix(1.00, 0.00, -0.00, -1.00, 823.9, 315.8)">t</text><text xml:space="preserve" font-family="BebasNeueCyrillic,Bebas Neue Cyrillic" font-size="220.0" fill="#FEFFFE" transform="matrix(1.00, 0.00, -0.00, -1.00, 903.5, 315.8)"> </text><text xml:space="preserve" font-family="BebasNeueCyrillic,Bebas Neue Cyrillic" font-size="120.0" fill="#00CF41" transform="matrix(1.00, 0.00, -0.00, -1.00, 272.5, 111.4)">р</text><text xml:space="preserve" font-family="BebasNeueCyrillic,Bebas Neue Cyrillic" font-size="120.0" fill="#00CF41" transform="matrix(1.00, 0.00, -0.00, -1.00, 317.6, 111.4)">е</text><text xml:space="preserve" font-family="BebasNeueCyrillic,Bebas Neue Cyrillic" font-size="120.0" fill="#00CF41" transform="matrix(1.00, 0.00, -0.00, -1.00, 361.3, 111.4)">д</text><text xml:space="preserve" font-family="BebasNeueCyrillic,Bebas Neue Cyrillic" font-size="120.0" fill="#00CF41" transform="matrix(1.00, 0.00, -0.00, -1.00, 422.5, 111.4)">и</text><text xml:space="preserve" font-family="BebasNeueCyrillic,Bebas Neue Cyrillic" font-size="120.0" fill="#00CF41" transform="matrix(1.00, 0.00, -0.00, -1.00, 473.9, 111.4)">р</text><text xml:space="preserve" font-family="BebasNeueCyrillic,Bebas Neue Cyrillic" font-size="120.0" fill="#00CF41" transform="matrix(1.00, 0.00, -0.00, -1.00, 519.0, 111.4)">е</text><text xml:space="preserve" font-family="BebasNeueCyrillic,Bebas Neue Cyrillic" font-size="120.0" fill="#00CF41" transform="matrix(1.00, 0.00, -0.00, -1.00, 562.8, 111.4)">к</text><text xml:space="preserve" font-family="BebasNeueCyrillic,Bebas Neue Cyrillic" font-size="120.0" fill="#00CF41" transform="matrix(1.00, 0.00, -0.00, -1.00, 612.3, 111.4)">т</text><text xml:space="preserve" font-family="BebasNeueCyrillic,Bebas Neue Cyrillic" font-size="120.0" fill="#00CF41" transform="matrix(1.00, 0.00, -0.00, -1.00, 655.5, 111.4)">о</text><text xml:space="preserve" font-family="BebasNeueCyrillic,Bebas Neue Cyrillic" font-size="120.0" fill="#00CF41" transform="matrix(1.00, 0.00, -0.00, -1.00, 702.7, 111.4)">в</text><text xml:space="preserve" font-family="BebasNeueCyrillic,Bebas Neue Cyrillic" font-size="120.0" fill="#00CF41" transform="matrix(1.00, 0.00, -0.00, -1.00, 751.5, 111.4)"> </text></g></svg>