<?xml version="1.0" encoding="UTF-8" standalone="no"?><svg xmlns="http://www.w3.org/2000/svg" xmlns:xlink="http://www.w3.org/1999/xlink" clip-rule="evenodd" stroke-miterlimit="10" viewBox="0 0 1024 768"><desc>SVG generated by Keynote</desc><defs></defs><g transform="matrix(1.00, 0.00, -0.00, -1.00, 0.0, 768.0)"><path d="M 0.0 768.0 L 1024.0 768.0 L 1024.0 0.0 L 0.0 0.0 Z M 0.0 768.0 " fill="#FEFFFE"></path><text xml:space="preserve" font-family="GillSans,Gill Sans" font-size="38.0" fill="#000000" transform="matrix(1.00, 0.00, -0.00, -1.00, 53.3, 612.8)">s</text><text xml:space="preserve" font-family="GillSans,Gill Sans" font-size="38.0" fill="#000000" transform="matrix(1.00, 0.00, -0.00, -1.00, 67.9, 612.8)">e</text><text xml:space="preserve" font-family="GillSans,Gill Sans" font-size="38.0" fill="#000000" transform="matrix(1.00, 0.00, -0.00, -1.00, 86.1, 612.8)">r</text><text xml:space="preserve" font-family="GillSans,Gill Sans" font-size="38.0" fill="#000000" transform="matrix(1.00, 0.00, -0.00, -1.00, 102.3, 612.8)">v</text><text xml:space="preserve" font-family="GillSans,Gill Sans" font-size="38.0" fill="#000000" transform="matrix(1.00, 0.00, -0.00, -1.00, 118.2, 612.8)">e</text><text xml:space="preserve" font-family="GillSans,Gill Sans" font-size="38.0" fill="#000000" transform="matrix(1.00, 0.00, -0.00, -1.00, 136.4, 612.8)">r</text><text xml:space="preserve" font-family="GillSans,Gill Sans" font-size="38.0" fill="#000000" transform="matrix(1.00, 0.00, -0.00, -1.00, 151.5, 612.8)"> </text><text xml:space="preserve" font-family="GillSans,Gill Sans" font-size="38.0" fill="#000000" transform="matrix(1.00, 0.00, -0.00, -1.00, 162.0, 612.8)">{</text><text xml:space="preserve" font-family="GillSans,Gill Sans" font-size="38.0" fill="#000000" transform="matrix(1.00, 0.00, -0.00, -1.00, 53.3, 568.8)"> </text><text xml:space="preserve" font-family="GillSans,Gill Sans" font-size="38.0" fill="#000000" transform="matrix(1.00, 0.00, -0.00, -1.00, 63.9, 568.8)"> </text><text xml:space="preserve" font-family="GillSans,Gill Sans" font-size="38.0" fill="#000000" transform="matrix(1.00, 0.00, -0.00, -1.00, 74.4, 568.8)"> </text><text xml:space="preserve" font-family="GillSans,Gill Sans" font-size="38.0" fill="#000000" transform="matrix(1.00, 0.00, -0.00, -1.00, 85.0, 568.8)"> </text><text xml:space="preserve" font-family="GillSans,Gill Sans" font-size="38.0" fill="#000000" transform="matrix(1.00, 0.00, -0.00, -1.00, 53.3, 524.8)"> </text><text xml:space="preserve" font-family="GillSans,Gill Sans" font-size="38.0" fill="#000000" transform="matrix(1.00, 0.00, -0.00, -1.00, 63.9, 524.8)"> </text><text xml:space="preserve" font-family="GillSans,Gill Sans" font-size="38.0" fill="#000000" transform="matrix(1.00, 0.00, -0.00, -1.00, 74.4, 524.8)"> </text><text xml:space="preserve" font-family="GillSans,Gill Sans" font-size="38.0" fill="#000000" transform="matrix(1.00, 0.00, -0.00, -1.00, 85.0, 524.8)"> </text><text xml:space="preserve" font-family="GillSans,Gill Sans" font-size="38.0" fill="#000000" transform="matrix(1.00, 0.00, -0.00, -1.00, 95.5, 524.8)">.</text><text xml:space="preserve" font-family="GillSans,Gill Sans" font-size="38.0" fill="#000000" transform="matrix(1.00, 0.00, -0.00, -1.00, 103.9, 524.8)">.</text><text xml:space="preserve" font-family="GillSans,Gill Sans" font-size="38.0" fill="#000000" transform="matrix(1.00, 0.00, -0.00, -1.00, 112.2, 524.8)">.</text><text xml:space="preserve" font-family="GillSans,Gill Sans" font-size="38.0" fill="#FF3156" transform="matrix(1.00, 0.00, -0.00, -1.00, 53.3, 392.8)"> </text><text xml:space="preserve" font-family="GillSans,Gill Sans" font-size="38.0" fill="#FF3156" transform="matrix(1.00, 0.00, -0.00, -1.00, 63.9, 392.8)"> </text><text xml:space="preserve" font-family="GillSans,Gill Sans" font-size="38.0" fill="#FF3156" transform="matrix(1.00, 0.00, -0.00, -1.00, 74.4, 392.8)"> </text><text xml:space="preserve" font-family="GillSans,Gill Sans" font-size="38.0" fill="#FF3156" transform="matrix(1.00, 0.00, -0.00, -1.00, 85.0, 392.8)"> </text><text xml:space="preserve" font-family="GillSans,Gill Sans" font-size="38.0" fill="#FF3156" transform="matrix(1.00, 0.00, -0.00, -1.00, 95.5, 392.8)">l</text><text xml:space="preserve" font-family="GillSans,Gill Sans" font-size="38.0" fill="#FF3156" transform="matrix(1.00, 0.00, -0.00, -1.00, 103.9, 392.8)">o</text><text xml:space="preserve" font-family="GillSans,Gill Sans" font-size="38.0" fill="#FF3156" transform="matrix(1.00, 0.00, -0.00, -1.00, 124.8, 392.8)">c</text><text xml:space="preserve" font-family="GillSans,Gill Sans" font-size="38.0" fill="#FF3156" transform="matrix(1.00, 0.00, -0.00, -1.00, 141.5, 392.8)">a</text><text xml:space="preserve" font-family="GillSans,Gill Sans" font-size="38.0" fill="#FF3156" transform="matrix(1.00, 0.00, -0.00, -1.00, 157.7, 392.8)">t</text><text xml:space="preserve" font-family="GillSans,Gill Sans" font-size="38.0" fill="#FF3156" transform="matrix(1.00, 0.00, -0.00, -1.00, 170.3, 392.8)">i</text><text xml:space="preserve" font-family="GillSans,Gill Sans" font-size="38.0" fill="#FF3156" transform="matrix(1.00, 0.00, -0.00, -1.00, 178.7, 392.8)">o</text><text xml:space="preserve" font-family="GillSans,Gill Sans" font-size="38.0" fill="#FF3156" transform="matrix(1.00, 0.00, -0.00, -1.00, 199.6, 392.8)">n</text><text xml:space="preserve" font-family="GillSans,Gill Sans" font-size="38.0" fill="#FF3156" transform="matrix(1.00, 0.00, -0.00, -1.00, 218.6, 392.8)"> </text><text xml:space="preserve" font-family="GillSans,Gill Sans" font-size="38.0" fill="#FF3156" transform="matrix(1.00, 0.00, -0.00, -1.00, 229.2, 392.8)">~</text><text xml:space="preserve" font-family="GillSans,Gill Sans" font-size="38.0" fill="#FF3156" transform="matrix(1.00, 0.00, -0.00, -1.00, 251.3, 392.8)">*</text><text xml:space="preserve" font-family="GillSans,Gill Sans" font-size="38.0" fill="#FF3156" transform="matrix(1.00, 0.00, -0.00, -1.00, 267.2, 392.8)"> </text><text xml:space="preserve" font-family="GillSans,Gill Sans" font-size="38.0" fill="#FF3156" transform="matrix(1.00, 0.00, -0.00, -1.00, 277.7, 392.8)">\</text><text xml:space="preserve" font-family="GillSans,Gill Sans" font-size="38.0" fill="#FF3156" transform="matrix(1.00, 0.00, -0.00, -1.00, 288.4, 392.8)">.</text><text xml:space="preserve" font-family="GillSans,Gill Sans" font-size="38.0" fill="#FF3156" transform="matrix(1.00, 0.00, -0.00, -1.00, 296.7, 392.8)">(</text><text xml:space="preserve" font-family="GillSans,Gill Sans" font-size="38.0" fill="#FF3156" transform="matrix(1.00, 0.00, -0.00, -1.00, 309.0, 392.8)">?</text><text xml:space="preserve" font-family="GillSans,Gill Sans" font-size="38.0" fill="#FF3156" transform="matrix(1.00, 0.00, -0.00, -1.00, 321.7, 392.8)">:</text><text xml:space="preserve" font-family="GillSans,Gill Sans" font-size="38.0" fill="#FF3156" transform="matrix(1.00, 0.00, -0.00, -1.00, 330.0, 392.8)">i</text><text xml:space="preserve" font-family="GillSans,Gill Sans" font-size="38.0" fill="#FF3156" transform="matrix(1.00, 0.00, -0.00, -1.00, 338.4, 392.8)">c</text><text xml:space="preserve" font-family="GillSans,Gill Sans" font-size="38.0" fill="#FF3156" transform="matrix(1.00, 0.00, -0.00, -1.00, 355.0, 392.8)">o</text><text xml:space="preserve" font-family="GillSans,Gill Sans" font-size="38.0" fill="#FF3156" transform="matrix(1.00, 0.00, -0.00, -1.00, 376.0, 392.8)">|</text><text xml:space="preserve" font-family="GillSans,Gill Sans" font-size="38.0" fill="#FF3156" transform="matrix(1.00, 0.00, -0.00, -1.00, 385.8, 392.8)">c</text><text xml:space="preserve" font-family="GillSans,Gill Sans" font-size="38.0" fill="#FF3156" transform="matrix(1.00, 0.00, -0.00, -1.00, 402.5, 392.8)">s</text><text xml:space="preserve" font-family="GillSans,Gill Sans" font-size="38.0" fill="#FF3156" transform="matrix(1.00, 0.00, -0.00, -1.00, 417.1, 392.8)">s</text><text xml:space="preserve" font-family="GillSans,Gill Sans" font-size="38.0" fill="#FF3156" transform="matrix(1.00, 0.00, -0.00, -1.00, 431.7, 392.8)">|</text><text xml:space="preserve" font-family="GillSans,Gill Sans" font-size="38.0" fill="#FF3156" transform="matrix(1.00, 0.00, -0.00, -1.00, 441.6, 392.8)">j</text><text xml:space="preserve" font-family="GillSans,Gill Sans" font-size="38.0" fill="#FF3156" transform="matrix(1.00, 0.00, -0.00, -1.00, 449.9, 392.8)">s</text><text xml:space="preserve" font-family="GillSans,Gill Sans" font-size="38.0" fill="#FF3156" transform="matrix(1.00, 0.00, -0.00, -1.00, 464.5, 392.8)">|</text><text xml:space="preserve" font-family="GillSans,Gill Sans" font-size="38.0" fill="#FF3156" transform="matrix(1.00, 0.00, -0.00, -1.00, 474.4, 392.8)">g</text><text xml:space="preserve" font-family="GillSans,Gill Sans" font-size="38.0" fill="#FF3156" transform="matrix(1.00, 0.00, -0.00, -1.00, 490.6, 392.8)">i</text><text xml:space="preserve" font-family="GillSans,Gill Sans" font-size="38.0" fill="#FF3156" transform="matrix(1.00, 0.00, -0.00, -1.00, 498.9, 392.8)">f</text><text xml:space="preserve" font-family="GillSans,Gill Sans" font-size="38.0" fill="#FF3156" transform="matrix(1.00, 0.00, -0.00, -1.00, 508.4, 392.8)">|</text><text xml:space="preserve" font-family="GillSans,Gill Sans" font-size="38.0" fill="#FF3156" transform="matrix(1.00, 0.00, -0.00, -1.00, 518.3, 392.8)">j</text><text xml:space="preserve" font-family="GillSans,Gill Sans" font-size="38.0" fill="#FF3156" transform="matrix(1.00, 0.00, -0.00, -1.00, 526.6, 392.8)">p</text><text xml:space="preserve" font-family="GillSans,Gill Sans" font-size="38.0" fill="#FF3156" transform="matrix(1.00, 0.00, -0.00, -1.00, 545.6, 392.8)">e</text><text xml:space="preserve" font-family="GillSans,Gill Sans" font-size="38.0" fill="#FF3156" transform="matrix(1.00, 0.00, -0.00, -1.00, 563.8, 392.8)">?</text><text xml:space="preserve" font-family="GillSans,Gill Sans" font-size="38.0" fill="#FF3156" transform="matrix(1.00, 0.00, -0.00, -1.00, 576.5, 392.8)">g</text><text xml:space="preserve" font-family="GillSans,Gill Sans" font-size="38.0" fill="#FF3156" transform="matrix(1.00, 0.00, -0.00, -1.00, 592.7, 392.8)">|</text><text xml:space="preserve" font-family="GillSans,Gill Sans" font-size="38.0" fill="#FF3156" transform="matrix(1.00, 0.00, -0.00, -1.00, 602.5, 392.8)">p</text><text xml:space="preserve" font-family="GillSans,Gill Sans" font-size="38.0" fill="#FF3156" transform="matrix(1.00, 0.00, -0.00, -1.00, 621.5, 392.8)">n</text><text xml:space="preserve" font-family="GillSans,Gill Sans" font-size="38.0" fill="#FF3156" transform="matrix(1.00, 0.00, -0.00, -1.00, 640.5, 392.8)">g</text><text xml:space="preserve" font-family="GillSans,Gill Sans" font-size="38.0" fill="#FF3156" transform="matrix(1.00, 0.00, -0.00, -1.00, 656.8, 392.8)">)</text><text xml:space="preserve" font-family="GillSans,Gill Sans" font-size="38.0" fill="#FF3156" transform="matrix(1.00, 0.00, -0.00, -1.00, 669.0, 392.8)">$</text><text xml:space="preserve" font-family="GillSans,Gill Sans" font-size="38.0" fill="#FF3156" transform="matrix(1.00, 0.00, -0.00, -1.00, 689.6, 392.8)"> </text><text xml:space="preserve" font-family="GillSans,Gill Sans" font-size="38.0" fill="#FF3156" transform="matrix(1.00, 0.00, -0.00, -1.00, 700.2, 392.8)">{</text><text xml:space="preserve" font-family="GillSans,Gill Sans" font-size="38.0" fill="#00CF41" transform="matrix(1.00, 0.00, -0.00, -1.00, 53.3, 348.8)"> </text><text xml:space="preserve" font-family="GillSans,Gill Sans" font-size="38.0" fill="#00CF41" transform="matrix(1.00, 0.00, -0.00, -1.00, 63.9, 348.8)"> </text><text xml:space="preserve" font-family="GillSans,Gill Sans" font-size="38.0" fill="#00CF41" transform="matrix(1.00, 0.00, -0.00, -1.00, 74.4, 348.8)"> </text><text xml:space="preserve" font-family="GillSans,Gill Sans" font-size="38.0" fill="#00CF41" transform="matrix(1.00, 0.00, -0.00, -1.00, 85.0, 348.8)"> </text><text xml:space="preserve" font-family="GillSans,Gill Sans" font-size="38.0" fill="#00CF41" transform="matrix(1.00, 0.00, -0.00, -1.00, 95.5, 348.8)"> </text><text xml:space="preserve" font-family="GillSans,Gill Sans" font-size="38.0" fill="#00CF41" transform="matrix(1.00, 0.00, -0.00, -1.00, 106.1, 348.8)"> </text><text xml:space="preserve" font-family="GillSans,Gill Sans" font-size="38.0" fill="#00CF41" transform="matrix(1.00, 0.00, -0.00, -1.00, 116.6, 348.8)">a</text><text xml:space="preserve" font-family="GillSans,Gill Sans" font-size="38.0" fill="#00CF41" transform="matrix(1.00, 0.00, -0.00, -1.00, 132.8, 348.8)">d</text><text xml:space="preserve" font-family="GillSans,Gill Sans" font-size="38.0" fill="#00CF41" transform="matrix(1.00, 0.00, -0.00, -1.00, 151.8, 348.8)">d</text><text xml:space="preserve" font-family="GillSans,Gill Sans" font-size="38.0" fill="#00CF41" transform="matrix(1.00, 0.00, -0.00, -1.00, 171.2, 348.8)">_</text><text xml:space="preserve" font-family="GillSans,Gill Sans" font-size="38.0" fill="#00CF41" transform="matrix(1.00, 0.00, -0.00, -1.00, 192.2, 348.8)">h</text><text xml:space="preserve" font-family="GillSans,Gill Sans" font-size="38.0" fill="#00CF41" transform="matrix(1.00, 0.00, -0.00, -1.00, 211.2, 348.8)">e</text><text xml:space="preserve" font-family="GillSans,Gill Sans" font-size="38.0" fill="#00CF41" transform="matrix(1.00, 0.00, -0.00, -1.00, 229.4, 348.8)">a</text><text xml:space="preserve" font-family="GillSans,Gill Sans" font-size="38.0" fill="#00CF41" transform="matrix(1.00, 0.00, -0.00, -1.00, 245.6, 348.8)">d</text><text xml:space="preserve" font-family="GillSans,Gill Sans" font-size="38.0" fill="#00CF41" transform="matrix(1.00, 0.00, -0.00, -1.00, 264.9, 348.8)">e</text><text xml:space="preserve" font-family="GillSans,Gill Sans" font-size="38.0" fill="#00CF41" transform="matrix(1.00, 0.00, -0.00, -1.00, 283.1, 348.8)">r</text><text xml:space="preserve" font-family="GillSans,Gill Sans" font-size="38.0" fill="#00CF41" transform="matrix(1.00, 0.00, -0.00, -1.00, 298.2, 348.8)"> </text><text xml:space="preserve" font-family="GillSans,Gill Sans" font-size="38.0" fill="#00CF41" transform="matrix(1.00, 0.00, -0.00, -1.00, 308.7, 348.8)">C</text><text xml:space="preserve" font-family="GillSans,Gill Sans" font-size="38.0" fill="#00CF41" transform="matrix(1.00, 0.00, -0.00, -1.00, 335.6, 348.8)">a</text><text xml:space="preserve" font-family="GillSans,Gill Sans" font-size="38.0" fill="#00CF41" transform="matrix(1.00, 0.00, -0.00, -1.00, 351.8, 348.8)">c</text><text xml:space="preserve" font-family="GillSans,Gill Sans" font-size="38.0" fill="#00CF41" transform="matrix(1.00, 0.00, -0.00, -1.00, 368.5, 348.8)">h</text><text xml:space="preserve" font-family="GillSans,Gill Sans" font-size="38.0" fill="#00CF41" transform="matrix(1.00, 0.00, -0.00, -1.00, 387.5, 348.8)">e</text><text xml:space="preserve" font-family="GillSans,Gill Sans" font-size="38.0" fill="#00CF41" transform="matrix(1.00, 0.00, -0.00, -1.00, 405.7, 348.8)">-</text><text xml:space="preserve" font-family="GillSans,Gill Sans" font-size="38.0" fill="#00CF41" transform="matrix(1.00, 0.00, -0.00, -1.00, 418.0, 348.8)">C</text><text xml:space="preserve" font-family="GillSans,Gill Sans" font-size="38.0" fill="#00CF41" transform="matrix(1.00, 0.00, -0.00, -1.00, 444.9, 348.8)">o</text><text xml:space="preserve" font-family="GillSans,Gill Sans" font-size="38.0" fill="#00CF41" transform="matrix(1.00, 0.00, -0.00, -1.00, 465.8, 348.8)">n</text><text xml:space="preserve" font-family="GillSans,Gill Sans" font-size="38.0" fill="#00CF41" transform="matrix(1.00, 0.00, -0.00, -1.00, 484.8, 348.8)">t</text><text xml:space="preserve" font-family="GillSans,Gill Sans" font-size="38.0" fill="#00CF41" transform="matrix(1.00, 0.00, -0.00, -1.00, 497.5, 348.8)">r</text><text xml:space="preserve" font-family="GillSans,Gill Sans" font-size="38.0" fill="#00CF41" transform="matrix(1.00, 0.00, -0.00, -1.00, 511.6, 348.8)">o</text><text xml:space="preserve" font-family="GillSans,Gill Sans" font-size="38.0" fill="#00CF41" transform="matrix(1.00, 0.00, -0.00, -1.00, 532.6, 348.8)">l</text><text xml:space="preserve" font-family="GillSans,Gill Sans" font-size="38.0" fill="#00CF41" transform="matrix(1.00, 0.00, -0.00, -1.00, 540.9, 348.8)"> </text><text xml:space="preserve" font-family="GillSans,Gill Sans" font-size="38.0" fill="#00CF41" transform="matrix(1.00, 0.00, -0.00, -1.00, 551.4, 348.8)">"</text><text xml:space="preserve" font-family="GillSans,Gill Sans" font-size="38.0" fill="#00CF41" transform="matrix(1.00, 0.00, -0.00, -1.00, 564.9, 348.8)">m</text><text xml:space="preserve" font-family="GillSans,Gill Sans" font-size="38.0" fill="#00CF41" transform="matrix(1.00, 0.00, -0.00, -1.00, 594.2, 348.8)">a</text><text xml:space="preserve" font-family="GillSans,Gill Sans" font-size="38.0" fill="#00CF41" transform="matrix(1.00, 0.00, -0.00, -1.00, 610.4, 348.8)">x</text><text xml:space="preserve" font-family="GillSans,Gill Sans" font-size="38.0" fill="#00CF41" transform="matrix(1.00, 0.00, -0.00, -1.00, 629.4, 348.8)">-</text><text xml:space="preserve" font-family="GillSans,Gill Sans" font-size="38.0" fill="#00CF41" transform="matrix(1.00, 0.00, -0.00, -1.00, 641.7, 348.8)">a</text><text xml:space="preserve" font-family="GillSans,Gill Sans" font-size="38.0" fill="#00CF41" transform="matrix(1.00, 0.00, -0.00, -1.00, 657.9, 348.8)">g</text><text xml:space="preserve" font-family="GillSans,Gill Sans" font-size="38.0" fill="#00CF41" transform="matrix(1.00, 0.00, -0.00, -1.00, 674.1, 348.8)">e</text><text xml:space="preserve" font-family="GillSans,Gill Sans" font-size="38.0" fill="#00CF41" transform="matrix(1.00, 0.00, -0.00, -1.00, 692.3, 348.8)">=</text><text xml:space="preserve" font-family="GillSans,Gill Sans" font-size="38.0" fill="#00CF41" transform="matrix(1.00, 0.00, -0.00, -1.00, 714.5, 348.8)">8</text><text xml:space="preserve" font-family="GillSans,Gill Sans" font-size="38.0" fill="#00CF41" transform="matrix(1.00, 0.00, -0.00, -1.00, 733.5, 348.8)">6</text><text xml:space="preserve" font-family="GillSans,Gill Sans" font-size="38.0" fill="#00CF41" transform="matrix(1.00, 0.00, -0.00, -1.00, 752.5, 348.8)">4</text><text xml:space="preserve" font-family="GillSans,Gill Sans" font-size="38.0" fill="#00CF41" transform="matrix(1.00, 0.00, -0.00, -1.00, 771.5, 348.8)">0</text><text xml:space="preserve" font-family="GillSans,Gill Sans" font-size="38.0" fill="#00CF41" transform="matrix(1.00, 0.00, -0.00, -1.00, 790.5, 348.8)">0</text><text xml:space="preserve" font-family="GillSans,Gill Sans" font-size="38.0" fill="#00CF41" transform="matrix(1.00, 0.00, -0.00, -1.00, 809.5, 348.8)">,</text><text xml:space="preserve" font-family="GillSans,Gill Sans" font-size="38.0" fill="#00CF41" transform="matrix(1.00, 0.00, -0.00, -1.00, 814.0, 348.8)"> </text><text xml:space="preserve" font-family="GillSans,Gill Sans" font-size="38.0" fill="#00CF41" transform="matrix(1.00, 0.00, -0.00, -1.00, 824.6, 348.8)"> </text><text xml:space="preserve" font-family="GillSans,Gill Sans" font-size="38.0" fill="#00CF41" transform="matrix(1.00, 0.00, -0.00, -1.00, 835.1, 348.8)">p</text><text xml:space="preserve" font-family="GillSans,Gill Sans" font-size="38.0" fill="#00CF41" transform="matrix(1.00, 0.00, -0.00, -1.00, 854.1, 348.8)">u</text><text xml:space="preserve" font-family="GillSans,Gill Sans" font-size="38.0" fill="#00CF41" transform="matrix(1.00, 0.00, -0.00, -1.00, 873.1, 348.8)">b</text><text xml:space="preserve" font-family="GillSans,Gill Sans" font-size="38.0" fill="#00CF41" transform="matrix(1.00, 0.00, -0.00, -1.00, 892.1, 348.8)">l</text><text xml:space="preserve" font-family="GillSans,Gill Sans" font-size="38.0" fill="#00CF41" transform="matrix(1.00, 0.00, -0.00, -1.00, 900.5, 348.8)">i</text><text xml:space="preserve" font-family="GillSans,Gill Sans" font-size="38.0" fill="#00CF41" transform="matrix(1.00, 0.00, -0.00, -1.00, 908.8, 348.8)">c</text><text xml:space="preserve" font-family="GillSans,Gill Sans" font-size="38.0" fill="#00CF41" transform="matrix(1.00, 0.00, -0.00, -1.00, 925.5, 348.8)">"</text><text xml:space="preserve" font-family="GillSans,Gill Sans" font-size="38.0" fill="#00CF41" transform="matrix(1.00, 0.00, -0.00, -1.00, 938.9, 348.8)">;</text><text xml:space="preserve" font-family="GillSans,Gill Sans" font-size="38.0" fill="#FF3156" transform="matrix(1.00, 0.00, -0.00, -1.00, 53.3, 304.8)"> </text><text xml:space="preserve" font-family="GillSans,Gill Sans" font-size="38.0" fill="#FF3156" transform="matrix(1.00, 0.00, -0.00, -1.00, 63.9, 304.8)"> </text><text xml:space="preserve" font-family="GillSans,Gill Sans" font-size="38.0" fill="#FF3156" transform="matrix(1.00, 0.00, -0.00, -1.00, 74.4, 304.8)"> </text><text xml:space="preserve" font-family="GillSans,Gill Sans" font-size="38.0" fill="#FF3156" transform="matrix(1.00, 0.00, -0.00, -1.00, 85.0, 304.8)"> </text><text xml:space="preserve" font-family="GillSans,Gill Sans" font-size="38.0" fill="#FF3156" transform="matrix(1.00, 0.00, -0.00, -1.00, 95.6, 304.8)">}</text><text xml:space="preserve" font-family="GillSans,Gill Sans" font-size="38.0" fill="#FF3156" transform="matrix(1.00, 0.00, -0.00, -1.00, 53.3, 260.8)"> </text><text xml:space="preserve" font-family="GillSans,Gill Sans" font-size="38.0" fill="#FF3156" transform="matrix(1.00, 0.00, -0.00, -1.00, 63.9, 260.8)"> </text><text xml:space="preserve" font-family="GillSans,Gill Sans" font-size="38.0" fill="#FF3156" transform="matrix(1.00, 0.00, -0.00, -1.00, 74.4, 260.8)"> </text><text xml:space="preserve" font-family="GillSans,Gill Sans" font-size="38.0" fill="#FF3156" transform="matrix(1.00, 0.00, -0.00, -1.00, 85.0, 260.8)"> </text><text xml:space="preserve" font-family="GillSans,Gill Sans" font-size="38.0" fill="#000000" transform="matrix(1.00, 0.00, -0.00, -1.00, 53.3, 216.8)"> </text><text xml:space="preserve" font-family="GillSans,Gill Sans" font-size="38.0" fill="#000000" transform="matrix(1.00, 0.00, -0.00, -1.00, 63.9, 216.8)"> </text><text xml:space="preserve" font-family="GillSans,Gill Sans" font-size="38.0" fill="#000000" transform="matrix(1.00, 0.00, -0.00, -1.00, 74.4, 216.8)"> </text><text xml:space="preserve" font-family="GillSans,Gill Sans" font-size="38.0" fill="#000000" transform="matrix(1.00, 0.00, -0.00, -1.00, 85.0, 216.8)"> </text><text xml:space="preserve" font-family="GillSans,Gill Sans" font-size="38.0" fill="#000000" transform="matrix(1.00, 0.00, -0.00, -1.00, 95.5, 216.8)">.</text><text xml:space="preserve" font-family="GillSans,Gill Sans" font-size="38.0" fill="#000000" transform="matrix(1.00, 0.00, -0.00, -1.00, 103.9, 216.8)">.</text><text xml:space="preserve" font-family="GillSans,Gill Sans" font-size="38.0" fill="#000000" transform="matrix(1.00, 0.00, -0.00, -1.00, 112.2, 216.8)">.</text><text xml:space="preserve" font-family="GillSans,Gill Sans" font-size="38.0" fill="#000000" transform="matrix(1.00, 0.00, -0.00, -1.00, 53.3, 128.8)">}</text><image xlink:href="../../5F5789CD-19CD-416E-BE5D-07DC76E772A7/assets/486D38D2FE34CDABDD6F2055D8E38922.png" width="2941.00" height="609.00" transform="matrix(0.20, 0.00, -0.00, -0.20, 402.0, 747.0)"></image></g></svg>