<?xml version="1.0" encoding="UTF-8" standalone="no"?><svg xmlns="http://www.w3.org/2000/svg" xmlns:xlink="http://www.w3.org/1999/xlink" clip-rule="evenodd" stroke-miterlimit="10" viewBox="0 0 1024 768"><desc>SVG generated by Keynote</desc><defs></defs><g transform="matrix(1.00, 0.00, -0.00, -1.00, 0.0, 768.0)"><g><clipPath id="clip0x7feca933f770"><path d="M 0.0 768.0 L 1024.0 768.0 L 1024.0 0.0 L 0.0 0.0 Z M 0.0 768.0 "></path></clipPath><g clip-path="url(#clip0x7feca933f770)"><image xlink:href="../../E873CE9D-5A2E-44AB-B239-23ED05440F53/assets/17F1A6EF0EC5776A0D03E21AE3DFED82.png" width="1280.00" height="720.00" transform="matrix(1.07, 0.00, -0.00, -1.07, -170.7, 768.0)"></image></g></g><image xlink:href="../../E873CE9D-5A2E-44AB-B239-23ED05440F53/assets/D8E8A80A5929BAD2B6E0D3D80C82C792.png" width="406.00" height="437.00" transform="matrix(0.81, 0.00, -0.00, -0.81, 838.0, 562.0)"></image><text xml:space="preserve" font-family="BebasNeueCyrillic,Bebas Neue Cyrillic" font-size="130.0" fill="#FFFFFF" transform="matrix(1.00, 0.00, -0.00, -1.00, 73.6, 451.6)">Т</text><text xml:space="preserve" font-family="BebasNeueCyrillic,Bebas Neue Cyrillic" font-size="130.0" fill="#FFFFFF" transform="matrix(1.00, 0.00, -0.00, -1.00, 120.3, 451.6)">и</text><text xml:space="preserve" font-family="BebasNeueCyrillic,Bebas Neue Cyrillic" font-size="130.0" fill="#FFFFFF" transform="matrix(1.00, 0.00, -0.00, -1.00, 176.0, 451.6)">п</text><text xml:space="preserve" font-family="BebasNeueCyrillic,Bebas Neue Cyrillic" font-size="130.0" fill="#FFFFFF" transform="matrix(1.00, 0.00, -0.00, -1.00, 231.5, 451.6)">о</text><text xml:space="preserve" font-family="BebasNeueCyrillic,Bebas Neue Cyrillic" font-size="130.0" fill="#FFFFFF" transform="matrix(1.00, 0.00, -0.00, -1.00, 282.6, 451.6)">в</text><text xml:space="preserve" font-family="BebasNeueCyrillic,Bebas Neue Cyrillic" font-size="130.0" fill="#FFFFFF" transform="matrix(1.00, 0.00, -0.00, -1.00, 335.2, 451.6)">ы</text><text xml:space="preserve" font-family="BebasNeueCyrillic,Bebas Neue Cyrillic" font-size="130.0" fill="#FFFFFF" transform="matrix(1.00, 0.00, -0.00, -1.00, 409.2, 451.6)">е</text><text xml:space="preserve" font-family="BebasNeueCyrillic,Bebas Neue Cyrillic" font-size="130.0" fill="#FFFFFF" transform="matrix(1.00, 0.00, -0.00, -1.00, 456.6, 451.6)"> </text><text xml:space="preserve" font-family="BebasNeueCyrillic,Bebas Neue Cyrillic" font-size="130.0" fill="#FFFFFF" transform="matrix(1.00, 0.00, -0.00, -1.00, 476.7, 451.6)">п</text><text xml:space="preserve" font-family="BebasNeueCyrillic,Bebas Neue Cyrillic" font-size="130.0" fill="#FFFFFF" transform="matrix(1.00, 0.00, -0.00, -1.00, 532.2, 451.6)">р</text><text xml:space="preserve" font-family="BebasNeueCyrillic,Bebas Neue Cyrillic" font-size="130.0" fill="#FFFFFF" transform="matrix(1.00, 0.00, -0.00, -1.00, 581.0, 451.6)">о</text><text xml:space="preserve" font-family="BebasNeueCyrillic,Bebas Neue Cyrillic" font-size="130.0" fill="#FFFFFF" transform="matrix(1.00, 0.00, -0.00, -1.00, 632.1, 451.6)">б</text><text xml:space="preserve" font-family="BebasNeueCyrillic,Bebas Neue Cyrillic" font-size="130.0" fill="#FFFFFF" transform="matrix(1.00, 0.00, -0.00, -1.00, 682.9, 451.6)">л</text><text xml:space="preserve" font-family="BebasNeueCyrillic,Bebas Neue Cyrillic" font-size="130.0" fill="#FFFFFF" transform="matrix(1.00, 0.00, -0.00, -1.00, 747.6, 451.6)">е</text><text xml:space="preserve" font-family="BebasNeueCyrillic,Bebas Neue Cyrillic" font-size="130.0" fill="#FFFFFF" transform="matrix(1.00, 0.00, -0.00, -1.00, 795.0, 451.6)">м</text><text xml:space="preserve" font-family="BebasNeueCyrillic,Bebas Neue Cyrillic" font-size="130.0" fill="#FFFFFF" transform="matrix(1.00, 0.00, -0.00, -1.00, 865.5, 451.6)">ы</text><text xml:space="preserve" font-family="ISOCPEUR,ISOCPEUR" font-size="50.0" fill="#FFFFFF" transform="matrix(1.00, 0.00, -0.00, -1.00, 75.7, 283.1)">…</text><text xml:space="preserve" font-family="ISOCPEUR,ISOCPEUR" font-size="50.0" fill="#FFFFFF" transform="matrix(1.00, 0.00, -0.00, -1.00, 101.5, 283.1)"> </text><text xml:space="preserve" font-family="ISOCPEUR,ISOCPEUR" font-size="50.0" fill="#FFFFFF" transform="matrix(1.00, 0.00, -0.00, -1.00, 120.8, 283.1)">т</text><text xml:space="preserve" font-family="ISOCPEUR,ISOCPEUR" font-size="50.0" fill="#FFFFFF" transform="matrix(1.00, 0.00, -0.00, -1.00, 149.8, 283.1)">я</text><text xml:space="preserve" font-family="ISOCPEUR,ISOCPEUR" font-size="50.0" fill="#FFFFFF" transform="matrix(1.00, 0.00, -0.00, -1.00, 172.4, 283.1)">ж</text><text xml:space="preserve" font-family="ISOCPEUR,ISOCPEUR" font-size="50.0" fill="#FFFFFF" transform="matrix(1.00, 0.00, -0.00, -1.00, 201.5, 283.1)">к</text><text xml:space="preserve" font-family="ISOCPEUR,ISOCPEUR" font-size="50.0" fill="#FFFFFF" transform="matrix(1.00, 0.00, -0.00, -1.00, 224.1, 283.1)">о</text><text xml:space="preserve" font-family="ISOCPEUR,ISOCPEUR" font-size="50.0" fill="#FFFFFF" transform="matrix(1.00, 0.00, -0.00, -1.00, 246.6, 283.1)"> </text><text xml:space="preserve" font-family="ISOCPEUR,ISOCPEUR" font-size="50.0" fill="#FFFFFF" transform="matrix(1.00, 0.00, -0.00, -1.00, 266.0, 283.1)">ж</text><text xml:space="preserve" font-family="ISOCPEUR,ISOCPEUR" font-size="50.0" fill="#FFFFFF" transform="matrix(1.00, 0.00, -0.00, -1.00, 295.0, 283.1)">и</text><text xml:space="preserve" font-family="ISOCPEUR,ISOCPEUR" font-size="50.0" fill="#FFFFFF" transform="matrix(1.00, 0.00, -0.00, -1.00, 317.6, 283.1)">т</text><text xml:space="preserve" font-family="ISOCPEUR,ISOCPEUR" font-size="50.0" fill="#FFFFFF" transform="matrix(1.00, 0.00, -0.00, -1.00, 346.6, 283.1)">ь</text><text xml:space="preserve" font-family="ISOCPEUR,ISOCPEUR" font-size="50.0" fill="#FFFFFF" transform="matrix(1.00, 0.00, -0.00, -1.00, 369.2, 283.1)"> </text><text xml:space="preserve" font-family="ISOCPEUR,ISOCPEUR" font-size="50.0" fill="#FFFFFF" transform="matrix(1.00, 0.00, -0.00, -1.00, 388.5, 283.1)">в</text><text xml:space="preserve" font-family="ISOCPEUR,ISOCPEUR" font-size="50.0" fill="#FFFFFF" transform="matrix(1.00, 0.00, -0.00, -1.00, 411.1, 283.1)">е</text><text xml:space="preserve" font-family="ISOCPEUR,ISOCPEUR" font-size="50.0" fill="#FFFFFF" transform="matrix(1.00, 0.00, -0.00, -1.00, 433.7, 283.1)">б</text><text xml:space="preserve" font-family="ISOCPEUR,ISOCPEUR" font-size="50.0" fill="#FFFFFF" transform="matrix(1.00, 0.00, -0.00, -1.00, 456.3, 283.1)">-</text><text xml:space="preserve" font-family="ISOCPEUR,ISOCPEUR" font-size="50.0" fill="#FFFFFF" transform="matrix(1.00, 0.00, -0.00, -1.00, 478.9, 283.1)">р</text><text xml:space="preserve" font-family="ISOCPEUR,ISOCPEUR" font-size="50.0" fill="#FFFFFF" transform="matrix(1.00, 0.00, -0.00, -1.00, 501.5, 283.1)">а</text><text xml:space="preserve" font-family="ISOCPEUR,ISOCPEUR" font-size="50.0" fill="#FFFFFF" transform="matrix(1.00, 0.00, -0.00, -1.00, 527.2, 283.1)">з</text><text xml:space="preserve" font-family="ISOCPEUR,ISOCPEUR" font-size="50.0" fill="#FFFFFF" transform="matrix(1.00, 0.00, -0.00, -1.00, 548.2, 283.1)">р</text><text xml:space="preserve" font-family="ISOCPEUR,ISOCPEUR" font-size="50.0" fill="#FFFFFF" transform="matrix(1.00, 0.00, -0.00, -1.00, 570.7, 283.1)">а</text><text xml:space="preserve" font-family="ISOCPEUR,ISOCPEUR" font-size="50.0" fill="#FFFFFF" transform="matrix(1.00, 0.00, -0.00, -1.00, 596.5, 283.1)">б</text><text xml:space="preserve" font-family="ISOCPEUR,ISOCPEUR" font-size="50.0" fill="#FFFFFF" transform="matrix(1.00, 0.00, -0.00, -1.00, 619.1, 283.1)">о</text><text xml:space="preserve" font-family="ISOCPEUR,ISOCPEUR" font-size="50.0" fill="#FFFFFF" transform="matrix(1.00, 0.00, -0.00, -1.00, 641.7, 283.1)">т</text><text xml:space="preserve" font-family="ISOCPEUR,ISOCPEUR" font-size="50.0" fill="#FFFFFF" transform="matrix(1.00, 0.00, -0.00, -1.00, 670.7, 283.1)">ч</text><text xml:space="preserve" font-family="ISOCPEUR,ISOCPEUR" font-size="50.0" fill="#FFFFFF" transform="matrix(1.00, 0.00, -0.00, -1.00, 693.3, 283.1)">и</text><text xml:space="preserve" font-family="ISOCPEUR,ISOCPEUR" font-size="50.0" fill="#FFFFFF" transform="matrix(1.00, 0.00, -0.00, -1.00, 715.9, 283.1)">к</text><text xml:space="preserve" font-family="ISOCPEUR,ISOCPEUR" font-size="50.0" fill="#FFFFFF" transform="matrix(1.00, 0.00, -0.00, -1.00, 738.5, 283.1)">у</text></g></svg>