<?xml version="1.0" encoding="UTF-8" standalone="no"?><svg xmlns="http://www.w3.org/2000/svg" xmlns:xlink="http://www.w3.org/1999/xlink" clip-rule="evenodd" stroke-miterlimit="10" viewBox="0 0 1024 768"><desc>SVG generated by Keynote</desc><defs></defs><g transform="matrix(1.00, 0.00, -0.00, -1.00, 0.0, 768.0)"><g><clipPath id="clip0x7feca94d1870"><path d="M 0.0 768.0 L 1024.0 768.0 L 1024.0 0.0 L 0.0 0.0 Z M 0.0 768.0 "></path></clipPath><g clip-path="url(#clip0x7feca94d1870)"><image xlink:href="../../D65291DE-E52B-48DA-BF23-32852F1E7222/assets/716D123BC9C8A5783E3659E49C5D5E27.png" width="1280.00" height="720.00" transform="matrix(1.07, 0.00, -0.00, -1.07, -170.7, 768.0)"></image></g></g><text xml:space="preserve" font-family="BebasNeueCyrillic,Bebas Neue Cyrillic" font-size="180.0" fill="#1AAFFA" transform="matrix(1.00, 0.00, -0.00, -1.00, 222.4, 418.4)">Ф</text><text xml:space="preserve" font-family="BebasNeueCyrillic,Bebas Neue Cyrillic" font-size="180.0" fill="#1AAFFA" transform="matrix(1.00, 0.00, -0.00, -1.00, 325.3, 418.4)">О</text><text xml:space="preserve" font-family="BebasNeueCyrillic,Bebas Neue Cyrillic" font-size="180.0" fill="#1AAFFA" transform="matrix(1.00, 0.00, -0.00, -1.00, 396.1, 418.4)">Р</text><text xml:space="preserve" font-family="BebasNeueCyrillic,Bebas Neue Cyrillic" font-size="180.0" fill="#1AAFFA" transform="matrix(1.00, 0.00, -0.00, -1.00, 463.7, 418.4)">М</text><text xml:space="preserve" font-family="BebasNeueCyrillic,Bebas Neue Cyrillic" font-size="180.0" fill="#1AAFFA" transform="matrix(1.00, 0.00, -0.00, -1.00, 561.3, 418.4)">А</text><text xml:space="preserve" font-family="BebasNeueCyrillic,Bebas Neue Cyrillic" font-size="180.0" fill="#1AAFFA" transform="matrix(1.00, 0.00, -0.00, -1.00, 634.1, 418.4)">Т</text><text xml:space="preserve" font-family="BebasNeueCyrillic,Bebas Neue Cyrillic" font-size="180.0" fill="#1AAFFA" transform="matrix(1.00, 0.00, -0.00, -1.00, 698.9, 418.4)">Ы</text><text xml:space="preserve" font-family="BebasNeueCyrillic,Bebas Neue Cyrillic" font-size="160.0" fill="#FEFFFE" transform="matrix(1.00, 0.00, -0.00, -1.00, 801.6, 418.4)"> </text><text xml:space="preserve" font-family="BebasNeueCyrillic,Bebas Neue Cyrillic" font-size="160.0" fill="#FEFFFE" transform="matrix(1.00, 0.00, -0.00, -1.00, 138.6, 196.2)">И</text><text xml:space="preserve" font-family="BebasNeueCyrillic,Bebas Neue Cyrillic" font-size="160.0" fill="#FEFFFE" transform="matrix(1.00, 0.00, -0.00, -1.00, 207.2, 196.2)">З</text><text xml:space="preserve" font-family="BebasNeueCyrillic,Bebas Neue Cyrillic" font-size="160.0" fill="#FEFFFE" transform="matrix(1.00, 0.00, -0.00, -1.00, 269.2, 196.2)">О</text><text xml:space="preserve" font-family="BebasNeueCyrillic,Bebas Neue Cyrillic" font-size="160.0" fill="#FEFFFE" transform="matrix(1.00, 0.00, -0.00, -1.00, 332.1, 196.2)">Б</text><text xml:space="preserve" font-family="BebasNeueCyrillic,Bebas Neue Cyrillic" font-size="160.0" fill="#FEFFFE" transform="matrix(1.00, 0.00, -0.00, -1.00, 394.5, 196.2)">Р</text><text xml:space="preserve" font-family="BebasNeueCyrillic,Bebas Neue Cyrillic" font-size="160.0" fill="#FEFFFE" transform="matrix(1.00, 0.00, -0.00, -1.00, 454.7, 196.2)">А</text><text xml:space="preserve" font-family="BebasNeueCyrillic,Bebas Neue Cyrillic" font-size="160.0" fill="#FEFFFE" transform="matrix(1.00, 0.00, -0.00, -1.00, 519.4, 196.2)">Ж</text><text xml:space="preserve" font-family="BebasNeueCyrillic,Bebas Neue Cyrillic" font-size="160.0" fill="#FEFFFE" transform="matrix(1.00, 0.00, -0.00, -1.00, 621.2, 196.2)">Е</text><text xml:space="preserve" font-family="BebasNeueCyrillic,Bebas Neue Cyrillic" font-size="160.0" fill="#FEFFFE" transform="matrix(1.00, 0.00, -0.00, -1.00, 679.5, 196.2)">Н</text><text xml:space="preserve" font-family="BebasNeueCyrillic,Bebas Neue Cyrillic" font-size="160.0" fill="#FEFFFE" transform="matrix(1.00, 0.00, -0.00, -1.00, 747.8, 196.2)">И</text><text xml:space="preserve" font-family="BebasNeueCyrillic,Bebas Neue Cyrillic" font-size="160.0" fill="#FEFFFE" transform="matrix(1.00, 0.00, -0.00, -1.00, 816.3, 196.2)">Й</text><text xml:space="preserve" font-family="BebasNeueCyrillic,Bebas Neue Cyrillic" font-size="160.0" fill="#FEFFFE" transform="matrix(1.00, 0.00, -0.00, -1.00, 885.4, 196.2)"> </text></g></svg>