<?xml version="1.0" encoding="UTF-8" standalone="no"?><svg xmlns="http://www.w3.org/2000/svg" xmlns:xlink="http://www.w3.org/1999/xlink" clip-rule="evenodd" stroke-miterlimit="10" viewBox="0 0 1024 768"><desc>SVG generated by Keynote</desc><defs></defs><g transform="matrix(1.00, 0.00, -0.00, -1.00, 0.0, 768.0)"><g><clipPath id="clip0x7fecad3285a0"><path d="M 0.0 768.0 L 1024.0 768.0 L 1024.0 0.0 L 0.0 0.0 Z M 0.0 768.0 "></path></clipPath><g clip-path="url(#clip0x7fecad3285a0)"><image xlink:href="../../D65291DE-E52B-48DA-BF23-32852F1E7222/assets/716D123BC9C8A5783E3659E49C5D5E27.png" width="1280.00" height="720.00" transform="matrix(1.07, 0.00, -0.00, -1.07, -170.7, 768.0)"></image></g></g><text xml:space="preserve" font-family="DINCondensed-Bold,DIN Condensed" font-weight="bold" font-size="70.0" fill="#00CF41" transform="matrix(1.00, 0.00, -0.00, -1.00, 432.1, 489.7)">A</text><text xml:space="preserve" font-family="DINCondensed-Bold,DIN Condensed" font-weight="bold" font-size="70.0" fill="#00CF41" transform="matrix(1.00, 0.00, -0.00, -1.00, 460.6, 489.7)">p</text><text xml:space="preserve" font-family="DINCondensed-Bold,DIN Condensed" font-weight="bold" font-size="70.0" fill="#00CF41" transform="matrix(1.00, 0.00, -0.00, -1.00, 487.8, 489.7)">a</text><text xml:space="preserve" font-family="DINCondensed-Bold,DIN Condensed" font-weight="bold" font-size="70.0" fill="#00CF41" transform="matrix(1.00, 0.00, -0.00, -1.00, 513.7, 489.7)">c</text><text xml:space="preserve" font-family="DINCondensed-Bold,DIN Condensed" font-weight="bold" font-size="70.0" fill="#00CF41" transform="matrix(1.00, 0.00, -0.00, -1.00, 538.8, 489.7)">h</text><text xml:space="preserve" font-family="DINCondensed-Bold,DIN Condensed" font-weight="bold" font-size="70.0" fill="#00CF41" transform="matrix(1.00, 0.00, -0.00, -1.00, 566.0, 489.7)">e</text><text xml:space="preserve" font-family="DINCondensed-Bold,DIN Condensed" font-weight="bold" font-size="70.0" fill="#00CF41" transform="matrix(1.00, 0.00, -0.00, -1.00, 591.9, 489.7)"> </text><text xml:space="preserve" font-family="DINCondensed-Bold,DIN Condensed" font-weight="bold" font-size="55.0" fill="#FEFFFE" transform="matrix(1.00, 0.00, -0.00, -1.00, 272.3, 416.4)">M</text><text xml:space="preserve" font-family="DINCondensed-Bold,DIN Condensed" font-weight="bold" font-size="55.0" fill="#FEFFFE" transform="matrix(1.00, 0.00, -0.00, -1.00, 302.9, 416.4)">o</text><text xml:space="preserve" font-family="DINCondensed-Bold,DIN Condensed" font-weight="bold" font-size="55.0" fill="#FEFFFE" transform="matrix(1.00, 0.00, -0.00, -1.00, 323.2, 416.4)">d</text><text xml:space="preserve" font-family="DINCondensed-Bold,DIN Condensed" font-weight="bold" font-size="55.0" fill="#FEFFFE" transform="matrix(1.00, 0.00, -0.00, -1.00, 344.6, 416.4)">P</text><text xml:space="preserve" font-family="DINCondensed-Bold,DIN Condensed" font-weight="bold" font-size="55.0" fill="#FEFFFE" transform="matrix(1.00, 0.00, -0.00, -1.00, 366.3, 416.4)">a</text><text xml:space="preserve" font-family="DINCondensed-Bold,DIN Condensed" font-weight="bold" font-size="55.0" fill="#FEFFFE" transform="matrix(1.00, 0.00, -0.00, -1.00, 386.7, 416.4)">g</text><text xml:space="preserve" font-family="DINCondensed-Bold,DIN Condensed" font-weight="bold" font-size="55.0" fill="#FEFFFE" transform="matrix(1.00, 0.00, -0.00, -1.00, 408.1, 416.4)">e</text><text xml:space="preserve" font-family="DINCondensed-Bold,DIN Condensed" font-weight="bold" font-size="55.0" fill="#FEFFFE" transform="matrix(1.00, 0.00, -0.00, -1.00, 428.4, 416.4)">s</text><text xml:space="preserve" font-family="DINCondensed-Bold,DIN Condensed" font-weight="bold" font-size="55.0" fill="#FEFFFE" transform="matrix(1.00, 0.00, -0.00, -1.00, 447.8, 416.4)">p</text><text xml:space="preserve" font-family="DINCondensed-Bold,DIN Condensed" font-weight="bold" font-size="55.0" fill="#FEFFFE" transform="matrix(1.00, 0.00, -0.00, -1.00, 469.2, 416.4)">e</text><text xml:space="preserve" font-family="DINCondensed-Bold,DIN Condensed" font-weight="bold" font-size="55.0" fill="#FEFFFE" transform="matrix(1.00, 0.00, -0.00, -1.00, 489.5, 416.4)">e</text><text xml:space="preserve" font-family="DINCondensed-Bold,DIN Condensed" font-weight="bold" font-size="55.0" fill="#FEFFFE" transform="matrix(1.00, 0.00, -0.00, -1.00, 509.9, 416.4)">d</text><text xml:space="preserve" font-family="DINCondensed-Bold,DIN Condensed" font-weight="bold" font-size="55.0" fill="#FEFFFE" transform="matrix(1.00, 0.00, -0.00, -1.00, 531.3, 416.4)">E</text><text xml:space="preserve" font-family="DINCondensed-Bold,DIN Condensed" font-weight="bold" font-size="55.0" fill="#FEFFFE" transform="matrix(1.00, 0.00, -0.00, -1.00, 551.6, 416.4)">n</text><text xml:space="preserve" font-family="DINCondensed-Bold,DIN Condensed" font-weight="bold" font-size="55.0" fill="#FEFFFE" transform="matrix(1.00, 0.00, -0.00, -1.00, 573.0, 416.4)">a</text><text xml:space="preserve" font-family="DINCondensed-Bold,DIN Condensed" font-weight="bold" font-size="55.0" fill="#FEFFFE" transform="matrix(1.00, 0.00, -0.00, -1.00, 593.4, 416.4)">b</text><text xml:space="preserve" font-family="DINCondensed-Bold,DIN Condensed" font-weight="bold" font-size="55.0" fill="#FEFFFE" transform="matrix(1.00, 0.00, -0.00, -1.00, 614.8, 416.4)">l</text><text xml:space="preserve" font-family="DINCondensed-Bold,DIN Condensed" font-weight="bold" font-size="55.0" fill="#FEFFFE" transform="matrix(1.00, 0.00, -0.00, -1.00, 625.0, 416.4)">e</text><text xml:space="preserve" font-family="DINCondensed-Bold,DIN Condensed" font-weight="bold" font-size="55.0" fill="#FEFFFE" transform="matrix(1.00, 0.00, -0.00, -1.00, 645.3, 416.4)">F</text><text xml:space="preserve" font-family="DINCondensed-Bold,DIN Condensed" font-weight="bold" font-size="55.0" fill="#FEFFFE" transform="matrix(1.00, 0.00, -0.00, -1.00, 665.0, 416.4)">i</text><text xml:space="preserve" font-family="DINCondensed-Bold,DIN Condensed" font-weight="bold" font-size="55.0" fill="#FEFFFE" transform="matrix(1.00, 0.00, -0.00, -1.00, 675.3, 416.4)">l</text><text xml:space="preserve" font-family="DINCondensed-Bold,DIN Condensed" font-weight="bold" font-size="55.0" fill="#FEFFFE" transform="matrix(1.00, 0.00, -0.00, -1.00, 685.5, 416.4)">t</text><text xml:space="preserve" font-family="DINCondensed-Bold,DIN Condensed" font-weight="bold" font-size="55.0" fill="#FEFFFE" transform="matrix(1.00, 0.00, -0.00, -1.00, 696.7, 416.4)">e</text><text xml:space="preserve" font-family="DINCondensed-Bold,DIN Condensed" font-weight="bold" font-size="55.0" fill="#FEFFFE" transform="matrix(1.00, 0.00, -0.00, -1.00, 717.1, 416.4)">r</text><text xml:space="preserve" font-family="DINCondensed-Bold,DIN Condensed" font-weight="bold" font-size="55.0" fill="#FEFFFE" transform="matrix(1.00, 0.00, -0.00, -1.00, 732.4, 416.4)">s</text><text xml:space="preserve" font-family="DINCondensed-Bold,DIN Condensed" font-weight="bold" font-size="55.0" fill="#FEFFFE" transform="matrix(1.00, 0.00, -0.00, -1.00, 751.7, 416.4)"> </text><text xml:space="preserve" font-family="DINCondensed-Bold,DIN Condensed" font-weight="bold" font-size="55.0" fill="#FEFFFE" transform="matrix(1.00, 0.00, -0.00, -1.00, 761.9, 416.4)"> </text><text xml:space="preserve" font-family="DINCondensed-Bold,DIN Condensed" font-weight="bold" font-size="55.0" fill="#F9F600" transform="matrix(1.00, 0.00, -0.00, -1.00, 286.1, 350.4)">m</text><text xml:space="preserve" font-family="DINCondensed-Bold,DIN Condensed" font-weight="bold" font-size="55.0" fill="#F9F600" transform="matrix(1.00, 0.00, -0.00, -1.00, 318.6, 350.4)">o</text><text xml:space="preserve" font-family="DINCondensed-Bold,DIN Condensed" font-weight="bold" font-size="55.0" fill="#F9F600" transform="matrix(1.00, 0.00, -0.00, -1.00, 338.6, 350.4)">v</text><text xml:space="preserve" font-family="DINCondensed-Bold,DIN Condensed" font-weight="bold" font-size="55.0" fill="#F9F600" transform="matrix(1.00, 0.00, -0.00, -1.00, 357.7, 350.4)">e</text><text xml:space="preserve" font-family="DINCondensed-Bold,DIN Condensed" font-weight="bold" font-size="55.0" fill="#F9F600" transform="matrix(1.00, 0.00, -0.00, -1.00, 378.0, 350.4)">_</text><text xml:space="preserve" font-family="DINCondensed-Bold,DIN Condensed" font-weight="bold" font-size="55.0" fill="#F9F600" transform="matrix(1.00, 0.00, -0.00, -1.00, 405.5, 350.4)">c</text><text xml:space="preserve" font-family="DINCondensed-Bold,DIN Condensed" font-weight="bold" font-size="55.0" fill="#F9F600" transform="matrix(1.00, 0.00, -0.00, -1.00, 425.9, 350.4)">s</text><text xml:space="preserve" font-family="DINCondensed-Bold,DIN Condensed" font-weight="bold" font-size="55.0" fill="#F9F600" transform="matrix(1.00, 0.00, -0.00, -1.00, 445.2, 350.4)">s</text><text xml:space="preserve" font-family="DINCondensed-Bold,DIN Condensed" font-weight="bold" font-size="55.0" fill="#F9F600" transform="matrix(1.00, 0.00, -0.00, -1.00, 464.6, 350.4)">_</text><text xml:space="preserve" font-family="DINCondensed-Bold,DIN Condensed" font-weight="bold" font-size="55.0" fill="#F9F600" transform="matrix(1.00, 0.00, -0.00, -1.00, 492.1, 350.4)">a</text><text xml:space="preserve" font-family="DINCondensed-Bold,DIN Condensed" font-weight="bold" font-size="55.0" fill="#F9F600" transform="matrix(1.00, 0.00, -0.00, -1.00, 512.4, 350.4)">b</text><text xml:space="preserve" font-family="DINCondensed-Bold,DIN Condensed" font-weight="bold" font-size="55.0" fill="#F9F600" transform="matrix(1.00, 0.00, -0.00, -1.00, 533.8, 350.4)">o</text><text xml:space="preserve" font-family="DINCondensed-Bold,DIN Condensed" font-weight="bold" font-size="55.0" fill="#F9F600" transform="matrix(1.00, 0.00, -0.00, -1.00, 553.9, 350.4)">v</text><text xml:space="preserve" font-family="DINCondensed-Bold,DIN Condensed" font-weight="bold" font-size="55.0" fill="#F9F600" transform="matrix(1.00, 0.00, -0.00, -1.00, 572.9, 350.4)">e</text><text xml:space="preserve" font-family="DINCondensed-Bold,DIN Condensed" font-weight="bold" font-size="55.0" fill="#F9F600" transform="matrix(1.00, 0.00, -0.00, -1.00, 593.2, 350.4)">_</text><text xml:space="preserve" font-family="DINCondensed-Bold,DIN Condensed" font-weight="bold" font-size="55.0" fill="#F9F600" transform="matrix(1.00, 0.00, -0.00, -1.00, 620.7, 350.4)">s</text><text xml:space="preserve" font-family="DINCondensed-Bold,DIN Condensed" font-weight="bold" font-size="55.0" fill="#F9F600" transform="matrix(1.00, 0.00, -0.00, -1.00, 640.1, 350.4)">c</text><text xml:space="preserve" font-family="DINCondensed-Bold,DIN Condensed" font-weight="bold" font-size="55.0" fill="#F9F600" transform="matrix(1.00, 0.00, -0.00, -1.00, 660.4, 350.4)">r</text><text xml:space="preserve" font-family="DINCondensed-Bold,DIN Condensed" font-weight="bold" font-size="55.0" fill="#F9F600" transform="matrix(1.00, 0.00, -0.00, -1.00, 675.7, 350.4)">i</text><text xml:space="preserve" font-family="DINCondensed-Bold,DIN Condensed" font-weight="bold" font-size="55.0" fill="#F9F600" transform="matrix(1.00, 0.00, -0.00, -1.00, 686.0, 350.4)">p</text><text xml:space="preserve" font-family="DINCondensed-Bold,DIN Condensed" font-weight="bold" font-size="55.0" fill="#F9F600" transform="matrix(1.00, 0.00, -0.00, -1.00, 707.4, 350.4)">t</text><text xml:space="preserve" font-family="DINCondensed-Bold,DIN Condensed" font-weight="bold" font-size="55.0" fill="#F9F600" transform="matrix(1.00, 0.00, -0.00, -1.00, 718.6, 350.4)">s</text><text xml:space="preserve" font-family="DINCondensed-Bold,DIN Condensed" font-weight="bold" font-size="55.0" fill="#FEFFFE" transform="matrix(1.00, 0.00, -0.00, -1.00, 737.9, 350.4)"> </text><text xml:space="preserve" font-family="DINCondensed-Bold,DIN Condensed" font-weight="bold" font-size="70.0" fill="#1AAFFA" transform="matrix(1.00, 0.00, -0.00, -1.00, 451.1, 207.7)">N</text><text xml:space="preserve" font-family="DINCondensed-Bold,DIN Condensed" font-weight="bold" font-size="70.0" fill="#1AAFFA" transform="matrix(1.00, 0.00, -0.00, -1.00, 482.2, 207.7)">g</text><text xml:space="preserve" font-family="DINCondensed-Bold,DIN Condensed" font-weight="bold" font-size="70.0" fill="#1AAFFA" transform="matrix(1.00, 0.00, -0.00, -1.00, 509.4, 207.7)">i</text><text xml:space="preserve" font-family="DINCondensed-Bold,DIN Condensed" font-weight="bold" font-size="70.0" fill="#1AAFFA" transform="matrix(1.00, 0.00, -0.00, -1.00, 522.4, 207.7)">n</text><text xml:space="preserve" font-family="DINCondensed-Bold,DIN Condensed" font-weight="bold" font-size="70.0" fill="#1AAFFA" transform="matrix(1.00, 0.00, -0.00, -1.00, 549.7, 207.7)">x</text><text xml:space="preserve" font-family="DINCondensed-Bold,DIN Condensed" font-weight="bold" font-size="70.0" fill="#1AAFFA" transform="matrix(1.00, 0.00, -0.00, -1.00, 572.9, 207.7)"> </text><text xml:space="preserve" font-family="DINCondensed-Bold,DIN Condensed" font-weight="bold" font-size="55.0" fill="#FEFFFE" transform="matrix(1.00, 0.00, -0.00, -1.00, 303.5, 134.4)">p</text><text xml:space="preserve" font-family="DINCondensed-Bold,DIN Condensed" font-weight="bold" font-size="55.0" fill="#FEFFFE" transform="matrix(1.00, 0.00, -0.00, -1.00, 324.9, 134.4)">a</text><text xml:space="preserve" font-family="DINCondensed-Bold,DIN Condensed" font-weight="bold" font-size="55.0" fill="#FEFFFE" transform="matrix(1.00, 0.00, -0.00, -1.00, 345.2, 134.4)">g</text><text xml:space="preserve" font-family="DINCondensed-Bold,DIN Condensed" font-weight="bold" font-size="55.0" fill="#FEFFFE" transform="matrix(1.00, 0.00, -0.00, -1.00, 366.6, 134.4)">e</text><text xml:space="preserve" font-family="DINCondensed-Bold,DIN Condensed" font-weight="bold" font-size="55.0" fill="#FEFFFE" transform="matrix(1.00, 0.00, -0.00, -1.00, 387.0, 134.4)">s</text><text xml:space="preserve" font-family="DINCondensed-Bold,DIN Condensed" font-weight="bold" font-size="55.0" fill="#FEFFFE" transform="matrix(1.00, 0.00, -0.00, -1.00, 406.3, 134.4)">p</text><text xml:space="preserve" font-family="DINCondensed-Bold,DIN Condensed" font-weight="bold" font-size="55.0" fill="#FEFFFE" transform="matrix(1.00, 0.00, -0.00, -1.00, 427.7, 134.4)">e</text><text xml:space="preserve" font-family="DINCondensed-Bold,DIN Condensed" font-weight="bold" font-size="55.0" fill="#FEFFFE" transform="matrix(1.00, 0.00, -0.00, -1.00, 448.1, 134.4)">e</text><text xml:space="preserve" font-family="DINCondensed-Bold,DIN Condensed" font-weight="bold" font-size="55.0" fill="#FEFFFE" transform="matrix(1.00, 0.00, -0.00, -1.00, 468.4, 134.4)">d</text><text xml:space="preserve" font-family="DINCondensed-Bold,DIN Condensed" font-weight="bold" font-size="55.0" fill="#FEFFFE" transform="matrix(1.00, 0.00, -0.00, -1.00, 489.8, 134.4)"> </text><text xml:space="preserve" font-family="DINCondensed-Bold,DIN Condensed" font-weight="bold" font-size="55.0" fill="#FEFFFE" transform="matrix(1.00, 0.00, -0.00, -1.00, 500.1, 134.4)">E</text><text xml:space="preserve" font-family="DINCondensed-Bold,DIN Condensed" font-weight="bold" font-size="55.0" fill="#FEFFFE" transform="matrix(1.00, 0.00, -0.00, -1.00, 520.4, 134.4)">n</text><text xml:space="preserve" font-family="DINCondensed-Bold,DIN Condensed" font-weight="bold" font-size="55.0" fill="#FEFFFE" transform="matrix(1.00, 0.00, -0.00, -1.00, 541.8, 134.4)">a</text><text xml:space="preserve" font-family="DINCondensed-Bold,DIN Condensed" font-weight="bold" font-size="55.0" fill="#FEFFFE" transform="matrix(1.00, 0.00, -0.00, -1.00, 562.2, 134.4)">b</text><text xml:space="preserve" font-family="DINCondensed-Bold,DIN Condensed" font-weight="bold" font-size="55.0" fill="#FEFFFE" transform="matrix(1.00, 0.00, -0.00, -1.00, 583.6, 134.4)">l</text><text xml:space="preserve" font-family="DINCondensed-Bold,DIN Condensed" font-weight="bold" font-size="55.0" fill="#FEFFFE" transform="matrix(1.00, 0.00, -0.00, -1.00, 593.8, 134.4)">e</text><text xml:space="preserve" font-family="DINCondensed-Bold,DIN Condensed" font-weight="bold" font-size="55.0" fill="#FEFFFE" transform="matrix(1.00, 0.00, -0.00, -1.00, 614.1, 134.4)">F</text><text xml:space="preserve" font-family="DINCondensed-Bold,DIN Condensed" font-weight="bold" font-size="55.0" fill="#FEFFFE" transform="matrix(1.00, 0.00, -0.00, -1.00, 633.8, 134.4)">i</text><text xml:space="preserve" font-family="DINCondensed-Bold,DIN Condensed" font-weight="bold" font-size="55.0" fill="#FEFFFE" transform="matrix(1.00, 0.00, -0.00, -1.00, 644.1, 134.4)">l</text><text xml:space="preserve" font-family="DINCondensed-Bold,DIN Condensed" font-weight="bold" font-size="55.0" fill="#FEFFFE" transform="matrix(1.00, 0.00, -0.00, -1.00, 654.3, 134.4)">t</text><text xml:space="preserve" font-family="DINCondensed-Bold,DIN Condensed" font-weight="bold" font-size="55.0" fill="#FEFFFE" transform="matrix(1.00, 0.00, -0.00, -1.00, 665.5, 134.4)">e</text><text xml:space="preserve" font-family="DINCondensed-Bold,DIN Condensed" font-weight="bold" font-size="55.0" fill="#FEFFFE" transform="matrix(1.00, 0.00, -0.00, -1.00, 685.9, 134.4)">r</text><text xml:space="preserve" font-family="DINCondensed-Bold,DIN Condensed" font-weight="bold" font-size="55.0" fill="#FEFFFE" transform="matrix(1.00, 0.00, -0.00, -1.00, 701.1, 134.4)">s</text><text xml:space="preserve" font-family="DINCondensed-Bold,DIN Condensed" font-weight="bold" font-size="55.0" fill="#FEFFFE" transform="matrix(1.00, 0.00, -0.00, -1.00, 720.5, 134.4)"> </text><text xml:space="preserve" font-family="DINCondensed-Bold,DIN Condensed" font-weight="bold" font-size="55.0" fill="#FEFFFE" transform="matrix(1.00, 0.00, -0.00, -1.00, 730.7, 134.4)"> </text><text xml:space="preserve" font-family="DINCondensed-Bold,DIN Condensed" font-weight="bold" font-size="55.0" fill="#F9F600" transform="matrix(1.00, 0.00, -0.00, -1.00, 280.9, 68.4)">m</text><text xml:space="preserve" font-family="DINCondensed-Bold,DIN Condensed" font-weight="bold" font-size="55.0" fill="#F9F600" transform="matrix(1.00, 0.00, -0.00, -1.00, 313.5, 68.4)">o</text><text xml:space="preserve" font-family="DINCondensed-Bold,DIN Condensed" font-weight="bold" font-size="55.0" fill="#F9F600" transform="matrix(1.00, 0.00, -0.00, -1.00, 333.5, 68.4)">v</text><text xml:space="preserve" font-family="DINCondensed-Bold,DIN Condensed" font-weight="bold" font-size="55.0" fill="#F9F600" transform="matrix(1.00, 0.00, -0.00, -1.00, 352.6, 68.4)">e</text><text xml:space="preserve" font-family="DINCondensed-Bold,DIN Condensed" font-weight="bold" font-size="55.0" fill="#F9F600" transform="matrix(1.00, 0.00, -0.00, -1.00, 372.9, 68.4)">_</text><text xml:space="preserve" font-family="DINCondensed-Bold,DIN Condensed" font-weight="bold" font-size="55.0" fill="#F9F600" transform="matrix(1.00, 0.00, -0.00, -1.00, 400.4, 68.4)">c</text><text xml:space="preserve" font-family="DINCondensed-Bold,DIN Condensed" font-weight="bold" font-size="55.0" fill="#F9F600" transform="matrix(1.00, 0.00, -0.00, -1.00, 420.8, 68.4)">s</text><text xml:space="preserve" font-family="DINCondensed-Bold,DIN Condensed" font-weight="bold" font-size="55.0" fill="#F9F600" transform="matrix(1.00, 0.00, -0.00, -1.00, 440.1, 68.4)">s</text><text xml:space="preserve" font-family="DINCondensed-Bold,DIN Condensed" font-weight="bold" font-size="55.0" fill="#F9F600" transform="matrix(1.00, 0.00, -0.00, -1.00, 459.5, 68.4)">_</text><text xml:space="preserve" font-family="DINCondensed-Bold,DIN Condensed" font-weight="bold" font-size="55.0" fill="#F9F600" transform="matrix(1.00, 0.00, -0.00, -1.00, 487.0, 68.4)">a</text><text xml:space="preserve" font-family="DINCondensed-Bold,DIN Condensed" font-weight="bold" font-size="55.0" fill="#F9F600" transform="matrix(1.00, 0.00, -0.00, -1.00, 507.3, 68.4)">b</text><text xml:space="preserve" font-family="DINCondensed-Bold,DIN Condensed" font-weight="bold" font-size="55.0" fill="#F9F600" transform="matrix(1.00, 0.00, -0.00, -1.00, 528.7, 68.4)">o</text><text xml:space="preserve" font-family="DINCondensed-Bold,DIN Condensed" font-weight="bold" font-size="55.0" fill="#F9F600" transform="matrix(1.00, 0.00, -0.00, -1.00, 548.7, 68.4)">v</text><text xml:space="preserve" font-family="DINCondensed-Bold,DIN Condensed" font-weight="bold" font-size="55.0" fill="#F9F600" transform="matrix(1.00, 0.00, -0.00, -1.00, 567.8, 68.4)">e</text><text xml:space="preserve" font-family="DINCondensed-Bold,DIN Condensed" font-weight="bold" font-size="55.0" fill="#F9F600" transform="matrix(1.00, 0.00, -0.00, -1.00, 588.1, 68.4)">_</text><text xml:space="preserve" font-family="DINCondensed-Bold,DIN Condensed" font-weight="bold" font-size="55.0" fill="#F9F600" transform="matrix(1.00, 0.00, -0.00, -1.00, 615.6, 68.4)">s</text><text xml:space="preserve" font-family="DINCondensed-Bold,DIN Condensed" font-weight="bold" font-size="55.0" fill="#F9F600" transform="matrix(1.00, 0.00, -0.00, -1.00, 635.0, 68.4)">c</text><text xml:space="preserve" font-family="DINCondensed-Bold,DIN Condensed" font-weight="bold" font-size="55.0" fill="#F9F600" transform="matrix(1.00, 0.00, -0.00, -1.00, 655.3, 68.4)">r</text><text xml:space="preserve" font-family="DINCondensed-Bold,DIN Condensed" font-weight="bold" font-size="55.0" fill="#F9F600" transform="matrix(1.00, 0.00, -0.00, -1.00, 670.6, 68.4)">i</text><text xml:space="preserve" font-family="DINCondensed-Bold,DIN Condensed" font-weight="bold" font-size="55.0" fill="#F9F600" transform="matrix(1.00, 0.00, -0.00, -1.00, 680.9, 68.4)">p</text><text xml:space="preserve" font-family="DINCondensed-Bold,DIN Condensed" font-weight="bold" font-size="55.0" fill="#F9F600" transform="matrix(1.00, 0.00, -0.00, -1.00, 702.2, 68.4)">t</text><text xml:space="preserve" font-family="DINCondensed-Bold,DIN Condensed" font-weight="bold" font-size="55.0" fill="#F9F600" transform="matrix(1.00, 0.00, -0.00, -1.00, 713.5, 68.4)">s</text><text xml:space="preserve" font-family="DINCondensed-Bold,DIN Condensed" font-weight="bold" font-size="55.0" fill="#F9F600" transform="matrix(1.00, 0.00, -0.00, -1.00, 732.8, 68.4)">;</text><text xml:space="preserve" font-family="BebasNeueCyrillic,Bebas Neue Cyrillic" font-size="81.0" fill="#FE4B85" transform="matrix(1.00, 0.00, -0.00, -1.00, 198.4, 624.4)">M</text><text xml:space="preserve" font-family="BebasNeueCyrillic,Bebas Neue Cyrillic" font-size="81.0" fill="#FE4B85" transform="matrix(1.00, 0.00, -0.00, -1.00, 242.2, 624.4)">o</text><text xml:space="preserve" font-family="BebasNeueCyrillic,Bebas Neue Cyrillic" font-size="81.0" fill="#FE4B85" transform="matrix(1.00, 0.00, -0.00, -1.00, 274.2, 624.4)">v</text><text xml:space="preserve" font-family="BebasNeueCyrillic,Bebas Neue Cyrillic" font-size="81.0" fill="#FE4B85" transform="matrix(1.00, 0.00, -0.00, -1.00, 306.8, 624.4)">e</text><text xml:space="preserve" font-family="BebasNeueCyrillic,Bebas Neue Cyrillic" font-size="81.0" fill="#FE4B85" transform="matrix(1.00, 0.00, -0.00, -1.00, 336.5, 624.4)"> </text><text xml:space="preserve" font-family="BebasNeueCyrillic,Bebas Neue Cyrillic" font-size="81.0" fill="#FE4B85" transform="matrix(1.00, 0.00, -0.00, -1.00, 349.1, 624.4)">C</text><text xml:space="preserve" font-family="BebasNeueCyrillic,Bebas Neue Cyrillic" font-size="81.0" fill="#FE4B85" transform="matrix(1.00, 0.00, -0.00, -1.00, 380.3, 624.4)">S</text><text xml:space="preserve" font-family="BebasNeueCyrillic,Bebas Neue Cyrillic" font-size="81.0" fill="#FE4B85" transform="matrix(1.00, 0.00, -0.00, -1.00, 410.5, 624.4)">S</text><text xml:space="preserve" font-family="BebasNeueCyrillic,Bebas Neue Cyrillic" font-size="81.0" fill="#FE4B85" transform="matrix(1.00, 0.00, -0.00, -1.00, 440.7, 624.4)"> </text><text xml:space="preserve" font-family="BebasNeueCyrillic,Bebas Neue Cyrillic" font-size="81.0" fill="#FE4B85" transform="matrix(1.00, 0.00, -0.00, -1.00, 453.2, 624.4)">A</text><text xml:space="preserve" font-family="BebasNeueCyrillic,Bebas Neue Cyrillic" font-size="81.0" fill="#FE4B85" transform="matrix(1.00, 0.00, -0.00, -1.00, 486.2, 624.4)">b</text><text xml:space="preserve" font-family="BebasNeueCyrillic,Bebas Neue Cyrillic" font-size="81.0" fill="#FE4B85" transform="matrix(1.00, 0.00, -0.00, -1.00, 519.0, 624.4)">o</text><text xml:space="preserve" font-family="BebasNeueCyrillic,Bebas Neue Cyrillic" font-size="81.0" fill="#FE4B85" transform="matrix(1.00, 0.00, -0.00, -1.00, 551.1, 624.4)">v</text><text xml:space="preserve" font-family="BebasNeueCyrillic,Bebas Neue Cyrillic" font-size="81.0" fill="#FE4B85" transform="matrix(1.00, 0.00, -0.00, -1.00, 583.6, 624.4)">e</text><text xml:space="preserve" font-family="BebasNeueCyrillic,Bebas Neue Cyrillic" font-size="81.0" fill="#FE4B85" transform="matrix(1.00, 0.00, -0.00, -1.00, 613.4, 624.4)"> </text><text xml:space="preserve" font-family="BebasNeueCyrillic,Bebas Neue Cyrillic" font-size="81.0" fill="#FE4B85" transform="matrix(1.00, 0.00, -0.00, -1.00, 625.9, 624.4)">S</text><text xml:space="preserve" font-family="BebasNeueCyrillic,Bebas Neue Cyrillic" font-size="81.0" fill="#FE4B85" transform="matrix(1.00, 0.00, -0.00, -1.00, 656.1, 624.4)">c</text><text xml:space="preserve" font-family="BebasNeueCyrillic,Bebas Neue Cyrillic" font-size="81.0" fill="#FE4B85" transform="matrix(1.00, 0.00, -0.00, -1.00, 687.3, 624.4)">r</text><text xml:space="preserve" font-family="BebasNeueCyrillic,Bebas Neue Cyrillic" font-size="81.0" fill="#FE4B85" transform="matrix(1.00, 0.00, -0.00, -1.00, 719.9, 624.4)">i</text><text xml:space="preserve" font-family="BebasNeueCyrillic,Bebas Neue Cyrillic" font-size="81.0" fill="#FE4B85" transform="matrix(1.00, 0.00, -0.00, -1.00, 735.3, 624.4)">p</text><text xml:space="preserve" font-family="BebasNeueCyrillic,Bebas Neue Cyrillic" font-size="81.0" fill="#FE4B85" transform="matrix(1.00, 0.00, -0.00, -1.00, 765.8, 624.4)">t</text><text xml:space="preserve" font-family="BebasNeueCyrillic,Bebas Neue Cyrillic" font-size="81.0" fill="#FE4B85" transform="matrix(1.00, 0.00, -0.00, -1.00, 794.9, 624.4)">s</text></g></svg>