<svg xmlns="http://www.w3.org/2000/svg" xmlns:xlink="http://www.w3.org/1999/xlink" version="1.1" x="0px" y="0px" width="1200px" height="1200px" viewBox="0 0 1200 1200" enable-background="new 0 0 1200 1200" xml:space="preserve"><style>.style0{fill:	#ffffff;}</style><path d="M600.228 600.958l-0.661-0.514c-0.201-0.166-0.476-0.386-0.476-0.79c0-0.405 0.275-0.663 0.513-0.901 c0.769-0.606 1.538-1.25 1.538-2.611c0-1.256-0.632-1.862-0.94-2.24h0.899L602 593l-3.622 0c-0.989 0-2.235 0.147-3.278 1.01 c-0.787 0.68-1.172 1.618-1.172 2.463c0 1.433 1.098 2.885 3.04 2.885c0.183 0 0.384-0.018 0.586-0.036 c-0.091 0.221-0.183 0.405-0.183 0.717c0 0.569 0.048 0.809 0.305 1.14c-0.824 0.056-2.119 0.12-3.253 0.819 c-1.082 0.644-1.411 1.717-1.411 2.379c0 1.361 1.281 2.629 3.938 2.629c3.149 0 4.816-1.747 4.816-3.474 C601.766 602.264 601.034 601.639 600.228 600.958z M595.539 595.574c0-0.479 0.091-0.975 0.402-1.361 c0.293-0.368 0.806-0.607 1.283-0.607c1.519 0 2.306 2.06 2.306 3.383c0 0.33-0.037 0.918-0.457 1.341 c-0.294 0.295-0.787 0.515-1.245 0.515C596.254 598.845 595.539 596.804 595.539 595.574z M597.847 606.235 c-1.96 0-3.224-0.938-3.224-2.244c0-1.305 1.063-1.691 1.466-1.838c0.77-0.257 1.788-0.349 1.788-0.349s0.456 0.027 0.665 0.019 c1.115 0.546 1.997 1.488 1.997 2.428C600.539 605.388 599.604 606.235 597.847 606.235z" class="style0"/><polygon points="607,598.992 604.991,598.992 604.991,597.001 603.991,597.001 603.991,598.992 602,598.992 602,599.992 603.991,599.992 603.991,602 604.991,602 604.991,599.992 607,599.992" class="style0"/></svg>