<?xml version="1.0" encoding="UTF-8" standalone="no"?><svg xmlns="http://www.w3.org/2000/svg" xmlns:xlink="http://www.w3.org/1999/xlink" clip-rule="evenodd" stroke-miterlimit="10" viewBox="0 0 1024 768"><desc>SVG generated by Keynote</desc><defs></defs><g transform="matrix(1.00, 0.00, -0.00, -1.00, 0.0, 768.0)"><g><clipPath id="clip0x7feca7f724d0"><path d="M 0.0 768.0 L 1024.0 768.0 L 1024.0 0.0 L 0.0 0.0 Z M 0.0 768.0 "></path></clipPath><g clip-path="url(#clip0x7feca7f724d0)"><image xlink:href="../../D65291DE-E52B-48DA-BF23-32852F1E7222/assets/716D123BC9C8A5783E3659E49C5D5E27.png" width="1280.00" height="720.00" transform="matrix(1.07, 0.00, -0.00, -1.07, -170.7, 768.0)"></image></g></g><text xml:space="preserve" font-family="ISOCPEUR,ISOCPEUR" font-size="60.0" fill="#FFFFFF" transform="matrix(1.00, 0.00, -0.00, -1.00, 251.9, 650.8)">К</text><text xml:space="preserve" font-family="ISOCPEUR,ISOCPEUR" font-size="60.0" fill="#FFFFFF" transform="matrix(1.00, 0.00, -0.00, -1.00, 282.8, 650.8)">о</text><text xml:space="preserve" font-family="ISOCPEUR,ISOCPEUR" font-size="60.0" fill="#FFFFFF" transform="matrix(1.00, 0.00, -0.00, -1.00, 310.0, 650.8)">н</text><text xml:space="preserve" font-family="ISOCPEUR,ISOCPEUR" font-size="60.0" fill="#FFFFFF" transform="matrix(1.00, 0.00, -0.00, -1.00, 337.1, 650.8)">в</text><text xml:space="preserve" font-family="ISOCPEUR,ISOCPEUR" font-size="60.0" fill="#FFFFFF" transform="matrix(1.00, 0.00, -0.00, -1.00, 364.2, 650.8)">е</text><text xml:space="preserve" font-family="ISOCPEUR,ISOCPEUR" font-size="60.0" fill="#FFFFFF" transform="matrix(1.00, 0.00, -0.00, -1.00, 391.3, 650.8)">р</text><text xml:space="preserve" font-family="ISOCPEUR,ISOCPEUR" font-size="60.0" fill="#FFFFFF" transform="matrix(1.00, 0.00, -0.00, -1.00, 418.4, 650.8)">с</text><text xml:space="preserve" font-family="ISOCPEUR,ISOCPEUR" font-size="60.0" fill="#FFFFFF" transform="matrix(1.00, 0.00, -0.00, -1.00, 441.6, 650.8)">и</text><text xml:space="preserve" font-family="ISOCPEUR,ISOCPEUR" font-size="60.0" fill="#FFFFFF" transform="matrix(1.00, 0.00, -0.00, -1.00, 468.7, 650.8)">я</text><text xml:space="preserve" font-family="ISOCPEUR,ISOCPEUR" font-size="60.0" fill="#FFFFFF" transform="matrix(1.00, 0.00, -0.00, -1.00, 495.8, 650.8)"> </text><text xml:space="preserve" font-family="ISOCPEUR,ISOCPEUR" font-size="60.0" fill="#FFFFFF" transform="matrix(1.00, 0.00, -0.00, -1.00, 518.9, 650.8)">м</text><text xml:space="preserve" font-family="ISOCPEUR,ISOCPEUR" font-size="60.0" fill="#FFFFFF" transform="matrix(1.00, 0.00, -0.00, -1.00, 549.9, 650.8)">а</text><text xml:space="preserve" font-family="ISOCPEUR,ISOCPEUR" font-size="60.0" fill="#FFFFFF" transform="matrix(1.00, 0.00, -0.00, -1.00, 580.8, 650.8)">г</text><text xml:space="preserve" font-family="ISOCPEUR,ISOCPEUR" font-size="60.0" fill="#FFFFFF" transform="matrix(1.00, 0.00, -0.00, -1.00, 607.9, 650.8)">а</text><text xml:space="preserve" font-family="ISOCPEUR,ISOCPEUR" font-size="60.0" fill="#FFFFFF" transform="matrix(1.00, 0.00, -0.00, -1.00, 638.8, 650.8)">з</text><text xml:space="preserve" font-family="ISOCPEUR,ISOCPEUR" font-size="60.0" fill="#FFFFFF" transform="matrix(1.00, 0.00, -0.00, -1.00, 663.9, 650.8)">и</text><text xml:space="preserve" font-family="ISOCPEUR,ISOCPEUR" font-size="60.0" fill="#FFFFFF" transform="matrix(1.00, 0.00, -0.00, -1.00, 691.0, 650.8)">н</text><text xml:space="preserve" font-family="ISOCPEUR,ISOCPEUR" font-size="60.0" fill="#FFFFFF" transform="matrix(1.00, 0.00, -0.00, -1.00, 718.1, 650.8)">о</text><text xml:space="preserve" font-family="ISOCPEUR,ISOCPEUR" font-size="60.0" fill="#FFFFFF" transform="matrix(1.00, 0.00, -0.00, -1.00, 745.2, 650.8)">в</text><text xml:space="preserve" font-family="ISOCPEUR,ISOCPEUR" font-size="60.0" fill="#FFFFFF" transform="matrix(1.00, 0.00, -0.00, -1.00, 772.3, 650.8)"> </text><text xml:space="preserve" font-family="ISOCPEUR,ISOCPEUR" font-size="60.0" fill="#FFFFFF" transform="matrix(1.00, 0.00, -0.00, -1.00, 291.6, 589.8)">у</text><text xml:space="preserve" font-family="ISOCPEUR,ISOCPEUR" font-size="60.0" fill="#FFFFFF" transform="matrix(1.00, 0.00, -0.00, -1.00, 318.7, 589.8)">в</text><text xml:space="preserve" font-family="ISOCPEUR,ISOCPEUR" font-size="60.0" fill="#FFFFFF" transform="matrix(1.00, 0.00, -0.00, -1.00, 345.7, 589.8)">е</text><text xml:space="preserve" font-family="ISOCPEUR,ISOCPEUR" font-size="60.0" fill="#FFFFFF" transform="matrix(1.00, 0.00, -0.00, -1.00, 372.8, 589.8)">л</text><text xml:space="preserve" font-family="ISOCPEUR,ISOCPEUR" font-size="60.0" fill="#FFFFFF" transform="matrix(1.00, 0.00, -0.00, -1.00, 399.9, 589.8)">и</text><text xml:space="preserve" font-family="ISOCPEUR,ISOCPEUR" font-size="60.0" fill="#FFFFFF" transform="matrix(1.00, 0.00, -0.00, -1.00, 427.0, 589.8)">ч</text><text xml:space="preserve" font-family="ISOCPEUR,ISOCPEUR" font-size="60.0" fill="#FFFFFF" transform="matrix(1.00, 0.00, -0.00, -1.00, 454.1, 589.8)">и</text><text xml:space="preserve" font-family="ISOCPEUR,ISOCPEUR" font-size="60.0" fill="#FFFFFF" transform="matrix(1.00, 0.00, -0.00, -1.00, 481.1, 589.8)">в</text><text xml:space="preserve" font-family="ISOCPEUR,ISOCPEUR" font-size="60.0" fill="#FFFFFF" transform="matrix(1.00, 0.00, -0.00, -1.00, 508.2, 589.8)">а</text><text xml:space="preserve" font-family="ISOCPEUR,ISOCPEUR" font-size="60.0" fill="#FFFFFF" transform="matrix(1.00, 0.00, -0.00, -1.00, 539.1, 589.8)">е</text><text xml:space="preserve" font-family="ISOCPEUR,ISOCPEUR" font-size="60.0" fill="#FFFFFF" transform="matrix(1.00, 0.00, -0.00, -1.00, 566.2, 589.8)">т</text><text xml:space="preserve" font-family="ISOCPEUR,ISOCPEUR" font-size="60.0" fill="#FFFFFF" transform="matrix(1.00, 0.00, -0.00, -1.00, 601.0, 589.8)">с</text><text xml:space="preserve" font-family="ISOCPEUR,ISOCPEUR" font-size="60.0" fill="#FFFFFF" transform="matrix(1.00, 0.00, -0.00, -1.00, 624.2, 589.8)">я</text><text xml:space="preserve" font-family="ISOCPEUR,ISOCPEUR" font-size="60.0" fill="#FFFFFF" transform="matrix(1.00, 0.00, -0.00, -1.00, 651.3, 589.8)"> </text><text xml:space="preserve" font-family="ISOCPEUR,ISOCPEUR" font-size="60.0" fill="#FFFFFF" transform="matrix(1.00, 0.00, -0.00, -1.00, 674.4, 589.8)">н</text><text xml:space="preserve" font-family="ISOCPEUR,ISOCPEUR" font-size="60.0" fill="#FFFFFF" transform="matrix(1.00, 0.00, -0.00, -1.00, 701.5, 589.8)">а</text><text xml:space="preserve" font-family="ISOCPEUR,ISOCPEUR" font-size="60.0" fill="#1AAFFA" transform="matrix(1.00, 0.00, -0.00, -1.00, 732.4, 589.8)"> </text><text xml:space="preserve" font-family="ISOCPEUR,ISOCPEUR" font-size="60.0" fill="#1AAFFA" transform="matrix(1.00, 0.00, -0.00, -1.00, 755.6, 589.8)"> </text><text xml:space="preserve" font-family="ISOCPEUR,ISOCPEUR" font-size="160.0" fill="#1AAFFA" transform="matrix(1.00, 0.00, -0.00, -1.00, 377.9, 448.1)">7</text><text xml:space="preserve" font-family="ISOCPEUR,ISOCPEUR" font-size="160.0" fill="#1AAFFA" transform="matrix(1.00, 0.00, -0.00, -1.00, 450.2, 448.1)">4</text><text xml:space="preserve" font-family="ISOCPEUR,ISOCPEUR" font-size="160.0" fill="#1AAFFA" transform="matrix(1.00, 0.00, -0.00, -1.00, 532.5, 448.1)">%</text><text xml:space="preserve" font-family="ISOCPEUR,ISOCPEUR" font-size="60.0" fill="#1AAFFA" transform="matrix(1.00, 0.00, -0.00, -1.00, 646.1, 448.1)"> </text><text xml:space="preserve" font-family="ISOCPEUR,ISOCPEUR" font-size="60.0" fill="#FEFFFE" transform="matrix(1.00, 0.00, -0.00, -1.00, 318.6, 245.8)">п</text><text xml:space="preserve" font-family="ISOCPEUR,ISOCPEUR" font-size="60.0" fill="#FEFFFE" transform="matrix(1.00, 0.00, -0.00, -1.00, 345.7, 245.8)">р</text><text xml:space="preserve" font-family="ISOCPEUR,ISOCPEUR" font-size="60.0" fill="#FEFFFE" transform="matrix(1.00, 0.00, -0.00, -1.00, 372.8, 245.8)">и</text><text xml:space="preserve" font-family="ISOCPEUR,ISOCPEUR" font-size="60.0" fill="#FEFFFE" transform="matrix(1.00, 0.00, -0.00, -1.00, 399.9, 245.8)"> </text><text xml:space="preserve" font-family="ISOCPEUR,ISOCPEUR" font-size="60.0" fill="#FEFFFE" transform="matrix(1.00, 0.00, -0.00, -1.00, 423.0, 245.8)">у</text><text xml:space="preserve" font-family="ISOCPEUR,ISOCPEUR" font-size="60.0" fill="#FEFFFE" transform="matrix(1.00, 0.00, -0.00, -1.00, 450.1, 245.8)">м</text><text xml:space="preserve" font-family="ISOCPEUR,ISOCPEUR" font-size="60.0" fill="#FEFFFE" transform="matrix(1.00, 0.00, -0.00, -1.00, 481.0, 245.8)">е</text><text xml:space="preserve" font-family="ISOCPEUR,ISOCPEUR" font-size="60.0" fill="#FEFFFE" transform="matrix(1.00, 0.00, -0.00, -1.00, 508.1, 245.8)">н</text><text xml:space="preserve" font-family="ISOCPEUR,ISOCPEUR" font-size="60.0" fill="#FEFFFE" transform="matrix(1.00, 0.00, -0.00, -1.00, 535.2, 245.8)">ь</text><text xml:space="preserve" font-family="ISOCPEUR,ISOCPEUR" font-size="60.0" fill="#FEFFFE" transform="matrix(1.00, 0.00, -0.00, -1.00, 562.3, 245.8)">ш</text><text xml:space="preserve" font-family="ISOCPEUR,ISOCPEUR" font-size="60.0" fill="#FEFFFE" transform="matrix(1.00, 0.00, -0.00, -1.00, 597.1, 245.8)">е</text><text xml:space="preserve" font-family="ISOCPEUR,ISOCPEUR" font-size="60.0" fill="#FEFFFE" transform="matrix(1.00, 0.00, -0.00, -1.00, 624.2, 245.8)">н</text><text xml:space="preserve" font-family="ISOCPEUR,ISOCPEUR" font-size="60.0" fill="#FEFFFE" transform="matrix(1.00, 0.00, -0.00, -1.00, 651.2, 245.8)">и</text><text xml:space="preserve" font-family="ISOCPEUR,ISOCPEUR" font-size="60.0" fill="#FEFFFE" transform="matrix(1.00, 0.00, -0.00, -1.00, 678.3, 245.8)">и</text><text xml:space="preserve" font-family="ISOCPEUR,ISOCPEUR" font-size="60.0" fill="#FEFFFE" transform="matrix(1.00, 0.00, -0.00, -1.00, 705.4, 245.8)"> </text><text xml:space="preserve" font-family="ISOCPEUR,ISOCPEUR" font-size="60.0" fill="#FEFFFE" transform="matrix(1.00, 0.00, -0.00, -1.00, 728.6, 245.8)"> </text><text xml:space="preserve" font-family="ISOCPEUR,ISOCPEUR" font-size="60.0" fill="#FEFFFE" transform="matrix(1.00, 0.00, -0.00, -1.00, 295.4, 184.8)">в</text><text xml:space="preserve" font-family="ISOCPEUR,ISOCPEUR" font-size="60.0" fill="#FEFFFE" transform="matrix(1.00, 0.00, -0.00, -1.00, 322.5, 184.8)">р</text><text xml:space="preserve" font-family="ISOCPEUR,ISOCPEUR" font-size="60.0" fill="#FEFFFE" transform="matrix(1.00, 0.00, -0.00, -1.00, 349.6, 184.8)">е</text><text xml:space="preserve" font-family="ISOCPEUR,ISOCPEUR" font-size="60.0" fill="#FEFFFE" transform="matrix(1.00, 0.00, -0.00, -1.00, 376.7, 184.8)">м</text><text xml:space="preserve" font-family="ISOCPEUR,ISOCPEUR" font-size="60.0" fill="#FEFFFE" transform="matrix(1.00, 0.00, -0.00, -1.00, 407.6, 184.8)">е</text><text xml:space="preserve" font-family="ISOCPEUR,ISOCPEUR" font-size="60.0" fill="#FEFFFE" transform="matrix(1.00, 0.00, -0.00, -1.00, 434.7, 184.8)">н</text><text xml:space="preserve" font-family="ISOCPEUR,ISOCPEUR" font-size="60.0" fill="#FEFFFE" transform="matrix(1.00, 0.00, -0.00, -1.00, 461.7, 184.8)">и</text><text xml:space="preserve" font-family="ISOCPEUR,ISOCPEUR" font-size="60.0" fill="#FEFFFE" transform="matrix(1.00, 0.00, -0.00, -1.00, 488.8, 184.8)"> </text><text xml:space="preserve" font-family="ISOCPEUR,ISOCPEUR" font-size="60.0" fill="#FEFFFE" transform="matrix(1.00, 0.00, -0.00, -1.00, 512.0, 184.8)">з</text><text xml:space="preserve" font-family="ISOCPEUR,ISOCPEUR" font-size="60.0" fill="#FEFFFE" transform="matrix(1.00, 0.00, -0.00, -1.00, 537.1, 184.8)">а</text><text xml:space="preserve" font-family="ISOCPEUR,ISOCPEUR" font-size="60.0" fill="#FEFFFE" transform="matrix(1.00, 0.00, -0.00, -1.00, 568.0, 184.8)">г</text><text xml:space="preserve" font-family="ISOCPEUR,ISOCPEUR" font-size="60.0" fill="#FEFFFE" transform="matrix(1.00, 0.00, -0.00, -1.00, 595.1, 184.8)">р</text><text xml:space="preserve" font-family="ISOCPEUR,ISOCPEUR" font-size="60.0" fill="#FEFFFE" transform="matrix(1.00, 0.00, -0.00, -1.00, 622.2, 184.8)">у</text><text xml:space="preserve" font-family="ISOCPEUR,ISOCPEUR" font-size="60.0" fill="#FEFFFE" transform="matrix(1.00, 0.00, -0.00, -1.00, 649.3, 184.8)">з</text><text xml:space="preserve" font-family="ISOCPEUR,ISOCPEUR" font-size="60.0" fill="#FEFFFE" transform="matrix(1.00, 0.00, -0.00, -1.00, 674.4, 184.8)">к</text><text xml:space="preserve" font-family="ISOCPEUR,ISOCPEUR" font-size="60.0" fill="#FEFFFE" transform="matrix(1.00, 0.00, -0.00, -1.00, 701.5, 184.8)">и</text><text xml:space="preserve" font-family="ISOCPEUR,ISOCPEUR" font-size="60.0" fill="#FEFFFE" transform="matrix(1.00, 0.00, -0.00, -1.00, 728.6, 184.8)"> </text><text xml:space="preserve" font-family="ISOCPEUR,ISOCPEUR" font-size="100.0" fill="#00CF41" transform="matrix(1.00, 0.00, -0.00, -1.00, 193.0, 92.5)">с</text><text xml:space="preserve" font-family="ISOCPEUR,ISOCPEUR" font-size="100.0" fill="#00CF41" transform="matrix(1.00, 0.00, -0.00, -1.00, 231.6, 92.5)"> </text><text xml:space="preserve" font-family="ISOCPEUR,ISOCPEUR" font-size="100.0" fill="#00CF41" transform="matrix(1.00, 0.00, -0.00, -1.00, 270.2, 92.5)">8</text><text xml:space="preserve" font-family="ISOCPEUR,ISOCPEUR" font-size="100.0" fill="#00CF41" transform="matrix(1.00, 0.00, -0.00, -1.00, 315.4, 92.5)"> </text><text xml:space="preserve" font-family="ISOCPEUR,ISOCPEUR" font-size="100.0" fill="#00CF41" transform="matrix(1.00, 0.00, -0.00, -1.00, 354.1, 92.5)">д</text><text xml:space="preserve" font-family="ISOCPEUR,ISOCPEUR" font-size="100.0" fill="#00CF41" transform="matrix(1.00, 0.00, -0.00, -1.00, 399.3, 92.5)">о</text><text xml:space="preserve" font-family="ISOCPEUR,ISOCPEUR" font-size="100.0" fill="#00CF41" transform="matrix(1.00, 0.00, -0.00, -1.00, 444.4, 92.5)"> </text><text xml:space="preserve" font-family="ISOCPEUR,ISOCPEUR" font-size="100.0" fill="#00CF41" transform="matrix(1.00, 0.00, -0.00, -1.00, 483.1, 92.5)">2</text><text xml:space="preserve" font-family="ISOCPEUR,ISOCPEUR" font-size="100.0" fill="#00CF41" transform="matrix(1.00, 0.00, -0.00, -1.00, 528.3, 92.5)"> </text><text xml:space="preserve" font-family="ISOCPEUR,ISOCPEUR" font-size="100.0" fill="#00CF41" transform="matrix(1.00, 0.00, -0.00, -1.00, 566.9, 92.5)">с</text><text xml:space="preserve" font-family="ISOCPEUR,ISOCPEUR" font-size="100.0" fill="#00CF41" transform="matrix(1.00, 0.00, -0.00, -1.00, 605.6, 92.5)">е</text><text xml:space="preserve" font-family="ISOCPEUR,ISOCPEUR" font-size="100.0" fill="#00CF41" transform="matrix(1.00, 0.00, -0.00, -1.00, 650.7, 92.5)">к</text><text xml:space="preserve" font-family="ISOCPEUR,ISOCPEUR" font-size="100.0" fill="#00CF41" transform="matrix(1.00, 0.00, -0.00, -1.00, 695.9, 92.5)">у</text><text xml:space="preserve" font-family="ISOCPEUR,ISOCPEUR" font-size="100.0" fill="#00CF41" transform="matrix(1.00, 0.00, -0.00, -1.00, 741.1, 92.5)">н</text><text xml:space="preserve" font-family="ISOCPEUR,ISOCPEUR" font-size="100.0" fill="#00CF41" transform="matrix(1.00, 0.00, -0.00, -1.00, 786.3, 92.5)">д</text><text xml:space="preserve" font-family="ISOCPEUR,ISOCPEUR" font-size="120.0" fill="#1AAFFA" transform="matrix(1.00, 0.00, -0.00, -1.00, 831.0, 92.5)"> </text></g></svg>