<?xml version="1.0" encoding="UTF-8" standalone="no"?><svg xmlns="http://www.w3.org/2000/svg" xmlns:xlink="http://www.w3.org/1999/xlink" clip-rule="evenodd" stroke-miterlimit="10" viewBox="0 0 1024 768"><desc>SVG generated by Keynote</desc><defs></defs><g transform="matrix(1.00, 0.00, -0.00, -1.00, 0.0, 768.0)"><g><clipPath id="clip0x7fecad558090"><path d="M 0.0 768.0 L 1024.0 768.0 L 1024.0 0.0 L 0.0 0.0 Z M 0.0 768.0 "></path></clipPath><g clip-path="url(#clip0x7fecad558090)"><image xlink:href="../../D65291DE-E52B-48DA-BF23-32852F1E7222/assets/716D123BC9C8A5783E3659E49C5D5E27.png" width="1280.00" height="720.00" transform="matrix(1.07, 0.00, -0.00, -1.07, -170.7, 768.0)"></image></g></g><text xml:space="preserve" font-family="DINCondensed-Bold,DIN Condensed" font-weight="bold" font-size="70.0" fill="#00CF41" transform="matrix(1.00, 0.00, -0.00, -1.00, 432.1, 399.2)">A</text><text xml:space="preserve" font-family="DINCondensed-Bold,DIN Condensed" font-weight="bold" font-size="70.0" fill="#00CF41" transform="matrix(1.00, 0.00, -0.00, -1.00, 460.6, 399.2)">p</text><text xml:space="preserve" font-family="DINCondensed-Bold,DIN Condensed" font-weight="bold" font-size="70.0" fill="#00CF41" transform="matrix(1.00, 0.00, -0.00, -1.00, 487.8, 399.2)">a</text><text xml:space="preserve" font-family="DINCondensed-Bold,DIN Condensed" font-weight="bold" font-size="70.0" fill="#00CF41" transform="matrix(1.00, 0.00, -0.00, -1.00, 513.7, 399.2)">c</text><text xml:space="preserve" font-family="DINCondensed-Bold,DIN Condensed" font-weight="bold" font-size="70.0" fill="#00CF41" transform="matrix(1.00, 0.00, -0.00, -1.00, 538.8, 399.2)">h</text><text xml:space="preserve" font-family="DINCondensed-Bold,DIN Condensed" font-weight="bold" font-size="70.0" fill="#00CF41" transform="matrix(1.00, 0.00, -0.00, -1.00, 566.0, 399.2)">e</text><text xml:space="preserve" font-family="DINCondensed-Bold,DIN Condensed" font-weight="bold" font-size="70.0" fill="#00CF41" transform="matrix(1.00, 0.00, -0.00, -1.00, 591.9, 399.2)"> </text><text xml:space="preserve" font-family="DINCondensed-Bold,DIN Condensed" font-weight="bold" font-size="55.0" fill="#FEFFFE" transform="matrix(1.00, 0.00, -0.00, -1.00, 145.9, 325.9)">M</text><text xml:space="preserve" font-family="DINCondensed-Bold,DIN Condensed" font-weight="bold" font-size="55.0" fill="#FEFFFE" transform="matrix(1.00, 0.00, -0.00, -1.00, 176.4, 325.9)">o</text><text xml:space="preserve" font-family="DINCondensed-Bold,DIN Condensed" font-weight="bold" font-size="55.0" fill="#FEFFFE" transform="matrix(1.00, 0.00, -0.00, -1.00, 196.8, 325.9)">d</text><text xml:space="preserve" font-family="DINCondensed-Bold,DIN Condensed" font-weight="bold" font-size="55.0" fill="#FEFFFE" transform="matrix(1.00, 0.00, -0.00, -1.00, 218.2, 325.9)">P</text><text xml:space="preserve" font-family="DINCondensed-Bold,DIN Condensed" font-weight="bold" font-size="55.0" fill="#FEFFFE" transform="matrix(1.00, 0.00, -0.00, -1.00, 239.9, 325.9)">a</text><text xml:space="preserve" font-family="DINCondensed-Bold,DIN Condensed" font-weight="bold" font-size="55.0" fill="#FEFFFE" transform="matrix(1.00, 0.00, -0.00, -1.00, 260.3, 325.9)">g</text><text xml:space="preserve" font-family="DINCondensed-Bold,DIN Condensed" font-weight="bold" font-size="55.0" fill="#FEFFFE" transform="matrix(1.00, 0.00, -0.00, -1.00, 281.7, 325.9)">e</text><text xml:space="preserve" font-family="DINCondensed-Bold,DIN Condensed" font-weight="bold" font-size="55.0" fill="#FEFFFE" transform="matrix(1.00, 0.00, -0.00, -1.00, 302.0, 325.9)">s</text><text xml:space="preserve" font-family="DINCondensed-Bold,DIN Condensed" font-weight="bold" font-size="55.0" fill="#FEFFFE" transform="matrix(1.00, 0.00, -0.00, -1.00, 321.4, 325.9)">p</text><text xml:space="preserve" font-family="DINCondensed-Bold,DIN Condensed" font-weight="bold" font-size="55.0" fill="#FEFFFE" transform="matrix(1.00, 0.00, -0.00, -1.00, 342.8, 325.9)">e</text><text xml:space="preserve" font-family="DINCondensed-Bold,DIN Condensed" font-weight="bold" font-size="55.0" fill="#FEFFFE" transform="matrix(1.00, 0.00, -0.00, -1.00, 363.1, 325.9)">e</text><text xml:space="preserve" font-family="DINCondensed-Bold,DIN Condensed" font-weight="bold" font-size="55.0" fill="#FEFFFE" transform="matrix(1.00, 0.00, -0.00, -1.00, 383.5, 325.9)">d</text><text xml:space="preserve" font-family="DINCondensed-Bold,DIN Condensed" font-weight="bold" font-size="55.0" fill="#FEFFFE" transform="matrix(1.00, 0.00, -0.00, -1.00, 404.9, 325.9)">E</text><text xml:space="preserve" font-family="DINCondensed-Bold,DIN Condensed" font-weight="bold" font-size="55.0" fill="#FEFFFE" transform="matrix(1.00, 0.00, -0.00, -1.00, 425.2, 325.9)">n</text><text xml:space="preserve" font-family="DINCondensed-Bold,DIN Condensed" font-weight="bold" font-size="55.0" fill="#FEFFFE" transform="matrix(1.00, 0.00, -0.00, -1.00, 446.6, 325.9)">a</text><text xml:space="preserve" font-family="DINCondensed-Bold,DIN Condensed" font-weight="bold" font-size="55.0" fill="#FEFFFE" transform="matrix(1.00, 0.00, -0.00, -1.00, 467.0, 325.9)">b</text><text xml:space="preserve" font-family="DINCondensed-Bold,DIN Condensed" font-weight="bold" font-size="55.0" fill="#FEFFFE" transform="matrix(1.00, 0.00, -0.00, -1.00, 488.4, 325.9)">l</text><text xml:space="preserve" font-family="DINCondensed-Bold,DIN Condensed" font-weight="bold" font-size="55.0" fill="#FEFFFE" transform="matrix(1.00, 0.00, -0.00, -1.00, 498.6, 325.9)">e</text><text xml:space="preserve" font-family="DINCondensed-Bold,DIN Condensed" font-weight="bold" font-size="55.0" fill="#FEFFFE" transform="matrix(1.00, 0.00, -0.00, -1.00, 518.9, 325.9)">F</text><text xml:space="preserve" font-family="DINCondensed-Bold,DIN Condensed" font-weight="bold" font-size="55.0" fill="#FEFFFE" transform="matrix(1.00, 0.00, -0.00, -1.00, 538.6, 325.9)">i</text><text xml:space="preserve" font-family="DINCondensed-Bold,DIN Condensed" font-weight="bold" font-size="55.0" fill="#FEFFFE" transform="matrix(1.00, 0.00, -0.00, -1.00, 548.9, 325.9)">l</text><text xml:space="preserve" font-family="DINCondensed-Bold,DIN Condensed" font-weight="bold" font-size="55.0" fill="#FEFFFE" transform="matrix(1.00, 0.00, -0.00, -1.00, 559.1, 325.9)">t</text><text xml:space="preserve" font-family="DINCondensed-Bold,DIN Condensed" font-weight="bold" font-size="55.0" fill="#FEFFFE" transform="matrix(1.00, 0.00, -0.00, -1.00, 570.3, 325.9)">e</text><text xml:space="preserve" font-family="DINCondensed-Bold,DIN Condensed" font-weight="bold" font-size="55.0" fill="#FEFFFE" transform="matrix(1.00, 0.00, -0.00, -1.00, 590.7, 325.9)">r</text><text xml:space="preserve" font-family="DINCondensed-Bold,DIN Condensed" font-weight="bold" font-size="55.0" fill="#FEFFFE" transform="matrix(1.00, 0.00, -0.00, -1.00, 605.9, 325.9)">s</text><text xml:space="preserve" font-family="DINCondensed-Bold,DIN Condensed" font-weight="bold" font-size="55.0" fill="#FEFFFE" transform="matrix(1.00, 0.00, -0.00, -1.00, 625.3, 325.9)"> </text><text xml:space="preserve" font-family="DINCondensed-Bold,DIN Condensed" font-weight="bold" font-size="55.0" fill="#F9F600" transform="matrix(1.00, 0.00, -0.00, -1.00, 635.5, 325.9)">e</text><text xml:space="preserve" font-family="DINCondensed-Bold,DIN Condensed" font-weight="bold" font-size="55.0" fill="#F9F600" transform="matrix(1.00, 0.00, -0.00, -1.00, 655.9, 325.9)">x</text><text xml:space="preserve" font-family="DINCondensed-Bold,DIN Condensed" font-weight="bold" font-size="55.0" fill="#F9F600" transform="matrix(1.00, 0.00, -0.00, -1.00, 674.1, 325.9)">t</text><text xml:space="preserve" font-family="DINCondensed-Bold,DIN Condensed" font-weight="bold" font-size="55.0" fill="#F9F600" transform="matrix(1.00, 0.00, -0.00, -1.00, 685.4, 325.9)">e</text><text xml:space="preserve" font-family="DINCondensed-Bold,DIN Condensed" font-weight="bold" font-size="55.0" fill="#F9F600" transform="matrix(1.00, 0.00, -0.00, -1.00, 705.7, 325.9)">n</text><text xml:space="preserve" font-family="DINCondensed-Bold,DIN Condensed" font-weight="bold" font-size="55.0" fill="#F9F600" transform="matrix(1.00, 0.00, -0.00, -1.00, 727.1, 325.9)">d</text><text xml:space="preserve" font-family="DINCondensed-Bold,DIN Condensed" font-weight="bold" font-size="55.0" fill="#F9F600" transform="matrix(1.00, 0.00, -0.00, -1.00, 748.5, 325.9)">_</text><text xml:space="preserve" font-family="DINCondensed-Bold,DIN Condensed" font-weight="bold" font-size="55.0" fill="#F9F600" transform="matrix(1.00, 0.00, -0.00, -1.00, 776.0, 325.9)">c</text><text xml:space="preserve" font-family="DINCondensed-Bold,DIN Condensed" font-weight="bold" font-size="55.0" fill="#F9F600" transform="matrix(1.00, 0.00, -0.00, -1.00, 796.4, 325.9)">a</text><text xml:space="preserve" font-family="DINCondensed-Bold,DIN Condensed" font-weight="bold" font-size="55.0" fill="#F9F600" transform="matrix(1.00, 0.00, -0.00, -1.00, 816.7, 325.9)">c</text><text xml:space="preserve" font-family="DINCondensed-Bold,DIN Condensed" font-weight="bold" font-size="55.0" fill="#F9F600" transform="matrix(1.00, 0.00, -0.00, -1.00, 836.4, 325.9)">h</text><text xml:space="preserve" font-family="DINCondensed-Bold,DIN Condensed" font-weight="bold" font-size="55.0" fill="#F9F600" transform="matrix(1.00, 0.00, -0.00, -1.00, 857.8, 325.9)">e</text><text xml:space="preserve" font-family="DINCondensed-Bold,DIN Condensed" font-weight="bold" font-size="55.0" fill="#FEFFFE" transform="matrix(1.00, 0.00, -0.00, -1.00, 878.1, 325.9)"> </text><text xml:space="preserve" font-family="DINCondensed-Bold,DIN Condensed" font-weight="bold" font-size="70.0" fill="#1AAFFA" transform="matrix(1.00, 0.00, -0.00, -1.00, 451.1, 183.2)">N</text><text xml:space="preserve" font-family="DINCondensed-Bold,DIN Condensed" font-weight="bold" font-size="70.0" fill="#1AAFFA" transform="matrix(1.00, 0.00, -0.00, -1.00, 482.2, 183.2)">g</text><text xml:space="preserve" font-family="DINCondensed-Bold,DIN Condensed" font-weight="bold" font-size="70.0" fill="#1AAFFA" transform="matrix(1.00, 0.00, -0.00, -1.00, 509.4, 183.2)">i</text><text xml:space="preserve" font-family="DINCondensed-Bold,DIN Condensed" font-weight="bold" font-size="70.0" fill="#1AAFFA" transform="matrix(1.00, 0.00, -0.00, -1.00, 522.4, 183.2)">n</text><text xml:space="preserve" font-family="DINCondensed-Bold,DIN Condensed" font-weight="bold" font-size="70.0" fill="#1AAFFA" transform="matrix(1.00, 0.00, -0.00, -1.00, 549.7, 183.2)">x</text><text xml:space="preserve" font-family="DINCondensed-Bold,DIN Condensed" font-weight="bold" font-size="70.0" fill="#1AAFFA" transform="matrix(1.00, 0.00, -0.00, -1.00, 572.9, 183.2)"> </text><text xml:space="preserve" font-family="DINCondensed-Bold,DIN Condensed" font-weight="bold" font-size="55.0" fill="#FEFFFE" transform="matrix(1.00, 0.00, -0.00, -1.00, 172.0, 109.9)">p</text><text xml:space="preserve" font-family="DINCondensed-Bold,DIN Condensed" font-weight="bold" font-size="55.0" fill="#FEFFFE" transform="matrix(1.00, 0.00, -0.00, -1.00, 193.4, 109.9)">a</text><text xml:space="preserve" font-family="DINCondensed-Bold,DIN Condensed" font-weight="bold" font-size="55.0" fill="#FEFFFE" transform="matrix(1.00, 0.00, -0.00, -1.00, 213.7, 109.9)">g</text><text xml:space="preserve" font-family="DINCondensed-Bold,DIN Condensed" font-weight="bold" font-size="55.0" fill="#FEFFFE" transform="matrix(1.00, 0.00, -0.00, -1.00, 235.1, 109.9)">e</text><text xml:space="preserve" font-family="DINCondensed-Bold,DIN Condensed" font-weight="bold" font-size="55.0" fill="#FEFFFE" transform="matrix(1.00, 0.00, -0.00, -1.00, 255.5, 109.9)">s</text><text xml:space="preserve" font-family="DINCondensed-Bold,DIN Condensed" font-weight="bold" font-size="55.0" fill="#FEFFFE" transform="matrix(1.00, 0.00, -0.00, -1.00, 274.8, 109.9)">p</text><text xml:space="preserve" font-family="DINCondensed-Bold,DIN Condensed" font-weight="bold" font-size="55.0" fill="#FEFFFE" transform="matrix(1.00, 0.00, -0.00, -1.00, 296.2, 109.9)">e</text><text xml:space="preserve" font-family="DINCondensed-Bold,DIN Condensed" font-weight="bold" font-size="55.0" fill="#FEFFFE" transform="matrix(1.00, 0.00, -0.00, -1.00, 316.6, 109.9)">e</text><text xml:space="preserve" font-family="DINCondensed-Bold,DIN Condensed" font-weight="bold" font-size="55.0" fill="#FEFFFE" transform="matrix(1.00, 0.00, -0.00, -1.00, 336.9, 109.9)">d</text><text xml:space="preserve" font-family="DINCondensed-Bold,DIN Condensed" font-weight="bold" font-size="55.0" fill="#FEFFFE" transform="matrix(1.00, 0.00, -0.00, -1.00, 358.3, 109.9)"> </text><text xml:space="preserve" font-family="DINCondensed-Bold,DIN Condensed" font-weight="bold" font-size="55.0" fill="#FEFFFE" transform="matrix(1.00, 0.00, -0.00, -1.00, 368.5, 109.9)">E</text><text xml:space="preserve" font-family="DINCondensed-Bold,DIN Condensed" font-weight="bold" font-size="55.0" fill="#FEFFFE" transform="matrix(1.00, 0.00, -0.00, -1.00, 388.9, 109.9)">n</text><text xml:space="preserve" font-family="DINCondensed-Bold,DIN Condensed" font-weight="bold" font-size="55.0" fill="#FEFFFE" transform="matrix(1.00, 0.00, -0.00, -1.00, 410.3, 109.9)">a</text><text xml:space="preserve" font-family="DINCondensed-Bold,DIN Condensed" font-weight="bold" font-size="55.0" fill="#FEFFFE" transform="matrix(1.00, 0.00, -0.00, -1.00, 430.6, 109.9)">b</text><text xml:space="preserve" font-family="DINCondensed-Bold,DIN Condensed" font-weight="bold" font-size="55.0" fill="#FEFFFE" transform="matrix(1.00, 0.00, -0.00, -1.00, 452.0, 109.9)">l</text><text xml:space="preserve" font-family="DINCondensed-Bold,DIN Condensed" font-weight="bold" font-size="55.0" fill="#FEFFFE" transform="matrix(1.00, 0.00, -0.00, -1.00, 462.3, 109.9)">e</text><text xml:space="preserve" font-family="DINCondensed-Bold,DIN Condensed" font-weight="bold" font-size="55.0" fill="#FEFFFE" transform="matrix(1.00, 0.00, -0.00, -1.00, 482.6, 109.9)">F</text><text xml:space="preserve" font-family="DINCondensed-Bold,DIN Condensed" font-weight="bold" font-size="55.0" fill="#FEFFFE" transform="matrix(1.00, 0.00, -0.00, -1.00, 502.3, 109.9)">i</text><text xml:space="preserve" font-family="DINCondensed-Bold,DIN Condensed" font-weight="bold" font-size="55.0" fill="#FEFFFE" transform="matrix(1.00, 0.00, -0.00, -1.00, 512.5, 109.9)">l</text><text xml:space="preserve" font-family="DINCondensed-Bold,DIN Condensed" font-weight="bold" font-size="55.0" fill="#FEFFFE" transform="matrix(1.00, 0.00, -0.00, -1.00, 522.8, 109.9)">t</text><text xml:space="preserve" font-family="DINCondensed-Bold,DIN Condensed" font-weight="bold" font-size="55.0" fill="#FEFFFE" transform="matrix(1.00, 0.00, -0.00, -1.00, 534.0, 109.9)">e</text><text xml:space="preserve" font-family="DINCondensed-Bold,DIN Condensed" font-weight="bold" font-size="55.0" fill="#FEFFFE" transform="matrix(1.00, 0.00, -0.00, -1.00, 554.3, 109.9)">r</text><text xml:space="preserve" font-family="DINCondensed-Bold,DIN Condensed" font-weight="bold" font-size="55.0" fill="#FEFFFE" transform="matrix(1.00, 0.00, -0.00, -1.00, 569.6, 109.9)">s</text><text xml:space="preserve" font-family="DINCondensed-Bold,DIN Condensed" font-weight="bold" font-size="55.0" fill="#FEFFFE" transform="matrix(1.00, 0.00, -0.00, -1.00, 589.0, 109.9)"> </text><text xml:space="preserve" font-family="DINCondensed-Bold,DIN Condensed" font-weight="bold" font-size="55.0" fill="#F9F600" transform="matrix(1.00, 0.00, -0.00, -1.00, 599.2, 109.9)">e</text><text xml:space="preserve" font-family="DINCondensed-Bold,DIN Condensed" font-weight="bold" font-size="55.0" fill="#F9F600" transform="matrix(1.00, 0.00, -0.00, -1.00, 619.6, 109.9)">x</text><text xml:space="preserve" font-family="DINCondensed-Bold,DIN Condensed" font-weight="bold" font-size="55.0" fill="#F9F600" transform="matrix(1.00, 0.00, -0.00, -1.00, 637.8, 109.9)">t</text><text xml:space="preserve" font-family="DINCondensed-Bold,DIN Condensed" font-weight="bold" font-size="55.0" fill="#F9F600" transform="matrix(1.00, 0.00, -0.00, -1.00, 649.0, 109.9)">e</text><text xml:space="preserve" font-family="DINCondensed-Bold,DIN Condensed" font-weight="bold" font-size="55.0" fill="#F9F600" transform="matrix(1.00, 0.00, -0.00, -1.00, 669.4, 109.9)">n</text><text xml:space="preserve" font-family="DINCondensed-Bold,DIN Condensed" font-weight="bold" font-size="55.0" fill="#F9F600" transform="matrix(1.00, 0.00, -0.00, -1.00, 690.8, 109.9)">d</text><text xml:space="preserve" font-family="DINCondensed-Bold,DIN Condensed" font-weight="bold" font-size="55.0" fill="#F9F600" transform="matrix(1.00, 0.00, -0.00, -1.00, 712.2, 109.9)">_</text><text xml:space="preserve" font-family="DINCondensed-Bold,DIN Condensed" font-weight="bold" font-size="55.0" fill="#F9F600" transform="matrix(1.00, 0.00, -0.00, -1.00, 739.7, 109.9)">c</text><text xml:space="preserve" font-family="DINCondensed-Bold,DIN Condensed" font-weight="bold" font-size="55.0" fill="#F9F600" transform="matrix(1.00, 0.00, -0.00, -1.00, 760.0, 109.9)">a</text><text xml:space="preserve" font-family="DINCondensed-Bold,DIN Condensed" font-weight="bold" font-size="55.0" fill="#F9F600" transform="matrix(1.00, 0.00, -0.00, -1.00, 780.4, 109.9)">c</text><text xml:space="preserve" font-family="DINCondensed-Bold,DIN Condensed" font-weight="bold" font-size="55.0" fill="#F9F600" transform="matrix(1.00, 0.00, -0.00, -1.00, 800.1, 109.9)">h</text><text xml:space="preserve" font-family="DINCondensed-Bold,DIN Condensed" font-weight="bold" font-size="55.0" fill="#F9F600" transform="matrix(1.00, 0.00, -0.00, -1.00, 821.5, 109.9)">e</text><text xml:space="preserve" font-family="DINCondensed-Bold,DIN Condensed" font-weight="bold" font-size="55.0" fill="#F9F600" transform="matrix(1.00, 0.00, -0.00, -1.00, 841.8, 109.9)">;</text><text xml:space="preserve" font-family="BebasNeueCyrillic,Bebas Neue Cyrillic" font-size="100.0" fill="#FE4B85" transform="matrix(1.00, 0.00, -0.00, -1.00, 287.7, 600.8)">E</text><text xml:space="preserve" font-family="BebasNeueCyrillic,Bebas Neue Cyrillic" font-size="100.0" fill="#FE4B85" transform="matrix(1.00, 0.00, -0.00, -1.00, 324.4, 600.8)">x</text><text xml:space="preserve" font-family="BebasNeueCyrillic,Bebas Neue Cyrillic" font-size="100.0" fill="#FE4B85" transform="matrix(1.00, 0.00, -0.00, -1.00, 367.3, 600.8)">t</text><text xml:space="preserve" font-family="BebasNeueCyrillic,Bebas Neue Cyrillic" font-size="100.0" fill="#FE4B85" transform="matrix(1.00, 0.00, -0.00, -1.00, 403.3, 600.8)">e</text><text xml:space="preserve" font-family="BebasNeueCyrillic,Bebas Neue Cyrillic" font-size="100.0" fill="#FE4B85" transform="matrix(1.00, 0.00, -0.00, -1.00, 440.0, 600.8)">n</text><text xml:space="preserve" font-family="BebasNeueCyrillic,Bebas Neue Cyrillic" font-size="100.0" fill="#FE4B85" transform="matrix(1.00, 0.00, -0.00, -1.00, 482.7, 600.8)">d</text><text xml:space="preserve" font-family="BebasNeueCyrillic,Bebas Neue Cyrillic" font-size="100.0" fill="#FE4B85" transform="matrix(1.00, 0.00, -0.00, -1.00, 523.4, 600.8)"> </text><text xml:space="preserve" font-family="BebasNeueCyrillic,Bebas Neue Cyrillic" font-size="100.0" fill="#FE4B85" transform="matrix(1.00, 0.00, -0.00, -1.00, 538.9, 600.8)">C</text><text xml:space="preserve" font-family="BebasNeueCyrillic,Bebas Neue Cyrillic" font-size="100.0" fill="#FE4B85" transform="matrix(1.00, 0.00, -0.00, -1.00, 577.4, 600.8)">a</text><text xml:space="preserve" font-family="BebasNeueCyrillic,Bebas Neue Cyrillic" font-size="100.0" fill="#FE4B85" transform="matrix(1.00, 0.00, -0.00, -1.00, 618.1, 600.8)">c</text><text xml:space="preserve" font-family="BebasNeueCyrillic,Bebas Neue Cyrillic" font-size="100.0" fill="#FE4B85" transform="matrix(1.00, 0.00, -0.00, -1.00, 656.6, 600.8)">h</text><text xml:space="preserve" font-family="BebasNeueCyrillic,Bebas Neue Cyrillic" font-size="100.0" fill="#FE4B85" transform="matrix(1.00, 0.00, -0.00, -1.00, 699.2, 600.8)">e</text></g></svg>