<?xml version="1.0" encoding="UTF-8" standalone="no"?>
<svg width="763px" height="196px" viewBox="0 0 763 196" version="1.1" xmlns="http://www.w3.org/2000/svg" xmlns:xlink="http://www.w3.org/1999/xlink" xmlns:sketch="http://www.bohemiancoding.com/sketch/ns">
    <!-- Generator: Sketch 3.3 (11970) - http://www.bohemiancoding.com/sketch -->
    <title>intel-gnol-logos</title>
    <desc>Created with Sketch.</desc>
    <defs></defs>
    <g id="Page-1" stroke="none" stroke-width="1" fill="none" fill-rule="evenodd" sketch:type="MSPage">
        <g id="intel-gnol-logos" sketch:type="MSLayerGroup">
            <g id="Intel-logo" fill="#127CC1" sketch:type="MSShapeGroup">
                <path d="M294.265032,55.6261791 C280.354429,-12.2407759 149.145805,-16.5387255 64.5679011,35.1669444 L64.5679011,40.8776054 C149.034736,-2.75984044 268.888987,-2.4815558 279.795523,60.0346313 C283.470584,80.7447773 271.895579,102.284196 251.141247,114.677751 L251.141247,130.896822 C276.125004,121.722042 301.663124,92.0272132 294.265032,55.6261791 L294.265032,55.6261791 Z M140.465818,174.450639 C82.0965137,179.857662 21.2785177,171.346918 12.7641286,125.517662 C8.53571336,102.950768 18.8293178,78.9990376 32.4072023,64.1384409 L32.4072023,56.181734 C7.92379212,77.750558 -5.37539557,105.032066 2.30340733,137.244646 C12.0961652,178.581803 64.289709,201.980516 143.971738,194.189566 C175.521022,191.141109 216.809547,180.93836 245.463813,165.110612 L245.463813,142.623795 C219.423336,158.231558 176.354586,171.126428 140.465818,174.450639 L140.465818,174.450639 Z" id="path6"></path>
                <path d="M240.789085,45.8150525 L225.488021,45.8150525 L225.488021,114.326598 C225.488021,122.373105 229.328176,129.371548 240.789085,130.481029" id="path8"></path>
                <path d="M58.5032166,70.8534272 L43.2011481,70.8534272 L43.2011481,115.601538 C43.2011481,123.651086 47.0413074,130.646993 58.5032166,131.755969" id="path10"></path>
                <rect id="rect12" x="43.2011471" y="47.8969746" width="15.3020685" height="14.574463"></rect>
                <path d="M150.202031,131.03577 C137.794975,131.03577 132.564359,122.37362 132.564359,113.824646 L132.564359,54.3929531 L147.69931,54.3929531 L147.69931,70.8534272 L159.160714,70.8534272 L159.160714,83.178482 L147.69931,83.178482 L147.69931,112.908538 C147.69931,116.404966 149.368457,118.322452 152.983941,118.322452 L159.160714,118.322452 L159.160714,131.03577 L150.202031,131.03577" id="path14"></path>
                <path d="M190.432312,82.4298631 C185.258749,82.4298631 181.25349,85.1218453 179.583334,88.7588627 C178.582143,90.9509196 178.247403,92.6171671 178.08231,95.3111791 L201.507978,95.3111791 C201.173743,88.7309478 198.222691,82.4298631 190.432312,82.4298631 M178.08231,105.692364 C178.08231,113.493224 182.976157,119.236519 191.545581,119.236519 C198.279745,119.236519 201.618048,117.348989 205.513237,113.493729 L214.861695,122.51471 C208.852045,128.453419 202.564709,132.063022 191.436026,132.063022 C176.914006,132.063022 163.001879,124.096198 163.001879,100.888515 C163.001879,81.0417466 175.131752,69.8276935 191.101791,69.8276935 C207.293967,69.8276935 216.584867,82.957195 216.584867,100.196233 L216.584867,105.692869 L178.08231,105.692869" id="path16"></path>
                <path d="M99.7351924,83.178482 C104.185761,83.178482 106.022535,85.3720615 106.022535,88.952742 L106.022535,131.118494 L121.21352,131.118494 L121.21352,88.8974205 C121.21352,80.3195199 116.650364,70.85292 103.352187,70.85292 L72.0250591,70.85292 L72.0250591,131.117989 L87.1600101,131.117989 L87.1600101,83.1779738" id="path18"></path>
            </g>
            <text id="gnor.net" sketch:type="MSTextLayer" font-family="Orbitron" font-size="74" font-weight="260" fill="#1C900B">
                <tspan x="428" y="92">gnor.net</tspan>
            </text>
            <text id="gnor-technology" sketch:type="MSTextLayer" font-family="Orbitron" font-size="37" font-weight="260" fill="#979797">
                <tspan x="431.5" y="156">gnor technology</tspan>
            </text>
        </g>
    </g>
</svg>