<?xml version="1.0" encoding="UTF-8" standalone="no"?>
<svg width="257px" height="171px" viewBox="0 0 257 171" version="1.1" xmlns="http://www.w3.org/2000/svg" xmlns:xlink="http://www.w3.org/1999/xlink" xmlns:sketch="http://www.bohemiancoding.com/sketch/ns">
    <!-- Generator: Sketch 3.3 (11970) - http://www.bohemiancoding.com/sketch -->
    <title>nwjs-connect-web-api-and-native-api</title>
    <desc>Created with Sketch.</desc>
    <defs></defs>
    <g id="Page-1" stroke="none" stroke-width="1" fill="none" fill-rule="evenodd" sketch:type="MSPage">
        <g id="nwjs-connect-web-api-and-native-api" sketch:type="MSLayerGroup">
            <g id="Oval-1-+-Oval-1-Copy-2">
                <g id="Group">
                    <path d="M85.5,171 C132.720346,171 171,132.720346 171,85.5 C171,38.2796539 132.720346,0 85.5,0 C38.2796539,0 0,38.2796539 0,85.5 C0,132.720346 38.2796539,171 85.5,171 Z" id="Oval-1" fill="#3498DB" sketch:type="MSShapeGroup"></path>
                    <path d="M171.5,171 C218.720346,171 257,132.720346 257,85.5 C257,38.2796539 218.720346,0 171.5,0 C124.279654,0 86,38.2796539 86,85.5 C86,132.720346 124.279654,171 171.5,171 Z" id="Oval-1-Copy" fill="#2ECC71" sketch:type="MSShapeGroup"></path>
                    <text id="local" sketch:type="MSTextLayer" font-family="Helvetica" font-size="18" font-weight="bold" sketch:alignment="middle" fill="#FFFFFF">
                        <tspan x="186.990723" y="67">local</tspan>
                        <tspan x="194.496582" y="89">OS</tspan>
                        <tspan x="192.49707" y="111">API</tspan>
                    </text>
                    <path d="M128.5,159.41644 C153.918078,144.597834 171,117.043765 171,85.5 C171,53.9562349 153.918078,26.4021664 128.5,11.5835601 C103.081922,26.4021664 86,53.9562349 86,85.5 C86,117.043765 103.081922,144.597834 128.5,159.41644 Z" id="Oval-1" fill="#FFFB2E" sketch:type="MSShapeGroup"></path>
                    <text id="Web-" sketch:type="MSTextLayer" font-family="Helvetica" font-size="18" font-weight="bold" sketch:alignment="middle" fill="#FFFFFF">
                        <tspan x="31.1606445" y="72">Web </tspan>
                        <tspan x="34.9970703" y="94">API</tspan>
                        <tspan x="65.0029297" y="94" font-weight="normal"></tspan>
                        <tspan x="17.3310547" y="116" font-size="14" font-weight="normal">html js css</tspan>
                    </text>
                </g>
            </g>
            <g id="node_webkit" transform="translate(105.000000, 49.000000)">
                <g id="Group" sketch:type="MSShapeGroup">
                    <path d="M25.1243685,0.413004149 C24.2309272,-0.101051867 22.7690728,-0.101051867 21.8757418,0.413004149 L1.64411737,12.0544212 C0.750676056,12.5684772 0.0197488263,13.830251 0.0197488263,14.8583631 L0.0197488263,38.141417 C0.0197488263,39.169529 0.750676056,40.4313029 1.64411737,40.9453589 L21.8756315,52.5869959 C22.7690728,53.1010519 24.2309272,53.1010519 25.1242582,52.5869959 L45.3557723,40.9453589 C46.2492136,40.4313029 46.9801408,39.169529 46.9801408,38.141417 L46.9801408,14.8583631 C46.9801408,13.830251 46.2492136,12.5684772 45.3557723,12.0544212 L25.1243685,0.413004149 L25.1243685,0.413004149 Z" id="Shape" fill="#3D3B47"></path>
                    <path d="M23.4985657,24.6940415 C23.538946,24.6940415 23.5799883,24.695361 23.6210305,24.698 C24.2229836,24.7379149 24.7645869,25.0736183 25.0699765,25.5952614 C25.2510258,25.9067739 25.3341033,26.2618299 25.310493,26.6217241 C25.246392,27.5660477 24.4635,28.3055187 23.5015446,28.3055187 C23.4612746,28.3055187 23.4206737,28.3040892 23.3797418,28.3015602 C22.7755822,28.2625249 22.2334272,27.9274813 21.9300235,27.4053983 C21.7486432,27.0939959 21.6656761,26.7389398 21.689507,26.3792656 C21.7541596,25.4367012 22.5467606,24.6964606 23.4936009,24.6939315 C23.4953662,24.6940415 23.4970211,24.6940415 23.4985657,24.6940415 L23.4985657,24.6940415 Z M23.4985657,24.584083 L23.4985657,24.584083 L23.4933803,24.584083 C22.488838,24.586722 21.6481338,25.3720456 21.5795094,26.3717884 C21.5542441,26.7540041 21.6422864,27.1302822 21.8346995,27.4605975 C22.1565282,28.0143485 22.731561,28.3699544 23.3726808,28.4112988 C23.4154883,28.4140477 23.4588474,28.4154772 23.5015446,28.4154772 C24.5096174,28.4154772 25.3524178,27.6307033 25.4206009,26.6290913 C25.4456455,26.2467656 25.357493,25.8703776 25.1654108,25.5400622 C24.8412653,24.9862012 24.2666737,24.6304855 23.6283122,24.5882614 C23.5855047,24.5854025 23.5419249,24.584083 23.4985657,24.584083 L23.4985657,24.584083 L23.4985657,24.584083 Z" id="Shape" fill="#EFF3F3"></path>
                    <path id="Shape" fill="#A1A1A4" d="M23.9578638,28.8035207 L24.0578638,28.8335207 L23.9578638,28.8365207 L23.9578638,28.8035207 Z"></path>
                    <path d="M23.5424765,25.8687282 C23.89277,25.8925892 24.1571174,26.1939855 24.133507,26.5432137 C24.1097864,26.8911224 23.8075962,27.1546929 23.4577441,27.1312718 C23.1083333,27.1080705 22.8431033,26.8067842 22.866162,26.4584357 C22.8897723,26.1097573 23.1929554,25.8457469 23.5424765,25.8687282 L23.5424765,25.8687282 Z" id="path4368" fill="#EFF3F3"></path>
                    <path d="M23.5099296,29.0502676 C23.5099296,29.0502676 23.5099296,29.0502676 23.5094883,29.0502676 C23.4504624,29.0502676 23.390554,29.0485083 23.3308662,29.0444398 C22.4779155,28.9892407 21.7125657,28.5160892 21.2841596,27.7788174 C21.0280869,27.3389834 20.9102559,26.8374627 20.9443474,26.3289046 C20.9855,25.7307303 21.2357254,25.1910539 21.619007,24.7770602 L21.6066502,24.7556183 L5.03076526,37.3446577 L24.0737089,29.0013361 L24.064662,28.9853921 C23.8854883,29.0260768 23.7003568,29.0497178 23.5099296,29.0502676 L23.5099296,29.0502676 Z" id="Shape" fill="#EFF3F3"></path>
                    <path d="M22.8799531,24.0183465 L22.8846972,24.0260436 C23.1350329,23.9636971 23.3991596,23.9373071 23.6704577,23.9552303 C24.5205399,24.0113091 25.285338,24.4846805 25.7158404,25.2211826 C25.9718028,25.6617863 26.0896338,26.1630871 26.0557629,26.6712054 C26.0140587,27.2888423 25.7488286,27.8429232 25.3452465,28.2617552 L25.3465704,28.2640643 L42.0877277,15.9572884 L22.8799531,24.0183465 L22.8799531,24.0183465 Z" id="Shape" fill="#8CBB3F"></path>
                </g>
                <text id="nw.js" sketch:type="MSTextLayer" font-family="ISOCPEUR" font-size="14" font-weight="normal" sketch:alignment="middle" fill="#4A4A4A">
                    <tspan x="10.9160156" y="67">nw.js</tspan>
                </text>
            </g>
            <g id="Oval-1-+-Oval-1-Copy" transform="translate(86.000000, 11.000000)"></g>
        </g>
    </g>
</svg>