<?xml version="1.0" encoding="UTF-8" standalone="no"?>
<svg width="488px" height="573px" viewBox="0 0 488 573" version="1.1" xmlns="http://www.w3.org/2000/svg" xmlns:xlink="http://www.w3.org/1999/xlink" xmlns:sketch="http://www.bohemiancoding.com/sketch/ns">
    <!-- Generator: Sketch 3.3 (11970) - http://www.bohemiancoding.com/sketch -->
    <title>nwjs-logo-text</title>
    <desc>Created with Sketch.</desc>
    <defs></defs>
    <g id="Page-1" stroke="none" stroke-width="1" fill="none" fill-rule="evenodd" sketch:type="MSPage">
        <g id="nwjs-logo-text" sketch:type="MSLayerGroup" transform="translate(-9.000000, 0.000000)">
            <g id="Group" transform="translate(102.000000, 0.000000)" sketch:type="MSShapeGroup">
                <path d="M157.695505,2.59602608 C152.087735,-0.635183165 142.912265,-0.635183165 137.305188,2.59602608 L10.3194601,75.7706473 C4.71169014,79.0018566 0.123955399,86.9330065 0.123955399,93.395425 L0.123955399,239.74605 C0.123955399,246.208468 4.71169014,254.139618 10.3194601,257.370828 L137.304495,330.546831 C142.912265,333.77804 152.087735,333.77804 157.694812,330.546831 L284.679847,257.370828 C290.287617,254.139618 294.875352,246.208468 294.875352,239.74605 L294.875352,93.395425 C294.875352,86.9330065 290.287617,79.0018566 284.679847,75.7706473 L157.695505,2.59602608 L157.695505,2.59602608 Z" id="Shape" fill="#3D3B47"></path>
                <path d="M147.490998,155.219689 C147.744448,155.219689 148.002054,155.227983 148.25966,155.244571 C152.037876,155.495465 155.4373,157.6056 157.354108,160.8845 C158.490481,162.842579 159.011925,165.074359 158.863732,167.336551 C158.461397,173.2723 153.5475,177.920403 147.509695,177.920403 C147.256937,177.920403 147.002101,177.911418 146.745188,177.895521 C142.953122,177.650156 139.550235,175.544168 137.645892,172.262504 C136.507441,170.305117 135.98669,168.073336 136.136268,165.812526 C136.542066,159.887836 141.516901,155.234895 147.459836,155.218998 C147.470915,155.219689 147.481303,155.219689 147.490998,155.219689 L147.490998,155.219689 Z M147.490998,154.528522 L147.490998,154.528522 L147.458451,154.528522 C141.153345,154.54511 135.876585,159.48143 135.445857,165.765527 C135.287277,168.168026 135.839883,170.533202 137.047582,172.60947 C139.06757,176.090191 142.676819,178.325427 146.700869,178.585306 C146.969554,178.602586 147.241702,178.611571 147.509695,178.611571 C153.83696,178.611571 159.126878,173.678707 159.554836,167.38286 C159.712031,164.979669 159.158732,162.613802 157.95311,160.537534 C155.91858,157.056122 152.312101,154.820194 148.305364,154.554786 C148.036678,154.536816 147.763146,154.528522 147.490998,154.528522 L147.490998,154.528522 L147.490998,154.528522 Z" id="Shape" fill="#EFF3F3"></path>
                <path d="M150.373826,181.050702 L151.001486,181.239273 L150.373826,181.25813 L150.373826,181.050702 Z" id="Shape" fill="#A1A1A4"></path>
                <path d="M147.766608,162.603434 C149.965258,162.753418 151.62446,164.647909 151.476268,166.843057 C151.327383,169.029912 149.430657,170.686641 147.234777,170.539423 C145.041667,170.393586 143.376925,168.499787 143.521655,166.310167 C143.669847,164.118474 145.572805,162.45898 147.766608,162.603434 L147.766608,162.603434 Z" id="path4368" fill="#EFF3F3"></path>
                <path d="M147.562324,182.601682 C147.562324,182.601682 147.562324,182.601682 147.559554,182.601682 C147.189073,182.601682 146.813052,182.590624 146.438415,182.56505 C141.084789,182.218084 136.280998,179.243989 133.592066,174.60971 C131.9848,171.845039 131.245223,168.692622 131.459202,165.495972 C131.7175,161.736019 133.288063,158.343768 135.693768,155.741521 L135.616209,155.606743 L31.5760798,234.737848 L151.100939,182.294113 L151.044155,182.193893 C149.919554,182.449625 148.757559,182.598226 147.562324,182.601682 L147.562324,182.601682 Z" id="Shape" fill="#EFF3F3"></path>
                <path d="M143.608216,150.972464 L143.637993,151.020845 C145.209249,150.628953 146.867066,150.463073 148.569894,150.575733 C153.905516,150.928229 158.705845,153.903706 161.407934,158.533148 C163.014507,161.302657 163.754085,164.453691 163.541491,167.647577 C163.27973,171.529866 161.614988,175.01266 159.081866,177.645318 L159.090176,177.659833 L264.167653,100.302956 L143.608216,150.972464 L143.608216,150.972464 Z" id="Shape" fill="#8CBB3F"></path>
            </g>
            <text id="nw.js" sketch:type="MSTextLayer" font-family="Orbitron" font-size="173.77303" font-weight="260" sketch:alignment="middle" fill="#4A4A4A">
                <tspan x="0.14608474" y="529.571429">nw.js</tspan>
            </text>
        </g>
    </g>
</svg>