<?xml version="1.0" encoding="UTF-8" standalone="no"?><svg xmlns="http://www.w3.org/2000/svg" xmlns:xlink="http://www.w3.org/1999/xlink" clip-rule="evenodd" stroke-miterlimit="10" viewBox="0 0 1024 768"><desc>SVG generated by Keynote</desc><defs></defs><g transform="matrix(1.00, 0.00, -0.00, -1.00, 0.0, 768.0)"><path d="M 0.0 768.0 L 1024.0 768.0 L 1024.0 0.0 L 0.0 0.0 Z M 0.0 768.0 " fill="#FEFFFE"></path><text xml:space="preserve" font-family="BebasNeueCyrillic,Bebas Neue Cyrillic" font-size="100.0" fill="#00CF41" transform="matrix(1.00, 0.00, -0.00, -1.00, 384.4, 446.6)">И</text><text xml:space="preserve" font-family="BebasNeueCyrillic,Bebas Neue Cyrillic" font-size="100.0" fill="#00CF41" transform="matrix(1.00, 0.00, -0.00, -1.00, 427.3, 446.6)"> </text><text xml:space="preserve" font-family="BebasNeueCyrillic,Bebas Neue Cyrillic" font-size="100.0" fill="#00CF41" transform="matrix(1.00, 0.00, -0.00, -1.00, 442.7, 446.6)">е</text><text xml:space="preserve" font-family="BebasNeueCyrillic,Bebas Neue Cyrillic" font-size="100.0" fill="#00CF41" transform="matrix(1.00, 0.00, -0.00, -1.00, 479.2, 446.6)">щ</text><text xml:space="preserve" font-family="BebasNeueCyrillic,Bebas Neue Cyrillic" font-size="100.0" fill="#00CF41" transform="matrix(1.00, 0.00, -0.00, -1.00, 539.8, 446.6)">е</text><text xml:space="preserve" font-family="BebasNeueCyrillic,Bebas Neue Cyrillic" font-size="100.0" fill="#00CF41" transform="matrix(1.00, 0.00, -0.00, -1.00, 576.2, 446.6)"> </text><text xml:space="preserve" font-family="BebasNeueCyrillic,Bebas Neue Cyrillic" font-size="100.0" fill="#00CF41" transform="matrix(1.00, 0.00, -0.00, -1.00, 591.7, 446.6)">…</text><text xml:space="preserve" font-family="GillSans,Gill Sans" font-size="58.0" fill="#000000" transform="matrix(1.00, 0.00, -0.00, -1.00, 303.1, 289.5)">&lt;</text><text xml:space="preserve" font-family="GillSans,Gill Sans" font-size="58.0" fill="#000000" transform="matrix(1.00, 0.00, -0.00, -1.00, 337.0, 289.5)">i</text><text xml:space="preserve" font-family="GillSans,Gill Sans" font-size="58.0" fill="#000000" transform="matrix(1.00, 0.00, -0.00, -1.00, 349.7, 289.5)">m</text><text xml:space="preserve" font-family="GillSans,Gill Sans" font-size="58.0" fill="#000000" transform="matrix(1.00, 0.00, -0.00, -1.00, 394.4, 289.5)">g</text><text xml:space="preserve" font-family="GillSans,Gill Sans" font-size="58.0" fill="#000000" transform="matrix(1.00, 0.00, -0.00, -1.00, 419.2, 289.5)"> </text><text xml:space="preserve" font-family="GillSans,Gill Sans" font-size="58.0" fill="#000000" transform="matrix(1.00, 0.00, -0.00, -1.00, 435.3, 289.5)">s</text><text xml:space="preserve" font-family="GillSans,Gill Sans" font-size="58.0" fill="#000000" transform="matrix(1.00, 0.00, -0.00, -1.00, 457.6, 289.5)">r</text><text xml:space="preserve" font-family="GillSans,Gill Sans" font-size="58.0" fill="#000000" transform="matrix(1.00, 0.00, -0.00, -1.00, 479.1, 289.5)">c</text><text xml:space="preserve" font-family="GillSans,Gill Sans" font-size="58.0" fill="#000000" transform="matrix(1.00, 0.00, -0.00, -1.00, 504.5, 289.5)">=</text><text xml:space="preserve" font-family="GillSans,Gill Sans" font-size="58.0" fill="#000000" transform="matrix(1.00, 0.00, -0.00, -1.00, 538.4, 289.5)">“</text><text xml:space="preserve" font-family="GillSans,Gill Sans" font-size="58.0" fill="#000000" transform="matrix(1.00, 0.00, -0.00, -1.00, 563.1, 289.5)">h</text><text xml:space="preserve" font-family="GillSans,Gill Sans" font-size="58.0" fill="#000000" transform="matrix(1.00, 0.00, -0.00, -1.00, 592.1, 289.5)">i</text><text xml:space="preserve" font-family="GillSans,Gill Sans" font-size="58.0" fill="#000000" transform="matrix(1.00, 0.00, -0.00, -1.00, 604.9, 289.5)">.</text><text xml:space="preserve" font-family="GillSans,Gill Sans" font-size="58.0" fill="#000000" transform="matrix(1.00, 0.00, -0.00, -1.00, 617.6, 289.5)">p</text><text xml:space="preserve" font-family="GillSans,Gill Sans" font-size="58.0" fill="#000000" transform="matrix(1.00, 0.00, -0.00, -1.00, 646.6, 289.5)">n</text><text xml:space="preserve" font-family="GillSans,Gill Sans" font-size="58.0" fill="#000000" transform="matrix(1.00, 0.00, -0.00, -1.00, 675.6, 289.5)">g</text><text xml:space="preserve" font-family="GillSans,Gill Sans" font-size="58.0" fill="#000000" transform="matrix(1.00, 0.00, -0.00, -1.00, 700.3, 289.5)">"</text><text xml:space="preserve" font-family="GillSans,Gill Sans" font-size="58.0" fill="#000000" transform="matrix(1.00, 0.00, -0.00, -1.00, 720.9, 289.5)"> </text><text xml:space="preserve" font-family="GillSans,Gill Sans" font-size="58.0" fill="#FF3156" transform="matrix(1.00, 0.00, -0.00, -1.00, 200.3, 223.5)">h</text><text xml:space="preserve" font-family="GillSans,Gill Sans" font-size="58.0" fill="#FF3156" transform="matrix(1.00, 0.00, -0.00, -1.00, 229.3, 223.5)">e</text><text xml:space="preserve" font-family="GillSans,Gill Sans" font-size="58.0" fill="#FF3156" transform="matrix(1.00, 0.00, -0.00, -1.00, 257.1, 223.5)">i</text><text xml:space="preserve" font-family="GillSans,Gill Sans" font-size="58.0" fill="#FF3156" transform="matrix(1.00, 0.00, -0.00, -1.00, 269.9, 223.5)">g</text><text xml:space="preserve" font-family="GillSans,Gill Sans" font-size="58.0" fill="#FF3156" transform="matrix(1.00, 0.00, -0.00, -1.00, 294.6, 223.5)">h</text><text xml:space="preserve" font-family="GillSans,Gill Sans" font-size="58.0" fill="#FF3156" transform="matrix(1.00, 0.00, -0.00, -1.00, 323.6, 223.5)">t</text><text xml:space="preserve" font-family="GillSans,Gill Sans" font-size="58.0" fill="#FF3156" transform="matrix(1.00, 0.00, -0.00, -1.00, 342.9, 223.5)">=</text><text xml:space="preserve" font-family="GillSans,Gill Sans" font-size="58.0" fill="#FF3156" transform="matrix(1.00, 0.00, -0.00, -1.00, 376.8, 223.5)">"</text><text xml:space="preserve" font-family="GillSans,Gill Sans" font-size="58.0" fill="#1AAFFA" transform="matrix(1.00, 0.00, -0.00, -1.00, 397.3, 223.5)">1</text><text xml:space="preserve" font-family="GillSans,Gill Sans" font-size="58.0" fill="#1AAFFA" transform="matrix(1.00, 0.00, -0.00, -1.00, 426.3, 223.5)">0</text><text xml:space="preserve" font-family="GillSans,Gill Sans" font-size="58.0" fill="#1AAFFA" transform="matrix(1.00, 0.00, -0.00, -1.00, 455.3, 223.5)">0</text><text xml:space="preserve" font-family="GillSans,Gill Sans" font-size="58.0" fill="#FF3156" transform="matrix(1.00, 0.00, -0.00, -1.00, 484.3, 223.5)">"</text><text xml:space="preserve" font-family="GillSans,Gill Sans" font-size="58.0" fill="#FF3156" transform="matrix(1.00, 0.00, -0.00, -1.00, 504.8, 223.5)"> </text><text xml:space="preserve" font-family="GillSans,Gill Sans" font-size="58.0" fill="#FF3156" transform="matrix(1.00, 0.00, -0.00, -1.00, 521.0, 223.5)">w</text><text xml:space="preserve" font-family="GillSans,Gill Sans" font-size="58.0" fill="#FF3156" transform="matrix(1.00, 0.00, -0.00, -1.00, 562.7, 223.5)">i</text><text xml:space="preserve" font-family="GillSans,Gill Sans" font-size="58.0" fill="#FF3156" transform="matrix(1.00, 0.00, -0.00, -1.00, 575.4, 223.5)">d</text><text xml:space="preserve" font-family="GillSans,Gill Sans" font-size="58.0" fill="#FF3156" transform="matrix(1.00, 0.00, -0.00, -1.00, 605.0, 223.5)">t</text><text xml:space="preserve" font-family="GillSans,Gill Sans" font-size="58.0" fill="#FF3156" transform="matrix(1.00, 0.00, -0.00, -1.00, 624.3, 223.5)">h</text><text xml:space="preserve" font-family="GillSans,Gill Sans" font-size="58.0" fill="#FF3156" transform="matrix(1.00, 0.00, -0.00, -1.00, 653.3, 223.5)">=</text><text xml:space="preserve" font-family="GillSans,Gill Sans" font-size="58.0" fill="#FF3156" transform="matrix(1.00, 0.00, -0.00, -1.00, 687.1, 223.5)">“</text><text xml:space="preserve" font-family="GillSans,Gill Sans" font-size="58.0" fill="#51A7F9" transform="matrix(1.00, 0.00, -0.00, -1.00, 711.9, 223.5)">1</text><text xml:space="preserve" font-family="GillSans,Gill Sans" font-size="58.0" fill="#51A7F9" transform="matrix(1.00, 0.00, -0.00, -1.00, 740.9, 223.5)">0</text><text xml:space="preserve" font-family="GillSans,Gill Sans" font-size="58.0" fill="#51A7F9" transform="matrix(1.00, 0.00, -0.00, -1.00, 769.9, 223.5)">0</text><text xml:space="preserve" font-family="GillSans,Gill Sans" font-size="58.0" fill="#FF3156" transform="matrix(1.00, 0.00, -0.00, -1.00, 798.9, 223.5)">”</text><text xml:space="preserve" font-family="GillSans,Gill Sans" font-size="58.0" fill="#000000" transform="matrix(1.00, 0.00, -0.00, -1.00, 486.9, 157.5)">/</text><text xml:space="preserve" font-family="GillSans,Gill Sans" font-size="58.0" fill="#000000" transform="matrix(1.00, 0.00, -0.00, -1.00, 503.2, 157.5)">&gt;</text></g></svg>