<?xml version="1.0" encoding="UTF-8" standalone="no"?><svg xmlns="http://www.w3.org/2000/svg" xmlns:xlink="http://www.w3.org/1999/xlink" clip-rule="evenodd" stroke-miterlimit="10" viewBox="0 0 1024 768"><desc>SVG generated by Keynote</desc><defs></defs><g transform="matrix(1.00, 0.00, -0.00, -1.00, 0.0, 768.0)"><path d="M 0.0 768.0 L 1024.0 768.0 L 1024.0 0.0 L 0.0 0.0 Z M 0.0 768.0 " fill="#FEFFFE"></path><text xml:space="preserve" font-family="GillSans,Gill Sans" font-size="58.0" fill="#1AAFFA" transform="matrix(1.00, 0.00, -0.00, -1.00, 245.5, 88.8)">v</text><text xml:space="preserve" font-family="GillSans,Gill Sans" font-size="58.0" fill="#1AAFFA" transform="matrix(1.00, 0.00, -0.00, -1.00, 270.9, 88.8)">i</text><text xml:space="preserve" font-family="GillSans,Gill Sans" font-size="58.0" fill="#1AAFFA" transform="matrix(1.00, 0.00, -0.00, -1.00, 283.6, 88.8)">m</text><text xml:space="preserve" font-family="GillSans,Gill Sans" font-size="58.0" fill="#1AAFFA" transform="matrix(1.00, 0.00, -0.00, -1.00, 328.3, 88.8)">e</text><text xml:space="preserve" font-family="GillSans,Gill Sans" font-size="58.0" fill="#1AAFFA" transform="matrix(1.00, 0.00, -0.00, -1.00, 356.1, 88.8)">o</text><text xml:space="preserve" font-family="GillSans,Gill Sans" font-size="58.0" fill="#1AAFFA" transform="matrix(1.00, 0.00, -0.00, -1.00, 386.4, 88.8)">.</text><text xml:space="preserve" font-family="GillSans,Gill Sans" font-size="58.0" fill="#1AAFFA" transform="matrix(1.00, 0.00, -0.00, -1.00, 399.1, 88.8)">c</text><text xml:space="preserve" font-family="GillSans,Gill Sans" font-size="58.0" fill="#1AAFFA" transform="matrix(1.00, 0.00, -0.00, -1.00, 424.5, 88.8)">o</text><text xml:space="preserve" font-family="GillSans,Gill Sans" font-size="58.0" fill="#1AAFFA" transform="matrix(1.00, 0.00, -0.00, -1.00, 456.5, 88.8)">m</text><text xml:space="preserve" font-family="GillSans,Gill Sans" font-size="58.0" fill="#1AAFFA" transform="matrix(1.00, 0.00, -0.00, -1.00, 501.2, 88.8)">/</text><text xml:space="preserve" font-family="GillSans,Gill Sans" font-size="58.0" fill="#1AAFFA" transform="matrix(1.00, 0.00, -0.00, -1.00, 517.5, 88.8)">1</text><text xml:space="preserve" font-family="GillSans,Gill Sans" font-size="58.0" fill="#1AAFFA" transform="matrix(1.00, 0.00, -0.00, -1.00, 546.5, 88.8)">0</text><text xml:space="preserve" font-family="GillSans,Gill Sans" font-size="58.0" fill="#1AAFFA" transform="matrix(1.00, 0.00, -0.00, -1.00, 575.5, 88.8)">8</text><text xml:space="preserve" font-family="GillSans,Gill Sans" font-size="58.0" fill="#1AAFFA" transform="matrix(1.00, 0.00, -0.00, -1.00, 604.5, 88.8)">3</text><text xml:space="preserve" font-family="GillSans,Gill Sans" font-size="58.0" fill="#1AAFFA" transform="matrix(1.00, 0.00, -0.00, -1.00, 633.5, 88.8)">2</text><text xml:space="preserve" font-family="GillSans,Gill Sans" font-size="58.0" fill="#1AAFFA" transform="matrix(1.00, 0.00, -0.00, -1.00, 662.5, 88.8)">6</text><text xml:space="preserve" font-family="GillSans,Gill Sans" font-size="58.0" fill="#1AAFFA" transform="matrix(1.00, 0.00, -0.00, -1.00, 691.5, 88.8)">8</text><text xml:space="preserve" font-family="GillSans,Gill Sans" font-size="58.0" fill="#1AAFFA" transform="matrix(1.00, 0.00, -0.00, -1.00, 720.5, 88.8)">3</text><text xml:space="preserve" font-family="GillSans,Gill Sans" font-size="58.0" fill="#1AAFFA" transform="matrix(1.00, 0.00, -0.00, -1.00, 749.5, 88.8)">6</text><g><clipPath id="clip0x7feca93d84e0"><path d="M 244.5 82.0 L 778.5 82.0 L 778.5 86.9 L 244.5 86.9 Z M 244.5 82.0 "></path></clipPath><g clip-path="url(#clip0x7feca93d84e0)"><path d="M 2.6 59.1 L 535.6 59.1 " fill="none" stroke="#1AAFFA" stroke-width="2.89" transform="matrix(1.00, 0.00, 0.00, -1.00, 242.9, 143.5)"></path></g></g><text xml:space="preserve" font-family="GillSans-SemiBold,Gill Sans" font-weight="bold" font-size="38.0" fill="#1AAFFA" transform="matrix(1.00, 0.00, -0.00, -1.00, 125.8, 677.2)">&lt;</text><text xml:space="preserve" font-family="GillSans-SemiBold,Gill Sans" font-weight="bold" font-size="38.0" fill="#1AAFFA" transform="matrix(1.00, 0.00, -0.00, -1.00, 148.0, 677.2)">p</text><text xml:space="preserve" font-family="GillSans-SemiBold,Gill Sans" font-weight="bold" font-size="38.0" fill="#1AAFFA" transform="matrix(1.00, 0.00, -0.00, -1.00, 168.8, 677.2)">i</text><text xml:space="preserve" font-family="GillSans-SemiBold,Gill Sans" font-weight="bold" font-size="38.0" fill="#1AAFFA" transform="matrix(1.00, 0.00, -0.00, -1.00, 178.3, 677.2)">c</text><text xml:space="preserve" font-family="GillSans-SemiBold,Gill Sans" font-weight="bold" font-size="38.0" fill="#1AAFFA" transform="matrix(1.00, 0.00, -0.00, -1.00, 195.8, 677.2)">t</text><text xml:space="preserve" font-family="GillSans-SemiBold,Gill Sans" font-weight="bold" font-size="38.0" fill="#1AAFFA" transform="matrix(1.00, 0.00, -0.00, -1.00, 209.8, 677.2)">u</text><text xml:space="preserve" font-family="GillSans-SemiBold,Gill Sans" font-weight="bold" font-size="38.0" fill="#1AAFFA" transform="matrix(1.00, 0.00, -0.00, -1.00, 230.3, 677.2)">r</text><text xml:space="preserve" font-family="GillSans-SemiBold,Gill Sans" font-weight="bold" font-size="38.0" fill="#1AAFFA" transform="matrix(1.00, 0.00, -0.00, -1.00, 245.4, 677.2)">e</text><text xml:space="preserve" font-family="GillSans-SemiBold,Gill Sans" font-weight="bold" font-size="38.0" fill="#1AAFFA" transform="matrix(1.00, 0.00, -0.00, -1.00, 265.1, 677.2)">&gt;</text><text xml:space="preserve" font-family="GillSans-SemiBold,Gill Sans" font-weight="bold" font-size="38.0" fill="#1AAFFA" transform="matrix(1.00, 0.00, -0.00, -1.00, 287.2, 677.2)"> </text><text xml:space="preserve" font-family="GillSans,Gill Sans" font-size="38.0" fill="#000000" transform="matrix(1.00, 0.00, -0.00, -1.00, 125.8, 632.5)"> </text><text xml:space="preserve" font-family="GillSans,Gill Sans" font-size="38.0" fill="#000000" transform="matrix(1.00, 0.00, -0.00, -1.00, 136.4, 632.5)"> </text><text xml:space="preserve" font-family="GillSans,Gill Sans" font-size="38.0" fill="#FF3156" transform="matrix(1.00, 0.00, -0.00, -1.00, 146.9, 632.5)">&lt;</text><text xml:space="preserve" font-family="GillSans,Gill Sans" font-size="38.0" fill="#FF3156" transform="matrix(1.00, 0.00, -0.00, -1.00, 169.1, 632.5)">s</text><text xml:space="preserve" font-family="GillSans,Gill Sans" font-size="38.0" fill="#FF3156" transform="matrix(1.00, 0.00, -0.00, -1.00, 183.7, 632.5)">o</text><text xml:space="preserve" font-family="GillSans,Gill Sans" font-size="38.0" fill="#FF3156" transform="matrix(1.00, 0.00, -0.00, -1.00, 204.7, 632.5)">u</text><text xml:space="preserve" font-family="GillSans,Gill Sans" font-size="38.0" fill="#FF3156" transform="matrix(1.00, 0.00, -0.00, -1.00, 223.7, 632.5)">r</text><text xml:space="preserve" font-family="GillSans,Gill Sans" font-size="38.0" fill="#FF3156" transform="matrix(1.00, 0.00, -0.00, -1.00, 237.8, 632.5)">c</text><text xml:space="preserve" font-family="GillSans,Gill Sans" font-size="38.0" fill="#FF3156" transform="matrix(1.00, 0.00, -0.00, -1.00, 254.5, 632.5)">e</text><text xml:space="preserve" font-family="GillSans,Gill Sans" font-size="38.0" fill="#FF3156" transform="matrix(1.00, 0.00, -0.00, -1.00, 272.7, 632.5)"> </text><text xml:space="preserve" font-family="GillSans,Gill Sans" font-size="38.0" fill="#000000" transform="matrix(1.00, 0.00, -0.00, -1.00, 125.8, 588.5)"> </text><text xml:space="preserve" font-family="GillSans,Gill Sans" font-size="38.0" fill="#000000" transform="matrix(1.00, 0.00, -0.00, -1.00, 136.4, 588.5)"> </text><text xml:space="preserve" font-family="GillSans,Gill Sans" font-size="38.0" fill="#000000" transform="matrix(1.00, 0.00, -0.00, -1.00, 146.9, 588.5)"> </text><text xml:space="preserve" font-family="GillSans,Gill Sans" font-size="38.0" fill="#000000" transform="matrix(1.00, 0.00, -0.00, -1.00, 157.5, 588.5)"> </text><text xml:space="preserve" font-family="GillSans,Gill Sans" font-size="38.0" fill="#00CF41" transform="matrix(1.00, 0.00, -0.00, -1.00, 168.1, 588.5)">m</text><text xml:space="preserve" font-family="GillSans,Gill Sans" font-size="38.0" fill="#00CF41" transform="matrix(1.00, 0.00, -0.00, -1.00, 197.4, 588.5)">e</text><text xml:space="preserve" font-family="GillSans,Gill Sans" font-size="38.0" fill="#00CF41" transform="matrix(1.00, 0.00, -0.00, -1.00, 215.6, 588.5)">d</text><text xml:space="preserve" font-family="GillSans,Gill Sans" font-size="38.0" fill="#00CF41" transform="matrix(1.00, 0.00, -0.00, -1.00, 234.9, 588.5)">i</text><text xml:space="preserve" font-family="GillSans,Gill Sans" font-size="38.0" fill="#00CF41" transform="matrix(1.00, 0.00, -0.00, -1.00, 243.3, 588.5)">a</text><text xml:space="preserve" font-family="GillSans,Gill Sans" font-size="38.0" fill="#00CF41" transform="matrix(1.00, 0.00, -0.00, -1.00, 259.5, 588.5)">=</text><text xml:space="preserve" font-family="GillSans,Gill Sans" font-size="38.0" fill="#00CF41" transform="matrix(1.00, 0.00, -0.00, -1.00, 281.7, 588.5)">"</text><text xml:space="preserve" font-family="GillSans,Gill Sans" font-size="38.0" fill="#00CF41" transform="matrix(1.00, 0.00, -0.00, -1.00, 295.1, 588.5)">(</text><text xml:space="preserve" font-family="GillSans,Gill Sans" font-size="38.0" fill="#00CF41" transform="matrix(1.00, 0.00, -0.00, -1.00, 307.4, 588.5)">m</text><text xml:space="preserve" font-family="GillSans,Gill Sans" font-size="38.0" fill="#00CF41" transform="matrix(1.00, 0.00, -0.00, -1.00, 336.7, 588.5)">i</text><text xml:space="preserve" font-family="GillSans,Gill Sans" font-size="38.0" fill="#00CF41" transform="matrix(1.00, 0.00, -0.00, -1.00, 345.0, 588.5)">n</text><text xml:space="preserve" font-family="GillSans,Gill Sans" font-size="38.0" fill="#00CF41" transform="matrix(1.00, 0.00, -0.00, -1.00, 364.0, 588.5)">-</text><text xml:space="preserve" font-family="GillSans,Gill Sans" font-size="38.0" fill="#00CF41" transform="matrix(1.00, 0.00, -0.00, -1.00, 376.3, 588.5)">w</text><text xml:space="preserve" font-family="GillSans,Gill Sans" font-size="38.0" fill="#00CF41" transform="matrix(1.00, 0.00, -0.00, -1.00, 403.7, 588.5)">i</text><text xml:space="preserve" font-family="GillSans,Gill Sans" font-size="38.0" fill="#00CF41" transform="matrix(1.00, 0.00, -0.00, -1.00, 412.0, 588.5)">d</text><text xml:space="preserve" font-family="GillSans,Gill Sans" font-size="38.0" fill="#00CF41" transform="matrix(1.00, 0.00, -0.00, -1.00, 431.4, 588.5)">t</text><text xml:space="preserve" font-family="GillSans,Gill Sans" font-size="38.0" fill="#00CF41" transform="matrix(1.00, 0.00, -0.00, -1.00, 444.0, 588.5)">h</text><text xml:space="preserve" font-family="GillSans,Gill Sans" font-size="38.0" fill="#00CF41" transform="matrix(1.00, 0.00, -0.00, -1.00, 463.0, 588.5)">:</text><text xml:space="preserve" font-family="GillSans,Gill Sans" font-size="38.0" fill="#00CF41" transform="matrix(1.00, 0.00, -0.00, -1.00, 467.6, 588.5)"> </text><text xml:space="preserve" font-family="GillSans,Gill Sans" font-size="38.0" fill="#00CF41" transform="matrix(1.00, 0.00, -0.00, -1.00, 478.1, 588.5)">6</text><text xml:space="preserve" font-family="GillSans,Gill Sans" font-size="38.0" fill="#00CF41" transform="matrix(1.00, 0.00, -0.00, -1.00, 497.1, 588.5)">5</text><text xml:space="preserve" font-family="GillSans,Gill Sans" font-size="38.0" fill="#00CF41" transform="matrix(1.00, 0.00, -0.00, -1.00, 516.1, 588.5)">0</text><text xml:space="preserve" font-family="GillSans,Gill Sans" font-size="38.0" fill="#00CF41" transform="matrix(1.00, 0.00, -0.00, -1.00, 535.1, 588.5)">p</text><text xml:space="preserve" font-family="GillSans,Gill Sans" font-size="38.0" fill="#00CF41" transform="matrix(1.00, 0.00, -0.00, -1.00, 554.1, 588.5)">x</text><text xml:space="preserve" font-family="GillSans,Gill Sans" font-size="38.0" fill="#00CF41" transform="matrix(1.00, 0.00, -0.00, -1.00, 573.1, 588.5)">)</text><text xml:space="preserve" font-family="GillSans,Gill Sans" font-size="38.0" fill="#00CF41" transform="matrix(1.00, 0.00, -0.00, -1.00, 585.4, 588.5)">"</text><text xml:space="preserve" font-family="GillSans,Gill Sans" font-size="38.0" fill="#00CF41" transform="matrix(1.00, 0.00, -0.00, -1.00, 125.8, 544.5)"> </text><text xml:space="preserve" font-family="GillSans,Gill Sans" font-size="38.0" fill="#00CF41" transform="matrix(1.00, 0.00, -0.00, -1.00, 136.4, 544.5)"> </text><text xml:space="preserve" font-family="GillSans,Gill Sans" font-size="38.0" fill="#00CF41" transform="matrix(1.00, 0.00, -0.00, -1.00, 146.9, 544.5)"> </text><text xml:space="preserve" font-family="GillSans,Gill Sans" font-size="38.0" fill="#00CF41" transform="matrix(1.00, 0.00, -0.00, -1.00, 157.5, 544.5)"> </text><text xml:space="preserve" font-family="GillSans,Gill Sans" font-size="38.0" fill="#00CF41" transform="matrix(1.00, 0.00, -0.00, -1.00, 168.0, 544.5)">s</text><text xml:space="preserve" font-family="GillSans,Gill Sans" font-size="38.0" fill="#00CF41" transform="matrix(1.00, 0.00, -0.00, -1.00, 182.6, 544.5)">r</text><text xml:space="preserve" font-family="GillSans,Gill Sans" font-size="38.0" fill="#00CF41" transform="matrix(1.00, 0.00, -0.00, -1.00, 196.7, 544.5)">c</text><text xml:space="preserve" font-family="GillSans,Gill Sans" font-size="38.0" fill="#00CF41" transform="matrix(1.00, 0.00, -0.00, -1.00, 213.4, 544.5)">s</text><text xml:space="preserve" font-family="GillSans,Gill Sans" font-size="38.0" fill="#00CF41" transform="matrix(1.00, 0.00, -0.00, -1.00, 228.0, 544.5)">e</text><text xml:space="preserve" font-family="GillSans,Gill Sans" font-size="38.0" fill="#00CF41" transform="matrix(1.00, 0.00, -0.00, -1.00, 246.2, 544.5)">t</text><text xml:space="preserve" font-family="GillSans,Gill Sans" font-size="38.0" fill="#00CF41" transform="matrix(1.00, 0.00, -0.00, -1.00, 258.9, 544.5)">=</text><text xml:space="preserve" font-family="GillSans,Gill Sans" font-size="38.0" fill="#00CF41" transform="matrix(1.00, 0.00, -0.00, -1.00, 281.0, 544.5)">"</text><text xml:space="preserve" font-family="GillSans,Gill Sans" font-size="38.0" fill="#00CF41" transform="matrix(1.00, 0.00, -0.00, -1.00, 294.5, 544.5)">i</text><text xml:space="preserve" font-family="GillSans,Gill Sans" font-size="38.0" fill="#00CF41" transform="matrix(1.00, 0.00, -0.00, -1.00, 302.8, 544.5)">m</text><text xml:space="preserve" font-family="GillSans,Gill Sans" font-size="38.0" fill="#00CF41" transform="matrix(1.00, 0.00, -0.00, -1.00, 332.1, 544.5)">a</text><text xml:space="preserve" font-family="GillSans,Gill Sans" font-size="38.0" fill="#00CF41" transform="matrix(1.00, 0.00, -0.00, -1.00, 348.3, 544.5)">g</text><text xml:space="preserve" font-family="GillSans,Gill Sans" font-size="38.0" fill="#00CF41" transform="matrix(1.00, 0.00, -0.00, -1.00, 364.6, 544.5)">e</text><text xml:space="preserve" font-family="GillSans,Gill Sans" font-size="38.0" fill="#00CF41" transform="matrix(1.00, 0.00, -0.00, -1.00, 382.8, 544.5)">s</text><text xml:space="preserve" font-family="GillSans,Gill Sans" font-size="38.0" fill="#00CF41" transform="matrix(1.00, 0.00, -0.00, -1.00, 397.4, 544.5)">/</text><text xml:space="preserve" font-family="GillSans,Gill Sans" font-size="38.0" fill="#00CF41" transform="matrix(1.00, 0.00, -0.00, -1.00, 408.0, 544.5)">k</text><text xml:space="preserve" font-family="GillSans,Gill Sans" font-size="38.0" fill="#00CF41" transform="matrix(1.00, 0.00, -0.00, -1.00, 426.2, 544.5)">i</text><text xml:space="preserve" font-family="GillSans,Gill Sans" font-size="38.0" fill="#00CF41" transform="matrix(1.00, 0.00, -0.00, -1.00, 434.6, 544.5)">t</text><text xml:space="preserve" font-family="GillSans,Gill Sans" font-size="38.0" fill="#00CF41" transform="matrix(1.00, 0.00, -0.00, -1.00, 447.2, 544.5)">t</text><text xml:space="preserve" font-family="GillSans,Gill Sans" font-size="38.0" fill="#00CF41" transform="matrix(1.00, 0.00, -0.00, -1.00, 459.9, 544.5)">e</text><text xml:space="preserve" font-family="GillSans,Gill Sans" font-size="38.0" fill="#00CF41" transform="matrix(1.00, 0.00, -0.00, -1.00, 478.1, 544.5)">n</text><text xml:space="preserve" font-family="GillSans,Gill Sans" font-size="38.0" fill="#00CF41" transform="matrix(1.00, 0.00, -0.00, -1.00, 497.1, 544.5)">-</text><text xml:space="preserve" font-family="GillSans,Gill Sans" font-size="38.0" fill="#00CF41" transform="matrix(1.00, 0.00, -0.00, -1.00, 509.4, 544.5)">s</text><text xml:space="preserve" font-family="GillSans,Gill Sans" font-size="38.0" fill="#00CF41" transform="matrix(1.00, 0.00, -0.00, -1.00, 524.0, 544.5)">t</text><text xml:space="preserve" font-family="GillSans,Gill Sans" font-size="38.0" fill="#00CF41" transform="matrix(1.00, 0.00, -0.00, -1.00, 536.6, 544.5)">r</text><text xml:space="preserve" font-family="GillSans,Gill Sans" font-size="38.0" fill="#00CF41" transform="matrix(1.00, 0.00, -0.00, -1.00, 550.9, 544.5)">e</text><text xml:space="preserve" font-family="GillSans,Gill Sans" font-size="38.0" fill="#00CF41" transform="matrix(1.00, 0.00, -0.00, -1.00, 569.1, 544.5)">t</text><text xml:space="preserve" font-family="GillSans,Gill Sans" font-size="38.0" fill="#00CF41" transform="matrix(1.00, 0.00, -0.00, -1.00, 581.8, 544.5)">c</text><text xml:space="preserve" font-family="GillSans,Gill Sans" font-size="38.0" fill="#00CF41" transform="matrix(1.00, 0.00, -0.00, -1.00, 598.4, 544.5)">h</text><text xml:space="preserve" font-family="GillSans,Gill Sans" font-size="38.0" fill="#00CF41" transform="matrix(1.00, 0.00, -0.00, -1.00, 617.4, 544.5)">i</text><text xml:space="preserve" font-family="GillSans,Gill Sans" font-size="38.0" fill="#00CF41" transform="matrix(1.00, 0.00, -0.00, -1.00, 625.8, 544.5)">n</text><text xml:space="preserve" font-family="GillSans,Gill Sans" font-size="38.0" fill="#00CF41" transform="matrix(1.00, 0.00, -0.00, -1.00, 644.8, 544.5)">g</text><text xml:space="preserve" font-family="GillSans,Gill Sans" font-size="38.0" fill="#00CF41" transform="matrix(1.00, 0.00, -0.00, -1.00, 661.0, 544.5)">.</text><text xml:space="preserve" font-family="GillSans,Gill Sans" font-size="38.0" fill="#00CF41" transform="matrix(1.00, 0.00, -0.00, -1.00, 669.3, 544.5)">p</text><text xml:space="preserve" font-family="GillSans,Gill Sans" font-size="38.0" fill="#00CF41" transform="matrix(1.00, 0.00, -0.00, -1.00, 688.3, 544.5)">n</text><text xml:space="preserve" font-family="GillSans,Gill Sans" font-size="38.0" fill="#00CF41" transform="matrix(1.00, 0.00, -0.00, -1.00, 707.3, 544.5)">g</text><text xml:space="preserve" font-family="GillSans,Gill Sans" font-size="38.0" fill="#00CF41" transform="matrix(1.00, 0.00, -0.00, -1.00, 723.5, 544.5)">"</text><text xml:space="preserve" font-family="GillSans,Gill Sans" font-size="38.0" fill="#FF3156" transform="matrix(1.00, 0.00, -0.00, -1.00, 737.0, 544.5)">&gt;</text><text xml:space="preserve" font-family="GillSans,Gill Sans" font-size="38.0" fill="#000000" transform="matrix(1.00, 0.00, -0.00, -1.00, 125.8, 500.5)"> </text><text xml:space="preserve" font-family="GillSans,Gill Sans" font-size="38.0" fill="#000000" transform="matrix(1.00, 0.00, -0.00, -1.00, 136.4, 500.5)"> </text><text xml:space="preserve" font-family="GillSans,Gill Sans" font-size="38.0" fill="#FF3156" transform="matrix(1.00, 0.00, -0.00, -1.00, 146.9, 500.5)">&lt;</text><text xml:space="preserve" font-family="GillSans,Gill Sans" font-size="38.0" fill="#FF3156" transform="matrix(1.00, 0.00, -0.00, -1.00, 169.1, 500.5)">s</text><text xml:space="preserve" font-family="GillSans,Gill Sans" font-size="38.0" fill="#FF3156" transform="matrix(1.00, 0.00, -0.00, -1.00, 183.7, 500.5)">o</text><text xml:space="preserve" font-family="GillSans,Gill Sans" font-size="38.0" fill="#FF3156" transform="matrix(1.00, 0.00, -0.00, -1.00, 204.7, 500.5)">u</text><text xml:space="preserve" font-family="GillSans,Gill Sans" font-size="38.0" fill="#FF3156" transform="matrix(1.00, 0.00, -0.00, -1.00, 223.7, 500.5)">r</text><text xml:space="preserve" font-family="GillSans,Gill Sans" font-size="38.0" fill="#FF3156" transform="matrix(1.00, 0.00, -0.00, -1.00, 237.8, 500.5)">c</text><text xml:space="preserve" font-family="GillSans,Gill Sans" font-size="38.0" fill="#FF3156" transform="matrix(1.00, 0.00, -0.00, -1.00, 254.5, 500.5)">e</text><text xml:space="preserve" font-family="GillSans,Gill Sans" font-size="38.0" fill="#FF3156" transform="matrix(1.00, 0.00, -0.00, -1.00, 272.7, 500.5)"> </text><text xml:space="preserve" font-family="GillSans,Gill Sans" font-size="38.0" fill="#000000" transform="matrix(1.00, 0.00, -0.00, -1.00, 125.8, 456.5)"> </text><text xml:space="preserve" font-family="GillSans,Gill Sans" font-size="38.0" fill="#000000" transform="matrix(1.00, 0.00, -0.00, -1.00, 136.4, 456.5)"> </text><text xml:space="preserve" font-family="GillSans,Gill Sans" font-size="38.0" fill="#000000" transform="matrix(1.00, 0.00, -0.00, -1.00, 146.9, 456.5)"> </text><text xml:space="preserve" font-family="GillSans,Gill Sans" font-size="38.0" fill="#000000" transform="matrix(1.00, 0.00, -0.00, -1.00, 157.5, 456.5)"> </text><text xml:space="preserve" font-family="GillSans,Gill Sans" font-size="38.0" fill="#00CF41" transform="matrix(1.00, 0.00, -0.00, -1.00, 168.1, 456.5)">m</text><text xml:space="preserve" font-family="GillSans,Gill Sans" font-size="38.0" fill="#00CF41" transform="matrix(1.00, 0.00, -0.00, -1.00, 197.4, 456.5)">e</text><text xml:space="preserve" font-family="GillSans,Gill Sans" font-size="38.0" fill="#00CF41" transform="matrix(1.00, 0.00, -0.00, -1.00, 215.6, 456.5)">d</text><text xml:space="preserve" font-family="GillSans,Gill Sans" font-size="38.0" fill="#00CF41" transform="matrix(1.00, 0.00, -0.00, -1.00, 234.9, 456.5)">i</text><text xml:space="preserve" font-family="GillSans,Gill Sans" font-size="38.0" fill="#00CF41" transform="matrix(1.00, 0.00, -0.00, -1.00, 243.3, 456.5)">a</text><text xml:space="preserve" font-family="GillSans,Gill Sans" font-size="38.0" fill="#00CF41" transform="matrix(1.00, 0.00, -0.00, -1.00, 259.5, 456.5)">=</text><text xml:space="preserve" font-family="GillSans,Gill Sans" font-size="38.0" fill="#00CF41" transform="matrix(1.00, 0.00, -0.00, -1.00, 281.7, 456.5)">"</text><text xml:space="preserve" font-family="GillSans,Gill Sans" font-size="38.0" fill="#00CF41" transform="matrix(1.00, 0.00, -0.00, -1.00, 295.1, 456.5)">(</text><text xml:space="preserve" font-family="GillSans,Gill Sans" font-size="38.0" fill="#00CF41" transform="matrix(1.00, 0.00, -0.00, -1.00, 307.4, 456.5)">m</text><text xml:space="preserve" font-family="GillSans,Gill Sans" font-size="38.0" fill="#00CF41" transform="matrix(1.00, 0.00, -0.00, -1.00, 336.7, 456.5)">i</text><text xml:space="preserve" font-family="GillSans,Gill Sans" font-size="38.0" fill="#00CF41" transform="matrix(1.00, 0.00, -0.00, -1.00, 345.0, 456.5)">n</text><text xml:space="preserve" font-family="GillSans,Gill Sans" font-size="38.0" fill="#00CF41" transform="matrix(1.00, 0.00, -0.00, -1.00, 364.0, 456.5)">-</text><text xml:space="preserve" font-family="GillSans,Gill Sans" font-size="38.0" fill="#00CF41" transform="matrix(1.00, 0.00, -0.00, -1.00, 376.3, 456.5)">w</text><text xml:space="preserve" font-family="GillSans,Gill Sans" font-size="38.0" fill="#00CF41" transform="matrix(1.00, 0.00, -0.00, -1.00, 403.7, 456.5)">i</text><text xml:space="preserve" font-family="GillSans,Gill Sans" font-size="38.0" fill="#00CF41" transform="matrix(1.00, 0.00, -0.00, -1.00, 412.0, 456.5)">d</text><text xml:space="preserve" font-family="GillSans,Gill Sans" font-size="38.0" fill="#00CF41" transform="matrix(1.00, 0.00, -0.00, -1.00, 431.4, 456.5)">t</text><text xml:space="preserve" font-family="GillSans,Gill Sans" font-size="38.0" fill="#00CF41" transform="matrix(1.00, 0.00, -0.00, -1.00, 444.0, 456.5)">h</text><text xml:space="preserve" font-family="GillSans,Gill Sans" font-size="38.0" fill="#00CF41" transform="matrix(1.00, 0.00, -0.00, -1.00, 463.0, 456.5)">:</text><text xml:space="preserve" font-family="GillSans,Gill Sans" font-size="38.0" fill="#00CF41" transform="matrix(1.00, 0.00, -0.00, -1.00, 467.6, 456.5)"> </text><text xml:space="preserve" font-family="GillSans,Gill Sans" font-size="38.0" fill="#00CF41" transform="matrix(1.00, 0.00, -0.00, -1.00, 478.1, 456.5)">4</text><text xml:space="preserve" font-family="GillSans,Gill Sans" font-size="38.0" fill="#00CF41" transform="matrix(1.00, 0.00, -0.00, -1.00, 497.1, 456.5)">6</text><text xml:space="preserve" font-family="GillSans,Gill Sans" font-size="38.0" fill="#00CF41" transform="matrix(1.00, 0.00, -0.00, -1.00, 516.1, 456.5)">5</text><text xml:space="preserve" font-family="GillSans,Gill Sans" font-size="38.0" fill="#00CF41" transform="matrix(1.00, 0.00, -0.00, -1.00, 535.1, 456.5)">p</text><text xml:space="preserve" font-family="GillSans,Gill Sans" font-size="38.0" fill="#00CF41" transform="matrix(1.00, 0.00, -0.00, -1.00, 554.1, 456.5)">x</text><text xml:space="preserve" font-family="GillSans,Gill Sans" font-size="38.0" fill="#00CF41" transform="matrix(1.00, 0.00, -0.00, -1.00, 573.1, 456.5)">)</text><text xml:space="preserve" font-family="GillSans,Gill Sans" font-size="38.0" fill="#00CF41" transform="matrix(1.00, 0.00, -0.00, -1.00, 585.4, 456.5)">"</text><text xml:space="preserve" font-family="GillSans,Gill Sans" font-size="38.0" fill="#00CF41" transform="matrix(1.00, 0.00, -0.00, -1.00, 125.8, 412.5)"> </text><text xml:space="preserve" font-family="GillSans,Gill Sans" font-size="38.0" fill="#00CF41" transform="matrix(1.00, 0.00, -0.00, -1.00, 136.4, 412.5)"> </text><text xml:space="preserve" font-family="GillSans,Gill Sans" font-size="38.0" fill="#00CF41" transform="matrix(1.00, 0.00, -0.00, -1.00, 146.9, 412.5)"> </text><text xml:space="preserve" font-family="GillSans,Gill Sans" font-size="38.0" fill="#00CF41" transform="matrix(1.00, 0.00, -0.00, -1.00, 157.5, 412.5)"> </text><text xml:space="preserve" font-family="GillSans,Gill Sans" font-size="38.0" fill="#00CF41" transform="matrix(1.00, 0.00, -0.00, -1.00, 168.0, 412.5)">s</text><text xml:space="preserve" font-family="GillSans,Gill Sans" font-size="38.0" fill="#00CF41" transform="matrix(1.00, 0.00, -0.00, -1.00, 182.6, 412.5)">r</text><text xml:space="preserve" font-family="GillSans,Gill Sans" font-size="38.0" fill="#00CF41" transform="matrix(1.00, 0.00, -0.00, -1.00, 196.7, 412.5)">c</text><text xml:space="preserve" font-family="GillSans,Gill Sans" font-size="38.0" fill="#00CF41" transform="matrix(1.00, 0.00, -0.00, -1.00, 213.4, 412.5)">s</text><text xml:space="preserve" font-family="GillSans,Gill Sans" font-size="38.0" fill="#00CF41" transform="matrix(1.00, 0.00, -0.00, -1.00, 228.0, 412.5)">e</text><text xml:space="preserve" font-family="GillSans,Gill Sans" font-size="38.0" fill="#00CF41" transform="matrix(1.00, 0.00, -0.00, -1.00, 246.2, 412.5)">t</text><text xml:space="preserve" font-family="GillSans,Gill Sans" font-size="38.0" fill="#00CF41" transform="matrix(1.00, 0.00, -0.00, -1.00, 258.9, 412.5)">=</text><text xml:space="preserve" font-family="GillSans,Gill Sans" font-size="38.0" fill="#00CF41" transform="matrix(1.00, 0.00, -0.00, -1.00, 281.0, 412.5)">"</text><text xml:space="preserve" font-family="GillSans,Gill Sans" font-size="38.0" fill="#00CF41" transform="matrix(1.00, 0.00, -0.00, -1.00, 294.5, 412.5)">i</text><text xml:space="preserve" font-family="GillSans,Gill Sans" font-size="38.0" fill="#00CF41" transform="matrix(1.00, 0.00, -0.00, -1.00, 302.8, 412.5)">m</text><text xml:space="preserve" font-family="GillSans,Gill Sans" font-size="38.0" fill="#00CF41" transform="matrix(1.00, 0.00, -0.00, -1.00, 332.1, 412.5)">a</text><text xml:space="preserve" font-family="GillSans,Gill Sans" font-size="38.0" fill="#00CF41" transform="matrix(1.00, 0.00, -0.00, -1.00, 348.3, 412.5)">g</text><text xml:space="preserve" font-family="GillSans,Gill Sans" font-size="38.0" fill="#00CF41" transform="matrix(1.00, 0.00, -0.00, -1.00, 364.6, 412.5)">e</text><text xml:space="preserve" font-family="GillSans,Gill Sans" font-size="38.0" fill="#00CF41" transform="matrix(1.00, 0.00, -0.00, -1.00, 382.8, 412.5)">s</text><text xml:space="preserve" font-family="GillSans,Gill Sans" font-size="38.0" fill="#00CF41" transform="matrix(1.00, 0.00, -0.00, -1.00, 397.4, 412.5)">/</text><text xml:space="preserve" font-family="GillSans,Gill Sans" font-size="38.0" fill="#00CF41" transform="matrix(1.00, 0.00, -0.00, -1.00, 408.0, 412.5)">k</text><text xml:space="preserve" font-family="GillSans,Gill Sans" font-size="38.0" fill="#00CF41" transform="matrix(1.00, 0.00, -0.00, -1.00, 426.2, 412.5)">i</text><text xml:space="preserve" font-family="GillSans,Gill Sans" font-size="38.0" fill="#00CF41" transform="matrix(1.00, 0.00, -0.00, -1.00, 434.6, 412.5)">t</text><text xml:space="preserve" font-family="GillSans,Gill Sans" font-size="38.0" fill="#00CF41" transform="matrix(1.00, 0.00, -0.00, -1.00, 447.2, 412.5)">t</text><text xml:space="preserve" font-family="GillSans,Gill Sans" font-size="38.0" fill="#00CF41" transform="matrix(1.00, 0.00, -0.00, -1.00, 459.9, 412.5)">e</text><text xml:space="preserve" font-family="GillSans,Gill Sans" font-size="38.0" fill="#00CF41" transform="matrix(1.00, 0.00, -0.00, -1.00, 478.1, 412.5)">n</text><text xml:space="preserve" font-family="GillSans,Gill Sans" font-size="38.0" fill="#00CF41" transform="matrix(1.00, 0.00, -0.00, -1.00, 497.1, 412.5)">-</text><text xml:space="preserve" font-family="GillSans,Gill Sans" font-size="38.0" fill="#00CF41" transform="matrix(1.00, 0.00, -0.00, -1.00, 509.4, 412.5)">s</text><text xml:space="preserve" font-family="GillSans,Gill Sans" font-size="38.0" fill="#00CF41" transform="matrix(1.00, 0.00, -0.00, -1.00, 524.0, 412.5)">i</text><text xml:space="preserve" font-family="GillSans,Gill Sans" font-size="38.0" fill="#00CF41" transform="matrix(1.00, 0.00, -0.00, -1.00, 532.3, 412.5)">t</text><text xml:space="preserve" font-family="GillSans,Gill Sans" font-size="38.0" fill="#00CF41" transform="matrix(1.00, 0.00, -0.00, -1.00, 545.0, 412.5)">t</text><text xml:space="preserve" font-family="GillSans,Gill Sans" font-size="38.0" fill="#00CF41" transform="matrix(1.00, 0.00, -0.00, -1.00, 557.6, 412.5)">i</text><text xml:space="preserve" font-family="GillSans,Gill Sans" font-size="38.0" fill="#00CF41" transform="matrix(1.00, 0.00, -0.00, -1.00, 566.0, 412.5)">n</text><text xml:space="preserve" font-family="GillSans,Gill Sans" font-size="38.0" fill="#00CF41" transform="matrix(1.00, 0.00, -0.00, -1.00, 585.0, 412.5)">g</text><text xml:space="preserve" font-family="GillSans,Gill Sans" font-size="38.0" fill="#00CF41" transform="matrix(1.00, 0.00, -0.00, -1.00, 601.2, 412.5)">.</text><text xml:space="preserve" font-family="GillSans,Gill Sans" font-size="38.0" fill="#00CF41" transform="matrix(1.00, 0.00, -0.00, -1.00, 609.5, 412.5)">p</text><text xml:space="preserve" font-family="GillSans,Gill Sans" font-size="38.0" fill="#00CF41" transform="matrix(1.00, 0.00, -0.00, -1.00, 628.5, 412.5)">n</text><text xml:space="preserve" font-family="GillSans,Gill Sans" font-size="38.0" fill="#00CF41" transform="matrix(1.00, 0.00, -0.00, -1.00, 647.5, 412.5)">g</text><text xml:space="preserve" font-family="GillSans,Gill Sans" font-size="38.0" fill="#00CF41" transform="matrix(1.00, 0.00, -0.00, -1.00, 663.7, 412.5)">"</text><text xml:space="preserve" font-family="GillSans,Gill Sans" font-size="38.0" fill="#FF3156" transform="matrix(1.00, 0.00, -0.00, -1.00, 677.2, 412.5)">&gt;</text><text xml:space="preserve" font-family="GillSans,Gill Sans" font-size="38.0" fill="#CD5600" transform="matrix(1.00, 0.00, -0.00, -1.00, 125.8, 368.5)"> </text><text xml:space="preserve" font-family="GillSans,Gill Sans" font-size="38.0" fill="#CD5600" transform="matrix(1.00, 0.00, -0.00, -1.00, 136.4, 368.5)"> </text><text xml:space="preserve" font-family="GillSans,Gill Sans" font-size="38.0" fill="#CD5600" transform="matrix(1.00, 0.00, -0.00, -1.00, 146.9, 368.5)">&lt;</text><text xml:space="preserve" font-family="GillSans,Gill Sans" font-size="38.0" fill="#CD5600" transform="matrix(1.00, 0.00, -0.00, -1.00, 169.1, 368.5)">i</text><text xml:space="preserve" font-family="GillSans,Gill Sans" font-size="38.0" fill="#CD5600" transform="matrix(1.00, 0.00, -0.00, -1.00, 177.5, 368.5)">m</text><text xml:space="preserve" font-family="GillSans,Gill Sans" font-size="38.0" fill="#CD5600" transform="matrix(1.00, 0.00, -0.00, -1.00, 206.8, 368.5)">g</text><text xml:space="preserve" font-family="GillSans,Gill Sans" font-size="38.0" fill="#CD5600" transform="matrix(1.00, 0.00, -0.00, -1.00, 223.0, 368.5)"> </text><text xml:space="preserve" font-family="GillSans,Gill Sans" font-size="38.0" fill="#CD5600" transform="matrix(1.00, 0.00, -0.00, -1.00, 125.8, 324.5)"> </text><text xml:space="preserve" font-family="GillSans,Gill Sans" font-size="38.0" fill="#CD5600" transform="matrix(1.00, 0.00, -0.00, -1.00, 136.4, 324.5)"> </text><text xml:space="preserve" font-family="GillSans,Gill Sans" font-size="38.0" fill="#CD5600" transform="matrix(1.00, 0.00, -0.00, -1.00, 146.9, 324.5)"> </text><text xml:space="preserve" font-family="GillSans,Gill Sans" font-size="38.0" fill="#CD5600" transform="matrix(1.00, 0.00, -0.00, -1.00, 157.5, 324.5)"> </text><text xml:space="preserve" font-family="GillSans,Gill Sans" font-size="38.0" fill="#CD5600" transform="matrix(1.00, 0.00, -0.00, -1.00, 168.0, 324.5)">s</text><text xml:space="preserve" font-family="GillSans,Gill Sans" font-size="38.0" fill="#CD5600" transform="matrix(1.00, 0.00, -0.00, -1.00, 182.6, 324.5)">r</text><text xml:space="preserve" font-family="GillSans,Gill Sans" font-size="38.0" fill="#CD5600" transform="matrix(1.00, 0.00, -0.00, -1.00, 196.7, 324.5)">c</text><text xml:space="preserve" font-family="GillSans,Gill Sans" font-size="38.0" fill="#CD5600" transform="matrix(1.00, 0.00, -0.00, -1.00, 213.4, 324.5)">=</text><text xml:space="preserve" font-family="GillSans,Gill Sans" font-size="38.0" fill="#CD5600" transform="matrix(1.00, 0.00, -0.00, -1.00, 235.6, 324.5)">"</text><text xml:space="preserve" font-family="GillSans,Gill Sans" font-size="38.0" fill="#CD5600" transform="matrix(1.00, 0.00, -0.00, -1.00, 249.0, 324.5)">i</text><text xml:space="preserve" font-family="GillSans,Gill Sans" font-size="38.0" fill="#CD5600" transform="matrix(1.00, 0.00, -0.00, -1.00, 257.4, 324.5)">m</text><text xml:space="preserve" font-family="GillSans,Gill Sans" font-size="38.0" fill="#CD5600" transform="matrix(1.00, 0.00, -0.00, -1.00, 286.7, 324.5)">a</text><text xml:space="preserve" font-family="GillSans,Gill Sans" font-size="38.0" fill="#CD5600" transform="matrix(1.00, 0.00, -0.00, -1.00, 302.9, 324.5)">g</text><text xml:space="preserve" font-family="GillSans,Gill Sans" font-size="38.0" fill="#CD5600" transform="matrix(1.00, 0.00, -0.00, -1.00, 319.1, 324.5)">e</text><text xml:space="preserve" font-family="GillSans,Gill Sans" font-size="38.0" fill="#CD5600" transform="matrix(1.00, 0.00, -0.00, -1.00, 337.3, 324.5)">s</text><text xml:space="preserve" font-family="GillSans,Gill Sans" font-size="38.0" fill="#CD5600" transform="matrix(1.00, 0.00, -0.00, -1.00, 351.9, 324.5)">/</text><text xml:space="preserve" font-family="GillSans,Gill Sans" font-size="38.0" fill="#CD5600" transform="matrix(1.00, 0.00, -0.00, -1.00, 362.6, 324.5)">k</text><text xml:space="preserve" font-family="GillSans,Gill Sans" font-size="38.0" fill="#CD5600" transform="matrix(1.00, 0.00, -0.00, -1.00, 380.8, 324.5)">i</text><text xml:space="preserve" font-family="GillSans,Gill Sans" font-size="38.0" fill="#CD5600" transform="matrix(1.00, 0.00, -0.00, -1.00, 389.1, 324.5)">t</text><text xml:space="preserve" font-family="GillSans,Gill Sans" font-size="38.0" fill="#CD5600" transform="matrix(1.00, 0.00, -0.00, -1.00, 401.8, 324.5)">t</text><text xml:space="preserve" font-family="GillSans,Gill Sans" font-size="38.0" fill="#CD5600" transform="matrix(1.00, 0.00, -0.00, -1.00, 414.4, 324.5)">e</text><text xml:space="preserve" font-family="GillSans,Gill Sans" font-size="38.0" fill="#CD5600" transform="matrix(1.00, 0.00, -0.00, -1.00, 432.6, 324.5)">n</text><text xml:space="preserve" font-family="GillSans,Gill Sans" font-size="38.0" fill="#CD5600" transform="matrix(1.00, 0.00, -0.00, -1.00, 451.6, 324.5)">-</text><text xml:space="preserve" font-family="GillSans,Gill Sans" font-size="38.0" fill="#CD5600" transform="matrix(1.00, 0.00, -0.00, -1.00, 463.9, 324.5)">c</text><text xml:space="preserve" font-family="GillSans,Gill Sans" font-size="38.0" fill="#CD5600" transform="matrix(1.00, 0.00, -0.00, -1.00, 480.5, 324.5)">u</text><text xml:space="preserve" font-family="GillSans,Gill Sans" font-size="38.0" fill="#CD5600" transform="matrix(1.00, 0.00, -0.00, -1.00, 499.5, 324.5)">r</text><text xml:space="preserve" font-family="GillSans,Gill Sans" font-size="38.0" fill="#CD5600" transform="matrix(1.00, 0.00, -0.00, -1.00, 514.6, 324.5)">l</text><text xml:space="preserve" font-family="GillSans,Gill Sans" font-size="38.0" fill="#CD5600" transform="matrix(1.00, 0.00, -0.00, -1.00, 522.9, 324.5)">e</text><text xml:space="preserve" font-family="GillSans,Gill Sans" font-size="38.0" fill="#CD5600" transform="matrix(1.00, 0.00, -0.00, -1.00, 541.1, 324.5)">d</text><text xml:space="preserve" font-family="GillSans,Gill Sans" font-size="38.0" fill="#CD5600" transform="matrix(1.00, 0.00, -0.00, -1.00, 560.5, 324.5)">.</text><text xml:space="preserve" font-family="GillSans,Gill Sans" font-size="38.0" fill="#CD5600" transform="matrix(1.00, 0.00, -0.00, -1.00, 568.8, 324.5)">p</text><text xml:space="preserve" font-family="GillSans,Gill Sans" font-size="38.0" fill="#CD5600" transform="matrix(1.00, 0.00, -0.00, -1.00, 587.8, 324.5)">n</text><text xml:space="preserve" font-family="GillSans,Gill Sans" font-size="38.0" fill="#CD5600" transform="matrix(1.00, 0.00, -0.00, -1.00, 606.8, 324.5)">g</text><text xml:space="preserve" font-family="GillSans,Gill Sans" font-size="38.0" fill="#CD5600" transform="matrix(1.00, 0.00, -0.00, -1.00, 623.0, 324.5)">"</text><text xml:space="preserve" font-family="GillSans,Gill Sans" font-size="38.0" fill="#CD5600" transform="matrix(1.00, 0.00, -0.00, -1.00, 636.5, 324.5)"> </text><text xml:space="preserve" font-family="GillSans,Gill Sans" font-size="38.0" fill="#CD5600" transform="matrix(1.00, 0.00, -0.00, -1.00, 125.8, 280.5)"> </text><text xml:space="preserve" font-family="GillSans,Gill Sans" font-size="38.0" fill="#CD5600" transform="matrix(1.00, 0.00, -0.00, -1.00, 136.4, 280.5)"> </text><text xml:space="preserve" font-family="GillSans,Gill Sans" font-size="38.0" fill="#CD5600" transform="matrix(1.00, 0.00, -0.00, -1.00, 146.9, 280.5)"> </text><text xml:space="preserve" font-family="GillSans,Gill Sans" font-size="38.0" fill="#CD5600" transform="matrix(1.00, 0.00, -0.00, -1.00, 157.5, 280.5)"> </text><text xml:space="preserve" font-family="GillSans,Gill Sans" font-size="38.0" fill="#CD5600" transform="matrix(1.00, 0.00, -0.00, -1.00, 168.0, 280.5)">a</text><text xml:space="preserve" font-family="GillSans,Gill Sans" font-size="38.0" fill="#CD5600" transform="matrix(1.00, 0.00, -0.00, -1.00, 184.2, 280.5)">l</text><text xml:space="preserve" font-family="GillSans,Gill Sans" font-size="38.0" fill="#CD5600" transform="matrix(1.00, 0.00, -0.00, -1.00, 192.6, 280.5)">t</text><text xml:space="preserve" font-family="GillSans,Gill Sans" font-size="38.0" fill="#CD5600" transform="matrix(1.00, 0.00, -0.00, -1.00, 205.2, 280.5)">=</text><text xml:space="preserve" font-family="GillSans,Gill Sans" font-size="38.0" fill="#CD5600" transform="matrix(1.00, 0.00, -0.00, -1.00, 227.4, 280.5)">"</text><text xml:space="preserve" font-family="GillSans,Gill Sans" font-size="38.0" fill="#CD5600" transform="matrix(1.00, 0.00, -0.00, -1.00, 240.9, 280.5)">a</text><text xml:space="preserve" font-family="GillSans,Gill Sans" font-size="38.0" fill="#CD5600" transform="matrix(1.00, 0.00, -0.00, -1.00, 257.1, 280.5)"> </text><text xml:space="preserve" font-family="GillSans,Gill Sans" font-size="38.0" fill="#CD5600" transform="matrix(1.00, 0.00, -0.00, -1.00, 267.6, 280.5)">c</text><text xml:space="preserve" font-family="GillSans,Gill Sans" font-size="38.0" fill="#CD5600" transform="matrix(1.00, 0.00, -0.00, -1.00, 284.3, 280.5)">u</text><text xml:space="preserve" font-family="GillSans,Gill Sans" font-size="38.0" fill="#CD5600" transform="matrix(1.00, 0.00, -0.00, -1.00, 303.3, 280.5)">t</text><text xml:space="preserve" font-family="GillSans,Gill Sans" font-size="38.0" fill="#CD5600" transform="matrix(1.00, 0.00, -0.00, -1.00, 315.9, 280.5)">e</text><text xml:space="preserve" font-family="GillSans,Gill Sans" font-size="38.0" fill="#CD5600" transform="matrix(1.00, 0.00, -0.00, -1.00, 334.1, 280.5)"> </text><text xml:space="preserve" font-family="GillSans,Gill Sans" font-size="38.0" fill="#CD5600" transform="matrix(1.00, 0.00, -0.00, -1.00, 344.7, 280.5)">k</text><text xml:space="preserve" font-family="GillSans,Gill Sans" font-size="38.0" fill="#CD5600" transform="matrix(1.00, 0.00, -0.00, -1.00, 362.9, 280.5)">i</text><text xml:space="preserve" font-family="GillSans,Gill Sans" font-size="38.0" fill="#CD5600" transform="matrix(1.00, 0.00, -0.00, -1.00, 371.2, 280.5)">t</text><text xml:space="preserve" font-family="GillSans,Gill Sans" font-size="38.0" fill="#CD5600" transform="matrix(1.00, 0.00, -0.00, -1.00, 383.9, 280.5)">t</text><text xml:space="preserve" font-family="GillSans,Gill Sans" font-size="38.0" fill="#CD5600" transform="matrix(1.00, 0.00, -0.00, -1.00, 396.5, 280.5)">e</text><text xml:space="preserve" font-family="GillSans,Gill Sans" font-size="38.0" fill="#CD5600" transform="matrix(1.00, 0.00, -0.00, -1.00, 414.7, 280.5)">n</text><text xml:space="preserve" font-family="GillSans,Gill Sans" font-size="38.0" fill="#CD5600" transform="matrix(1.00, 0.00, -0.00, -1.00, 433.7, 280.5)">"</text><text xml:space="preserve" font-family="GillSans,Gill Sans" font-size="38.0" fill="#CD5600" transform="matrix(1.00, 0.00, -0.00, -1.00, 447.2, 280.5)">&gt;</text><text xml:space="preserve" font-family="GillSans-SemiBold,Gill Sans" font-weight="bold" font-size="38.0" fill="#1AAFFA" transform="matrix(1.00, 0.00, -0.00, -1.00, 125.8, 235.2)">&lt;</text><text xml:space="preserve" font-family="GillSans-SemiBold,Gill Sans" font-weight="bold" font-size="38.0" fill="#1AAFFA" transform="matrix(1.00, 0.00, -0.00, -1.00, 148.0, 235.2)">/</text><text xml:space="preserve" font-family="GillSans-SemiBold,Gill Sans" font-weight="bold" font-size="38.0" fill="#1AAFFA" transform="matrix(1.00, 0.00, -0.00, -1.00, 158.7, 235.2)">p</text><text xml:space="preserve" font-family="GillSans-SemiBold,Gill Sans" font-weight="bold" font-size="38.0" fill="#1AAFFA" transform="matrix(1.00, 0.00, -0.00, -1.00, 179.5, 235.2)">i</text><text xml:space="preserve" font-family="GillSans-SemiBold,Gill Sans" font-weight="bold" font-size="38.0" fill="#1AAFFA" transform="matrix(1.00, 0.00, -0.00, -1.00, 188.9, 235.2)">c</text><text xml:space="preserve" font-family="GillSans-SemiBold,Gill Sans" font-weight="bold" font-size="38.0" fill="#1AAFFA" transform="matrix(1.00, 0.00, -0.00, -1.00, 206.4, 235.2)">t</text><text xml:space="preserve" font-family="GillSans-SemiBold,Gill Sans" font-weight="bold" font-size="38.0" fill="#1AAFFA" transform="matrix(1.00, 0.00, -0.00, -1.00, 220.5, 235.2)">u</text><text xml:space="preserve" font-family="GillSans-SemiBold,Gill Sans" font-weight="bold" font-size="38.0" fill="#1AAFFA" transform="matrix(1.00, 0.00, -0.00, -1.00, 241.0, 235.2)">r</text><text xml:space="preserve" font-family="GillSans-SemiBold,Gill Sans" font-weight="bold" font-size="38.0" fill="#1AAFFA" transform="matrix(1.00, 0.00, -0.00, -1.00, 256.1, 235.2)">e</text><text xml:space="preserve" font-family="GillSans-SemiBold,Gill Sans" font-weight="bold" font-size="38.0" fill="#1AAFFA" transform="matrix(1.00, 0.00, -0.00, -1.00, 275.7, 235.2)">&gt;</text></g></svg>