<?xml version="1.0" encoding="UTF-8" standalone="no"?><svg xmlns="http://www.w3.org/2000/svg" xmlns:xlink="http://www.w3.org/1999/xlink" clip-rule="evenodd" stroke-miterlimit="10" viewBox="0 0 1024 768"><desc>SVG generated by Keynote</desc><defs></defs><g transform="matrix(1.00, 0.00, -0.00, -1.00, 0.0, 768.0)"><g><clipPath id="clip0x7feca934bbe0"><path d="M 0.0 768.0 L 1024.0 768.0 L 1024.0 0.0 L 0.0 0.0 Z M 0.0 768.0 "></path></clipPath><g clip-path="url(#clip0x7feca934bbe0)"><image xlink:href="../../D65291DE-E52B-48DA-BF23-32852F1E7222/assets/716D123BC9C8A5783E3659E49C5D5E27.png" width="1280.00" height="720.00" transform="matrix(1.07, 0.00, -0.00, -1.07, -170.7, 768.0)"></image></g></g><text xml:space="preserve" font-family="BebasNeueCyrillic,Bebas Neue Cyrillic" font-size="180.0" fill="#1AAFFA" transform="matrix(1.00, 0.00, -0.00, -1.00, 291.4, 432.7)">Р</text><text xml:space="preserve" font-family="BebasNeueCyrillic,Bebas Neue Cyrillic" font-size="180.0" fill="#1AAFFA" transform="matrix(1.00, 0.00, -0.00, -1.00, 359.1, 432.7)">А</text><text xml:space="preserve" font-family="BebasNeueCyrillic,Bebas Neue Cyrillic" font-size="180.0" fill="#1AAFFA" transform="matrix(1.00, 0.00, -0.00, -1.00, 431.9, 432.7)">З</text><text xml:space="preserve" font-family="BebasNeueCyrillic,Bebas Neue Cyrillic" font-size="180.0" fill="#1AAFFA" transform="matrix(1.00, 0.00, -0.00, -1.00, 501.6, 432.7)">М</text><text xml:space="preserve" font-family="BebasNeueCyrillic,Bebas Neue Cyrillic" font-size="180.0" fill="#1AAFFA" transform="matrix(1.00, 0.00, -0.00, -1.00, 599.2, 432.7)">Е</text><text xml:space="preserve" font-family="BebasNeueCyrillic,Bebas Neue Cyrillic" font-size="180.0" fill="#1AAFFA" transform="matrix(1.00, 0.00, -0.00, -1.00, 664.8, 432.7)">Р</text><text xml:space="preserve" font-family="BebasNeueCyrillic,Bebas Neue Cyrillic" font-size="180.0" fill="#1AAFFA" transform="matrix(1.00, 0.00, -0.00, -1.00, 732.5, 432.7)"> </text><text xml:space="preserve" font-family="BebasNeueCyrillic,Bebas Neue Cyrillic" font-size="150.0" fill="#FEFFFE" transform="matrix(1.00, 0.00, -0.00, -1.00, 162.0, 219.3)">И</text><text xml:space="preserve" font-family="BebasNeueCyrillic,Bebas Neue Cyrillic" font-size="150.0" fill="#FEFFFE" transform="matrix(1.00, 0.00, -0.00, -1.00, 226.2, 219.3)">З</text><text xml:space="preserve" font-family="BebasNeueCyrillic,Bebas Neue Cyrillic" font-size="150.0" fill="#FEFFFE" transform="matrix(1.00, 0.00, -0.00, -1.00, 284.3, 219.3)">О</text><text xml:space="preserve" font-family="BebasNeueCyrillic,Bebas Neue Cyrillic" font-size="150.0" fill="#FEFFFE" transform="matrix(1.00, 0.00, -0.00, -1.00, 343.3, 219.3)">Б</text><text xml:space="preserve" font-family="BebasNeueCyrillic,Bebas Neue Cyrillic" font-size="150.0" fill="#FEFFFE" transform="matrix(1.00, 0.00, -0.00, -1.00, 401.9, 219.3)">Р</text><text xml:space="preserve" font-family="BebasNeueCyrillic,Bebas Neue Cyrillic" font-size="150.0" fill="#FEFFFE" transform="matrix(1.00, 0.00, -0.00, -1.00, 458.2, 219.3)">А</text><text xml:space="preserve" font-family="BebasNeueCyrillic,Bebas Neue Cyrillic" font-size="150.0" fill="#FEFFFE" transform="matrix(1.00, 0.00, -0.00, -1.00, 518.9, 219.3)">Ж</text><text xml:space="preserve" font-family="BebasNeueCyrillic,Bebas Neue Cyrillic" font-size="150.0" fill="#FEFFFE" transform="matrix(1.00, 0.00, -0.00, -1.00, 614.4, 219.3)">Е</text><text xml:space="preserve" font-family="BebasNeueCyrillic,Bebas Neue Cyrillic" font-size="150.0" fill="#FEFFFE" transform="matrix(1.00, 0.00, -0.00, -1.00, 669.1, 219.3)">Н</text><text xml:space="preserve" font-family="BebasNeueCyrillic,Bebas Neue Cyrillic" font-size="150.0" fill="#FEFFFE" transform="matrix(1.00, 0.00, -0.00, -1.00, 733.1, 219.3)">И</text><text xml:space="preserve" font-family="BebasNeueCyrillic,Bebas Neue Cyrillic" font-size="150.0" fill="#FEFFFE" transform="matrix(1.00, 0.00, -0.00, -1.00, 797.3, 219.3)">Й</text><text xml:space="preserve" font-family="BebasNeueCyrillic,Bebas Neue Cyrillic" font-size="180.0" fill="#FEFFFE" transform="matrix(1.00, 0.00, -0.00, -1.00, 862.0, 219.3)"> </text></g></svg>