<?xml version="1.0" encoding="UTF-8" standalone="no"?><svg xmlns="http://www.w3.org/2000/svg" xmlns:xlink="http://www.w3.org/1999/xlink" clip-rule="evenodd" stroke-miterlimit="10" viewBox="0 0 1024 768"><desc>SVG generated by Keynote</desc><defs></defs><g transform="matrix(1.00, 0.00, -0.00, -1.00, 0.0, 768.0)"><g><clipPath id="clip0x7fecad147850"><path d="M 0.0 768.0 L 1024.0 768.0 L 1024.0 0.0 L 0.0 0.0 Z M 0.0 768.0 "></path></clipPath><g clip-path="url(#clip0x7fecad147850)"><image xlink:href="../../D65291DE-E52B-48DA-BF23-32852F1E7222/assets/716D123BC9C8A5783E3659E49C5D5E27.png" width="1280.00" height="720.00" transform="matrix(1.07, 0.00, -0.00, -1.07, -170.7, 768.0)"></image></g></g><text xml:space="preserve" font-family="DINCondensed-Bold,DIN Condensed" font-weight="bold" font-size="70.0" fill="#00CF41" transform="matrix(1.00, 0.00, -0.00, -1.00, 432.1, 399.2)">A</text><text xml:space="preserve" font-family="DINCondensed-Bold,DIN Condensed" font-weight="bold" font-size="70.0" fill="#00CF41" transform="matrix(1.00, 0.00, -0.00, -1.00, 460.6, 399.2)">p</text><text xml:space="preserve" font-family="DINCondensed-Bold,DIN Condensed" font-weight="bold" font-size="70.0" fill="#00CF41" transform="matrix(1.00, 0.00, -0.00, -1.00, 487.8, 399.2)">a</text><text xml:space="preserve" font-family="DINCondensed-Bold,DIN Condensed" font-weight="bold" font-size="70.0" fill="#00CF41" transform="matrix(1.00, 0.00, -0.00, -1.00, 513.7, 399.2)">c</text><text xml:space="preserve" font-family="DINCondensed-Bold,DIN Condensed" font-weight="bold" font-size="70.0" fill="#00CF41" transform="matrix(1.00, 0.00, -0.00, -1.00, 538.8, 399.2)">h</text><text xml:space="preserve" font-family="DINCondensed-Bold,DIN Condensed" font-weight="bold" font-size="70.0" fill="#00CF41" transform="matrix(1.00, 0.00, -0.00, -1.00, 566.0, 399.2)">e</text><text xml:space="preserve" font-family="DINCondensed-Bold,DIN Condensed" font-weight="bold" font-size="70.0" fill="#00CF41" transform="matrix(1.00, 0.00, -0.00, -1.00, 591.9, 399.2)"> </text><text xml:space="preserve" font-family="DINCondensed-Bold,DIN Condensed" font-weight="bold" font-size="55.0" fill="#FEFFFE" transform="matrix(1.00, 0.00, -0.00, -1.00, 108.6, 325.9)">M</text><text xml:space="preserve" font-family="DINCondensed-Bold,DIN Condensed" font-weight="bold" font-size="55.0" fill="#FEFFFE" transform="matrix(1.00, 0.00, -0.00, -1.00, 139.2, 325.9)">o</text><text xml:space="preserve" font-family="DINCondensed-Bold,DIN Condensed" font-weight="bold" font-size="55.0" fill="#FEFFFE" transform="matrix(1.00, 0.00, -0.00, -1.00, 159.5, 325.9)">d</text><text xml:space="preserve" font-family="DINCondensed-Bold,DIN Condensed" font-weight="bold" font-size="55.0" fill="#FEFFFE" transform="matrix(1.00, 0.00, -0.00, -1.00, 180.9, 325.9)">P</text><text xml:space="preserve" font-family="DINCondensed-Bold,DIN Condensed" font-weight="bold" font-size="55.0" fill="#FEFFFE" transform="matrix(1.00, 0.00, -0.00, -1.00, 202.6, 325.9)">a</text><text xml:space="preserve" font-family="DINCondensed-Bold,DIN Condensed" font-weight="bold" font-size="55.0" fill="#FEFFFE" transform="matrix(1.00, 0.00, -0.00, -1.00, 223.0, 325.9)">g</text><text xml:space="preserve" font-family="DINCondensed-Bold,DIN Condensed" font-weight="bold" font-size="55.0" fill="#FEFFFE" transform="matrix(1.00, 0.00, -0.00, -1.00, 244.4, 325.9)">e</text><text xml:space="preserve" font-family="DINCondensed-Bold,DIN Condensed" font-weight="bold" font-size="55.0" fill="#FEFFFE" transform="matrix(1.00, 0.00, -0.00, -1.00, 264.7, 325.9)">s</text><text xml:space="preserve" font-family="DINCondensed-Bold,DIN Condensed" font-weight="bold" font-size="55.0" fill="#FEFFFE" transform="matrix(1.00, 0.00, -0.00, -1.00, 284.1, 325.9)">p</text><text xml:space="preserve" font-family="DINCondensed-Bold,DIN Condensed" font-weight="bold" font-size="55.0" fill="#FEFFFE" transform="matrix(1.00, 0.00, -0.00, -1.00, 305.5, 325.9)">e</text><text xml:space="preserve" font-family="DINCondensed-Bold,DIN Condensed" font-weight="bold" font-size="55.0" fill="#FEFFFE" transform="matrix(1.00, 0.00, -0.00, -1.00, 325.8, 325.9)">e</text><text xml:space="preserve" font-family="DINCondensed-Bold,DIN Condensed" font-weight="bold" font-size="55.0" fill="#FEFFFE" transform="matrix(1.00, 0.00, -0.00, -1.00, 346.2, 325.9)">d</text><text xml:space="preserve" font-family="DINCondensed-Bold,DIN Condensed" font-weight="bold" font-size="55.0" fill="#FEFFFE" transform="matrix(1.00, 0.00, -0.00, -1.00, 367.6, 325.9)">E</text><text xml:space="preserve" font-family="DINCondensed-Bold,DIN Condensed" font-weight="bold" font-size="55.0" fill="#FEFFFE" transform="matrix(1.00, 0.00, -0.00, -1.00, 387.9, 325.9)">n</text><text xml:space="preserve" font-family="DINCondensed-Bold,DIN Condensed" font-weight="bold" font-size="55.0" fill="#FEFFFE" transform="matrix(1.00, 0.00, -0.00, -1.00, 409.3, 325.9)">a</text><text xml:space="preserve" font-family="DINCondensed-Bold,DIN Condensed" font-weight="bold" font-size="55.0" fill="#FEFFFE" transform="matrix(1.00, 0.00, -0.00, -1.00, 429.7, 325.9)">b</text><text xml:space="preserve" font-family="DINCondensed-Bold,DIN Condensed" font-weight="bold" font-size="55.0" fill="#FEFFFE" transform="matrix(1.00, 0.00, -0.00, -1.00, 451.1, 325.9)">l</text><text xml:space="preserve" font-family="DINCondensed-Bold,DIN Condensed" font-weight="bold" font-size="55.0" fill="#FEFFFE" transform="matrix(1.00, 0.00, -0.00, -1.00, 461.3, 325.9)">e</text><text xml:space="preserve" font-family="DINCondensed-Bold,DIN Condensed" font-weight="bold" font-size="55.0" fill="#FEFFFE" transform="matrix(1.00, 0.00, -0.00, -1.00, 481.6, 325.9)">F</text><text xml:space="preserve" font-family="DINCondensed-Bold,DIN Condensed" font-weight="bold" font-size="55.0" fill="#FEFFFE" transform="matrix(1.00, 0.00, -0.00, -1.00, 501.3, 325.9)">i</text><text xml:space="preserve" font-family="DINCondensed-Bold,DIN Condensed" font-weight="bold" font-size="55.0" fill="#FEFFFE" transform="matrix(1.00, 0.00, -0.00, -1.00, 511.6, 325.9)">l</text><text xml:space="preserve" font-family="DINCondensed-Bold,DIN Condensed" font-weight="bold" font-size="55.0" fill="#FEFFFE" transform="matrix(1.00, 0.00, -0.00, -1.00, 521.8, 325.9)">t</text><text xml:space="preserve" font-family="DINCondensed-Bold,DIN Condensed" font-weight="bold" font-size="55.0" fill="#FEFFFE" transform="matrix(1.00, 0.00, -0.00, -1.00, 533.0, 325.9)">e</text><text xml:space="preserve" font-family="DINCondensed-Bold,DIN Condensed" font-weight="bold" font-size="55.0" fill="#FEFFFE" transform="matrix(1.00, 0.00, -0.00, -1.00, 553.4, 325.9)">r</text><text xml:space="preserve" font-family="DINCondensed-Bold,DIN Condensed" font-weight="bold" font-size="55.0" fill="#FEFFFE" transform="matrix(1.00, 0.00, -0.00, -1.00, 568.7, 325.9)">s</text><text xml:space="preserve" font-family="DINCondensed-Bold,DIN Condensed" font-weight="bold" font-size="55.0" fill="#FEFFFE" transform="matrix(1.00, 0.00, -0.00, -1.00, 588.0, 325.9)"> </text><text xml:space="preserve" font-family="DINCondensed-Bold,DIN Condensed" font-weight="bold" font-size="55.0" fill="#F9F600" transform="matrix(1.00, 0.00, -0.00, -1.00, 598.2, 325.9)">r</text><text xml:space="preserve" font-family="DINCondensed-Bold,DIN Condensed" font-weight="bold" font-size="55.0" fill="#F9F600" transform="matrix(1.00, 0.00, -0.00, -1.00, 613.5, 325.9)">e</text><text xml:space="preserve" font-family="DINCondensed-Bold,DIN Condensed" font-weight="bold" font-size="55.0" fill="#F9F600" transform="matrix(1.00, 0.00, -0.00, -1.00, 633.9, 325.9)">w</text><text xml:space="preserve" font-family="DINCondensed-Bold,DIN Condensed" font-weight="bold" font-size="55.0" fill="#F9F600" transform="matrix(1.00, 0.00, -0.00, -1.00, 663.4, 325.9)">r</text><text xml:space="preserve" font-family="DINCondensed-Bold,DIN Condensed" font-weight="bold" font-size="55.0" fill="#F9F600" transform="matrix(1.00, 0.00, -0.00, -1.00, 678.7, 325.9)">i</text><text xml:space="preserve" font-family="DINCondensed-Bold,DIN Condensed" font-weight="bold" font-size="55.0" fill="#F9F600" transform="matrix(1.00, 0.00, -0.00, -1.00, 688.9, 325.9)">t</text><text xml:space="preserve" font-family="DINCondensed-Bold,DIN Condensed" font-weight="bold" font-size="55.0" fill="#F9F600" transform="matrix(1.00, 0.00, -0.00, -1.00, 700.1, 325.9)">e</text><text xml:space="preserve" font-family="DINCondensed-Bold,DIN Condensed" font-weight="bold" font-size="55.0" fill="#F9F600" transform="matrix(1.00, 0.00, -0.00, -1.00, 720.5, 325.9)">_</text><text xml:space="preserve" font-family="DINCondensed-Bold,DIN Condensed" font-weight="bold" font-size="55.0" fill="#F9F600" transform="matrix(1.00, 0.00, -0.00, -1.00, 748.0, 325.9)">j</text><text xml:space="preserve" font-family="DINCondensed-Bold,DIN Condensed" font-weight="bold" font-size="55.0" fill="#F9F600" transform="matrix(1.00, 0.00, -0.00, -1.00, 758.2, 325.9)">a</text><text xml:space="preserve" font-family="DINCondensed-Bold,DIN Condensed" font-weight="bold" font-size="55.0" fill="#F9F600" transform="matrix(1.00, 0.00, -0.00, -1.00, 778.2, 325.9)">v</text><text xml:space="preserve" font-family="DINCondensed-Bold,DIN Condensed" font-weight="bold" font-size="55.0" fill="#F9F600" transform="matrix(1.00, 0.00, -0.00, -1.00, 797.2, 325.9)">a</text><text xml:space="preserve" font-family="DINCondensed-Bold,DIN Condensed" font-weight="bold" font-size="55.0" fill="#F9F600" transform="matrix(1.00, 0.00, -0.00, -1.00, 817.6, 325.9)">s</text><text xml:space="preserve" font-family="DINCondensed-Bold,DIN Condensed" font-weight="bold" font-size="55.0" fill="#F9F600" transform="matrix(1.00, 0.00, -0.00, -1.00, 836.9, 325.9)">c</text><text xml:space="preserve" font-family="DINCondensed-Bold,DIN Condensed" font-weight="bold" font-size="55.0" fill="#F9F600" transform="matrix(1.00, 0.00, -0.00, -1.00, 857.3, 325.9)">r</text><text xml:space="preserve" font-family="DINCondensed-Bold,DIN Condensed" font-weight="bold" font-size="55.0" fill="#F9F600" transform="matrix(1.00, 0.00, -0.00, -1.00, 872.6, 325.9)">i</text><text xml:space="preserve" font-family="DINCondensed-Bold,DIN Condensed" font-weight="bold" font-size="55.0" fill="#F9F600" transform="matrix(1.00, 0.00, -0.00, -1.00, 882.8, 325.9)">p</text><text xml:space="preserve" font-family="DINCondensed-Bold,DIN Condensed" font-weight="bold" font-size="55.0" fill="#F9F600" transform="matrix(1.00, 0.00, -0.00, -1.00, 904.2, 325.9)">t</text><text xml:space="preserve" font-family="DINCondensed-Bold,DIN Condensed" font-weight="bold" font-size="55.0" fill="#FEFFFE" transform="matrix(1.00, 0.00, -0.00, -1.00, 915.4, 325.9)"> </text><text xml:space="preserve" font-family="DINCondensed-Bold,DIN Condensed" font-weight="bold" font-size="70.0" fill="#1AAFFA" transform="matrix(1.00, 0.00, -0.00, -1.00, 451.1, 183.2)">N</text><text xml:space="preserve" font-family="DINCondensed-Bold,DIN Condensed" font-weight="bold" font-size="70.0" fill="#1AAFFA" transform="matrix(1.00, 0.00, -0.00, -1.00, 482.2, 183.2)">g</text><text xml:space="preserve" font-family="DINCondensed-Bold,DIN Condensed" font-weight="bold" font-size="70.0" fill="#1AAFFA" transform="matrix(1.00, 0.00, -0.00, -1.00, 509.4, 183.2)">i</text><text xml:space="preserve" font-family="DINCondensed-Bold,DIN Condensed" font-weight="bold" font-size="70.0" fill="#1AAFFA" transform="matrix(1.00, 0.00, -0.00, -1.00, 522.4, 183.2)">n</text><text xml:space="preserve" font-family="DINCondensed-Bold,DIN Condensed" font-weight="bold" font-size="70.0" fill="#1AAFFA" transform="matrix(1.00, 0.00, -0.00, -1.00, 549.7, 183.2)">x</text><text xml:space="preserve" font-family="DINCondensed-Bold,DIN Condensed" font-weight="bold" font-size="70.0" fill="#1AAFFA" transform="matrix(1.00, 0.00, -0.00, -1.00, 572.9, 183.2)"> </text><text xml:space="preserve" font-family="DINCondensed-Bold,DIN Condensed" font-weight="bold" font-size="55.0" fill="#FEFFFE" transform="matrix(1.00, 0.00, -0.00, -1.00, 134.7, 109.9)">p</text><text xml:space="preserve" font-family="DINCondensed-Bold,DIN Condensed" font-weight="bold" font-size="55.0" fill="#FEFFFE" transform="matrix(1.00, 0.00, -0.00, -1.00, 156.1, 109.9)">a</text><text xml:space="preserve" font-family="DINCondensed-Bold,DIN Condensed" font-weight="bold" font-size="55.0" fill="#FEFFFE" transform="matrix(1.00, 0.00, -0.00, -1.00, 176.4, 109.9)">g</text><text xml:space="preserve" font-family="DINCondensed-Bold,DIN Condensed" font-weight="bold" font-size="55.0" fill="#FEFFFE" transform="matrix(1.00, 0.00, -0.00, -1.00, 197.8, 109.9)">e</text><text xml:space="preserve" font-family="DINCondensed-Bold,DIN Condensed" font-weight="bold" font-size="55.0" fill="#FEFFFE" transform="matrix(1.00, 0.00, -0.00, -1.00, 218.2, 109.9)">s</text><text xml:space="preserve" font-family="DINCondensed-Bold,DIN Condensed" font-weight="bold" font-size="55.0" fill="#FEFFFE" transform="matrix(1.00, 0.00, -0.00, -1.00, 237.5, 109.9)">p</text><text xml:space="preserve" font-family="DINCondensed-Bold,DIN Condensed" font-weight="bold" font-size="55.0" fill="#FEFFFE" transform="matrix(1.00, 0.00, -0.00, -1.00, 258.9, 109.9)">e</text><text xml:space="preserve" font-family="DINCondensed-Bold,DIN Condensed" font-weight="bold" font-size="55.0" fill="#FEFFFE" transform="matrix(1.00, 0.00, -0.00, -1.00, 279.3, 109.9)">e</text><text xml:space="preserve" font-family="DINCondensed-Bold,DIN Condensed" font-weight="bold" font-size="55.0" fill="#FEFFFE" transform="matrix(1.00, 0.00, -0.00, -1.00, 299.6, 109.9)">d</text><text xml:space="preserve" font-family="DINCondensed-Bold,DIN Condensed" font-weight="bold" font-size="55.0" fill="#FEFFFE" transform="matrix(1.00, 0.00, -0.00, -1.00, 321.0, 109.9)"> </text><text xml:space="preserve" font-family="DINCondensed-Bold,DIN Condensed" font-weight="bold" font-size="55.0" fill="#FEFFFE" transform="matrix(1.00, 0.00, -0.00, -1.00, 331.2, 109.9)">E</text><text xml:space="preserve" font-family="DINCondensed-Bold,DIN Condensed" font-weight="bold" font-size="55.0" fill="#FEFFFE" transform="matrix(1.00, 0.00, -0.00, -1.00, 351.6, 109.9)">n</text><text xml:space="preserve" font-family="DINCondensed-Bold,DIN Condensed" font-weight="bold" font-size="55.0" fill="#FEFFFE" transform="matrix(1.00, 0.00, -0.00, -1.00, 373.0, 109.9)">a</text><text xml:space="preserve" font-family="DINCondensed-Bold,DIN Condensed" font-weight="bold" font-size="55.0" fill="#FEFFFE" transform="matrix(1.00, 0.00, -0.00, -1.00, 393.3, 109.9)">b</text><text xml:space="preserve" font-family="DINCondensed-Bold,DIN Condensed" font-weight="bold" font-size="55.0" fill="#FEFFFE" transform="matrix(1.00, 0.00, -0.00, -1.00, 414.7, 109.9)">l</text><text xml:space="preserve" font-family="DINCondensed-Bold,DIN Condensed" font-weight="bold" font-size="55.0" fill="#FEFFFE" transform="matrix(1.00, 0.00, -0.00, -1.00, 425.0, 109.9)">e</text><text xml:space="preserve" font-family="DINCondensed-Bold,DIN Condensed" font-weight="bold" font-size="55.0" fill="#FEFFFE" transform="matrix(1.00, 0.00, -0.00, -1.00, 445.3, 109.9)">F</text><text xml:space="preserve" font-family="DINCondensed-Bold,DIN Condensed" font-weight="bold" font-size="55.0" fill="#FEFFFE" transform="matrix(1.00, 0.00, -0.00, -1.00, 465.0, 109.9)">i</text><text xml:space="preserve" font-family="DINCondensed-Bold,DIN Condensed" font-weight="bold" font-size="55.0" fill="#FEFFFE" transform="matrix(1.00, 0.00, -0.00, -1.00, 475.2, 109.9)">l</text><text xml:space="preserve" font-family="DINCondensed-Bold,DIN Condensed" font-weight="bold" font-size="55.0" fill="#FEFFFE" transform="matrix(1.00, 0.00, -0.00, -1.00, 485.5, 109.9)">t</text><text xml:space="preserve" font-family="DINCondensed-Bold,DIN Condensed" font-weight="bold" font-size="55.0" fill="#FEFFFE" transform="matrix(1.00, 0.00, -0.00, -1.00, 496.7, 109.9)">e</text><text xml:space="preserve" font-family="DINCondensed-Bold,DIN Condensed" font-weight="bold" font-size="55.0" fill="#FEFFFE" transform="matrix(1.00, 0.00, -0.00, -1.00, 517.0, 109.9)">r</text><text xml:space="preserve" font-family="DINCondensed-Bold,DIN Condensed" font-weight="bold" font-size="55.0" fill="#FEFFFE" transform="matrix(1.00, 0.00, -0.00, -1.00, 532.3, 109.9)">s</text><text xml:space="preserve" font-family="DINCondensed-Bold,DIN Condensed" font-weight="bold" font-size="55.0" fill="#FEFFFE" transform="matrix(1.00, 0.00, -0.00, -1.00, 551.7, 109.9)"> </text><text xml:space="preserve" font-family="DINCondensed-Bold,DIN Condensed" font-weight="bold" font-size="55.0" fill="#F9F600" transform="matrix(1.00, 0.00, -0.00, -1.00, 561.9, 109.9)">r</text><text xml:space="preserve" font-family="DINCondensed-Bold,DIN Condensed" font-weight="bold" font-size="55.0" fill="#F9F600" transform="matrix(1.00, 0.00, -0.00, -1.00, 577.2, 109.9)">e</text><text xml:space="preserve" font-family="DINCondensed-Bold,DIN Condensed" font-weight="bold" font-size="55.0" fill="#F9F600" transform="matrix(1.00, 0.00, -0.00, -1.00, 597.6, 109.9)">w</text><text xml:space="preserve" font-family="DINCondensed-Bold,DIN Condensed" font-weight="bold" font-size="55.0" fill="#F9F600" transform="matrix(1.00, 0.00, -0.00, -1.00, 627.0, 109.9)">r</text><text xml:space="preserve" font-family="DINCondensed-Bold,DIN Condensed" font-weight="bold" font-size="55.0" fill="#F9F600" transform="matrix(1.00, 0.00, -0.00, -1.00, 642.3, 109.9)">i</text><text xml:space="preserve" font-family="DINCondensed-Bold,DIN Condensed" font-weight="bold" font-size="55.0" fill="#F9F600" transform="matrix(1.00, 0.00, -0.00, -1.00, 652.6, 109.9)">t</text><text xml:space="preserve" font-family="DINCondensed-Bold,DIN Condensed" font-weight="bold" font-size="55.0" fill="#F9F600" transform="matrix(1.00, 0.00, -0.00, -1.00, 663.8, 109.9)">e</text><text xml:space="preserve" font-family="DINCondensed-Bold,DIN Condensed" font-weight="bold" font-size="55.0" fill="#F9F600" transform="matrix(1.00, 0.00, -0.00, -1.00, 684.1, 109.9)">_</text><text xml:space="preserve" font-family="DINCondensed-Bold,DIN Condensed" font-weight="bold" font-size="55.0" fill="#F9F600" transform="matrix(1.00, 0.00, -0.00, -1.00, 711.6, 109.9)">j</text><text xml:space="preserve" font-family="DINCondensed-Bold,DIN Condensed" font-weight="bold" font-size="55.0" fill="#F9F600" transform="matrix(1.00, 0.00, -0.00, -1.00, 721.9, 109.9)">a</text><text xml:space="preserve" font-family="DINCondensed-Bold,DIN Condensed" font-weight="bold" font-size="55.0" fill="#F9F600" transform="matrix(1.00, 0.00, -0.00, -1.00, 741.9, 109.9)">v</text><text xml:space="preserve" font-family="DINCondensed-Bold,DIN Condensed" font-weight="bold" font-size="55.0" fill="#F9F600" transform="matrix(1.00, 0.00, -0.00, -1.00, 760.9, 109.9)">a</text><text xml:space="preserve" font-family="DINCondensed-Bold,DIN Condensed" font-weight="bold" font-size="55.0" fill="#F9F600" transform="matrix(1.00, 0.00, -0.00, -1.00, 781.3, 109.9)">s</text><text xml:space="preserve" font-family="DINCondensed-Bold,DIN Condensed" font-weight="bold" font-size="55.0" fill="#F9F600" transform="matrix(1.00, 0.00, -0.00, -1.00, 800.6, 109.9)">c</text><text xml:space="preserve" font-family="DINCondensed-Bold,DIN Condensed" font-weight="bold" font-size="55.0" fill="#F9F600" transform="matrix(1.00, 0.00, -0.00, -1.00, 821.0, 109.9)">r</text><text xml:space="preserve" font-family="DINCondensed-Bold,DIN Condensed" font-weight="bold" font-size="55.0" fill="#F9F600" transform="matrix(1.00, 0.00, -0.00, -1.00, 836.3, 109.9)">i</text><text xml:space="preserve" font-family="DINCondensed-Bold,DIN Condensed" font-weight="bold" font-size="55.0" fill="#F9F600" transform="matrix(1.00, 0.00, -0.00, -1.00, 846.5, 109.9)">p</text><text xml:space="preserve" font-family="DINCondensed-Bold,DIN Condensed" font-weight="bold" font-size="55.0" fill="#F9F600" transform="matrix(1.00, 0.00, -0.00, -1.00, 867.9, 109.9)">t</text><text xml:space="preserve" font-family="DINCondensed-Bold,DIN Condensed" font-weight="bold" font-size="55.0" fill="#F9F600" transform="matrix(1.00, 0.00, -0.00, -1.00, 879.1, 109.9)">;</text><text xml:space="preserve" font-family="BebasNeueCyrillic,Bebas Neue Cyrillic" font-size="130.0" fill="#FE4B85" transform="matrix(1.00, 0.00, -0.00, -1.00, 325.4, 580.2)">M</text><text xml:space="preserve" font-family="BebasNeueCyrillic,Bebas Neue Cyrillic" font-size="130.0" fill="#FE4B85" transform="matrix(1.00, 0.00, -0.00, -1.00, 395.6, 580.2)">i</text><text xml:space="preserve" font-family="BebasNeueCyrillic,Bebas Neue Cyrillic" font-size="130.0" fill="#FE4B85" transform="matrix(1.00, 0.00, -0.00, -1.00, 420.3, 580.2)">n</text><text xml:space="preserve" font-family="BebasNeueCyrillic,Bebas Neue Cyrillic" font-size="130.0" fill="#FE4B85" transform="matrix(1.00, 0.00, -0.00, -1.00, 475.7, 580.2)">i</text><text xml:space="preserve" font-family="BebasNeueCyrillic,Bebas Neue Cyrillic" font-size="130.0" fill="#FE4B85" transform="matrix(1.00, 0.00, -0.00, -1.00, 500.4, 580.2)">f</text><text xml:space="preserve" font-family="BebasNeueCyrillic,Bebas Neue Cyrillic" font-size="130.0" fill="#FE4B85" transform="matrix(1.00, 0.00, -0.00, -1.00, 545.0, 580.2)">y</text><text xml:space="preserve" font-family="BebasNeueCyrillic,Bebas Neue Cyrillic" font-size="130.0" fill="#FE4B85" transform="matrix(1.00, 0.00, -0.00, -1.00, 596.5, 580.2)"> </text><text xml:space="preserve" font-family="BebasNeueCyrillic,Bebas Neue Cyrillic" font-size="130.0" fill="#FE4B85" transform="matrix(1.00, 0.00, -0.00, -1.00, 616.6, 580.2)">J</text><text xml:space="preserve" font-family="BebasNeueCyrillic,Bebas Neue Cyrillic" font-size="130.0" fill="#FE4B85" transform="matrix(1.00, 0.00, -0.00, -1.00, 650.1, 580.2)">s</text></g></svg>