<?xml version="1.0" encoding="UTF-8" standalone="no"?><svg xmlns="http://www.w3.org/2000/svg" xmlns:xlink="http://www.w3.org/1999/xlink" clip-rule="evenodd" stroke-miterlimit="10" viewBox="0 0 1024 768"><desc>SVG generated by Keynote</desc><defs></defs><g transform="matrix(1.00, 0.00, -0.00, -1.00, 0.0, 768.0)"><path d="M 0.0 768.0 L 1024.0 768.0 L 1024.0 0.0 L 0.0 0.0 Z M 0.0 768.0 " fill="#FEFFFE"></path><text xml:space="preserve" font-family="GillSans,Gill Sans" font-size="48.0" fill="#1AAFFA" transform="matrix(1.00, 0.00, -0.00, -1.00, 61.4, 367.6)">&lt;</text><text xml:space="preserve" font-family="GillSans,Gill Sans" font-size="48.0" fill="#1AAFFA" transform="matrix(1.00, 0.00, -0.00, -1.00, 89.4, 367.6)">l</text><text xml:space="preserve" font-family="GillSans,Gill Sans" font-size="48.0" fill="#1AAFFA" transform="matrix(1.00, 0.00, -0.00, -1.00, 99.9, 367.6)">i</text><text xml:space="preserve" font-family="GillSans,Gill Sans" font-size="48.0" fill="#1AAFFA" transform="matrix(1.00, 0.00, -0.00, -1.00, 110.5, 367.6)">n</text><text xml:space="preserve" font-family="GillSans,Gill Sans" font-size="48.0" fill="#1AAFFA" transform="matrix(1.00, 0.00, -0.00, -1.00, 134.5, 367.6)">k</text><text xml:space="preserve" font-family="GillSans,Gill Sans" font-size="48.0" fill="#1AAFFA" transform="matrix(1.00, 0.00, -0.00, -1.00, 157.4, 367.6)"> </text><text xml:space="preserve" font-family="GillSans,Gill Sans" font-size="48.0" fill="#00CF41" transform="matrix(1.00, 0.00, -0.00, -1.00, 170.8, 367.6)">r</text><text xml:space="preserve" font-family="GillSans,Gill Sans" font-size="48.0" fill="#00CF41" transform="matrix(1.00, 0.00, -0.00, -1.00, 188.8, 367.6)">e</text><text xml:space="preserve" font-family="GillSans,Gill Sans" font-size="48.0" fill="#00CF41" transform="matrix(1.00, 0.00, -0.00, -1.00, 211.8, 367.6)">l</text><text xml:space="preserve" font-family="GillSans,Gill Sans" font-size="48.0" fill="#00CF41" transform="matrix(1.00, 0.00, -0.00, -1.00, 222.3, 367.6)">=</text><text xml:space="preserve" font-family="GillSans,Gill Sans" font-size="48.0" fill="#00CF41" transform="matrix(1.00, 0.00, -0.00, -1.00, 250.4, 367.6)">"</text><text xml:space="preserve" font-family="GillSans,Gill Sans" font-size="48.0" fill="#00CF41" transform="matrix(1.00, 0.00, -0.00, -1.00, 267.4, 367.6)">d</text><text xml:space="preserve" font-family="GillSans,Gill Sans" font-size="48.0" fill="#00CF41" transform="matrix(1.00, 0.00, -0.00, -1.00, 291.8, 367.6)">n</text><text xml:space="preserve" font-family="GillSans,Gill Sans" font-size="48.0" fill="#00CF41" transform="matrix(1.00, 0.00, -0.00, -1.00, 315.8, 367.6)">s</text><text xml:space="preserve" font-family="GillSans,Gill Sans" font-size="48.0" fill="#00CF41" transform="matrix(1.00, 0.00, -0.00, -1.00, 334.3, 367.6)">-</text><text xml:space="preserve" font-family="GillSans,Gill Sans" font-size="48.0" fill="#00CF41" transform="matrix(1.00, 0.00, -0.00, -1.00, 349.8, 367.6)">p</text><text xml:space="preserve" font-family="GillSans,Gill Sans" font-size="48.0" fill="#00CF41" transform="matrix(1.00, 0.00, -0.00, -1.00, 373.8, 367.6)">r</text><text xml:space="preserve" font-family="GillSans,Gill Sans" font-size="48.0" fill="#00CF41" transform="matrix(1.00, 0.00, -0.00, -1.00, 391.8, 367.6)">e</text><text xml:space="preserve" font-family="GillSans,Gill Sans" font-size="48.0" fill="#00CF41" transform="matrix(1.00, 0.00, -0.00, -1.00, 414.8, 367.6)">f</text><text xml:space="preserve" font-family="GillSans,Gill Sans" font-size="48.0" fill="#00CF41" transform="matrix(1.00, 0.00, -0.00, -1.00, 426.4, 367.6)">e</text><text xml:space="preserve" font-family="GillSans,Gill Sans" font-size="48.0" fill="#00CF41" transform="matrix(1.00, 0.00, -0.00, -1.00, 449.4, 367.6)">t</text><text xml:space="preserve" font-family="GillSans,Gill Sans" font-size="48.0" fill="#00CF41" transform="matrix(1.00, 0.00, -0.00, -1.00, 465.3, 367.6)">c</text><text xml:space="preserve" font-family="GillSans,Gill Sans" font-size="48.0" fill="#00CF41" transform="matrix(1.00, 0.00, -0.00, -1.00, 486.4, 367.6)">h</text><text xml:space="preserve" font-family="GillSans,Gill Sans" font-size="48.0" fill="#00CF41" transform="matrix(1.00, 0.00, -0.00, -1.00, 510.4, 367.6)">"</text><text xml:space="preserve" font-family="GillSans,Gill Sans" font-size="48.0" fill="#1AAFFA" transform="matrix(1.00, 0.00, -0.00, -1.00, 527.4, 367.6)"> </text><text xml:space="preserve" font-family="GillSans,Gill Sans" font-size="48.0" fill="#FF3156" transform="matrix(1.00, 0.00, -0.00, -1.00, 540.7, 367.6)">h</text><text xml:space="preserve" font-family="GillSans,Gill Sans" font-size="48.0" fill="#FF3156" transform="matrix(1.00, 0.00, -0.00, -1.00, 564.7, 367.6)">r</text><text xml:space="preserve" font-family="GillSans,Gill Sans" font-size="48.0" fill="#FF3156" transform="matrix(1.00, 0.00, -0.00, -1.00, 582.7, 367.6)">e</text><text xml:space="preserve" font-family="GillSans,Gill Sans" font-size="48.0" fill="#FF3156" transform="matrix(1.00, 0.00, -0.00, -1.00, 605.7, 367.6)">f</text><text xml:space="preserve" font-family="GillSans,Gill Sans" font-size="48.0" fill="#FF3156" transform="matrix(1.00, 0.00, -0.00, -1.00, 617.7, 367.6)">=</text><text xml:space="preserve" font-family="GillSans,Gill Sans" font-size="48.0" fill="#FF3156" transform="matrix(1.00, 0.00, -0.00, -1.00, 645.8, 367.6)">"</text><text xml:space="preserve" font-family="GillSans,Gill Sans" font-size="48.0" fill="#FF3156" transform="matrix(1.00, 0.00, -0.00, -1.00, 662.8, 367.6)">/</text><text xml:space="preserve" font-family="GillSans,Gill Sans" font-size="48.0" fill="#FF3156" transform="matrix(1.00, 0.00, -0.00, -1.00, 676.2, 367.6)">/</text><text xml:space="preserve" font-family="GillSans,Gill Sans" font-size="48.0" fill="#FF3156" transform="matrix(1.00, 0.00, -0.00, -1.00, 689.7, 367.6)">t</text><text xml:space="preserve" font-family="GillSans,Gill Sans" font-size="48.0" fill="#FF3156" transform="matrix(1.00, 0.00, -0.00, -1.00, 705.7, 367.6)">r</text><text xml:space="preserve" font-family="GillSans,Gill Sans" font-size="48.0" fill="#FF3156" transform="matrix(1.00, 0.00, -0.00, -1.00, 723.5, 367.6)">o</text><text xml:space="preserve" font-family="GillSans,Gill Sans" font-size="48.0" fill="#FF3156" transform="matrix(1.00, 0.00, -0.00, -1.00, 750.0, 367.6)">l</text><text xml:space="preserve" font-family="GillSans,Gill Sans" font-size="48.0" fill="#FF3156" transform="matrix(1.00, 0.00, -0.00, -1.00, 760.5, 367.6)">o</text><text xml:space="preserve" font-family="GillSans,Gill Sans" font-size="48.0" fill="#FF3156" transform="matrix(1.00, 0.00, -0.00, -1.00, 787.0, 367.6)">l</text><text xml:space="preserve" font-family="GillSans,Gill Sans" font-size="48.0" fill="#FF3156" transform="matrix(1.00, 0.00, -0.00, -1.00, 797.5, 367.6)">o</text><text xml:space="preserve" font-family="GillSans,Gill Sans" font-size="48.0" fill="#FF3156" transform="matrix(1.00, 0.00, -0.00, -1.00, 822.6, 367.6)">.</text><text xml:space="preserve" font-family="GillSans,Gill Sans" font-size="48.0" fill="#FF3156" transform="matrix(1.00, 0.00, -0.00, -1.00, 833.1, 367.6)">c</text><text xml:space="preserve" font-family="GillSans,Gill Sans" font-size="48.0" fill="#FF3156" transform="matrix(1.00, 0.00, -0.00, -1.00, 854.1, 367.6)">o</text><text xml:space="preserve" font-family="GillSans,Gill Sans" font-size="48.0" fill="#FF3156" transform="matrix(1.00, 0.00, -0.00, -1.00, 880.6, 367.6)">m</text><text xml:space="preserve" font-family="GillSans,Gill Sans" font-size="48.0" fill="#FF3156" transform="matrix(1.00, 0.00, -0.00, -1.00, 917.6, 367.6)">"</text><text xml:space="preserve" font-family="GillSans,Gill Sans" font-size="48.0" fill="#1AAFFA" transform="matrix(1.00, 0.00, -0.00, -1.00, 934.6, 367.6)">&gt;</text><g><clipPath id="clip0x7fecab083990"><path d="M 688.7 361.8 L 917.6 361.8 L 917.6 366.1 L 688.7 366.1 Z M 688.7 361.8 "></path></clipPath><g clip-path="url(#clip0x7fecab083990)"><path d="M 631.0 49.7 L 858.9 49.7 " fill="none" stroke="#FF3156" stroke-width="2.39" transform="matrix(1.00, 0.00, 0.00, -1.00, 58.7, 413.6)"></path></g></g></g></svg>