<?xml version="1.0" encoding="UTF-8" standalone="no"?><svg xmlns="http://www.w3.org/2000/svg" xmlns:xlink="http://www.w3.org/1999/xlink" clip-rule="evenodd" stroke-miterlimit="10" viewBox="0 0 1024 768"><desc>SVG generated by Keynote</desc><defs></defs><g transform="matrix(1.00, 0.00, -0.00, -1.00, 0.0, 768.0)"><g><clipPath id="clip0x7feca7f44890"><path d="M 0.0 768.0 L 1024.0 768.0 L 1024.0 0.0 L 0.0 0.0 Z M 0.0 768.0 "></path></clipPath><g clip-path="url(#clip0x7feca7f44890)"><image xlink:href="../../D65291DE-E52B-48DA-BF23-32852F1E7222/assets/716D123BC9C8A5783E3659E49C5D5E27.png" width="1280.00" height="720.00" transform="matrix(1.07, 0.00, -0.00, -1.07, -170.7, 768.0)"></image></g></g><text xml:space="preserve" font-family="ISOCPEUR,ISOCPEUR" font-size="460.0" fill="#1AAFFA" transform="matrix(1.00, 0.00, -0.00, -1.00, 437.9, 356.9)">1</text><text xml:space="preserve" font-family="ISOCPEUR,ISOCPEUR" font-size="460.0" fill="#1AAFFA" transform="matrix(1.00, 0.00, -0.00, -1.00, 586.3, 356.9)"> </text><text xml:space="preserve" font-family="ISOCPEUR,ISOCPEUR" font-size="460.0" fill="#1AAFFA" transform="matrix(1.00, 0.00, -0.00, -1.00, 764.0, 356.9)"> </text><text xml:space="preserve" font-family="ISOCPEUR,ISOCPEUR" font-size="160.0" fill="#1AAFFA" transform="matrix(1.00, 0.00, -0.00, -1.00, 223.2, 137.9)">с</text><text xml:space="preserve" font-family="ISOCPEUR,ISOCPEUR" font-size="160.0" fill="#1AAFFA" transform="matrix(1.00, 0.00, -0.00, -1.00, 285.1, 137.9)">е</text><text xml:space="preserve" font-family="ISOCPEUR,ISOCPEUR" font-size="160.0" fill="#1AAFFA" transform="matrix(1.00, 0.00, -0.00, -1.00, 357.4, 137.9)">к</text><text xml:space="preserve" font-family="ISOCPEUR,ISOCPEUR" font-size="160.0" fill="#1AAFFA" transform="matrix(1.00, 0.00, -0.00, -1.00, 429.7, 137.9)">у</text><text xml:space="preserve" font-family="ISOCPEUR,ISOCPEUR" font-size="160.0" fill="#1AAFFA" transform="matrix(1.00, 0.00, -0.00, -1.00, 502.0, 137.9)">н</text><text xml:space="preserve" font-family="ISOCPEUR,ISOCPEUR" font-size="160.0" fill="#1AAFFA" transform="matrix(1.00, 0.00, -0.00, -1.00, 574.3, 137.9)">д</text><text xml:space="preserve" font-family="ISOCPEUR,ISOCPEUR" font-size="160.0" fill="#1AAFFA" transform="matrix(1.00, 0.00, -0.00, -1.00, 646.6, 137.9)">а</text><text xml:space="preserve" font-family="ISOCPEUR,ISOCPEUR" font-size="160.0" fill="#1AAFFA" transform="matrix(1.00, 0.00, -0.00, -1.00, 728.6, 137.9)">?</text><text xml:space="preserve" font-family="ISOCPEUR,ISOCPEUR" font-size="160.0" fill="#1AAFFA" transform="matrix(1.00, 0.00, -0.00, -1.00, 800.8, 137.9)"> </text></g></svg>