<?xml version="1.0" encoding="UTF-8" standalone="no"?><svg xmlns="http://www.w3.org/2000/svg" xmlns:xlink="http://www.w3.org/1999/xlink" clip-rule="evenodd" stroke-miterlimit="10" viewBox="0 0 1024 768"><desc>SVG generated by Keynote</desc><defs></defs><g transform="matrix(1.00, 0.00, -0.00, -1.00, 0.0, 768.0)"><path d="M 0.0 768.0 L 1024.0 768.0 L 1024.0 0.0 L 0.0 0.0 Z M 0.0 768.0 " fill="#FEFFFE"></path><image xlink:href="../../4E9D27CC-B32D-4861-B877-824069229619/assets/63CB58E795F7C7A937920B35B0A9DADE.png" width="1040.00" height="852.00" transform="matrix(0.90, 0.00, -0.00, -0.90, 43.0, 768.0)"></image><image xlink:href="../../4E9D27CC-B32D-4861-B877-824069229619/assets/9673D91436054FF6360E3102D1FC5C41.png" width="400.00" height="159.00" transform="matrix(1.00, 0.00, -0.00, -1.00, 311.0, 451.0)"></image><text xml:space="preserve" font-family="BebasNeueCyrillic,Bebas Neue Cyrillic" font-size="180.0" fill="#1AAFFA" transform="matrix(1.00, 0.00, -0.00, -1.00, 325.8, 322.4)">Y</text><text xml:space="preserve" font-family="BebasNeueCyrillic,Bebas Neue Cyrillic" font-size="180.0" fill="#1AAFFA" transform="matrix(1.00, 0.00, -0.00, -1.00, 397.0, 322.4)">S</text><text xml:space="preserve" font-family="BebasNeueCyrillic,Bebas Neue Cyrillic" font-size="180.0" fill="#1AAFFA" transform="matrix(1.00, 0.00, -0.00, -1.00, 464.2, 322.4)">L</text><text xml:space="preserve" font-family="BebasNeueCyrillic,Bebas Neue Cyrillic" font-size="180.0" fill="#1AAFFA" transform="matrix(1.00, 0.00, -0.00, -1.00, 525.5, 322.4)">O</text><text xml:space="preserve" font-family="BebasNeueCyrillic,Bebas Neue Cyrillic" font-size="180.0" fill="#1AAFFA" transform="matrix(1.00, 0.00, -0.00, -1.00, 596.8, 322.4)">W</text></g></svg>