<?xml version="1.0" encoding="UTF-8" standalone="no"?><svg xmlns="http://www.w3.org/2000/svg" xmlns:xlink="http://www.w3.org/1999/xlink" clip-rule="evenodd" stroke-miterlimit="10" viewBox="0 0 1024 768"><desc>SVG generated by Keynote</desc><defs></defs><g transform="matrix(1.00, 0.00, -0.00, -1.00, 0.0, 768.0)"><g><clipPath id="clip0x7fecad33c670"><path d="M 0.0 768.0 L 1024.0 768.0 L 1024.0 0.0 L 0.0 0.0 Z M 0.0 768.0 "></path></clipPath><g clip-path="url(#clip0x7fecad33c670)"><image xlink:href="../../D65291DE-E52B-48DA-BF23-32852F1E7222/assets/716D123BC9C8A5783E3659E49C5D5E27.png" width="1280.00" height="720.00" transform="matrix(1.07, 0.00, -0.00, -1.07, -170.7, 768.0)"></image></g></g><text xml:space="preserve" font-family="DINCondensed-Bold,DIN Condensed" font-weight="bold" font-size="70.0" fill="#00CF41" transform="matrix(1.00, 0.00, -0.00, -1.00, 432.1, 399.2)">A</text><text xml:space="preserve" font-family="DINCondensed-Bold,DIN Condensed" font-weight="bold" font-size="70.0" fill="#00CF41" transform="matrix(1.00, 0.00, -0.00, -1.00, 460.6, 399.2)">p</text><text xml:space="preserve" font-family="DINCondensed-Bold,DIN Condensed" font-weight="bold" font-size="70.0" fill="#00CF41" transform="matrix(1.00, 0.00, -0.00, -1.00, 487.8, 399.2)">a</text><text xml:space="preserve" font-family="DINCondensed-Bold,DIN Condensed" font-weight="bold" font-size="70.0" fill="#00CF41" transform="matrix(1.00, 0.00, -0.00, -1.00, 513.7, 399.2)">c</text><text xml:space="preserve" font-family="DINCondensed-Bold,DIN Condensed" font-weight="bold" font-size="70.0" fill="#00CF41" transform="matrix(1.00, 0.00, -0.00, -1.00, 538.8, 399.2)">h</text><text xml:space="preserve" font-family="DINCondensed-Bold,DIN Condensed" font-weight="bold" font-size="70.0" fill="#00CF41" transform="matrix(1.00, 0.00, -0.00, -1.00, 566.0, 399.2)">e</text><text xml:space="preserve" font-family="DINCondensed-Bold,DIN Condensed" font-weight="bold" font-size="70.0" fill="#00CF41" transform="matrix(1.00, 0.00, -0.00, -1.00, 591.9, 399.2)"> </text><text xml:space="preserve" font-family="DINCondensed-Bold,DIN Condensed" font-weight="bold" font-size="55.0" fill="#FEFFFE" transform="matrix(1.00, 0.00, -0.00, -1.00, 124.9, 325.9)">M</text><text xml:space="preserve" font-family="DINCondensed-Bold,DIN Condensed" font-weight="bold" font-size="55.0" fill="#FEFFFE" transform="matrix(1.00, 0.00, -0.00, -1.00, 155.5, 325.9)">o</text><text xml:space="preserve" font-family="DINCondensed-Bold,DIN Condensed" font-weight="bold" font-size="55.0" fill="#FEFFFE" transform="matrix(1.00, 0.00, -0.00, -1.00, 175.8, 325.9)">d</text><text xml:space="preserve" font-family="DINCondensed-Bold,DIN Condensed" font-weight="bold" font-size="55.0" fill="#FEFFFE" transform="matrix(1.00, 0.00, -0.00, -1.00, 197.2, 325.9)">P</text><text xml:space="preserve" font-family="DINCondensed-Bold,DIN Condensed" font-weight="bold" font-size="55.0" fill="#FEFFFE" transform="matrix(1.00, 0.00, -0.00, -1.00, 218.9, 325.9)">a</text><text xml:space="preserve" font-family="DINCondensed-Bold,DIN Condensed" font-weight="bold" font-size="55.0" fill="#FEFFFE" transform="matrix(1.00, 0.00, -0.00, -1.00, 239.3, 325.9)">g</text><text xml:space="preserve" font-family="DINCondensed-Bold,DIN Condensed" font-weight="bold" font-size="55.0" fill="#FEFFFE" transform="matrix(1.00, 0.00, -0.00, -1.00, 260.7, 325.9)">e</text><text xml:space="preserve" font-family="DINCondensed-Bold,DIN Condensed" font-weight="bold" font-size="55.0" fill="#FEFFFE" transform="matrix(1.00, 0.00, -0.00, -1.00, 281.0, 325.9)">s</text><text xml:space="preserve" font-family="DINCondensed-Bold,DIN Condensed" font-weight="bold" font-size="55.0" fill="#FEFFFE" transform="matrix(1.00, 0.00, -0.00, -1.00, 300.4, 325.9)">p</text><text xml:space="preserve" font-family="DINCondensed-Bold,DIN Condensed" font-weight="bold" font-size="55.0" fill="#FEFFFE" transform="matrix(1.00, 0.00, -0.00, -1.00, 321.8, 325.9)">e</text><text xml:space="preserve" font-family="DINCondensed-Bold,DIN Condensed" font-weight="bold" font-size="55.0" fill="#FEFFFE" transform="matrix(1.00, 0.00, -0.00, -1.00, 342.1, 325.9)">e</text><text xml:space="preserve" font-family="DINCondensed-Bold,DIN Condensed" font-weight="bold" font-size="55.0" fill="#FEFFFE" transform="matrix(1.00, 0.00, -0.00, -1.00, 362.5, 325.9)">d</text><text xml:space="preserve" font-family="DINCondensed-Bold,DIN Condensed" font-weight="bold" font-size="55.0" fill="#FEFFFE" transform="matrix(1.00, 0.00, -0.00, -1.00, 383.9, 325.9)">E</text><text xml:space="preserve" font-family="DINCondensed-Bold,DIN Condensed" font-weight="bold" font-size="55.0" fill="#FEFFFE" transform="matrix(1.00, 0.00, -0.00, -1.00, 404.2, 325.9)">n</text><text xml:space="preserve" font-family="DINCondensed-Bold,DIN Condensed" font-weight="bold" font-size="55.0" fill="#FEFFFE" transform="matrix(1.00, 0.00, -0.00, -1.00, 425.6, 325.9)">a</text><text xml:space="preserve" font-family="DINCondensed-Bold,DIN Condensed" font-weight="bold" font-size="55.0" fill="#FEFFFE" transform="matrix(1.00, 0.00, -0.00, -1.00, 446.0, 325.9)">b</text><text xml:space="preserve" font-family="DINCondensed-Bold,DIN Condensed" font-weight="bold" font-size="55.0" fill="#FEFFFE" transform="matrix(1.00, 0.00, -0.00, -1.00, 467.4, 325.9)">l</text><text xml:space="preserve" font-family="DINCondensed-Bold,DIN Condensed" font-weight="bold" font-size="55.0" fill="#FEFFFE" transform="matrix(1.00, 0.00, -0.00, -1.00, 477.6, 325.9)">e</text><text xml:space="preserve" font-family="DINCondensed-Bold,DIN Condensed" font-weight="bold" font-size="55.0" fill="#FEFFFE" transform="matrix(1.00, 0.00, -0.00, -1.00, 497.9, 325.9)">F</text><text xml:space="preserve" font-family="DINCondensed-Bold,DIN Condensed" font-weight="bold" font-size="55.0" fill="#FEFFFE" transform="matrix(1.00, 0.00, -0.00, -1.00, 517.6, 325.9)">i</text><text xml:space="preserve" font-family="DINCondensed-Bold,DIN Condensed" font-weight="bold" font-size="55.0" fill="#FEFFFE" transform="matrix(1.00, 0.00, -0.00, -1.00, 527.9, 325.9)">l</text><text xml:space="preserve" font-family="DINCondensed-Bold,DIN Condensed" font-weight="bold" font-size="55.0" fill="#FEFFFE" transform="matrix(1.00, 0.00, -0.00, -1.00, 538.1, 325.9)">t</text><text xml:space="preserve" font-family="DINCondensed-Bold,DIN Condensed" font-weight="bold" font-size="55.0" fill="#FEFFFE" transform="matrix(1.00, 0.00, -0.00, -1.00, 549.3, 325.9)">e</text><text xml:space="preserve" font-family="DINCondensed-Bold,DIN Condensed" font-weight="bold" font-size="55.0" fill="#FEFFFE" transform="matrix(1.00, 0.00, -0.00, -1.00, 569.7, 325.9)">r</text><text xml:space="preserve" font-family="DINCondensed-Bold,DIN Condensed" font-weight="bold" font-size="55.0" fill="#FEFFFE" transform="matrix(1.00, 0.00, -0.00, -1.00, 585.0, 325.9)">s</text><text xml:space="preserve" font-family="DINCondensed-Bold,DIN Condensed" font-weight="bold" font-size="55.0" fill="#FEFFFE" transform="matrix(1.00, 0.00, -0.00, -1.00, 604.3, 325.9)"> </text><text xml:space="preserve" font-family="DINCondensed-Bold,DIN Condensed" font-weight="bold" font-size="55.0" fill="#F9F600" transform="matrix(1.00, 0.00, -0.00, -1.00, 614.5, 325.9)">d</text><text xml:space="preserve" font-family="DINCondensed-Bold,DIN Condensed" font-weight="bold" font-size="55.0" fill="#F9F600" transform="matrix(1.00, 0.00, -0.00, -1.00, 635.9, 325.9)">e</text><text xml:space="preserve" font-family="DINCondensed-Bold,DIN Condensed" font-weight="bold" font-size="55.0" fill="#F9F600" transform="matrix(1.00, 0.00, -0.00, -1.00, 656.3, 325.9)">f</text><text xml:space="preserve" font-family="DINCondensed-Bold,DIN Condensed" font-weight="bold" font-size="55.0" fill="#F9F600" transform="matrix(1.00, 0.00, -0.00, -1.00, 668.5, 325.9)">e</text><text xml:space="preserve" font-family="DINCondensed-Bold,DIN Condensed" font-weight="bold" font-size="55.0" fill="#F9F600" transform="matrix(1.00, 0.00, -0.00, -1.00, 688.9, 325.9)">r</text><text xml:space="preserve" font-family="DINCondensed-Bold,DIN Condensed" font-weight="bold" font-size="55.0" fill="#F9F600" transform="matrix(1.00, 0.00, -0.00, -1.00, 704.1, 325.9)">_</text><text xml:space="preserve" font-family="DINCondensed-Bold,DIN Condensed" font-weight="bold" font-size="55.0" fill="#F9F600" transform="matrix(1.00, 0.00, -0.00, -1.00, 731.6, 325.9)">j</text><text xml:space="preserve" font-family="DINCondensed-Bold,DIN Condensed" font-weight="bold" font-size="55.0" fill="#F9F600" transform="matrix(1.00, 0.00, -0.00, -1.00, 741.9, 325.9)">a</text><text xml:space="preserve" font-family="DINCondensed-Bold,DIN Condensed" font-weight="bold" font-size="55.0" fill="#F9F600" transform="matrix(1.00, 0.00, -0.00, -1.00, 761.9, 325.9)">v</text><text xml:space="preserve" font-family="DINCondensed-Bold,DIN Condensed" font-weight="bold" font-size="55.0" fill="#F9F600" transform="matrix(1.00, 0.00, -0.00, -1.00, 780.9, 325.9)">a</text><text xml:space="preserve" font-family="DINCondensed-Bold,DIN Condensed" font-weight="bold" font-size="55.0" fill="#F9F600" transform="matrix(1.00, 0.00, -0.00, -1.00, 801.3, 325.9)">s</text><text xml:space="preserve" font-family="DINCondensed-Bold,DIN Condensed" font-weight="bold" font-size="55.0" fill="#F9F600" transform="matrix(1.00, 0.00, -0.00, -1.00, 820.6, 325.9)">c</text><text xml:space="preserve" font-family="DINCondensed-Bold,DIN Condensed" font-weight="bold" font-size="55.0" fill="#F9F600" transform="matrix(1.00, 0.00, -0.00, -1.00, 841.0, 325.9)">r</text><text xml:space="preserve" font-family="DINCondensed-Bold,DIN Condensed" font-weight="bold" font-size="55.0" fill="#F9F600" transform="matrix(1.00, 0.00, -0.00, -1.00, 856.3, 325.9)">i</text><text xml:space="preserve" font-family="DINCondensed-Bold,DIN Condensed" font-weight="bold" font-size="55.0" fill="#F9F600" transform="matrix(1.00, 0.00, -0.00, -1.00, 866.5, 325.9)">p</text><text xml:space="preserve" font-family="DINCondensed-Bold,DIN Condensed" font-weight="bold" font-size="55.0" fill="#F9F600" transform="matrix(1.00, 0.00, -0.00, -1.00, 887.9, 325.9)">t</text><text xml:space="preserve" font-family="DINCondensed-Bold,DIN Condensed" font-weight="bold" font-size="55.0" fill="#FEFFFE" transform="matrix(1.00, 0.00, -0.00, -1.00, 899.1, 325.9)"> </text><text xml:space="preserve" font-family="DINCondensed-Bold,DIN Condensed" font-weight="bold" font-size="70.0" fill="#1AAFFA" transform="matrix(1.00, 0.00, -0.00, -1.00, 451.1, 183.2)">N</text><text xml:space="preserve" font-family="DINCondensed-Bold,DIN Condensed" font-weight="bold" font-size="70.0" fill="#1AAFFA" transform="matrix(1.00, 0.00, -0.00, -1.00, 482.2, 183.2)">g</text><text xml:space="preserve" font-family="DINCondensed-Bold,DIN Condensed" font-weight="bold" font-size="70.0" fill="#1AAFFA" transform="matrix(1.00, 0.00, -0.00, -1.00, 509.4, 183.2)">i</text><text xml:space="preserve" font-family="DINCondensed-Bold,DIN Condensed" font-weight="bold" font-size="70.0" fill="#1AAFFA" transform="matrix(1.00, 0.00, -0.00, -1.00, 522.4, 183.2)">n</text><text xml:space="preserve" font-family="DINCondensed-Bold,DIN Condensed" font-weight="bold" font-size="70.0" fill="#1AAFFA" transform="matrix(1.00, 0.00, -0.00, -1.00, 549.7, 183.2)">x</text><text xml:space="preserve" font-family="DINCondensed-Bold,DIN Condensed" font-weight="bold" font-size="70.0" fill="#1AAFFA" transform="matrix(1.00, 0.00, -0.00, -1.00, 572.9, 183.2)"> </text><text xml:space="preserve" font-family="DINCondensed-Bold,DIN Condensed" font-weight="bold" font-size="55.0" fill="#FEFFFE" transform="matrix(1.00, 0.00, -0.00, -1.00, 151.0, 109.9)">p</text><text xml:space="preserve" font-family="DINCondensed-Bold,DIN Condensed" font-weight="bold" font-size="55.0" fill="#FEFFFE" transform="matrix(1.00, 0.00, -0.00, -1.00, 172.4, 109.9)">a</text><text xml:space="preserve" font-family="DINCondensed-Bold,DIN Condensed" font-weight="bold" font-size="55.0" fill="#FEFFFE" transform="matrix(1.00, 0.00, -0.00, -1.00, 192.7, 109.9)">g</text><text xml:space="preserve" font-family="DINCondensed-Bold,DIN Condensed" font-weight="bold" font-size="55.0" fill="#FEFFFE" transform="matrix(1.00, 0.00, -0.00, -1.00, 214.1, 109.9)">e</text><text xml:space="preserve" font-family="DINCondensed-Bold,DIN Condensed" font-weight="bold" font-size="55.0" fill="#FEFFFE" transform="matrix(1.00, 0.00, -0.00, -1.00, 234.5, 109.9)">s</text><text xml:space="preserve" font-family="DINCondensed-Bold,DIN Condensed" font-weight="bold" font-size="55.0" fill="#FEFFFE" transform="matrix(1.00, 0.00, -0.00, -1.00, 253.8, 109.9)">p</text><text xml:space="preserve" font-family="DINCondensed-Bold,DIN Condensed" font-weight="bold" font-size="55.0" fill="#FEFFFE" transform="matrix(1.00, 0.00, -0.00, -1.00, 275.2, 109.9)">e</text><text xml:space="preserve" font-family="DINCondensed-Bold,DIN Condensed" font-weight="bold" font-size="55.0" fill="#FEFFFE" transform="matrix(1.00, 0.00, -0.00, -1.00, 295.6, 109.9)">e</text><text xml:space="preserve" font-family="DINCondensed-Bold,DIN Condensed" font-weight="bold" font-size="55.0" fill="#FEFFFE" transform="matrix(1.00, 0.00, -0.00, -1.00, 315.9, 109.9)">d</text><text xml:space="preserve" font-family="DINCondensed-Bold,DIN Condensed" font-weight="bold" font-size="55.0" fill="#FEFFFE" transform="matrix(1.00, 0.00, -0.00, -1.00, 337.3, 109.9)"> </text><text xml:space="preserve" font-family="DINCondensed-Bold,DIN Condensed" font-weight="bold" font-size="55.0" fill="#FEFFFE" transform="matrix(1.00, 0.00, -0.00, -1.00, 347.5, 109.9)">E</text><text xml:space="preserve" font-family="DINCondensed-Bold,DIN Condensed" font-weight="bold" font-size="55.0" fill="#FEFFFE" transform="matrix(1.00, 0.00, -0.00, -1.00, 367.9, 109.9)">n</text><text xml:space="preserve" font-family="DINCondensed-Bold,DIN Condensed" font-weight="bold" font-size="55.0" fill="#FEFFFE" transform="matrix(1.00, 0.00, -0.00, -1.00, 389.3, 109.9)">a</text><text xml:space="preserve" font-family="DINCondensed-Bold,DIN Condensed" font-weight="bold" font-size="55.0" fill="#FEFFFE" transform="matrix(1.00, 0.00, -0.00, -1.00, 409.6, 109.9)">b</text><text xml:space="preserve" font-family="DINCondensed-Bold,DIN Condensed" font-weight="bold" font-size="55.0" fill="#FEFFFE" transform="matrix(1.00, 0.00, -0.00, -1.00, 431.0, 109.9)">l</text><text xml:space="preserve" font-family="DINCondensed-Bold,DIN Condensed" font-weight="bold" font-size="55.0" fill="#FEFFFE" transform="matrix(1.00, 0.00, -0.00, -1.00, 441.3, 109.9)">e</text><text xml:space="preserve" font-family="DINCondensed-Bold,DIN Condensed" font-weight="bold" font-size="55.0" fill="#FEFFFE" transform="matrix(1.00, 0.00, -0.00, -1.00, 461.6, 109.9)">F</text><text xml:space="preserve" font-family="DINCondensed-Bold,DIN Condensed" font-weight="bold" font-size="55.0" fill="#FEFFFE" transform="matrix(1.00, 0.00, -0.00, -1.00, 481.3, 109.9)">i</text><text xml:space="preserve" font-family="DINCondensed-Bold,DIN Condensed" font-weight="bold" font-size="55.0" fill="#FEFFFE" transform="matrix(1.00, 0.00, -0.00, -1.00, 491.5, 109.9)">l</text><text xml:space="preserve" font-family="DINCondensed-Bold,DIN Condensed" font-weight="bold" font-size="55.0" fill="#FEFFFE" transform="matrix(1.00, 0.00, -0.00, -1.00, 501.8, 109.9)">t</text><text xml:space="preserve" font-family="DINCondensed-Bold,DIN Condensed" font-weight="bold" font-size="55.0" fill="#FEFFFE" transform="matrix(1.00, 0.00, -0.00, -1.00, 513.0, 109.9)">e</text><text xml:space="preserve" font-family="DINCondensed-Bold,DIN Condensed" font-weight="bold" font-size="55.0" fill="#FEFFFE" transform="matrix(1.00, 0.00, -0.00, -1.00, 533.3, 109.9)">r</text><text xml:space="preserve" font-family="DINCondensed-Bold,DIN Condensed" font-weight="bold" font-size="55.0" fill="#FEFFFE" transform="matrix(1.00, 0.00, -0.00, -1.00, 548.6, 109.9)">s</text><text xml:space="preserve" font-family="DINCondensed-Bold,DIN Condensed" font-weight="bold" font-size="55.0" fill="#FEFFFE" transform="matrix(1.00, 0.00, -0.00, -1.00, 568.0, 109.9)"> </text><text xml:space="preserve" font-family="DINCondensed-Bold,DIN Condensed" font-weight="bold" font-size="55.0" fill="#F9F600" transform="matrix(1.00, 0.00, -0.00, -1.00, 578.2, 109.9)">d</text><text xml:space="preserve" font-family="DINCondensed-Bold,DIN Condensed" font-weight="bold" font-size="55.0" fill="#F9F600" transform="matrix(1.00, 0.00, -0.00, -1.00, 599.6, 109.9)">e</text><text xml:space="preserve" font-family="DINCondensed-Bold,DIN Condensed" font-weight="bold" font-size="55.0" fill="#F9F600" transform="matrix(1.00, 0.00, -0.00, -1.00, 620.0, 109.9)">f</text><text xml:space="preserve" font-family="DINCondensed-Bold,DIN Condensed" font-weight="bold" font-size="55.0" fill="#F9F600" transform="matrix(1.00, 0.00, -0.00, -1.00, 632.2, 109.9)">e</text><text xml:space="preserve" font-family="DINCondensed-Bold,DIN Condensed" font-weight="bold" font-size="55.0" fill="#F9F600" transform="matrix(1.00, 0.00, -0.00, -1.00, 652.5, 109.9)">r</text><text xml:space="preserve" font-family="DINCondensed-Bold,DIN Condensed" font-weight="bold" font-size="55.0" fill="#F9F600" transform="matrix(1.00, 0.00, -0.00, -1.00, 667.8, 109.9)">_</text><text xml:space="preserve" font-family="DINCondensed-Bold,DIN Condensed" font-weight="bold" font-size="55.0" fill="#F9F600" transform="matrix(1.00, 0.00, -0.00, -1.00, 695.3, 109.9)">j</text><text xml:space="preserve" font-family="DINCondensed-Bold,DIN Condensed" font-weight="bold" font-size="55.0" fill="#F9F600" transform="matrix(1.00, 0.00, -0.00, -1.00, 705.5, 109.9)">a</text><text xml:space="preserve" font-family="DINCondensed-Bold,DIN Condensed" font-weight="bold" font-size="55.0" fill="#F9F600" transform="matrix(1.00, 0.00, -0.00, -1.00, 725.6, 109.9)">v</text><text xml:space="preserve" font-family="DINCondensed-Bold,DIN Condensed" font-weight="bold" font-size="55.0" fill="#F9F600" transform="matrix(1.00, 0.00, -0.00, -1.00, 744.6, 109.9)">a</text><text xml:space="preserve" font-family="DINCondensed-Bold,DIN Condensed" font-weight="bold" font-size="55.0" fill="#F9F600" transform="matrix(1.00, 0.00, -0.00, -1.00, 764.9, 109.9)">s</text><text xml:space="preserve" font-family="DINCondensed-Bold,DIN Condensed" font-weight="bold" font-size="55.0" fill="#F9F600" transform="matrix(1.00, 0.00, -0.00, -1.00, 784.3, 109.9)">c</text><text xml:space="preserve" font-family="DINCondensed-Bold,DIN Condensed" font-weight="bold" font-size="55.0" fill="#F9F600" transform="matrix(1.00, 0.00, -0.00, -1.00, 804.7, 109.9)">r</text><text xml:space="preserve" font-family="DINCondensed-Bold,DIN Condensed" font-weight="bold" font-size="55.0" fill="#F9F600" transform="matrix(1.00, 0.00, -0.00, -1.00, 819.9, 109.9)">i</text><text xml:space="preserve" font-family="DINCondensed-Bold,DIN Condensed" font-weight="bold" font-size="55.0" fill="#F9F600" transform="matrix(1.00, 0.00, -0.00, -1.00, 830.2, 109.9)">p</text><text xml:space="preserve" font-family="DINCondensed-Bold,DIN Condensed" font-weight="bold" font-size="55.0" fill="#F9F600" transform="matrix(1.00, 0.00, -0.00, -1.00, 851.6, 109.9)">t</text><text xml:space="preserve" font-family="DINCondensed-Bold,DIN Condensed" font-weight="bold" font-size="55.0" fill="#F9F600" transform="matrix(1.00, 0.00, -0.00, -1.00, 862.8, 109.9)">;</text><text xml:space="preserve" font-family="BebasNeueCyrillic,Bebas Neue Cyrillic" font-size="100.0" fill="#FE4B85" transform="matrix(1.00, 0.00, -0.00, -1.00, 231.9, 600.8)">D</text><text xml:space="preserve" font-family="BebasNeueCyrillic,Bebas Neue Cyrillic" font-size="100.0" fill="#FE4B85" transform="matrix(1.00, 0.00, -0.00, -1.00, 272.6, 600.8)">e</text><text xml:space="preserve" font-family="BebasNeueCyrillic,Bebas Neue Cyrillic" font-size="100.0" fill="#FE4B85" transform="matrix(1.00, 0.00, -0.00, -1.00, 309.4, 600.8)">f</text><text xml:space="preserve" font-family="BebasNeueCyrillic,Bebas Neue Cyrillic" font-size="100.0" fill="#FE4B85" transform="matrix(1.00, 0.00, -0.00, -1.00, 343.7, 600.8)">e</text><text xml:space="preserve" font-family="BebasNeueCyrillic,Bebas Neue Cyrillic" font-size="100.0" fill="#FE4B85" transform="matrix(1.00, 0.00, -0.00, -1.00, 380.4, 600.8)">r</text><text xml:space="preserve" font-family="BebasNeueCyrillic,Bebas Neue Cyrillic" font-size="100.0" fill="#FE4B85" transform="matrix(1.00, 0.00, -0.00, -1.00, 420.6, 600.8)"> </text><text xml:space="preserve" font-family="BebasNeueCyrillic,Bebas Neue Cyrillic" font-size="100.0" fill="#FE4B85" transform="matrix(1.00, 0.00, -0.00, -1.00, 436.1, 600.8)">J</text><text xml:space="preserve" font-family="BebasNeueCyrillic,Bebas Neue Cyrillic" font-size="100.0" fill="#FE4B85" transform="matrix(1.00, 0.00, -0.00, -1.00, 461.6, 600.8)">a</text><text xml:space="preserve" font-family="BebasNeueCyrillic,Bebas Neue Cyrillic" font-size="100.0" fill="#FE4B85" transform="matrix(1.00, 0.00, -0.00, -1.00, 502.3, 600.8)">v</text><text xml:space="preserve" font-family="BebasNeueCyrillic,Bebas Neue Cyrillic" font-size="100.0" fill="#FE4B85" transform="matrix(1.00, 0.00, -0.00, -1.00, 542.5, 600.8)">a</text><text xml:space="preserve" font-family="BebasNeueCyrillic,Bebas Neue Cyrillic" font-size="100.0" fill="#FE4B85" transform="matrix(1.00, 0.00, -0.00, -1.00, 583.1, 600.8)">S</text><text xml:space="preserve" font-family="BebasNeueCyrillic,Bebas Neue Cyrillic" font-size="100.0" fill="#FE4B85" transform="matrix(1.00, 0.00, -0.00, -1.00, 620.4, 600.8)">c</text><text xml:space="preserve" font-family="BebasNeueCyrillic,Bebas Neue Cyrillic" font-size="100.0" fill="#FE4B85" transform="matrix(1.00, 0.00, -0.00, -1.00, 659.0, 600.8)">r</text><text xml:space="preserve" font-family="BebasNeueCyrillic,Bebas Neue Cyrillic" font-size="100.0" fill="#FE4B85" transform="matrix(1.00, 0.00, -0.00, -1.00, 699.1, 600.8)">i</text><text xml:space="preserve" font-family="BebasNeueCyrillic,Bebas Neue Cyrillic" font-size="100.0" fill="#FE4B85" transform="matrix(1.00, 0.00, -0.00, -1.00, 718.1, 600.8)">p</text><text xml:space="preserve" font-family="BebasNeueCyrillic,Bebas Neue Cyrillic" font-size="100.0" fill="#FE4B85" transform="matrix(1.00, 0.00, -0.00, -1.00, 755.8, 600.8)">t</text></g></svg>