<?xml version="1.0" encoding="UTF-8" standalone="no"?><svg xmlns="http://www.w3.org/2000/svg" xmlns:xlink="http://www.w3.org/1999/xlink" clip-rule="evenodd" stroke-miterlimit="10" viewBox="0 0 1024 768"><desc>SVG generated by Keynote</desc><defs></defs><g transform="matrix(1.00, 0.00, -0.00, -1.00, 0.0, 768.0)"><g><clipPath id="clip0x7feca9206160"><path d="M 0.0 768.0 L 1024.0 768.0 L 1024.0 0.0 L 0.0 0.0 Z M 0.0 768.0 "></path></clipPath><g clip-path="url(#clip0x7feca9206160)"><image xlink:href="../../E873CE9D-5A2E-44AB-B239-23ED05440F53/assets/17F1A6EF0EC5776A0D03E21AE3DFED82.png" width="1280.00" height="720.00" transform="matrix(1.07, 0.00, -0.00, -1.07, -170.7, 768.0)"></image></g></g><image xlink:href="../../E873CE9D-5A2E-44AB-B239-23ED05440F53/assets/D8E8A80A5929BAD2B6E0D3D80C82C792.png" width="406.00" height="437.00" transform="matrix(0.81, 0.00, -0.00, -0.81, 838.0, 562.0)"></image><text xml:space="preserve" font-family="BebasNeueCyrillic,Bebas Neue Cyrillic" font-size="140.0" fill="#FFFFFF" transform="matrix(1.00, 0.00, -0.00, -1.00, 58.8, 452.7)">К</text><text xml:space="preserve" font-family="BebasNeueCyrillic,Bebas Neue Cyrillic" font-size="140.0" fill="#FFFFFF" transform="matrix(1.00, 0.00, -0.00, -1.00, 116.6, 452.7)">а</text><text xml:space="preserve" font-family="BebasNeueCyrillic,Bebas Neue Cyrillic" font-size="140.0" fill="#FFFFFF" transform="matrix(1.00, 0.00, -0.00, -1.00, 173.3, 452.7)">к</text><text xml:space="preserve" font-family="BebasNeueCyrillic,Bebas Neue Cyrillic" font-size="140.0" fill="#FFFFFF" transform="matrix(1.00, 0.00, -0.00, -1.00, 231.1, 452.7)"> </text><text xml:space="preserve" font-family="BebasNeueCyrillic,Bebas Neue Cyrillic" font-size="140.0" fill="#FFFFFF" transform="matrix(1.00, 0.00, -0.00, -1.00, 252.8, 452.7)">п</text><text xml:space="preserve" font-family="BebasNeueCyrillic,Bebas Neue Cyrillic" font-size="140.0" fill="#FFFFFF" transform="matrix(1.00, 0.00, -0.00, -1.00, 312.5, 452.7)">о</text><text xml:space="preserve" font-family="BebasNeueCyrillic,Bebas Neue Cyrillic" font-size="140.0" fill="#FFFFFF" transform="matrix(1.00, 0.00, -0.00, -1.00, 367.5, 452.7)">н</text><text xml:space="preserve" font-family="BebasNeueCyrillic,Bebas Neue Cyrillic" font-size="140.0" fill="#FFFFFF" transform="matrix(1.00, 0.00, -0.00, -1.00, 427.2, 452.7)">я</text><text xml:space="preserve" font-family="BebasNeueCyrillic,Bebas Neue Cyrillic" font-size="140.0" fill="#FFFFFF" transform="matrix(1.00, 0.00, -0.00, -1.00, 483.5, 452.7)">т</text><text xml:space="preserve" font-family="BebasNeueCyrillic,Bebas Neue Cyrillic" font-size="140.0" fill="#FFFFFF" transform="matrix(1.00, 0.00, -0.00, -1.00, 533.9, 452.7)">ь</text><text xml:space="preserve" font-family="BebasNeueCyrillic,Bebas Neue Cyrillic" font-size="140.0" fill="#FFFFFF" transform="matrix(1.00, 0.00, -0.00, -1.00, 586.5, 452.7)"> </text><text xml:space="preserve" font-family="BebasNeueCyrillic,Bebas Neue Cyrillic" font-size="140.0" fill="#FFFFFF" transform="matrix(1.00, 0.00, -0.00, -1.00, 608.5, 452.7)">?</text><text xml:space="preserve" font-family="ISOCPEUR,ISOCPEUR" font-size="50.0" fill="#FFFFFF" transform="matrix(1.00, 0.00, -0.00, -1.00, 75.7, 283.1)">…</text><text xml:space="preserve" font-family="ISOCPEUR,ISOCPEUR" font-size="50.0" fill="#FFFFFF" transform="matrix(1.00, 0.00, -0.00, -1.00, 101.5, 283.1)"> </text><text xml:space="preserve" font-family="ISOCPEUR,ISOCPEUR" font-size="50.0" fill="#FFFFFF" transform="matrix(1.00, 0.00, -0.00, -1.00, 120.8, 283.1)">а</text><text xml:space="preserve" font-family="ISOCPEUR,ISOCPEUR" font-size="50.0" fill="#FFFFFF" transform="matrix(1.00, 0.00, -0.00, -1.00, 146.6, 283.1)">н</text><text xml:space="preserve" font-family="ISOCPEUR,ISOCPEUR" font-size="50.0" fill="#FFFFFF" transform="matrix(1.00, 0.00, -0.00, -1.00, 169.2, 283.1)">а</text><text xml:space="preserve" font-family="ISOCPEUR,ISOCPEUR" font-size="50.0" fill="#FFFFFF" transform="matrix(1.00, 0.00, -0.00, -1.00, 194.9, 283.1)">л</text><text xml:space="preserve" font-family="ISOCPEUR,ISOCPEUR" font-size="50.0" fill="#FFFFFF" transform="matrix(1.00, 0.00, -0.00, -1.00, 217.5, 283.1)">и</text><text xml:space="preserve" font-family="ISOCPEUR,ISOCPEUR" font-size="50.0" fill="#FFFFFF" transform="matrix(1.00, 0.00, -0.00, -1.00, 240.1, 283.1)">з</text><text xml:space="preserve" font-family="ISOCPEUR,ISOCPEUR" font-size="50.0" fill="#FFFFFF" transform="matrix(1.00, 0.00, -0.00, -1.00, 261.0, 283.1)">ы</text><text xml:space="preserve" font-family="ISOCPEUR,ISOCPEUR" font-size="50.0" fill="#FFFFFF" transform="matrix(1.00, 0.00, -0.00, -1.00, 286.8, 283.1)">,</text><text xml:space="preserve" font-family="ISOCPEUR,ISOCPEUR" font-size="50.0" fill="#FFFFFF" transform="matrix(1.00, 0.00, -0.00, -1.00, 298.0, 283.1)"> </text><text xml:space="preserve" font-family="ISOCPEUR,ISOCPEUR" font-size="50.0" fill="#FFFFFF" transform="matrix(1.00, 0.00, -0.00, -1.00, 317.4, 283.1)">а</text><text xml:space="preserve" font-family="ISOCPEUR,ISOCPEUR" font-size="50.0" fill="#FFFFFF" transform="matrix(1.00, 0.00, -0.00, -1.00, 343.1, 283.1)">н</text><text xml:space="preserve" font-family="ISOCPEUR,ISOCPEUR" font-size="50.0" fill="#FFFFFF" transform="matrix(1.00, 0.00, -0.00, -1.00, 365.7, 283.1)">а</text><text xml:space="preserve" font-family="ISOCPEUR,ISOCPEUR" font-size="50.0" fill="#FFFFFF" transform="matrix(1.00, 0.00, -0.00, -1.00, 391.5, 283.1)">л</text><text xml:space="preserve" font-family="ISOCPEUR,ISOCPEUR" font-size="50.0" fill="#FFFFFF" transform="matrix(1.00, 0.00, -0.00, -1.00, 414.1, 283.1)">и</text><text xml:space="preserve" font-family="ISOCPEUR,ISOCPEUR" font-size="50.0" fill="#FFFFFF" transform="matrix(1.00, 0.00, -0.00, -1.00, 436.7, 283.1)">з</text><text xml:space="preserve" font-family="ISOCPEUR,ISOCPEUR" font-size="50.0" fill="#FFFFFF" transform="matrix(1.00, 0.00, -0.00, -1.00, 457.6, 283.1)">ы</text><text xml:space="preserve" font-family="ISOCPEUR,ISOCPEUR" font-size="50.0" fill="#FFFFFF" transform="matrix(1.00, 0.00, -0.00, -1.00, 483.3, 283.1)"> </text></g></svg>