<?xml version="1.0" encoding="UTF-8" standalone="no"?><svg xmlns="http://www.w3.org/2000/svg" xmlns:xlink="http://www.w3.org/1999/xlink" clip-rule="evenodd" stroke-miterlimit="10" viewBox="0 0 893 112"><desc>SVG generated by Keynote</desc><defs></defs><g transform="matrix(1.00, 0.00, -0.00, -1.00, 0.0, 112.0)"><text xml:space="preserve" font-family="BebasNeueCyrillic,Bebas Neue Cyrillic" font-size="130.0" fill="#FFFFFF" transform="matrix(1.00, 0.00, -0.00, -1.00, -2.7, 2.6)">Э</text><text xml:space="preserve" font-family="BebasNeueCyrillic,Bebas Neue Cyrillic" font-size="130.0" fill="#FFFFFF" transform="matrix(1.00, 0.00, -0.00, -1.00, 47.6, 2.6)">К</text><text xml:space="preserve" font-family="BebasNeueCyrillic,Bebas Neue Cyrillic" font-size="130.0" fill="#FFFFFF" transform="matrix(1.00, 0.00, -0.00, -1.00, 101.3, 2.6)">С</text><text xml:space="preserve" font-family="BebasNeueCyrillic,Bebas Neue Cyrillic" font-size="130.0" fill="#FFFFFF" transform="matrix(1.00, 0.00, -0.00, -1.00, 151.7, 2.6)">П</text><text xml:space="preserve" font-family="BebasNeueCyrillic,Bebas Neue Cyrillic" font-size="130.0" fill="#FFFFFF" transform="matrix(1.00, 0.00, -0.00, -1.00, 207.1, 2.6)">Е</text><text xml:space="preserve" font-family="BebasNeueCyrillic,Bebas Neue Cyrillic" font-size="130.0" fill="#FFFFFF" transform="matrix(1.00, 0.00, -0.00, -1.00, 254.5, 2.6)">Р</text><text xml:space="preserve" font-family="BebasNeueCyrillic,Bebas Neue Cyrillic" font-size="130.0" fill="#FFFFFF" transform="matrix(1.00, 0.00, -0.00, -1.00, 303.4, 2.6)">И</text><text xml:space="preserve" font-family="BebasNeueCyrillic,Bebas Neue Cyrillic" font-size="130.0" fill="#FFFFFF" transform="matrix(1.00, 0.00, -0.00, -1.00, 359.1, 2.6)">М</text><text xml:space="preserve" font-family="BebasNeueCyrillic,Bebas Neue Cyrillic" font-size="130.0" fill="#FFFFFF" transform="matrix(1.00, 0.00, -0.00, -1.00, 429.6, 2.6)">Е</text><text xml:space="preserve" font-family="BebasNeueCyrillic,Bebas Neue Cyrillic" font-size="130.0" fill="#FFFFFF" transform="matrix(1.00, 0.00, -0.00, -1.00, 476.9, 2.6)">Н</text><text xml:space="preserve" font-family="BebasNeueCyrillic,Bebas Neue Cyrillic" font-size="130.0" fill="#FFFFFF" transform="matrix(1.00, 0.00, -0.00, -1.00, 532.4, 2.6)">Т</text><text xml:space="preserve" font-family="BebasNeueCyrillic,Bebas Neue Cyrillic" font-size="130.0" fill="#FFFFFF" transform="matrix(1.00, 0.00, -0.00, -1.00, 579.2, 2.6)">И</text><text xml:space="preserve" font-family="BebasNeueCyrillic,Bebas Neue Cyrillic" font-size="130.0" fill="#FFFFFF" transform="matrix(1.00, 0.00, -0.00, -1.00, 634.8, 2.6)">Р</text><text xml:space="preserve" font-family="BebasNeueCyrillic,Bebas Neue Cyrillic" font-size="130.0" fill="#FFFFFF" transform="matrix(1.00, 0.00, -0.00, -1.00, 683.7, 2.6)">У</text><text xml:space="preserve" font-family="BebasNeueCyrillic,Bebas Neue Cyrillic" font-size="130.0" fill="#FFFFFF" transform="matrix(1.00, 0.00, -0.00, -1.00, 743.6, 2.6)">Й</text><text xml:space="preserve" font-family="BebasNeueCyrillic,Bebas Neue Cyrillic" font-size="130.0" fill="#FFFFFF" transform="matrix(1.00, 0.00, -0.00, -1.00, 799.3, 2.6)">Т</text><text xml:space="preserve" font-family="BebasNeueCyrillic,Bebas Neue Cyrillic" font-size="130.0" fill="#FFFFFF" transform="matrix(1.00, 0.00, -0.00, -1.00, 846.1, 2.6)">Е</text></g></svg>