<?xml version="1.0" encoding="UTF-8" standalone="no"?><svg xmlns="http://www.w3.org/2000/svg" xmlns:xlink="http://www.w3.org/1999/xlink" clip-rule="evenodd" stroke-miterlimit="10" viewBox="0 0 1024 768"><desc>SVG generated by Keynote</desc><defs></defs><g transform="matrix(1.00, 0.00, -0.00, -1.00, 0.0, 768.0)"><g><clipPath id="clip0x7fecab014180"><path d="M 0.0 768.0 L 1024.0 768.0 L 1024.0 0.0 L 0.0 0.0 Z M 0.0 768.0 "></path></clipPath><g clip-path="url(#clip0x7fecab014180)"><image xlink:href="../../D65291DE-E52B-48DA-BF23-32852F1E7222/assets/716D123BC9C8A5783E3659E49C5D5E27.png" width="1280.00" height="720.00" transform="matrix(1.07, 0.00, -0.00, -1.07, -170.7, 768.0)"></image></g></g><text xml:space="preserve" font-family="BebasNeueCyrillic,Bebas Neue Cyrillic" font-size="200.0" fill="#1AAFFA" transform="matrix(1.00, 0.00, -0.00, -1.00, 284.0, 484.2)">С</text><text xml:space="preserve" font-family="BebasNeueCyrillic,Bebas Neue Cyrillic" font-size="200.0" fill="#1AAFFA" transform="matrix(1.00, 0.00, -0.00, -1.00, 361.5, 484.2)">б</text><text xml:space="preserve" font-family="BebasNeueCyrillic,Bebas Neue Cyrillic" font-size="200.0" fill="#1AAFFA" transform="matrix(1.00, 0.00, -0.00, -1.00, 439.5, 484.2)">о</text><text xml:space="preserve" font-family="BebasNeueCyrillic,Bebas Neue Cyrillic" font-size="200.0" fill="#1AAFFA" transform="matrix(1.00, 0.00, -0.00, -1.00, 518.1, 484.2)">р</text><text xml:space="preserve" font-family="BebasNeueCyrillic,Bebas Neue Cyrillic" font-size="200.0" fill="#1AAFFA" transform="matrix(1.00, 0.00, -0.00, -1.00, 593.3, 484.2)">к</text><text xml:space="preserve" font-family="BebasNeueCyrillic,Bebas Neue Cyrillic" font-size="200.0" fill="#1AAFFA" transform="matrix(1.00, 0.00, -0.00, -1.00, 676.0, 484.2)">а</text><text xml:space="preserve" font-family="BebasNeueCyrillic,Bebas Neue Cyrillic" font-size="200.0" fill="#1AAFFA" transform="matrix(1.00, 0.00, -0.00, -1.00, 757.2, 484.2)"> </text><text xml:space="preserve" font-family="BebasNeueCyrillic,Bebas Neue Cyrillic" font-size="240.0" fill="#FEFFFE" transform="matrix(1.00, 0.00, -0.00, -1.00, 290.3, 181.2)">j</text><text xml:space="preserve" font-family="BebasNeueCyrillic,Bebas Neue Cyrillic" font-size="240.0" fill="#FEFFFE" transform="matrix(1.00, 0.00, -0.00, -1.00, 351.7, 181.2)">s</text><text xml:space="preserve" font-family="BebasNeueCyrillic,Bebas Neue Cyrillic" font-size="240.0" fill="#FEFFFE" transform="matrix(1.00, 0.00, -0.00, -1.00, 441.3, 181.2)"> </text><text xml:space="preserve" font-family="BebasNeueCyrillic,Bebas Neue Cyrillic" font-size="240.0" fill="#FEFFFE" transform="matrix(1.00, 0.00, -0.00, -1.00, 478.5, 181.2)">с</text><text xml:space="preserve" font-family="BebasNeueCyrillic,Bebas Neue Cyrillic" font-size="240.0" fill="#FEFFFE" transform="matrix(1.00, 0.00, -0.00, -1.00, 571.5, 181.2)">s</text><text xml:space="preserve" font-family="BebasNeueCyrillic,Bebas Neue Cyrillic" font-size="240.0" fill="#FEFFFE" transform="matrix(1.00, 0.00, -0.00, -1.00, 661.1, 181.2)">s</text><text xml:space="preserve" font-family="BebasNeueCyrillic,Bebas Neue Cyrillic" font-size="240.0" fill="#FEFFFE" transform="matrix(1.00, 0.00, -0.00, -1.00, 750.9, 181.2)"> </text></g></svg>