<?xml version="1.0" encoding="UTF-8" standalone="no"?><svg xmlns="http://www.w3.org/2000/svg" xmlns:xlink="http://www.w3.org/1999/xlink" clip-rule="evenodd" stroke-miterlimit="10" viewBox="0 0 325 563"><desc>SVG generated by Keynote</desc><defs></defs><g transform="matrix(1.00, 0.00, -0.00, -1.00, 0.0, 563.0)"><text xml:space="preserve" font-family="BebasNeueCyrillic,Bebas Neue Cyrillic" font-size="150.0" fill="#00CF41" transform="matrix(1.00, 0.00, -0.00, -1.00, 48.3, 454.0)">х</text><text xml:space="preserve" font-family="BebasNeueCyrillic,Bebas Neue Cyrillic" font-size="150.0" fill="#00CF41" transform="matrix(1.00, 0.00, -0.00, -1.00, 112.7, 454.0)">о</text><text xml:space="preserve" font-family="BebasNeueCyrillic,Bebas Neue Cyrillic" font-size="150.0" fill="#00CF41" transform="matrix(1.00, 0.00, -0.00, -1.00, 171.7, 454.0)">ч</text><text xml:space="preserve" font-family="BebasNeueCyrillic,Bebas Neue Cyrillic" font-size="150.0" fill="#00CF41" transform="matrix(1.00, 0.00, -0.00, -1.00, 229.9, 454.0)">у</text><text xml:space="preserve" font-family="BebasNeueCyrillic,Bebas Neue Cyrillic" font-size="150.0" fill="#00CF41" transform="matrix(1.00, 0.00, -0.00, -1.00, 299.0, 454.0)"> </text><text xml:space="preserve" font-family="BebasNeueCyrillic,Bebas Neue Cyrillic" font-size="150.0" fill="#00CF41" transform="matrix(1.00, 0.00, -0.00, -1.00, 125.6, 303.7)">в</text><text xml:space="preserve" font-family="BebasNeueCyrillic,Bebas Neue Cyrillic" font-size="150.0" fill="#00CF41" transform="matrix(1.00, 0.00, -0.00, -1.00, 186.3, 303.7)">с</text><text xml:space="preserve" font-family="BebasNeueCyrillic,Bebas Neue Cyrillic" font-size="150.0" fill="#00CF41" transform="matrix(1.00, 0.00, -0.00, -1.00, 244.4, 303.7)">е</text><text xml:space="preserve" font-family="BebasNeueCyrillic,Bebas Neue Cyrillic" font-size="150.0" fill="#00CF41" transform="matrix(1.00, 0.00, -0.00, -1.00, 299.1, 303.7)"> </text><text xml:space="preserve" font-family="BebasNeueCyrillic,Bebas Neue Cyrillic" font-size="150.0" fill="#00CF41" transform="matrix(1.00, 0.00, -0.00, -1.00, 322.3, 303.7)"> </text><text xml:space="preserve" font-family="BebasNeueCyrillic,Bebas Neue Cyrillic" font-size="150.0" fill="#00CF41" transform="matrix(1.00, 0.00, -0.00, -1.00, 234.9, 153.4)">и</text><text xml:space="preserve" font-family="BebasNeueCyrillic,Bebas Neue Cyrillic" font-size="150.0" fill="#00CF41" transform="matrix(1.00, 0.00, -0.00, -1.00, 299.2, 153.4)"> </text><text xml:space="preserve" font-family="BebasNeueCyrillic,Bebas Neue Cyrillic" font-size="150.0" fill="#00CF41" transform="matrix(1.00, 0.00, -0.00, -1.00, 322.3, 153.4)"> </text><text xml:space="preserve" font-family="BebasNeueCyrillic,Bebas Neue Cyrillic" font-size="150.0" fill="#00CF41" transform="matrix(1.00, 0.00, -0.00, -1.00, -3.3, 3.1)">с</text><text xml:space="preserve" font-family="BebasNeueCyrillic,Bebas Neue Cyrillic" font-size="150.0" fill="#00CF41" transform="matrix(1.00, 0.00, -0.00, -1.00, 54.8, 3.1)">р</text><text xml:space="preserve" font-family="BebasNeueCyrillic,Bebas Neue Cyrillic" font-size="150.0" fill="#00CF41" transform="matrix(1.00, 0.00, -0.00, -1.00, 111.2, 3.1)">а</text><text xml:space="preserve" font-family="BebasNeueCyrillic,Bebas Neue Cyrillic" font-size="150.0" fill="#00CF41" transform="matrix(1.00, 0.00, -0.00, -1.00, 171.9, 3.1)">з</text><text xml:space="preserve" font-family="BebasNeueCyrillic,Bebas Neue Cyrillic" font-size="150.0" fill="#00CF41" transform="matrix(1.00, 0.00, -0.00, -1.00, 230.0, 3.1)">у</text></g></svg>