<?xml version="1.0" encoding="UTF-8" standalone="no"?><svg xmlns="http://www.w3.org/2000/svg" xmlns:xlink="http://www.w3.org/1999/xlink" clip-rule="evenodd" stroke-miterlimit="10" viewBox="0 0 1024 768"><desc>SVG generated by Keynote</desc><defs></defs><g transform="matrix(1.00, 0.00, -0.00, -1.00, 0.0, 768.0)"><g><clipPath id="clip0x7fecab29eb70"><path d="M 0.0 768.0 L 1024.0 768.0 L 1024.0 0.0 L 0.0 0.0 Z M 0.0 768.0 "></path></clipPath><g clip-path="url(#clip0x7fecab29eb70)"><image xlink:href="../../E873CE9D-5A2E-44AB-B239-23ED05440F53/assets/17F1A6EF0EC5776A0D03E21AE3DFED82.png" width="1280.00" height="720.00" transform="matrix(1.07, 0.00, -0.00, -1.07, -170.7, 768.0)"></image></g></g><image xlink:href="../../E873CE9D-5A2E-44AB-B239-23ED05440F53/assets/D8E8A80A5929BAD2B6E0D3D80C82C792.png" width="406.00" height="437.00" transform="matrix(0.81, 0.00, -0.00, -0.81, 838.0, 562.0)"></image><text xml:space="preserve" font-family="BebasNeueCyrillic,Bebas Neue Cyrillic" font-size="130.0" fill="#FFFFFF" transform="matrix(1.00, 0.00, -0.00, -1.00, 73.6, 451.6)">G</text><text xml:space="preserve" font-family="BebasNeueCyrillic,Bebas Neue Cyrillic" font-size="130.0" fill="#FFFFFF" transform="matrix(1.00, 0.00, -0.00, -1.00, 124.2, 451.6)">o</text><text xml:space="preserve" font-family="BebasNeueCyrillic,Bebas Neue Cyrillic" font-size="130.0" fill="#FFFFFF" transform="matrix(1.00, 0.00, -0.00, -1.00, 175.6, 451.6)">o</text><text xml:space="preserve" font-family="BebasNeueCyrillic,Bebas Neue Cyrillic" font-size="130.0" fill="#FFFFFF" transform="matrix(1.00, 0.00, -0.00, -1.00, 227.1, 451.6)">g</text><text xml:space="preserve" font-family="BebasNeueCyrillic,Bebas Neue Cyrillic" font-size="130.0" fill="#FFFFFF" transform="matrix(1.00, 0.00, -0.00, -1.00, 277.7, 451.6)">l</text><text xml:space="preserve" font-family="BebasNeueCyrillic,Bebas Neue Cyrillic" font-size="130.0" fill="#FFFFFF" transform="matrix(1.00, 0.00, -0.00, -1.00, 322.0, 451.6)">e</text><text xml:space="preserve" font-family="BebasNeueCyrillic,Bebas Neue Cyrillic" font-size="130.0" fill="#FFFFFF" transform="matrix(1.00, 0.00, -0.00, -1.00, 369.8, 451.6)"> </text><text xml:space="preserve" font-family="BebasNeueCyrillic,Bebas Neue Cyrillic" font-size="130.0" fill="#FFFFFF" transform="matrix(1.00, 0.00, -0.00, -1.00, 389.9, 451.6)">P</text><text xml:space="preserve" font-family="BebasNeueCyrillic,Bebas Neue Cyrillic" font-size="130.0" fill="#FFFFFF" transform="matrix(1.00, 0.00, -0.00, -1.00, 438.9, 451.6)">a</text><text xml:space="preserve" font-family="BebasNeueCyrillic,Bebas Neue Cyrillic" font-size="130.0" fill="#FFFFFF" transform="matrix(1.00, 0.00, -0.00, -1.00, 491.7, 451.6)">g</text><text xml:space="preserve" font-family="BebasNeueCyrillic,Bebas Neue Cyrillic" font-size="130.0" fill="#FFFFFF" transform="matrix(1.00, 0.00, -0.00, -1.00, 542.3, 451.6)">e</text><text xml:space="preserve" font-family="BebasNeueCyrillic,Bebas Neue Cyrillic" font-size="130.0" fill="#FFFFFF" transform="matrix(1.00, 0.00, -0.00, -1.00, 590.1, 451.6)">s</text><text xml:space="preserve" font-family="BebasNeueCyrillic,Bebas Neue Cyrillic" font-size="130.0" fill="#FFFFFF" transform="matrix(1.00, 0.00, -0.00, -1.00, 638.6, 451.6)">p</text><text xml:space="preserve" font-family="BebasNeueCyrillic,Bebas Neue Cyrillic" font-size="130.0" fill="#FFFFFF" transform="matrix(1.00, 0.00, -0.00, -1.00, 687.6, 451.6)">e</text><text xml:space="preserve" font-family="BebasNeueCyrillic,Bebas Neue Cyrillic" font-size="130.0" fill="#FFFFFF" transform="matrix(1.00, 0.00, -0.00, -1.00, 735.3, 451.6)">e</text><text xml:space="preserve" font-family="BebasNeueCyrillic,Bebas Neue Cyrillic" font-size="130.0" fill="#FFFFFF" transform="matrix(1.00, 0.00, -0.00, -1.00, 783.1, 451.6)">d</text><text xml:space="preserve" font-family="ISOCPEUR,ISOCPEUR" font-size="50.0" fill="#FFFFFF" transform="matrix(1.00, 0.00, -0.00, -1.00, 75.7, 283.1)">…</text><text xml:space="preserve" font-family="ISOCPEUR,ISOCPEUR" font-size="50.0" fill="#FFFFFF" transform="matrix(1.00, 0.00, -0.00, -1.00, 101.5, 283.1)"> </text><text xml:space="preserve" font-family="ISOCPEUR,ISOCPEUR" font-size="50.0" fill="#FFFFFF" transform="matrix(1.00, 0.00, -0.00, -1.00, 120.8, 283.1)">x</text><text xml:space="preserve" font-family="ISOCPEUR,ISOCPEUR" font-size="50.0" fill="#FFFFFF" transform="matrix(1.00, 0.00, -0.00, -1.00, 143.4, 283.1)">o</text><text xml:space="preserve" font-family="ISOCPEUR,ISOCPEUR" font-size="50.0" fill="#FFFFFF" transform="matrix(1.00, 0.00, -0.00, -1.00, 166.0, 283.1)">ч</text><text xml:space="preserve" font-family="ISOCPEUR,ISOCPEUR" font-size="50.0" fill="#FFFFFF" transform="matrix(1.00, 0.00, -0.00, -1.00, 188.5, 283.1)">у</text><text xml:space="preserve" font-family="ISOCPEUR,ISOCPEUR" font-size="50.0" fill="#FFFFFF" transform="matrix(1.00, 0.00, -0.00, -1.00, 211.1, 283.1)"> </text><text xml:space="preserve" font-family="ISOCPEUR,ISOCPEUR" font-size="50.0" fill="#FFFFFF" transform="matrix(1.00, 0.00, -0.00, -1.00, 230.4, 283.1)">в</text><text xml:space="preserve" font-family="ISOCPEUR,ISOCPEUR" font-size="50.0" fill="#FFFFFF" transform="matrix(1.00, 0.00, -0.00, -1.00, 253.0, 283.1)">с</text><text xml:space="preserve" font-family="ISOCPEUR,ISOCPEUR" font-size="50.0" fill="#FFFFFF" transform="matrix(1.00, 0.00, -0.00, -1.00, 272.3, 283.1)">е</text><text xml:space="preserve" font-family="ISOCPEUR,ISOCPEUR" font-size="50.0" fill="#FFFFFF" transform="matrix(1.00, 0.00, -0.00, -1.00, 294.8, 283.1)"> </text><text xml:space="preserve" font-family="ISOCPEUR,ISOCPEUR" font-size="50.0" fill="#FFFFFF" transform="matrix(1.00, 0.00, -0.00, -1.00, 314.1, 283.1)">с</text><text xml:space="preserve" font-family="ISOCPEUR,ISOCPEUR" font-size="50.0" fill="#FFFFFF" transform="matrix(1.00, 0.00, -0.00, -1.00, 333.4, 283.1)">р</text><text xml:space="preserve" font-family="ISOCPEUR,ISOCPEUR" font-size="50.0" fill="#FFFFFF" transform="matrix(1.00, 0.00, -0.00, -1.00, 356.0, 283.1)">а</text><text xml:space="preserve" font-family="ISOCPEUR,ISOCPEUR" font-size="50.0" fill="#FFFFFF" transform="matrix(1.00, 0.00, -0.00, -1.00, 381.7, 283.1)">з</text><text xml:space="preserve" font-family="ISOCPEUR,ISOCPEUR" font-size="50.0" fill="#FFFFFF" transform="matrix(1.00, 0.00, -0.00, -1.00, 402.7, 283.1)">у</text></g></svg>