<?xml version="1.0" encoding="UTF-8" standalone="no"?><svg xmlns="http://www.w3.org/2000/svg" xmlns:xlink="http://www.w3.org/1999/xlink" clip-rule="evenodd" stroke-miterlimit="10" viewBox="0 0 1024 768"><desc>SVG generated by Keynote</desc><defs></defs><g transform="matrix(1.00, 0.00, -0.00, -1.00, 0.0, 768.0)"><path d="M 0.0 768.0 L 1024.0 768.0 L 1024.0 0.0 L 0.0 0.0 Z M 0.0 768.0 " fill="#FEFFFE"></path><image xlink:href="F889D43F2C431861AA2276A2653DF5D2.png" width="225.00" height="400.00" transform="matrix(1.43, 0.00, -0.00, -1.43, 77.0, 670.3)"></image><text xml:space="preserve" font-family="BebasNeueCyrillic,Bebas Neue Cyrillic" font-size="150.0" fill="#00CF41" transform="matrix(1.00, 0.00, -0.00, -1.00, 687.3, 558.0)">х</text><text xml:space="preserve" font-family="BebasNeueCyrillic,Bebas Neue Cyrillic" font-size="150.0" fill="#00CF41" transform="matrix(1.00, 0.00, -0.00, -1.00, 751.7, 558.0)">о</text><text xml:space="preserve" font-family="BebasNeueCyrillic,Bebas Neue Cyrillic" font-size="150.0" fill="#00CF41" transform="matrix(1.00, 0.00, -0.00, -1.00, 810.7, 558.0)">ч</text><text xml:space="preserve" font-family="BebasNeueCyrillic,Bebas Neue Cyrillic" font-size="150.0" fill="#00CF41" transform="matrix(1.00, 0.00, -0.00, -1.00, 868.9, 558.0)">у</text><text xml:space="preserve" font-family="BebasNeueCyrillic,Bebas Neue Cyrillic" font-size="150.0" fill="#00CF41" transform="matrix(1.00, 0.00, -0.00, -1.00, 938.0, 558.0)"> </text><text xml:space="preserve" font-family="BebasNeueCyrillic,Bebas Neue Cyrillic" font-size="150.0" fill="#00CF41" transform="matrix(1.00, 0.00, -0.00, -1.00, 764.6, 407.7)">в</text><text xml:space="preserve" font-family="BebasNeueCyrillic,Bebas Neue Cyrillic" font-size="150.0" fill="#00CF41" transform="matrix(1.00, 0.00, -0.00, -1.00, 825.3, 407.7)">с</text><text xml:space="preserve" font-family="BebasNeueCyrillic,Bebas Neue Cyrillic" font-size="150.0" fill="#00CF41" transform="matrix(1.00, 0.00, -0.00, -1.00, 883.4, 407.7)">е</text><text xml:space="preserve" font-family="BebasNeueCyrillic,Bebas Neue Cyrillic" font-size="150.0" fill="#00CF41" transform="matrix(1.00, 0.00, -0.00, -1.00, 938.1, 407.7)"> </text><text xml:space="preserve" font-family="BebasNeueCyrillic,Bebas Neue Cyrillic" font-size="150.0" fill="#00CF41" transform="matrix(1.00, 0.00, -0.00, -1.00, 961.3, 407.7)"> </text><text xml:space="preserve" font-family="BebasNeueCyrillic,Bebas Neue Cyrillic" font-size="150.0" fill="#00CF41" transform="matrix(1.00, 0.00, -0.00, -1.00, 873.9, 257.4)">и</text><text xml:space="preserve" font-family="BebasNeueCyrillic,Bebas Neue Cyrillic" font-size="150.0" fill="#00CF41" transform="matrix(1.00, 0.00, -0.00, -1.00, 938.2, 257.4)"> </text><text xml:space="preserve" font-family="BebasNeueCyrillic,Bebas Neue Cyrillic" font-size="150.0" fill="#00CF41" transform="matrix(1.00, 0.00, -0.00, -1.00, 961.3, 257.4)"> </text><text xml:space="preserve" font-family="BebasNeueCyrillic,Bebas Neue Cyrillic" font-size="150.0" fill="#00CF41" transform="matrix(1.00, 0.00, -0.00, -1.00, 635.7, 107.1)">с</text><text xml:space="preserve" font-family="BebasNeueCyrillic,Bebas Neue Cyrillic" font-size="150.0" fill="#00CF41" transform="matrix(1.00, 0.00, -0.00, -1.00, 693.8, 107.1)">р</text><text xml:space="preserve" font-family="BebasNeueCyrillic,Bebas Neue Cyrillic" font-size="150.0" fill="#00CF41" transform="matrix(1.00, 0.00, -0.00, -1.00, 750.2, 107.1)">а</text><text xml:space="preserve" font-family="BebasNeueCyrillic,Bebas Neue Cyrillic" font-size="150.0" fill="#00CF41" transform="matrix(1.00, 0.00, -0.00, -1.00, 810.9, 107.1)">з</text><text xml:space="preserve" font-family="BebasNeueCyrillic,Bebas Neue Cyrillic" font-size="150.0" fill="#00CF41" transform="matrix(1.00, 0.00, -0.00, -1.00, 869.0, 107.1)">у</text></g></svg>