<?xml version="1.0" encoding="UTF-8" standalone="no"?><svg xmlns="http://www.w3.org/2000/svg" xmlns:xlink="http://www.w3.org/1999/xlink" clip-rule="evenodd" stroke-miterlimit="10" viewBox="0 0 1024 768"><desc>SVG generated by Keynote</desc><defs></defs><g transform="matrix(1.00, 0.00, -0.00, -1.00, 0.0, 768.0)"><path d="M 0.0 768.0 L 1024.0 768.0 L 1024.0 0.0 L 0.0 0.0 Z M 0.0 768.0 " fill="#FEFFFE"></path><text xml:space="preserve" font-family="GillSans,Gill Sans" font-size="42.0" fill="#1AAFFA" transform="matrix(1.00, 0.00, -0.00, -1.00, 44.3, 664.4)">d</text><text xml:space="preserve" font-family="GillSans,Gill Sans" font-size="42.0" fill="#1AAFFA" transform="matrix(1.00, 0.00, -0.00, -1.00, 65.7, 664.4)">e</text><text xml:space="preserve" font-family="GillSans,Gill Sans" font-size="42.0" fill="#1AAFFA" transform="matrix(1.00, 0.00, -0.00, -1.00, 85.2, 664.4)">v</text><text xml:space="preserve" font-family="GillSans,Gill Sans" font-size="42.0" fill="#1AAFFA" transform="matrix(1.00, 0.00, -0.00, -1.00, 102.8, 664.4)">e</text><text xml:space="preserve" font-family="GillSans,Gill Sans" font-size="42.0" fill="#1AAFFA" transform="matrix(1.00, 0.00, -0.00, -1.00, 122.9, 664.4)">l</text><text xml:space="preserve" font-family="GillSans,Gill Sans" font-size="42.0" fill="#1AAFFA" transform="matrix(1.00, 0.00, -0.00, -1.00, 132.1, 664.4)">o</text><text xml:space="preserve" font-family="GillSans,Gill Sans" font-size="42.0" fill="#1AAFFA" transform="matrix(1.00, 0.00, -0.00, -1.00, 155.3, 664.4)">p</text><text xml:space="preserve" font-family="GillSans,Gill Sans" font-size="42.0" fill="#1AAFFA" transform="matrix(1.00, 0.00, -0.00, -1.00, 176.3, 664.4)">e</text><text xml:space="preserve" font-family="GillSans,Gill Sans" font-size="42.0" fill="#1AAFFA" transform="matrix(1.00, 0.00, -0.00, -1.00, 196.4, 664.4)">r</text><text xml:space="preserve" font-family="GillSans,Gill Sans" font-size="42.0" fill="#1AAFFA" transform="matrix(1.00, 0.00, -0.00, -1.00, 213.0, 664.4)">s</text><text xml:space="preserve" font-family="GillSans,Gill Sans" font-size="42.0" fill="#1AAFFA" transform="matrix(1.00, 0.00, -0.00, -1.00, 229.2, 664.4)">.</text><text xml:space="preserve" font-family="GillSans,Gill Sans" font-size="42.0" fill="#1AAFFA" transform="matrix(1.00, 0.00, -0.00, -1.00, 238.4, 664.4)">g</text><text xml:space="preserve" font-family="GillSans,Gill Sans" font-size="42.0" fill="#1AAFFA" transform="matrix(1.00, 0.00, -0.00, -1.00, 255.9, 664.4)">o</text><text xml:space="preserve" font-family="GillSans,Gill Sans" font-size="42.0" fill="#1AAFFA" transform="matrix(1.00, 0.00, -0.00, -1.00, 279.1, 664.4)">o</text><text xml:space="preserve" font-family="GillSans,Gill Sans" font-size="42.0" fill="#1AAFFA" transform="matrix(1.00, 0.00, -0.00, -1.00, 302.2, 664.4)">g</text><text xml:space="preserve" font-family="GillSans,Gill Sans" font-size="42.0" fill="#1AAFFA" transform="matrix(1.00, 0.00, -0.00, -1.00, 320.1, 664.4)">l</text><text xml:space="preserve" font-family="GillSans,Gill Sans" font-size="42.0" fill="#1AAFFA" transform="matrix(1.00, 0.00, -0.00, -1.00, 329.4, 664.4)">e</text><text xml:space="preserve" font-family="GillSans,Gill Sans" font-size="42.0" fill="#1AAFFA" transform="matrix(1.00, 0.00, -0.00, -1.00, 350.3, 664.4)">.</text><text xml:space="preserve" font-family="GillSans,Gill Sans" font-size="42.0" fill="#1AAFFA" transform="matrix(1.00, 0.00, -0.00, -1.00, 359.5, 664.4)">c</text><text xml:space="preserve" font-family="GillSans,Gill Sans" font-size="42.0" fill="#1AAFFA" transform="matrix(1.00, 0.00, -0.00, -1.00, 377.9, 664.4)">o</text><text xml:space="preserve" font-family="GillSans,Gill Sans" font-size="42.0" fill="#1AAFFA" transform="matrix(1.00, 0.00, -0.00, -1.00, 401.1, 664.4)">m</text><text xml:space="preserve" font-family="GillSans,Gill Sans" font-size="42.0" fill="#1AAFFA" transform="matrix(1.00, 0.00, -0.00, -1.00, 433.5, 664.4)">/</text><text xml:space="preserve" font-family="GillSans,Gill Sans" font-size="42.0" fill="#1AAFFA" transform="matrix(1.00, 0.00, -0.00, -1.00, 445.3, 664.4)">s</text><text xml:space="preserve" font-family="GillSans,Gill Sans" font-size="42.0" fill="#1AAFFA" transform="matrix(1.00, 0.00, -0.00, -1.00, 461.4, 664.4)">p</text><text xml:space="preserve" font-family="GillSans,Gill Sans" font-size="42.0" fill="#1AAFFA" transform="matrix(1.00, 0.00, -0.00, -1.00, 482.4, 664.4)">e</text><text xml:space="preserve" font-family="GillSans,Gill Sans" font-size="42.0" fill="#1AAFFA" transform="matrix(1.00, 0.00, -0.00, -1.00, 502.5, 664.4)">e</text><text xml:space="preserve" font-family="GillSans,Gill Sans" font-size="42.0" fill="#1AAFFA" transform="matrix(1.00, 0.00, -0.00, -1.00, 522.7, 664.4)">d</text><text xml:space="preserve" font-family="GillSans,Gill Sans" font-size="42.0" fill="#1AAFFA" transform="matrix(1.00, 0.00, -0.00, -1.00, 544.1, 664.4)">/</text><text xml:space="preserve" font-family="GillSans,Gill Sans" font-size="42.0" fill="#1AAFFA" transform="matrix(1.00, 0.00, -0.00, -1.00, 555.8, 664.4)">p</text><text xml:space="preserve" font-family="GillSans,Gill Sans" font-size="42.0" fill="#1AAFFA" transform="matrix(1.00, 0.00, -0.00, -1.00, 576.8, 664.4)">a</text><text xml:space="preserve" font-family="GillSans,Gill Sans" font-size="42.0" fill="#1AAFFA" transform="matrix(1.00, 0.00, -0.00, -1.00, 594.8, 664.4)">g</text><text xml:space="preserve" font-family="GillSans,Gill Sans" font-size="42.0" fill="#1AAFFA" transform="matrix(1.00, 0.00, -0.00, -1.00, 612.7, 664.4)">e</text><text xml:space="preserve" font-family="GillSans,Gill Sans" font-size="42.0" fill="#1AAFFA" transform="matrix(1.00, 0.00, -0.00, -1.00, 632.8, 664.4)">s</text><text xml:space="preserve" font-family="GillSans,Gill Sans" font-size="42.0" fill="#1AAFFA" transform="matrix(1.00, 0.00, -0.00, -1.00, 648.9, 664.4)">p</text><text xml:space="preserve" font-family="GillSans,Gill Sans" font-size="42.0" fill="#1AAFFA" transform="matrix(1.00, 0.00, -0.00, -1.00, 669.9, 664.4)">e</text><text xml:space="preserve" font-family="GillSans,Gill Sans" font-size="42.0" fill="#1AAFFA" transform="matrix(1.00, 0.00, -0.00, -1.00, 690.1, 664.4)">e</text><text xml:space="preserve" font-family="GillSans,Gill Sans" font-size="42.0" fill="#1AAFFA" transform="matrix(1.00, 0.00, -0.00, -1.00, 710.2, 664.4)">d</text><text xml:space="preserve" font-family="GillSans,Gill Sans" font-size="42.0" fill="#1AAFFA" transform="matrix(1.00, 0.00, -0.00, -1.00, 731.6, 664.4)">/</text><text xml:space="preserve" font-family="GillSans,Gill Sans" font-size="42.0" fill="#1AAFFA" transform="matrix(1.00, 0.00, -0.00, -1.00, 743.4, 664.4)">m</text><text xml:space="preserve" font-family="GillSans,Gill Sans" font-size="42.0" fill="#1AAFFA" transform="matrix(1.00, 0.00, -0.00, -1.00, 775.7, 664.4)">o</text><text xml:space="preserve" font-family="GillSans,Gill Sans" font-size="42.0" fill="#1AAFFA" transform="matrix(1.00, 0.00, -0.00, -1.00, 798.9, 664.4)">d</text><text xml:space="preserve" font-family="GillSans,Gill Sans" font-size="42.0" fill="#1AAFFA" transform="matrix(1.00, 0.00, -0.00, -1.00, 820.3, 664.4)">u</text><text xml:space="preserve" font-family="GillSans,Gill Sans" font-size="42.0" fill="#1AAFFA" transform="matrix(1.00, 0.00, -0.00, -1.00, 841.3, 664.4)">l</text><text xml:space="preserve" font-family="GillSans,Gill Sans" font-size="42.0" fill="#1AAFFA" transform="matrix(1.00, 0.00, -0.00, -1.00, 850.5, 664.4)">e</text><text xml:space="preserve" font-family="GillSans,Gill Sans" font-size="42.0" fill="#1AAFFA" transform="matrix(1.00, 0.00, -0.00, -1.00, 870.6, 664.4)">/</text><text xml:space="preserve" font-family="GillSans,Gill Sans" font-size="42.0" fill="#1AAFFA" transform="matrix(1.00, 0.00, -0.00, -1.00, 882.4, 664.4)">ï¬</text><text xml:space="preserve" font-family="GillSans,Gill Sans" font-size="42.0" fill="#1AAFFA" transform="matrix(1.00, 0.00, -0.00, -1.00, 903.4, 664.4)">l</text><text xml:space="preserve" font-family="GillSans,Gill Sans" font-size="42.0" fill="#1AAFFA" transform="matrix(1.00, 0.00, -0.00, -1.00, 912.6, 664.4)">t</text><text xml:space="preserve" font-family="GillSans,Gill Sans" font-size="42.0" fill="#1AAFFA" transform="matrix(1.00, 0.00, -0.00, -1.00, 926.6, 664.4)">e</text><text xml:space="preserve" font-family="GillSans,Gill Sans" font-size="42.0" fill="#1AAFFA" transform="matrix(1.00, 0.00, -0.00, -1.00, 946.8, 664.4)">r</text><text xml:space="preserve" font-family="GillSans,Gill Sans" font-size="42.0" fill="#1AAFFA" transform="matrix(1.00, 0.00, -0.00, -1.00, 963.4, 664.4)">s</text><g><clipPath id="clip0x7fecab0d9a90"><path d="M 43.3 659.2 L 979.7 659.2 L 979.7 663.3 L 43.3 663.3 Z M 43.3 659.2 "></path></clipPath><g clip-path="url(#clip0x7fecab0d9a90)"><path d="M 2.6 44.6 L 938.0 44.6 " fill="none" stroke="#1AAFFA" stroke-width="2.09" transform="matrix(1.00, 0.00, 0.00, -1.00, 41.7, 705.8)"></path></g></g><image xlink:href="../../B7DA2EE2-B69C-4A4C-A899-B371968DBE81/assets/D0C5B775070F72FD75A9E4EB63B6828E.png" width="737.00" height="744.00" transform="matrix(1.00, 0.00, -0.00, -1.00, 144.0, 616.0)"></image></g></svg>