<?xml version="1.0" encoding="UTF-8" standalone="no"?><svg xmlns="http://www.w3.org/2000/svg" xmlns:xlink="http://www.w3.org/1999/xlink" clip-rule="evenodd" stroke-miterlimit="10" viewBox="0 0 1024 768"><desc>SVG generated by Keynote</desc><defs></defs><g transform="matrix(1.00, 0.00, -0.00, -1.00, 0.0, 768.0)"><path d="M 0.0 768.0 L 1024.0 768.0 L 1024.0 0.0 L 0.0 0.0 Z M 0.0 768.0 " fill="#FEFFFE"></path><image xlink:href="0C73BF900FEC9EF08AE2AA070EB6D87D.png" width="1155.00" height="662.00" transform="matrix(0.89, 0.00, -0.00, -0.89, 0.0, 677.0)"></image><image xlink:href="D1E29863771A8DDC792C0ACF12A17612.png" width="636.00" height="159.00" transform="matrix(1.00, 0.00, -0.00, -1.00, 353.0, 206.0)"></image><text xml:space="preserve" font-family="BebasNeueCyrillic,Bebas Neue Cyrillic" font-size="180.0" fill="#00CF41" transform="matrix(1.00, 0.00, -0.00, -1.00, 360.9, 77.4)">p</text><text xml:space="preserve" font-family="BebasNeueCyrillic,Bebas Neue Cyrillic" font-size="180.0" fill="#00CF41" transform="matrix(1.00, 0.00, -0.00, -1.00, 428.7, 77.4)">a</text><text xml:space="preserve" font-family="BebasNeueCyrillic,Bebas Neue Cyrillic" font-size="180.0" fill="#00CF41" transform="matrix(1.00, 0.00, -0.00, -1.00, 501.9, 77.4)">g</text><text xml:space="preserve" font-family="BebasNeueCyrillic,Bebas Neue Cyrillic" font-size="180.0" fill="#00CF41" transform="matrix(1.00, 0.00, -0.00, -1.00, 572.0, 77.4)">e</text><text xml:space="preserve" font-family="BebasNeueCyrillic,Bebas Neue Cyrillic" font-size="180.0" fill="#00CF41" transform="matrix(1.00, 0.00, -0.00, -1.00, 638.1, 77.4)">s</text><text xml:space="preserve" font-family="BebasNeueCyrillic,Bebas Neue Cyrillic" font-size="180.0" fill="#00CF41" transform="matrix(1.00, 0.00, -0.00, -1.00, 705.2, 77.4)">p</text><text xml:space="preserve" font-family="BebasNeueCyrillic,Bebas Neue Cyrillic" font-size="180.0" fill="#00CF41" transform="matrix(1.00, 0.00, -0.00, -1.00, 773.1, 77.4)">e</text><text xml:space="preserve" font-family="BebasNeueCyrillic,Bebas Neue Cyrillic" font-size="180.0" fill="#00CF41" transform="matrix(1.00, 0.00, -0.00, -1.00, 839.2, 77.4)">e</text><text xml:space="preserve" font-family="BebasNeueCyrillic,Bebas Neue Cyrillic" font-size="180.0" fill="#00CF41" transform="matrix(1.00, 0.00, -0.00, -1.00, 905.4, 77.4)">d</text></g></svg>