<?xml version="1.0" encoding="UTF-8" standalone="no"?><svg xmlns="http://www.w3.org/2000/svg" xmlns:xlink="http://www.w3.org/1999/xlink" clip-rule="evenodd" stroke-miterlimit="10" viewBox="0 0 1024 768"><desc>SVG generated by Keynote</desc><defs></defs><g transform="matrix(1.00, 0.00, -0.00, -1.00, 0.0, 768.0)"><path d="M 0.0 768.0 L 1024.0 768.0 L 1024.0 0.0 L 0.0 0.0 Z M 0.0 768.0 " fill="#FEFFFE"></path><text xml:space="preserve" font-family="BebasNeueCyrillic,Bebas Neue Cyrillic" font-size="100.0" fill="#1AAFFA" transform="matrix(1.00, 0.00, -0.00, -1.00, 340.4, 631.6)">4</text><text xml:space="preserve" font-family="BebasNeueCyrillic,Bebas Neue Cyrillic" font-size="100.0" fill="#1AAFFA" transform="matrix(1.00, 0.00, -0.00, -1.00, 380.0, 631.6)">.</text><text xml:space="preserve" font-family="BebasNeueCyrillic,Bebas Neue Cyrillic" font-size="100.0" fill="#1AAFFA" transform="matrix(1.00, 0.00, -0.00, -1.00, 398.5, 631.6)"> </text><text xml:space="preserve" font-family="BebasNeueCyrillic,Bebas Neue Cyrillic" font-size="100.0" fill="#00CF41" transform="matrix(1.00, 0.00, -0.00, -1.00, 414.0, 631.6)">M</text><text xml:space="preserve" font-family="BebasNeueCyrillic,Bebas Neue Cyrillic" font-size="100.0" fill="#00CF41" transform="matrix(1.00, 0.00, -0.00, -1.00, 468.0, 631.6)">A</text><text xml:space="preserve" font-family="BebasNeueCyrillic,Bebas Neue Cyrillic" font-size="100.0" fill="#00CF41" transform="matrix(1.00, 0.00, -0.00, -1.00, 508.7, 631.6)">X</text><text xml:space="preserve" font-family="BebasNeueCyrillic,Bebas Neue Cyrillic" font-size="100.0" fill="#00CF41" transform="matrix(1.00, 0.00, -0.00, -1.00, 551.6, 631.6)"> </text><text xml:space="preserve" font-family="BebasNeueCyrillic,Bebas Neue Cyrillic" font-size="100.0" fill="#00CF41" transform="matrix(1.00, 0.00, -0.00, -1.00, 567.0, 631.6)">A</text><text xml:space="preserve" font-family="BebasNeueCyrillic,Bebas Neue Cyrillic" font-size="100.0" fill="#00CF41" transform="matrix(1.00, 0.00, -0.00, -1.00, 607.6, 631.6)">G</text><text xml:space="preserve" font-family="BebasNeueCyrillic,Bebas Neue Cyrillic" font-size="100.0" fill="#00CF41" transform="matrix(1.00, 0.00, -0.00, -1.00, 646.5, 631.6)">E</text><image xlink:href="578D68ABB5206EFDF9A3EE901319412A.png" width="936.00" height="141.00" transform="matrix(1.00, 0.00, -0.00, -1.00, 26.7, 557.8)" opacity="0.50"></image><path d="M 52.7 558.0 C 49.9 557.8 48.0 555.6 48.0 552.8 L 48.0 517.8 L 27.7 507.8 L 48.0 497.8 L 48.0 424.1 C 48.0 421.4 49.9 419.0 52.7 419.0 L 957.0 419.0 C 959.8 419.0 962.0 421.4 962.0 424.1 L 962.0 552.8 C 962.0 555.6 959.8 558.0 957.0 558.0 L 52.7 558.0 Z M 52.7 557.8 " fill="#EB5C56"></path><image xlink:href="911354CE203670F1F20EF70A78843A45.png" width="441.00" height="46.00" transform="matrix(1.00, 0.00, -0.00, -1.00, 84.0, 505.0)"></image><g><clipPath id="clip0x7fecaab92d80"><path d="M 34.8 419.2 L 974.9 419.2 L 974.9 557.8 L 34.8 557.8 Z M 34.8 419.2 "></path></clipPath><g clip-path="url(#clip0x7fecaab92d80)"><text xml:space="preserve" font-family="GillSans,Gill Sans" font-size="42.0" fill="#FEFFFF" transform="matrix(1.00, 0.00, -0.00, -1.00, 85.8, 473.2)">c</text><text xml:space="preserve" font-family="GillSans,Gill Sans" font-size="42.0" fill="#FEFFFF" transform="matrix(1.00, 0.00, -0.00, -1.00, 104.2, 473.2)">a</text><text xml:space="preserve" font-family="GillSans,Gill Sans" font-size="42.0" fill="#FEFFFF" transform="matrix(1.00, 0.00, -0.00, -1.00, 122.2, 473.2)">c</text><text xml:space="preserve" font-family="GillSans,Gill Sans" font-size="42.0" fill="#FEFFFF" transform="matrix(1.00, 0.00, -0.00, -1.00, 140.6, 473.2)">h</text><text xml:space="preserve" font-family="GillSans,Gill Sans" font-size="42.0" fill="#FEFFFF" transform="matrix(1.00, 0.00, -0.00, -1.00, 161.6, 473.2)">e</text><text xml:space="preserve" font-family="GillSans,Gill Sans" font-size="42.0" fill="#FEFFFF" transform="matrix(1.00, 0.00, -0.00, -1.00, 181.7, 473.2)">-</text><text xml:space="preserve" font-family="GillSans,Gill Sans" font-size="42.0" fill="#FEFFFF" transform="matrix(1.00, 0.00, -0.00, -1.00, 195.3, 473.2)">c</text><text xml:space="preserve" font-family="GillSans,Gill Sans" font-size="42.0" fill="#FEFFFF" transform="matrix(1.00, 0.00, -0.00, -1.00, 213.6, 473.2)">o</text><text xml:space="preserve" font-family="GillSans,Gill Sans" font-size="42.0" fill="#FEFFFF" transform="matrix(1.00, 0.00, -0.00, -1.00, 236.8, 473.2)">n</text><text xml:space="preserve" font-family="GillSans,Gill Sans" font-size="42.0" fill="#FEFFFF" transform="matrix(1.00, 0.00, -0.00, -1.00, 257.8, 473.2)">t</text><text xml:space="preserve" font-family="GillSans,Gill Sans" font-size="42.0" fill="#FEFFFF" transform="matrix(1.00, 0.00, -0.00, -1.00, 271.8, 473.2)">r</text><text xml:space="preserve" font-family="GillSans,Gill Sans" font-size="42.0" fill="#FEFFFF" transform="matrix(1.00, 0.00, -0.00, -1.00, 287.4, 473.2)">o</text><text xml:space="preserve" font-family="GillSans,Gill Sans" font-size="42.0" fill="#FEFFFF" transform="matrix(1.00, 0.00, -0.00, -1.00, 310.6, 473.2)">l</text><text xml:space="preserve" font-family="GillSans,Gill Sans" font-size="42.0" fill="#FEFFFF" transform="matrix(1.00, 0.00, -0.00, -1.00, 319.8, 473.2)">:</text><text xml:space="preserve" font-family="GillSans,Gill Sans" font-size="42.0" fill="#FEFFFF" transform="matrix(1.00, 0.00, -0.00, -1.00, 324.8, 473.2)"> </text><text xml:space="preserve" font-family="GillSans,Gill Sans" font-size="42.0" fill="#FEFFFF" transform="matrix(1.00, 0.00, -0.00, -1.00, 336.4, 473.2)">m</text><text xml:space="preserve" font-family="GillSans,Gill Sans" font-size="42.0" fill="#FEFFFF" transform="matrix(1.00, 0.00, -0.00, -1.00, 368.8, 473.2)">a</text><text xml:space="preserve" font-family="GillSans,Gill Sans" font-size="42.0" fill="#FEFFFF" transform="matrix(1.00, 0.00, -0.00, -1.00, 386.7, 473.2)">x</text><text xml:space="preserve" font-family="GillSans,Gill Sans" font-size="42.0" fill="#FEFFFF" transform="matrix(1.00, 0.00, -0.00, -1.00, 407.7, 473.2)">-</text><text xml:space="preserve" font-family="GillSans,Gill Sans" font-size="42.0" fill="#FEFFFF" transform="matrix(1.00, 0.00, -0.00, -1.00, 421.3, 473.2)">a</text><text xml:space="preserve" font-family="GillSans,Gill Sans" font-size="42.0" fill="#FEFFFF" transform="matrix(1.00, 0.00, -0.00, -1.00, 439.2, 473.2)">g</text><text xml:space="preserve" font-family="GillSans,Gill Sans" font-size="42.0" fill="#FEFFFF" transform="matrix(1.00, 0.00, -0.00, -1.00, 457.2, 473.2)">e</text><text xml:space="preserve" font-family="GillSans,Gill Sans" font-size="42.0" fill="#FEFFFF" transform="matrix(1.00, 0.00, -0.00, -1.00, 477.3, 473.2)">=</text><text xml:space="preserve" font-family="GillSans,Gill Sans" font-size="42.0" fill="#FEFFFF" transform="matrix(1.00, 0.00, -0.00, -1.00, 501.8, 473.2)">0</text></g></g><text xml:space="preserve" font-family="GillSans,Gill Sans" font-size="50.0" fill="#000000" transform="matrix(1.00, 0.00, -0.00, -1.00, 165.8, 320.3)">1</text><text xml:space="preserve" font-family="GillSans,Gill Sans" font-size="50.0" fill="#000000" transform="matrix(1.00, 0.00, -0.00, -1.00, 190.8, 320.3)"> </text><text xml:space="preserve" font-family="GillSans,Gill Sans" font-size="50.0" fill="#000000" transform="matrix(1.00, 0.00, -0.00, -1.00, 204.7, 320.3)">d</text><text xml:space="preserve" font-family="GillSans,Gill Sans" font-size="50.0" fill="#000000" transform="matrix(1.00, 0.00, -0.00, -1.00, 230.2, 320.3)">a</text><text xml:space="preserve" font-family="GillSans,Gill Sans" font-size="50.0" fill="#000000" transform="matrix(1.00, 0.00, -0.00, -1.00, 249.5, 320.3)">y</text><text xml:space="preserve" font-family="GillSans,Gill Sans" font-size="50.0" fill="#000000" transform="matrix(1.00, 0.00, -0.00, -1.00, 271.4, 320.3)"> </text><text xml:space="preserve" font-family="GillSans,Gill Sans" font-size="50.0" fill="#000000" transform="matrix(1.00, 0.00, -0.00, -1.00, 285.3, 320.3)">i</text><text xml:space="preserve" font-family="GillSans,Gill Sans" font-size="50.0" fill="#000000" transform="matrix(1.00, 0.00, -0.00, -1.00, 296.2, 320.3)">n</text><text xml:space="preserve" font-family="GillSans,Gill Sans" font-size="50.0" fill="#000000" transform="matrix(1.00, 0.00, -0.00, -1.00, 321.2, 320.3)"> </text><text xml:space="preserve" font-family="GillSans,Gill Sans" font-size="50.0" fill="#000000" transform="matrix(1.00, 0.00, -0.00, -1.00, 335.1, 320.3)">s</text><text xml:space="preserve" font-family="GillSans,Gill Sans" font-size="50.0" fill="#000000" transform="matrix(1.00, 0.00, -0.00, -1.00, 354.3, 320.3)">e</text><text xml:space="preserve" font-family="GillSans,Gill Sans" font-size="50.0" fill="#000000" transform="matrix(1.00, 0.00, -0.00, -1.00, 378.3, 320.3)">c</text><text xml:space="preserve" font-family="GillSans,Gill Sans" font-size="50.0" fill="#000000" transform="matrix(1.00, 0.00, -0.00, -1.00, 400.2, 320.3)">o</text><text xml:space="preserve" font-family="GillSans,Gill Sans" font-size="50.0" fill="#000000" transform="matrix(1.00, 0.00, -0.00, -1.00, 427.8, 320.3)">n</text><text xml:space="preserve" font-family="GillSans,Gill Sans" font-size="50.0" fill="#000000" transform="matrix(1.00, 0.00, -0.00, -1.00, 452.8, 320.3)">d</text><text xml:space="preserve" font-family="GillSans,Gill Sans" font-size="50.0" fill="#000000" transform="matrix(1.00, 0.00, -0.00, -1.00, 478.3, 320.3)">s</text><text xml:space="preserve" font-family="GillSans,Gill Sans" font-size="50.0" fill="#000000" transform="matrix(1.00, 0.00, -0.00, -1.00, 497.5, 320.3)"> </text><text xml:space="preserve" font-family="GillSans,Gill Sans" font-size="50.0" fill="#000000" transform="matrix(1.00, 0.00, -0.00, -1.00, 511.4, 320.3)">=</text><text xml:space="preserve" font-family="GillSans,Gill Sans" font-size="50.0" fill="#000000" transform="matrix(1.00, 0.00, -0.00, -1.00, 540.6, 320.3)"> </text><text xml:space="preserve" font-family="GillSans,Gill Sans" font-size="50.0" fill="#000000" transform="matrix(1.00, 0.00, -0.00, -1.00, 554.4, 320.3)">8</text><text xml:space="preserve" font-family="GillSans,Gill Sans" font-size="50.0" fill="#000000" transform="matrix(1.00, 0.00, -0.00, -1.00, 579.4, 320.3)">6</text><text xml:space="preserve" font-family="GillSans,Gill Sans" font-size="50.0" fill="#000000" transform="matrix(1.00, 0.00, -0.00, -1.00, 604.4, 320.3)">4</text><text xml:space="preserve" font-family="GillSans,Gill Sans" font-size="50.0" fill="#000000" transform="matrix(1.00, 0.00, -0.00, -1.00, 629.4, 320.3)">0</text><text xml:space="preserve" font-family="GillSans,Gill Sans" font-size="50.0" fill="#000000" transform="matrix(1.00, 0.00, -0.00, -1.00, 654.4, 320.3)">0</text><text xml:space="preserve" font-family="GillSans,Gill Sans" font-size="50.0" fill="#000000" transform="matrix(1.00, 0.00, -0.00, -1.00, 165.8, 262.3)">1</text><text xml:space="preserve" font-family="GillSans,Gill Sans" font-size="50.0" fill="#000000" transform="matrix(1.00, 0.00, -0.00, -1.00, 190.8, 262.3)"> </text><text xml:space="preserve" font-family="GillSans,Gill Sans" font-size="50.0" fill="#000000" transform="matrix(1.00, 0.00, -0.00, -1.00, 204.7, 262.3)">w</text><text xml:space="preserve" font-family="GillSans,Gill Sans" font-size="50.0" fill="#000000" transform="matrix(1.00, 0.00, -0.00, -1.00, 239.7, 262.3)">e</text><text xml:space="preserve" font-family="GillSans,Gill Sans" font-size="50.0" fill="#000000" transform="matrix(1.00, 0.00, -0.00, -1.00, 263.6, 262.3)">e</text><text xml:space="preserve" font-family="GillSans,Gill Sans" font-size="50.0" fill="#000000" transform="matrix(1.00, 0.00, -0.00, -1.00, 287.6, 262.3)">k</text><text xml:space="preserve" font-family="GillSans,Gill Sans" font-size="50.0" fill="#000000" transform="matrix(1.00, 0.00, -0.00, -1.00, 311.5, 262.3)"> </text><text xml:space="preserve" font-family="GillSans,Gill Sans" font-size="50.0" fill="#000000" transform="matrix(1.00, 0.00, -0.00, -1.00, 325.4, 262.3)">i</text><text xml:space="preserve" font-family="GillSans,Gill Sans" font-size="50.0" fill="#000000" transform="matrix(1.00, 0.00, -0.00, -1.00, 336.4, 262.3)">n</text><text xml:space="preserve" font-family="GillSans,Gill Sans" font-size="50.0" fill="#000000" transform="matrix(1.00, 0.00, -0.00, -1.00, 361.4, 262.3)"> </text><text xml:space="preserve" font-family="GillSans,Gill Sans" font-size="50.0" fill="#000000" transform="matrix(1.00, 0.00, -0.00, -1.00, 375.2, 262.3)">s</text><text xml:space="preserve" font-family="GillSans,Gill Sans" font-size="50.0" fill="#000000" transform="matrix(1.00, 0.00, -0.00, -1.00, 394.5, 262.3)">e</text><text xml:space="preserve" font-family="GillSans,Gill Sans" font-size="50.0" fill="#000000" transform="matrix(1.00, 0.00, -0.00, -1.00, 418.4, 262.3)">c</text><text xml:space="preserve" font-family="GillSans,Gill Sans" font-size="50.0" fill="#000000" transform="matrix(1.00, 0.00, -0.00, -1.00, 440.3, 262.3)">o</text><text xml:space="preserve" font-family="GillSans,Gill Sans" font-size="50.0" fill="#000000" transform="matrix(1.00, 0.00, -0.00, -1.00, 467.9, 262.3)">n</text><text xml:space="preserve" font-family="GillSans,Gill Sans" font-size="50.0" fill="#000000" transform="matrix(1.00, 0.00, -0.00, -1.00, 492.9, 262.3)">d</text><text xml:space="preserve" font-family="GillSans,Gill Sans" font-size="50.0" fill="#000000" transform="matrix(1.00, 0.00, -0.00, -1.00, 518.4, 262.3)">s</text><text xml:space="preserve" font-family="GillSans,Gill Sans" font-size="50.0" fill="#000000" transform="matrix(1.00, 0.00, -0.00, -1.00, 537.6, 262.3)"> </text><text xml:space="preserve" font-family="GillSans,Gill Sans" font-size="50.0" fill="#000000" transform="matrix(1.00, 0.00, -0.00, -1.00, 551.5, 262.3)">=</text><text xml:space="preserve" font-family="GillSans,Gill Sans" font-size="50.0" fill="#000000" transform="matrix(1.00, 0.00, -0.00, -1.00, 580.7, 262.3)"> </text><text xml:space="preserve" font-family="GillSans,Gill Sans" font-size="50.0" fill="#000000" transform="matrix(1.00, 0.00, -0.00, -1.00, 594.6, 262.3)">6</text><text xml:space="preserve" font-family="GillSans,Gill Sans" font-size="50.0" fill="#000000" transform="matrix(1.00, 0.00, -0.00, -1.00, 619.6, 262.3)">0</text><text xml:space="preserve" font-family="GillSans,Gill Sans" font-size="50.0" fill="#000000" transform="matrix(1.00, 0.00, -0.00, -1.00, 644.6, 262.3)">4</text><text xml:space="preserve" font-family="GillSans,Gill Sans" font-size="50.0" fill="#000000" transform="matrix(1.00, 0.00, -0.00, -1.00, 669.6, 262.3)">8</text><text xml:space="preserve" font-family="GillSans,Gill Sans" font-size="50.0" fill="#000000" transform="matrix(1.00, 0.00, -0.00, -1.00, 694.6, 262.3)">0</text><text xml:space="preserve" font-family="GillSans,Gill Sans" font-size="50.0" fill="#000000" transform="matrix(1.00, 0.00, -0.00, -1.00, 719.6, 262.3)">0</text><text xml:space="preserve" font-family="GillSans,Gill Sans" font-size="50.0" fill="#000000" transform="matrix(1.00, 0.00, -0.00, -1.00, 165.8, 204.3)">1</text><text xml:space="preserve" font-family="GillSans,Gill Sans" font-size="50.0" fill="#000000" transform="matrix(1.00, 0.00, -0.00, -1.00, 190.8, 204.3)"> </text><text xml:space="preserve" font-family="GillSans,Gill Sans" font-size="50.0" fill="#000000" transform="matrix(1.00, 0.00, -0.00, -1.00, 204.7, 204.3)">m</text><text xml:space="preserve" font-family="GillSans,Gill Sans" font-size="50.0" fill="#000000" transform="matrix(1.00, 0.00, -0.00, -1.00, 243.2, 204.3)">o</text><text xml:space="preserve" font-family="GillSans,Gill Sans" font-size="50.0" fill="#000000" transform="matrix(1.00, 0.00, -0.00, -1.00, 270.8, 204.3)">n</text><text xml:space="preserve" font-family="GillSans,Gill Sans" font-size="50.0" fill="#000000" transform="matrix(1.00, 0.00, -0.00, -1.00, 295.8, 204.3)">t</text><text xml:space="preserve" font-family="GillSans,Gill Sans" font-size="50.0" fill="#000000" transform="matrix(1.00, 0.00, -0.00, -1.00, 312.5, 204.3)">h</text><text xml:space="preserve" font-family="GillSans,Gill Sans" font-size="50.0" fill="#000000" transform="matrix(1.00, 0.00, -0.00, -1.00, 337.5, 204.3)"> </text><text xml:space="preserve" font-family="GillSans,Gill Sans" font-size="50.0" fill="#000000" transform="matrix(1.00, 0.00, -0.00, -1.00, 351.3, 204.3)">i</text><text xml:space="preserve" font-family="GillSans,Gill Sans" font-size="50.0" fill="#000000" transform="matrix(1.00, 0.00, -0.00, -1.00, 362.3, 204.3)">n</text><text xml:space="preserve" font-family="GillSans,Gill Sans" font-size="50.0" fill="#000000" transform="matrix(1.00, 0.00, -0.00, -1.00, 387.3, 204.3)"> </text><text xml:space="preserve" font-family="GillSans,Gill Sans" font-size="50.0" fill="#000000" transform="matrix(1.00, 0.00, -0.00, -1.00, 401.2, 204.3)">s</text><text xml:space="preserve" font-family="GillSans,Gill Sans" font-size="50.0" fill="#000000" transform="matrix(1.00, 0.00, -0.00, -1.00, 420.4, 204.3)">e</text><text xml:space="preserve" font-family="GillSans,Gill Sans" font-size="50.0" fill="#000000" transform="matrix(1.00, 0.00, -0.00, -1.00, 444.4, 204.3)">c</text><text xml:space="preserve" font-family="GillSans,Gill Sans" font-size="50.0" fill="#000000" transform="matrix(1.00, 0.00, -0.00, -1.00, 466.3, 204.3)">o</text><text xml:space="preserve" font-family="GillSans,Gill Sans" font-size="50.0" fill="#000000" transform="matrix(1.00, 0.00, -0.00, -1.00, 493.9, 204.3)">n</text><text xml:space="preserve" font-family="GillSans,Gill Sans" font-size="50.0" fill="#000000" transform="matrix(1.00, 0.00, -0.00, -1.00, 518.9, 204.3)">d</text><text xml:space="preserve" font-family="GillSans,Gill Sans" font-size="50.0" fill="#000000" transform="matrix(1.00, 0.00, -0.00, -1.00, 544.3, 204.3)">s</text><text xml:space="preserve" font-family="GillSans,Gill Sans" font-size="50.0" fill="#000000" transform="matrix(1.00, 0.00, -0.00, -1.00, 563.6, 204.3)"> </text><text xml:space="preserve" font-family="GillSans,Gill Sans" font-size="50.0" fill="#000000" transform="matrix(1.00, 0.00, -0.00, -1.00, 577.4, 204.3)">=</text><text xml:space="preserve" font-family="GillSans,Gill Sans" font-size="50.0" fill="#000000" transform="matrix(1.00, 0.00, -0.00, -1.00, 606.6, 204.3)"> </text><text xml:space="preserve" font-family="GillSans,Gill Sans" font-size="50.0" fill="#000000" transform="matrix(1.00, 0.00, -0.00, -1.00, 620.5, 204.3)">2</text><text xml:space="preserve" font-family="GillSans,Gill Sans" font-size="50.0" fill="#000000" transform="matrix(1.00, 0.00, -0.00, -1.00, 645.5, 204.3)">6</text><text xml:space="preserve" font-family="GillSans,Gill Sans" font-size="50.0" fill="#000000" transform="matrix(1.00, 0.00, -0.00, -1.00, 670.5, 204.3)">2</text><text xml:space="preserve" font-family="GillSans,Gill Sans" font-size="50.0" fill="#000000" transform="matrix(1.00, 0.00, -0.00, -1.00, 695.5, 204.3)">9</text><text xml:space="preserve" font-family="GillSans,Gill Sans" font-size="50.0" fill="#000000" transform="matrix(1.00, 0.00, -0.00, -1.00, 720.5, 204.3)">0</text><text xml:space="preserve" font-family="GillSans,Gill Sans" font-size="50.0" fill="#000000" transform="matrix(1.00, 0.00, -0.00, -1.00, 745.5, 204.3)">0</text><text xml:space="preserve" font-family="GillSans,Gill Sans" font-size="50.0" fill="#000000" transform="matrix(1.00, 0.00, -0.00, -1.00, 770.5, 204.3)">0</text><text xml:space="preserve" font-family="GillSans,Gill Sans" font-size="50.0" fill="#000000" transform="matrix(1.00, 0.00, -0.00, -1.00, 165.8, 146.3)">1</text><text xml:space="preserve" font-family="GillSans,Gill Sans" font-size="50.0" fill="#000000" transform="matrix(1.00, 0.00, -0.00, -1.00, 190.8, 146.3)"> </text><text xml:space="preserve" font-family="GillSans,Gill Sans" font-size="50.0" fill="#000000" transform="matrix(1.00, 0.00, -0.00, -1.00, 204.7, 146.3)">y</text><text xml:space="preserve" font-family="GillSans,Gill Sans" font-size="50.0" fill="#000000" transform="matrix(1.00, 0.00, -0.00, -1.00, 225.6, 146.3)">e</text><text xml:space="preserve" font-family="GillSans,Gill Sans" font-size="50.0" fill="#000000" transform="matrix(1.00, 0.00, -0.00, -1.00, 249.5, 146.3)">a</text><text xml:space="preserve" font-family="GillSans,Gill Sans" font-size="50.0" fill="#000000" transform="matrix(1.00, 0.00, -0.00, -1.00, 270.9, 146.3)">r</text><text xml:space="preserve" font-family="GillSans,Gill Sans" font-size="50.0" fill="#000000" transform="matrix(1.00, 0.00, -0.00, -1.00, 290.7, 146.3)"> </text><text xml:space="preserve" font-family="GillSans,Gill Sans" font-size="50.0" fill="#000000" transform="matrix(1.00, 0.00, -0.00, -1.00, 304.5, 146.3)">i</text><text xml:space="preserve" font-family="GillSans,Gill Sans" font-size="50.0" fill="#000000" transform="matrix(1.00, 0.00, -0.00, -1.00, 315.5, 146.3)">n</text><text xml:space="preserve" font-family="GillSans,Gill Sans" font-size="50.0" fill="#000000" transform="matrix(1.00, 0.00, -0.00, -1.00, 340.5, 146.3)"> </text><text xml:space="preserve" font-family="GillSans,Gill Sans" font-size="50.0" fill="#000000" transform="matrix(1.00, 0.00, -0.00, -1.00, 354.4, 146.3)">s</text><text xml:space="preserve" font-family="GillSans,Gill Sans" font-size="50.0" fill="#000000" transform="matrix(1.00, 0.00, -0.00, -1.00, 373.6, 146.3)">e</text><text xml:space="preserve" font-family="GillSans,Gill Sans" font-size="50.0" fill="#000000" transform="matrix(1.00, 0.00, -0.00, -1.00, 397.6, 146.3)">c</text><text xml:space="preserve" font-family="GillSans,Gill Sans" font-size="50.0" fill="#000000" transform="matrix(1.00, 0.00, -0.00, -1.00, 419.5, 146.3)">o</text><text xml:space="preserve" font-family="GillSans,Gill Sans" font-size="50.0" fill="#000000" transform="matrix(1.00, 0.00, -0.00, -1.00, 447.1, 146.3)">n</text><text xml:space="preserve" font-family="GillSans,Gill Sans" font-size="50.0" fill="#000000" transform="matrix(1.00, 0.00, -0.00, -1.00, 472.1, 146.3)">d</text><text xml:space="preserve" font-family="GillSans,Gill Sans" font-size="50.0" fill="#000000" transform="matrix(1.00, 0.00, -0.00, -1.00, 497.5, 146.3)">s</text><text xml:space="preserve" font-family="GillSans,Gill Sans" font-size="50.0" fill="#000000" transform="matrix(1.00, 0.00, -0.00, -1.00, 516.8, 146.3)"> </text><text xml:space="preserve" font-family="GillSans,Gill Sans" font-size="50.0" fill="#000000" transform="matrix(1.00, 0.00, -0.00, -1.00, 530.6, 146.3)">=</text><text xml:space="preserve" font-family="GillSans,Gill Sans" font-size="50.0" fill="#000000" transform="matrix(1.00, 0.00, -0.00, -1.00, 559.8, 146.3)"> </text><text xml:space="preserve" font-family="GillSans,Gill Sans" font-size="50.0" fill="#000000" transform="matrix(1.00, 0.00, -0.00, -1.00, 573.7, 146.3)">3</text><text xml:space="preserve" font-family="GillSans,Gill Sans" font-size="50.0" fill="#000000" transform="matrix(1.00, 0.00, -0.00, -1.00, 598.7, 146.3)">1</text><text xml:space="preserve" font-family="GillSans,Gill Sans" font-size="50.0" fill="#000000" transform="matrix(1.00, 0.00, -0.00, -1.00, 623.7, 146.3)">5</text><text xml:space="preserve" font-family="GillSans,Gill Sans" font-size="50.0" fill="#000000" transform="matrix(1.00, 0.00, -0.00, -1.00, 648.7, 146.3)">3</text><text xml:space="preserve" font-family="GillSans,Gill Sans" font-size="50.0" fill="#000000" transform="matrix(1.00, 0.00, -0.00, -1.00, 673.7, 146.3)">6</text><text xml:space="preserve" font-family="GillSans,Gill Sans" font-size="50.0" fill="#000000" transform="matrix(1.00, 0.00, -0.00, -1.00, 698.7, 146.3)">0</text><text xml:space="preserve" font-family="GillSans,Gill Sans" font-size="50.0" fill="#000000" transform="matrix(1.00, 0.00, -0.00, -1.00, 723.7, 146.3)">0</text><text xml:space="preserve" font-family="GillSans,Gill Sans" font-size="50.0" fill="#000000" transform="matrix(1.00, 0.00, -0.00, -1.00, 748.7, 146.3)">0</text><text xml:space="preserve" font-family="GillSans,Gill Sans" font-size="50.0" fill="#000000" transform="matrix(1.00, 0.00, -0.00, -1.00, 773.7, 146.3)"> </text><text xml:space="preserve" font-family="GillSans,Gill Sans" font-size="50.0" fill="#000000" transform="matrix(1.00, 0.00, -0.00, -1.00, 165.8, 88.3)">(</text><text xml:space="preserve" font-family="GillSans,Gill Sans" font-size="50.0" fill="#000000" transform="matrix(1.00, 0.00, -0.00, -1.00, 182.0, 88.3)">e</text><text xml:space="preserve" font-family="GillSans,Gill Sans" font-size="50.0" fill="#000000" transform="matrix(1.00, 0.00, -0.00, -1.00, 205.9, 88.3)">f</text><text xml:space="preserve" font-family="GillSans,Gill Sans" font-size="50.0" fill="#000000" transform="matrix(1.00, 0.00, -0.00, -1.00, 218.4, 88.3)">f</text><text xml:space="preserve" font-family="GillSans,Gill Sans" font-size="50.0" fill="#000000" transform="matrix(1.00, 0.00, -0.00, -1.00, 230.4, 88.3)">e</text><text xml:space="preserve" font-family="GillSans,Gill Sans" font-size="50.0" fill="#000000" transform="matrix(1.00, 0.00, -0.00, -1.00, 254.4, 88.3)">c</text><text xml:space="preserve" font-family="GillSans,Gill Sans" font-size="50.0" fill="#000000" transform="matrix(1.00, 0.00, -0.00, -1.00, 276.3, 88.3)">t</text><text xml:space="preserve" font-family="GillSans,Gill Sans" font-size="50.0" fill="#000000" transform="matrix(1.00, 0.00, -0.00, -1.00, 292.9, 88.3)">i</text><text xml:space="preserve" font-family="GillSans,Gill Sans" font-size="50.0" fill="#000000" transform="matrix(1.00, 0.00, -0.00, -1.00, 303.9, 88.3)">v</text><text xml:space="preserve" font-family="GillSans,Gill Sans" font-size="50.0" fill="#000000" transform="matrix(1.00, 0.00, -0.00, -1.00, 324.8, 88.3)">e</text><text xml:space="preserve" font-family="GillSans,Gill Sans" font-size="50.0" fill="#000000" transform="matrix(1.00, 0.00, -0.00, -1.00, 348.8, 88.3)">l</text><text xml:space="preserve" font-family="GillSans,Gill Sans" font-size="50.0" fill="#000000" transform="matrix(1.00, 0.00, -0.00, -1.00, 359.2, 88.3)">y</text><text xml:space="preserve" font-family="GillSans,Gill Sans" font-size="50.0" fill="#000000" transform="matrix(1.00, 0.00, -0.00, -1.00, 381.1, 88.3)"> </text><text xml:space="preserve" font-family="GillSans,Gill Sans" font-size="50.0" fill="#000000" transform="matrix(1.00, 0.00, -0.00, -1.00, 395.0, 88.3)">i</text><text xml:space="preserve" font-family="GillSans,Gill Sans" font-size="50.0" fill="#000000" transform="matrix(1.00, 0.00, -0.00, -1.00, 406.0, 88.3)">n</text><text xml:space="preserve" font-family="GillSans,Gill Sans" font-size="50.0" fill="#000000" transform="matrix(1.00, 0.00, -0.00, -1.00, 431.0, 88.3)">ﬁ</text><text xml:space="preserve" font-family="GillSans,Gill Sans" font-size="50.0" fill="#000000" transform="matrix(1.00, 0.00, -0.00, -1.00, 456.0, 88.3)">n</text><text xml:space="preserve" font-family="GillSans,Gill Sans" font-size="50.0" fill="#000000" transform="matrix(1.00, 0.00, -0.00, -1.00, 481.0, 88.3)">i</text><text xml:space="preserve" font-family="GillSans,Gill Sans" font-size="50.0" fill="#000000" transform="matrix(1.00, 0.00, -0.00, -1.00, 492.0, 88.3)">t</text><text xml:space="preserve" font-family="GillSans,Gill Sans" font-size="50.0" fill="#000000" transform="matrix(1.00, 0.00, -0.00, -1.00, 508.6, 88.3)">e</text><text xml:space="preserve" font-family="GillSans,Gill Sans" font-size="50.0" fill="#000000" transform="matrix(1.00, 0.00, -0.00, -1.00, 532.6, 88.3)"> </text><text xml:space="preserve" font-family="GillSans,Gill Sans" font-size="50.0" fill="#000000" transform="matrix(1.00, 0.00, -0.00, -1.00, 546.4, 88.3)">o</text><text xml:space="preserve" font-family="GillSans,Gill Sans" font-size="50.0" fill="#000000" transform="matrix(1.00, 0.00, -0.00, -1.00, 574.0, 88.3)">n</text><text xml:space="preserve" font-family="GillSans,Gill Sans" font-size="50.0" fill="#000000" transform="matrix(1.00, 0.00, -0.00, -1.00, 599.0, 88.3)"> </text><text xml:space="preserve" font-family="GillSans,Gill Sans" font-size="50.0" fill="#000000" transform="matrix(1.00, 0.00, -0.00, -1.00, 612.9, 88.3)">i</text><text xml:space="preserve" font-family="GillSans,Gill Sans" font-size="50.0" fill="#000000" transform="matrix(1.00, 0.00, -0.00, -1.00, 623.9, 88.3)">n</text><text xml:space="preserve" font-family="GillSans,Gill Sans" font-size="50.0" fill="#000000" transform="matrix(1.00, 0.00, -0.00, -1.00, 648.9, 88.3)">t</text><text xml:space="preserve" font-family="GillSans,Gill Sans" font-size="50.0" fill="#000000" transform="matrix(1.00, 0.00, -0.00, -1.00, 665.5, 88.3)">e</text><text xml:space="preserve" font-family="GillSans,Gill Sans" font-size="50.0" fill="#000000" transform="matrix(1.00, 0.00, -0.00, -1.00, 689.5, 88.3)">r</text><text xml:space="preserve" font-family="GillSans,Gill Sans" font-size="50.0" fill="#000000" transform="matrix(1.00, 0.00, -0.00, -1.00, 709.3, 88.3)">n</text><text xml:space="preserve" font-family="GillSans,Gill Sans" font-size="50.0" fill="#000000" transform="matrix(1.00, 0.00, -0.00, -1.00, 734.3, 88.3)">e</text><text xml:space="preserve" font-family="GillSans,Gill Sans" font-size="50.0" fill="#000000" transform="matrix(1.00, 0.00, -0.00, -1.00, 758.2, 88.3)">t</text><text xml:space="preserve" font-family="GillSans,Gill Sans" font-size="50.0" fill="#000000" transform="matrix(1.00, 0.00, -0.00, -1.00, 774.9, 88.3)"> </text><text xml:space="preserve" font-family="GillSans,Gill Sans" font-size="50.0" fill="#000000" transform="matrix(1.00, 0.00, -0.00, -1.00, 788.8, 88.3)">t</text><text xml:space="preserve" font-family="GillSans,Gill Sans" font-size="50.0" fill="#000000" transform="matrix(1.00, 0.00, -0.00, -1.00, 805.4, 88.3)">i</text><text xml:space="preserve" font-family="GillSans,Gill Sans" font-size="50.0" fill="#000000" transform="matrix(1.00, 0.00, -0.00, -1.00, 816.4, 88.3)">m</text><text xml:space="preserve" font-family="GillSans,Gill Sans" font-size="50.0" fill="#000000" transform="matrix(1.00, 0.00, -0.00, -1.00, 854.9, 88.3)">e</text><text xml:space="preserve" font-family="GillSans,Gill Sans" font-size="50.0" fill="#000000" transform="matrix(1.00, 0.00, -0.00, -1.00, 878.9, 88.3)">)</text></g></svg>