<?xml version="1.0" encoding="UTF-8" standalone="no"?><svg xmlns="http://www.w3.org/2000/svg" xmlns:xlink="http://www.w3.org/1999/xlink" clip-rule="evenodd" stroke-miterlimit="10" viewBox="0 0 1024 768"><desc>SVG generated by Keynote</desc><defs></defs><g transform="matrix(1.00, 0.00, -0.00, -1.00, 0.0, 768.0)"><g><clipPath id="clip0x7feca95cc8b0"><path d="M 0.0 768.0 L 1024.0 768.0 L 1024.0 0.0 L 0.0 0.0 Z M 0.0 768.0 "></path></clipPath><g clip-path="url(#clip0x7feca95cc8b0)"><image xlink:href="../../D65291DE-E52B-48DA-BF23-32852F1E7222/assets/716D123BC9C8A5783E3659E49C5D5E27.png" width="1280.00" height="720.00" transform="matrix(1.07, 0.00, -0.00, -1.07, -170.7, 768.0)"></image></g></g><text xml:space="preserve" font-family="BebasNeueCyrillic,Bebas Neue Cyrillic" font-size="250.0" fill="#FEFFFE" transform="matrix(1.00, 0.00, -0.00, -1.00, 322.9, 410.0)">L</text><text xml:space="preserve" font-family="BebasNeueCyrillic,Bebas Neue Cyrillic" font-size="250.0" fill="#FEFFFE" transform="matrix(1.00, 0.00, -0.00, -1.00, 408.0, 410.0)">a</text><text xml:space="preserve" font-family="BebasNeueCyrillic,Bebas Neue Cyrillic" font-size="250.0" fill="#FEFFFE" transform="matrix(1.00, 0.00, -0.00, -1.00, 509.6, 410.0)">z</text><text xml:space="preserve" font-family="BebasNeueCyrillic,Bebas Neue Cyrillic" font-size="250.0" fill="#FEFFFE" transform="matrix(1.00, 0.00, -0.00, -1.00, 602.0, 410.0)">y</text><text xml:space="preserve" font-family="BebasNeueCyrillic,Bebas Neue Cyrillic" font-size="150.0" fill="#FEFFFE" transform="matrix(1.00, 0.00, -0.00, -1.00, 701.1, 410.0)"> </text><text xml:space="preserve" font-family="BebasNeueCyrillic,Bebas Neue Cyrillic" font-size="150.0" fill="#FEFFFE" transform="matrix(1.00, 0.00, -0.00, -1.00, 724.3, 410.0)"> </text><text xml:space="preserve" font-family="BebasNeueCyrillic,Bebas Neue Cyrillic" font-size="150.0" fill="#F9F600" transform="matrix(1.00, 0.00, -0.00, -1.00, 284.4, 166.3)">l</text><text xml:space="preserve" font-family="BebasNeueCyrillic,Bebas Neue Cyrillic" font-size="150.0" fill="#F9F600" transform="matrix(1.00, 0.00, -0.00, -1.00, 335.5, 166.3)">o</text><text xml:space="preserve" font-family="BebasNeueCyrillic,Bebas Neue Cyrillic" font-size="150.0" fill="#F9F600" transform="matrix(1.00, 0.00, -0.00, -1.00, 394.9, 166.3)">a</text><text xml:space="preserve" font-family="BebasNeueCyrillic,Bebas Neue Cyrillic" font-size="150.0" fill="#F9F600" transform="matrix(1.00, 0.00, -0.00, -1.00, 455.8, 166.3)">d</text><text xml:space="preserve" font-family="BebasNeueCyrillic,Bebas Neue Cyrillic" font-size="150.0" fill="#F9F600" transform="matrix(1.00, 0.00, -0.00, -1.00, 516.9, 166.3)">i</text><text xml:space="preserve" font-family="BebasNeueCyrillic,Bebas Neue Cyrillic" font-size="150.0" fill="#F9F600" transform="matrix(1.00, 0.00, -0.00, -1.00, 545.4, 166.3)">n</text><text xml:space="preserve" font-family="BebasNeueCyrillic,Bebas Neue Cyrillic" font-size="150.0" fill="#F9F600" transform="matrix(1.00, 0.00, -0.00, -1.00, 609.4, 166.3)">g</text><text xml:space="preserve" font-family="BebasNeueCyrillic,Bebas Neue Cyrillic" font-size="150.0" fill="#F9F600" transform="matrix(1.00, 0.00, -0.00, -1.00, 667.8, 166.3)">…</text></g></svg>