<?xml version="1.0" encoding="UTF-8" standalone="no"?><svg xmlns="http://www.w3.org/2000/svg" xmlns:xlink="http://www.w3.org/1999/xlink" clip-rule="evenodd" stroke-miterlimit="10" viewBox="0 0 1024 768"><desc>SVG generated by Keynote</desc><defs></defs><g transform="matrix(1.00, 0.00, -0.00, -1.00, 0.0, 768.0)"><g><clipPath id="clip0x7feca96eede0"><path d="M 0.0 768.0 L 1024.0 768.0 L 1024.0 0.0 L 0.0 0.0 Z M 0.0 768.0 "></path></clipPath><g clip-path="url(#clip0x7feca96eede0)"><image xlink:href="../../D65291DE-E52B-48DA-BF23-32852F1E7222/assets/716D123BC9C8A5783E3659E49C5D5E27.png" width="1280.00" height="720.00" transform="matrix(1.07, 0.00, -0.00, -1.07, -170.7, 768.0)"></image></g></g><text xml:space="preserve" font-family="BebasNeueCyrillic,Bebas Neue Cyrillic" font-size="320.0" fill="#F9F600" transform="matrix(1.00, 0.00, -0.00, -1.00, 196.4, 286.7)">C</text><text xml:space="preserve" font-family="BebasNeueCyrillic,Bebas Neue Cyrillic" font-size="320.0" fill="#F9F600" transform="matrix(1.00, 0.00, -0.00, -1.00, 319.7, 286.7)">a</text><text xml:space="preserve" font-family="BebasNeueCyrillic,Bebas Neue Cyrillic" font-size="320.0" fill="#F9F600" transform="matrix(1.00, 0.00, -0.00, -1.00, 449.8, 286.7)">c</text><text xml:space="preserve" font-family="BebasNeueCyrillic,Bebas Neue Cyrillic" font-size="320.0" fill="#F9F600" transform="matrix(1.00, 0.00, -0.00, -1.00, 573.1, 286.7)">h</text><text xml:space="preserve" font-family="BebasNeueCyrillic,Bebas Neue Cyrillic" font-size="320.0" fill="#F9F600" transform="matrix(1.00, 0.00, -0.00, -1.00, 709.6, 286.7)">e</text><text xml:space="preserve" font-family="BebasNeueCyrillic,Bebas Neue Cyrillic" font-size="320.0" fill="#F9F600" transform="matrix(1.00, 0.00, -0.00, -1.00, 827.6, 286.7)"> </text></g></svg>