<?xml version="1.0" encoding="UTF-8" standalone="no"?><svg xmlns="http://www.w3.org/2000/svg" xmlns:xlink="http://www.w3.org/1999/xlink" clip-rule="evenodd" stroke-miterlimit="10" viewBox="0 0 1024 768"><desc>SVG generated by Keynote</desc><defs></defs><g transform="matrix(1.00, 0.00, -0.00, -1.00, 0.0, 768.0)"><path d="M 0.0 768.0 L 1024.0 768.0 L 1024.0 0.0 L 0.0 0.0 Z M 0.0 768.0 " fill="#FEFFFE"></path><text xml:space="preserve" font-family="GillSans,Gill Sans" font-size="38.0" fill="#000000" transform="matrix(1.00, 0.00, -0.00, -1.00, 53.3, 700.8)">s</text><text xml:space="preserve" font-family="GillSans,Gill Sans" font-size="38.0" fill="#000000" transform="matrix(1.00, 0.00, -0.00, -1.00, 67.9, 700.8)">e</text><text xml:space="preserve" font-family="GillSans,Gill Sans" font-size="38.0" fill="#000000" transform="matrix(1.00, 0.00, -0.00, -1.00, 86.1, 700.8)">r</text><text xml:space="preserve" font-family="GillSans,Gill Sans" font-size="38.0" fill="#000000" transform="matrix(1.00, 0.00, -0.00, -1.00, 102.3, 700.8)">v</text><text xml:space="preserve" font-family="GillSans,Gill Sans" font-size="38.0" fill="#000000" transform="matrix(1.00, 0.00, -0.00, -1.00, 118.2, 700.8)">e</text><text xml:space="preserve" font-family="GillSans,Gill Sans" font-size="38.0" fill="#000000" transform="matrix(1.00, 0.00, -0.00, -1.00, 136.4, 700.8)">r</text><text xml:space="preserve" font-family="GillSans,Gill Sans" font-size="38.0" fill="#000000" transform="matrix(1.00, 0.00, -0.00, -1.00, 151.5, 700.8)"> </text><text xml:space="preserve" font-family="GillSans,Gill Sans" font-size="38.0" fill="#000000" transform="matrix(1.00, 0.00, -0.00, -1.00, 162.0, 700.8)">{</text><text xml:space="preserve" font-family="GillSans,Gill Sans" font-size="38.0" fill="#000000" transform="matrix(1.00, 0.00, -0.00, -1.00, 53.3, 656.8)"> </text><text xml:space="preserve" font-family="GillSans,Gill Sans" font-size="38.0" fill="#000000" transform="matrix(1.00, 0.00, -0.00, -1.00, 63.9, 656.8)"> </text><text xml:space="preserve" font-family="GillSans,Gill Sans" font-size="38.0" fill="#000000" transform="matrix(1.00, 0.00, -0.00, -1.00, 74.4, 656.8)"> </text><text xml:space="preserve" font-family="GillSans,Gill Sans" font-size="38.0" fill="#000000" transform="matrix(1.00, 0.00, -0.00, -1.00, 85.0, 656.8)"> </text><text xml:space="preserve" font-family="GillSans,Gill Sans" font-size="38.0" fill="#000000" transform="matrix(1.00, 0.00, -0.00, -1.00, 53.3, 612.8)"> </text><text xml:space="preserve" font-family="GillSans,Gill Sans" font-size="38.0" fill="#000000" transform="matrix(1.00, 0.00, -0.00, -1.00, 63.9, 612.8)"> </text><text xml:space="preserve" font-family="GillSans,Gill Sans" font-size="38.0" fill="#000000" transform="matrix(1.00, 0.00, -0.00, -1.00, 74.4, 612.8)"> </text><text xml:space="preserve" font-family="GillSans,Gill Sans" font-size="38.0" fill="#000000" transform="matrix(1.00, 0.00, -0.00, -1.00, 85.0, 612.8)"> </text><text xml:space="preserve" font-family="GillSans,Gill Sans" font-size="38.0" fill="#000000" transform="matrix(1.00, 0.00, -0.00, -1.00, 95.5, 612.8)">.</text><text xml:space="preserve" font-family="GillSans,Gill Sans" font-size="38.0" fill="#000000" transform="matrix(1.00, 0.00, -0.00, -1.00, 103.9, 612.8)">.</text><text xml:space="preserve" font-family="GillSans,Gill Sans" font-size="38.0" fill="#000000" transform="matrix(1.00, 0.00, -0.00, -1.00, 112.2, 612.8)">.</text><text xml:space="preserve" font-family="GillSans,Gill Sans" font-size="38.0" fill="#FF3156" transform="matrix(1.00, 0.00, -0.00, -1.00, 53.3, 480.8)"> </text><text xml:space="preserve" font-family="GillSans,Gill Sans" font-size="38.0" fill="#FF3156" transform="matrix(1.00, 0.00, -0.00, -1.00, 63.9, 480.8)"> </text><text xml:space="preserve" font-family="GillSans,Gill Sans" font-size="38.0" fill="#FF3156" transform="matrix(1.00, 0.00, -0.00, -1.00, 74.4, 480.8)"> </text><text xml:space="preserve" font-family="GillSans,Gill Sans" font-size="38.0" fill="#FF3156" transform="matrix(1.00, 0.00, -0.00, -1.00, 85.0, 480.8)"> </text><text xml:space="preserve" font-family="GillSans,Gill Sans" font-size="38.0" fill="#FF3156" transform="matrix(1.00, 0.00, -0.00, -1.00, 95.5, 480.8)">l</text><text xml:space="preserve" font-family="GillSans,Gill Sans" font-size="38.0" fill="#FF3156" transform="matrix(1.00, 0.00, -0.00, -1.00, 103.9, 480.8)">o</text><text xml:space="preserve" font-family="GillSans,Gill Sans" font-size="38.0" fill="#FF3156" transform="matrix(1.00, 0.00, -0.00, -1.00, 124.8, 480.8)">c</text><text xml:space="preserve" font-family="GillSans,Gill Sans" font-size="38.0" fill="#FF3156" transform="matrix(1.00, 0.00, -0.00, -1.00, 141.5, 480.8)">a</text><text xml:space="preserve" font-family="GillSans,Gill Sans" font-size="38.0" fill="#FF3156" transform="matrix(1.00, 0.00, -0.00, -1.00, 157.7, 480.8)">t</text><text xml:space="preserve" font-family="GillSans,Gill Sans" font-size="38.0" fill="#FF3156" transform="matrix(1.00, 0.00, -0.00, -1.00, 170.3, 480.8)">i</text><text xml:space="preserve" font-family="GillSans,Gill Sans" font-size="38.0" fill="#FF3156" transform="matrix(1.00, 0.00, -0.00, -1.00, 178.7, 480.8)">o</text><text xml:space="preserve" font-family="GillSans,Gill Sans" font-size="38.0" fill="#FF3156" transform="matrix(1.00, 0.00, -0.00, -1.00, 199.6, 480.8)">n</text><text xml:space="preserve" font-family="GillSans,Gill Sans" font-size="38.0" fill="#FF3156" transform="matrix(1.00, 0.00, -0.00, -1.00, 218.6, 480.8)"> </text><text xml:space="preserve" font-family="GillSans,Gill Sans" font-size="38.0" fill="#FF3156" transform="matrix(1.00, 0.00, -0.00, -1.00, 229.2, 480.8)">~</text><text xml:space="preserve" font-family="GillSans,Gill Sans" font-size="38.0" fill="#FF3156" transform="matrix(1.00, 0.00, -0.00, -1.00, 251.3, 480.8)">*</text><text xml:space="preserve" font-family="GillSans,Gill Sans" font-size="38.0" fill="#FF3156" transform="matrix(1.00, 0.00, -0.00, -1.00, 267.2, 480.8)"> </text><text xml:space="preserve" font-family="GillSans,Gill Sans" font-size="38.0" fill="#FF3156" transform="matrix(1.00, 0.00, -0.00, -1.00, 277.7, 480.8)">\</text><text xml:space="preserve" font-family="GillSans,Gill Sans" font-size="38.0" fill="#FF3156" transform="matrix(1.00, 0.00, -0.00, -1.00, 288.4, 480.8)">.</text><text xml:space="preserve" font-family="GillSans,Gill Sans" font-size="38.0" fill="#FF3156" transform="matrix(1.00, 0.00, -0.00, -1.00, 296.7, 480.8)">(</text><text xml:space="preserve" font-family="GillSans,Gill Sans" font-size="38.0" fill="#FF3156" transform="matrix(1.00, 0.00, -0.00, -1.00, 309.0, 480.8)">g</text><text xml:space="preserve" font-family="GillSans,Gill Sans" font-size="38.0" fill="#FF3156" transform="matrix(1.00, 0.00, -0.00, -1.00, 325.2, 480.8)">i</text><text xml:space="preserve" font-family="GillSans,Gill Sans" font-size="38.0" fill="#FF3156" transform="matrix(1.00, 0.00, -0.00, -1.00, 333.6, 480.8)">f</text><text xml:space="preserve" font-family="GillSans,Gill Sans" font-size="38.0" fill="#FF3156" transform="matrix(1.00, 0.00, -0.00, -1.00, 343.1, 480.8)">|</text><text xml:space="preserve" font-family="GillSans,Gill Sans" font-size="38.0" fill="#FF3156" transform="matrix(1.00, 0.00, -0.00, -1.00, 352.9, 480.8)">i</text><text xml:space="preserve" font-family="GillSans,Gill Sans" font-size="38.0" fill="#FF3156" transform="matrix(1.00, 0.00, -0.00, -1.00, 361.3, 480.8)">c</text><text xml:space="preserve" font-family="GillSans,Gill Sans" font-size="38.0" fill="#FF3156" transform="matrix(1.00, 0.00, -0.00, -1.00, 377.9, 480.8)">o</text><text xml:space="preserve" font-family="GillSans,Gill Sans" font-size="38.0" fill="#FF3156" transform="matrix(1.00, 0.00, -0.00, -1.00, 398.9, 480.8)">|</text><text xml:space="preserve" font-family="GillSans,Gill Sans" font-size="38.0" fill="#FF3156" transform="matrix(1.00, 0.00, -0.00, -1.00, 408.7, 480.8)">j</text><text xml:space="preserve" font-family="GillSans,Gill Sans" font-size="38.0" fill="#FF3156" transform="matrix(1.00, 0.00, -0.00, -1.00, 417.1, 480.8)">p</text><text xml:space="preserve" font-family="GillSans,Gill Sans" font-size="38.0" fill="#FF3156" transform="matrix(1.00, 0.00, -0.00, -1.00, 436.1, 480.8)">e</text><text xml:space="preserve" font-family="GillSans,Gill Sans" font-size="38.0" fill="#FF3156" transform="matrix(1.00, 0.00, -0.00, -1.00, 454.3, 480.8)">?</text><text xml:space="preserve" font-family="GillSans,Gill Sans" font-size="38.0" fill="#FF3156" transform="matrix(1.00, 0.00, -0.00, -1.00, 466.9, 480.8)">g</text><text xml:space="preserve" font-family="GillSans,Gill Sans" font-size="38.0" fill="#FF3156" transform="matrix(1.00, 0.00, -0.00, -1.00, 483.1, 480.8)">|</text><text xml:space="preserve" font-family="GillSans,Gill Sans" font-size="38.0" fill="#FF3156" transform="matrix(1.00, 0.00, -0.00, -1.00, 493.0, 480.8)">p</text><text xml:space="preserve" font-family="GillSans,Gill Sans" font-size="38.0" fill="#FF3156" transform="matrix(1.00, 0.00, -0.00, -1.00, 512.0, 480.8)">n</text><text xml:space="preserve" font-family="GillSans,Gill Sans" font-size="38.0" fill="#FF3156" transform="matrix(1.00, 0.00, -0.00, -1.00, 531.0, 480.8)">g</text><text xml:space="preserve" font-family="GillSans,Gill Sans" font-size="38.0" fill="#FF3156" transform="matrix(1.00, 0.00, -0.00, -1.00, 547.2, 480.8)">)</text><text xml:space="preserve" font-family="GillSans,Gill Sans" font-size="38.0" fill="#FF3156" transform="matrix(1.00, 0.00, -0.00, -1.00, 559.5, 480.8)">(</text><text xml:space="preserve" font-family="GillSans,Gill Sans" font-size="38.0" fill="#FF3156" transform="matrix(1.00, 0.00, -0.00, -1.00, 571.8, 480.8)">\</text><text xml:space="preserve" font-family="GillSans,Gill Sans" font-size="38.0" fill="#FF3156" transform="matrix(1.00, 0.00, -0.00, -1.00, 582.5, 480.8)">?</text><text xml:space="preserve" font-family="GillSans,Gill Sans" font-size="38.0" fill="#FF3156" transform="matrix(1.00, 0.00, -0.00, -1.00, 595.1, 480.8)">[</text><text xml:space="preserve" font-family="GillSans,Gill Sans" font-size="38.0" fill="#FF3156" transform="matrix(1.00, 0.00, -0.00, -1.00, 607.8, 480.8)">0</text><text xml:space="preserve" font-family="GillSans,Gill Sans" font-size="38.0" fill="#FF3156" transform="matrix(1.00, 0.00, -0.00, -1.00, 626.8, 480.8)">-</text><text xml:space="preserve" font-family="GillSans,Gill Sans" font-size="38.0" fill="#FF3156" transform="matrix(1.00, 0.00, -0.00, -1.00, 639.1, 480.8)">9</text><text xml:space="preserve" font-family="GillSans,Gill Sans" font-size="38.0" fill="#FF3156" transform="matrix(1.00, 0.00, -0.00, -1.00, 658.1, 480.8)">]</text><text xml:space="preserve" font-family="GillSans,Gill Sans" font-size="38.0" fill="#FF3156" transform="matrix(1.00, 0.00, -0.00, -1.00, 670.7, 480.8)">+</text><text xml:space="preserve" font-family="GillSans,Gill Sans" font-size="38.0" fill="#FF3156" transform="matrix(1.00, 0.00, -0.00, -1.00, 692.9, 480.8)">)</text><text xml:space="preserve" font-family="GillSans,Gill Sans" font-size="38.0" fill="#FF3156" transform="matrix(1.00, 0.00, -0.00, -1.00, 705.2, 480.8)">?</text><text xml:space="preserve" font-family="GillSans,Gill Sans" font-size="38.0" fill="#FF3156" transform="matrix(1.00, 0.00, -0.00, -1.00, 717.8, 480.8)">$</text><text xml:space="preserve" font-family="GillSans,Gill Sans" font-size="38.0" fill="#FF3156" transform="matrix(1.00, 0.00, -0.00, -1.00, 738.4, 480.8)"> </text><text xml:space="preserve" font-family="GillSans,Gill Sans" font-size="38.0" fill="#FF3156" transform="matrix(1.00, 0.00, -0.00, -1.00, 749.0, 480.8)">{</text><text xml:space="preserve" font-family="GillSans,Gill Sans" font-size="38.0" fill="#FF3156" transform="matrix(1.00, 0.00, -0.00, -1.00, 53.3, 436.8)"> </text><text xml:space="preserve" font-family="GillSans,Gill Sans" font-size="38.0" fill="#FF3156" transform="matrix(1.00, 0.00, -0.00, -1.00, 63.9, 436.8)"> </text><text xml:space="preserve" font-family="GillSans,Gill Sans" font-size="38.0" fill="#FF3156" transform="matrix(1.00, 0.00, -0.00, -1.00, 74.4, 436.8)"> </text><text xml:space="preserve" font-family="GillSans,Gill Sans" font-size="38.0" fill="#FF3156" transform="matrix(1.00, 0.00, -0.00, -1.00, 85.0, 436.8)"> </text><text xml:space="preserve" font-family="GillSans,Gill Sans" font-size="38.0" fill="#FF3156" transform="matrix(1.00, 0.00, -0.00, -1.00, 183.3, 436.8)">e</text><text xml:space="preserve" font-family="GillSans,Gill Sans" font-size="38.0" fill="#FF3156" transform="matrix(1.00, 0.00, -0.00, -1.00, 201.5, 436.8)">x</text><text xml:space="preserve" font-family="GillSans,Gill Sans" font-size="38.0" fill="#FF3156" transform="matrix(1.00, 0.00, -0.00, -1.00, 220.5, 436.8)">p</text><text xml:space="preserve" font-family="GillSans,Gill Sans" font-size="38.0" fill="#FF3156" transform="matrix(1.00, 0.00, -0.00, -1.00, 239.5, 436.8)">i</text><text xml:space="preserve" font-family="GillSans,Gill Sans" font-size="38.0" fill="#FF3156" transform="matrix(1.00, 0.00, -0.00, -1.00, 247.8, 436.8)">r</text><text xml:space="preserve" font-family="GillSans,Gill Sans" font-size="38.0" fill="#FF3156" transform="matrix(1.00, 0.00, -0.00, -1.00, 262.1, 436.8)">e</text><text xml:space="preserve" font-family="GillSans,Gill Sans" font-size="38.0" fill="#FF3156" transform="matrix(1.00, 0.00, -0.00, -1.00, 280.3, 436.8)">s</text><text xml:space="preserve" font-family="GillSans,Gill Sans" font-size="38.0" fill="#00CF41" transform="matrix(1.00, 0.00, -0.00, -1.00, 443.3, 436.8)">1</text><text xml:space="preserve" font-family="GillSans,Gill Sans" font-size="38.0" fill="#00CF41" transform="matrix(1.00, 0.00, -0.00, -1.00, 462.3, 436.8)">w</text><text xml:space="preserve" font-family="GillSans,Gill Sans" font-size="38.0" fill="#FF3156" transform="matrix(1.00, 0.00, -0.00, -1.00, 489.7, 436.8)">;</text><text xml:space="preserve" font-family="GillSans,Gill Sans" font-size="38.0" fill="#FF3156" transform="matrix(1.00, 0.00, -0.00, -1.00, 53.3, 392.8)"> </text><text xml:space="preserve" font-family="GillSans,Gill Sans" font-size="38.0" fill="#FF3156" transform="matrix(1.00, 0.00, -0.00, -1.00, 63.9, 392.8)"> </text><text xml:space="preserve" font-family="GillSans,Gill Sans" font-size="38.0" fill="#FF3156" transform="matrix(1.00, 0.00, -0.00, -1.00, 74.4, 392.8)"> </text><text xml:space="preserve" font-family="GillSans,Gill Sans" font-size="38.0" fill="#FF3156" transform="matrix(1.00, 0.00, -0.00, -1.00, 85.0, 392.8)"> </text><text xml:space="preserve" font-family="GillSans,Gill Sans" font-size="38.0" fill="#FF3156" transform="matrix(1.00, 0.00, -0.00, -1.00, 95.5, 392.8)">}</text><text xml:space="preserve" font-family="GillSans,Gill Sans" font-size="38.0" fill="#FF3156" transform="matrix(1.00, 0.00, -0.00, -1.00, 53.3, 348.8)"> </text><text xml:space="preserve" font-family="GillSans,Gill Sans" font-size="38.0" fill="#FF3156" transform="matrix(1.00, 0.00, -0.00, -1.00, 63.9, 348.8)"> </text><text xml:space="preserve" font-family="GillSans,Gill Sans" font-size="38.0" fill="#FF3156" transform="matrix(1.00, 0.00, -0.00, -1.00, 74.4, 348.8)"> </text><text xml:space="preserve" font-family="GillSans,Gill Sans" font-size="38.0" fill="#FF3156" transform="matrix(1.00, 0.00, -0.00, -1.00, 85.0, 348.8)"> </text><text xml:space="preserve" font-family="GillSans,Gill Sans" font-size="38.0" fill="#FF3156" transform="matrix(1.00, 0.00, -0.00, -1.00, 53.3, 304.8)"> </text><text xml:space="preserve" font-family="GillSans,Gill Sans" font-size="38.0" fill="#FF3156" transform="matrix(1.00, 0.00, -0.00, -1.00, 63.9, 304.8)"> </text><text xml:space="preserve" font-family="GillSans,Gill Sans" font-size="38.0" fill="#FF3156" transform="matrix(1.00, 0.00, -0.00, -1.00, 74.4, 304.8)"> </text><text xml:space="preserve" font-family="GillSans,Gill Sans" font-size="38.0" fill="#FF3156" transform="matrix(1.00, 0.00, -0.00, -1.00, 85.0, 304.8)"> </text><text xml:space="preserve" font-family="GillSans,Gill Sans" font-size="38.0" fill="#FF3156" transform="matrix(1.00, 0.00, -0.00, -1.00, 95.5, 304.8)"> </text><text xml:space="preserve" font-family="GillSans,Gill Sans" font-size="38.0" fill="#FF3156" transform="matrix(1.00, 0.00, -0.00, -1.00, 106.1, 304.8)"> </text><text xml:space="preserve" font-family="GillSans,Gill Sans" font-size="38.0" fill="#FF3156" transform="matrix(1.00, 0.00, -0.00, -1.00, 116.6, 304.8)"> </text><text xml:space="preserve" font-family="GillSans,Gill Sans" font-size="38.0" fill="#FF3156" transform="matrix(1.00, 0.00, -0.00, -1.00, 127.2, 304.8)">l</text><text xml:space="preserve" font-family="GillSans,Gill Sans" font-size="38.0" fill="#FF3156" transform="matrix(1.00, 0.00, -0.00, -1.00, 135.5, 304.8)">o</text><text xml:space="preserve" font-family="GillSans,Gill Sans" font-size="38.0" fill="#FF3156" transform="matrix(1.00, 0.00, -0.00, -1.00, 156.5, 304.8)">c</text><text xml:space="preserve" font-family="GillSans,Gill Sans" font-size="38.0" fill="#FF3156" transform="matrix(1.00, 0.00, -0.00, -1.00, 173.1, 304.8)">a</text><text xml:space="preserve" font-family="GillSans,Gill Sans" font-size="38.0" fill="#FF3156" transform="matrix(1.00, 0.00, -0.00, -1.00, 189.3, 304.8)">t</text><text xml:space="preserve" font-family="GillSans,Gill Sans" font-size="38.0" fill="#FF3156" transform="matrix(1.00, 0.00, -0.00, -1.00, 202.0, 304.8)">i</text><text xml:space="preserve" font-family="GillSans,Gill Sans" font-size="38.0" fill="#FF3156" transform="matrix(1.00, 0.00, -0.00, -1.00, 210.3, 304.8)">o</text><text xml:space="preserve" font-family="GillSans,Gill Sans" font-size="38.0" fill="#FF3156" transform="matrix(1.00, 0.00, -0.00, -1.00, 231.3, 304.8)">n</text><text xml:space="preserve" font-family="GillSans,Gill Sans" font-size="38.0" fill="#FF3156" transform="matrix(1.00, 0.00, -0.00, -1.00, 250.3, 304.8)"> </text><text xml:space="preserve" font-family="GillSans,Gill Sans" font-size="38.0" fill="#FF3156" transform="matrix(1.00, 0.00, -0.00, -1.00, 260.8, 304.8)">~</text><text xml:space="preserve" font-family="GillSans,Gill Sans" font-size="38.0" fill="#FF3156" transform="matrix(1.00, 0.00, -0.00, -1.00, 283.0, 304.8)">*</text><text xml:space="preserve" font-family="GillSans,Gill Sans" font-size="38.0" fill="#FF3156" transform="matrix(1.00, 0.00, -0.00, -1.00, 298.8, 304.8)"> </text><text xml:space="preserve" font-family="GillSans,Gill Sans" font-size="38.0" fill="#FF3156" transform="matrix(1.00, 0.00, -0.00, -1.00, 309.4, 304.8)">\</text><text xml:space="preserve" font-family="GillSans,Gill Sans" font-size="38.0" fill="#FF3156" transform="matrix(1.00, 0.00, -0.00, -1.00, 320.0, 304.8)">.</text><text xml:space="preserve" font-family="GillSans,Gill Sans" font-size="38.0" fill="#FF3156" transform="matrix(1.00, 0.00, -0.00, -1.00, 328.4, 304.8)">(</text><text xml:space="preserve" font-family="GillSans,Gill Sans" font-size="38.0" fill="#FF3156" transform="matrix(1.00, 0.00, -0.00, -1.00, 340.7, 304.8)">c</text><text xml:space="preserve" font-family="GillSans,Gill Sans" font-size="38.0" fill="#FF3156" transform="matrix(1.00, 0.00, -0.00, -1.00, 357.3, 304.8)">s</text><text xml:space="preserve" font-family="GillSans,Gill Sans" font-size="38.0" fill="#FF3156" transform="matrix(1.00, 0.00, -0.00, -1.00, 371.9, 304.8)">s</text><text xml:space="preserve" font-family="GillSans,Gill Sans" font-size="38.0" fill="#FF3156" transform="matrix(1.00, 0.00, -0.00, -1.00, 386.5, 304.8)">|</text><text xml:space="preserve" font-family="GillSans,Gill Sans" font-size="38.0" fill="#FF3156" transform="matrix(1.00, 0.00, -0.00, -1.00, 396.4, 304.8)">j</text><text xml:space="preserve" font-family="GillSans,Gill Sans" font-size="38.0" fill="#FF3156" transform="matrix(1.00, 0.00, -0.00, -1.00, 404.7, 304.8)">s</text><text xml:space="preserve" font-family="GillSans,Gill Sans" font-size="38.0" fill="#FF3156" transform="matrix(1.00, 0.00, -0.00, -1.00, 419.4, 304.8)">)</text><text xml:space="preserve" font-family="GillSans,Gill Sans" font-size="38.0" fill="#FF3156" transform="matrix(1.00, 0.00, -0.00, -1.00, 431.7, 304.8)">$</text><text xml:space="preserve" font-family="GillSans,Gill Sans" font-size="38.0" fill="#FF3156" transform="matrix(1.00, 0.00, -0.00, -1.00, 452.2, 304.8)"> </text><text xml:space="preserve" font-family="GillSans,Gill Sans" font-size="38.0" fill="#FF3156" transform="matrix(1.00, 0.00, -0.00, -1.00, 462.8, 304.8)">{</text><text xml:space="preserve" font-family="GillSans,Gill Sans" font-size="38.0" fill="#FF3156" transform="matrix(1.00, 0.00, -0.00, -1.00, 53.3, 260.8)"> </text><text xml:space="preserve" font-family="GillSans,Gill Sans" font-size="38.0" fill="#FF3156" transform="matrix(1.00, 0.00, -0.00, -1.00, 63.9, 260.8)"> </text><text xml:space="preserve" font-family="GillSans,Gill Sans" font-size="38.0" fill="#FF3156" transform="matrix(1.00, 0.00, -0.00, -1.00, 74.4, 260.8)"> </text><text xml:space="preserve" font-family="GillSans,Gill Sans" font-size="38.0" fill="#FF3156" transform="matrix(1.00, 0.00, -0.00, -1.00, 85.0, 260.8)"> </text><text xml:space="preserve" font-family="GillSans,Gill Sans" font-size="38.0" fill="#FF3156" transform="matrix(1.00, 0.00, -0.00, -1.00, 183.3, 260.8)">e</text><text xml:space="preserve" font-family="GillSans,Gill Sans" font-size="38.0" fill="#FF3156" transform="matrix(1.00, 0.00, -0.00, -1.00, 201.5, 260.8)">x</text><text xml:space="preserve" font-family="GillSans,Gill Sans" font-size="38.0" fill="#FF3156" transform="matrix(1.00, 0.00, -0.00, -1.00, 220.5, 260.8)">p</text><text xml:space="preserve" font-family="GillSans,Gill Sans" font-size="38.0" fill="#FF3156" transform="matrix(1.00, 0.00, -0.00, -1.00, 239.5, 260.8)">i</text><text xml:space="preserve" font-family="GillSans,Gill Sans" font-size="38.0" fill="#FF3156" transform="matrix(1.00, 0.00, -0.00, -1.00, 247.8, 260.8)">r</text><text xml:space="preserve" font-family="GillSans,Gill Sans" font-size="38.0" fill="#FF3156" transform="matrix(1.00, 0.00, -0.00, -1.00, 262.1, 260.8)">e</text><text xml:space="preserve" font-family="GillSans,Gill Sans" font-size="38.0" fill="#FF3156" transform="matrix(1.00, 0.00, -0.00, -1.00, 280.3, 260.8)">s</text><text xml:space="preserve" font-family="GillSans,Gill Sans" font-size="38.0" fill="#00CF41" transform="matrix(1.00, 0.00, -0.00, -1.00, 443.3, 260.8)">1</text><text xml:space="preserve" font-family="GillSans,Gill Sans" font-size="38.0" fill="#00CF41" transform="matrix(1.00, 0.00, -0.00, -1.00, 462.3, 260.8)">d</text><text xml:space="preserve" font-family="GillSans,Gill Sans" font-size="38.0" fill="#FF3156" transform="matrix(1.00, 0.00, -0.00, -1.00, 481.7, 260.8)">;</text><text xml:space="preserve" font-family="GillSans,Gill Sans" font-size="38.0" fill="#FF3156" transform="matrix(1.00, 0.00, -0.00, -1.00, 53.3, 216.8)"> </text><text xml:space="preserve" font-family="GillSans,Gill Sans" font-size="38.0" fill="#FF3156" transform="matrix(1.00, 0.00, -0.00, -1.00, 63.9, 216.8)"> </text><text xml:space="preserve" font-family="GillSans,Gill Sans" font-size="38.0" fill="#FF3156" transform="matrix(1.00, 0.00, -0.00, -1.00, 74.4, 216.8)"> </text><text xml:space="preserve" font-family="GillSans,Gill Sans" font-size="38.0" fill="#FF3156" transform="matrix(1.00, 0.00, -0.00, -1.00, 85.0, 216.8)"> </text><text xml:space="preserve" font-family="GillSans,Gill Sans" font-size="38.0" fill="#FF3156" transform="matrix(1.00, 0.00, -0.00, -1.00, 95.5, 216.8)">}</text><text xml:space="preserve" font-family="GillSans,Gill Sans" font-size="38.0" fill="#FF3156" transform="matrix(1.00, 0.00, -0.00, -1.00, 53.3, 172.8)"> </text><text xml:space="preserve" font-family="GillSans,Gill Sans" font-size="38.0" fill="#FF3156" transform="matrix(1.00, 0.00, -0.00, -1.00, 63.9, 172.8)"> </text><text xml:space="preserve" font-family="GillSans,Gill Sans" font-size="38.0" fill="#FF3156" transform="matrix(1.00, 0.00, -0.00, -1.00, 74.4, 172.8)"> </text><text xml:space="preserve" font-family="GillSans,Gill Sans" font-size="38.0" fill="#FF3156" transform="matrix(1.00, 0.00, -0.00, -1.00, 85.0, 172.8)"> </text><text xml:space="preserve" font-family="GillSans,Gill Sans" font-size="38.0" fill="#000000" transform="matrix(1.00, 0.00, -0.00, -1.00, 53.3, 128.8)"> </text><text xml:space="preserve" font-family="GillSans,Gill Sans" font-size="38.0" fill="#000000" transform="matrix(1.00, 0.00, -0.00, -1.00, 63.9, 128.8)"> </text><text xml:space="preserve" font-family="GillSans,Gill Sans" font-size="38.0" fill="#000000" transform="matrix(1.00, 0.00, -0.00, -1.00, 74.4, 128.8)"> </text><text xml:space="preserve" font-family="GillSans,Gill Sans" font-size="38.0" fill="#000000" transform="matrix(1.00, 0.00, -0.00, -1.00, 85.0, 128.8)"> </text><text xml:space="preserve" font-family="GillSans,Gill Sans" font-size="38.0" fill="#000000" transform="matrix(1.00, 0.00, -0.00, -1.00, 95.5, 128.8)">.</text><text xml:space="preserve" font-family="GillSans,Gill Sans" font-size="38.0" fill="#000000" transform="matrix(1.00, 0.00, -0.00, -1.00, 103.9, 128.8)">.</text><text xml:space="preserve" font-family="GillSans,Gill Sans" font-size="38.0" fill="#000000" transform="matrix(1.00, 0.00, -0.00, -1.00, 112.2, 128.8)">.</text><text xml:space="preserve" font-family="GillSans,Gill Sans" font-size="38.0" fill="#000000" transform="matrix(1.00, 0.00, -0.00, -1.00, 53.3, 40.8)">}</text><image xlink:href="486D38D2FE34CDABDD6F2055D8E38922.png" width="2941.00" height="609.00" transform="matrix(0.20, 0.00, -0.00, -0.20, 402.0, 747.0)"></image></g></svg>